<?xml version="1.0" encoding="utf-8" standalone="no"?>
<!DOCTYPE svg PUBLIC "-//W3C//DTD SVG 1.1//EN"
  "http://www.w3.org/Graphics/SVG/1.1/DTD/svg11.dtd">
<svg xmlns:xlink="http://www.w3.org/1999/xlink" width="720pt" height="216pt" viewBox="0 0 720 216" xmlns="http://www.w3.org/2000/svg" version="1.1">
 <metadata>
  <rdf:RDF xmlns:dc="http://purl.org/dc/elements/1.1/" xmlns:cc="http://creativecommons.org/ns#" xmlns:rdf="http://www.w3.org/1999/02/22-rdf-syntax-ns#">
   <cc:Work>
    <dc:type rdf:resource="http://purl.org/dc/dcmitype/StillImage"/>
    <dc:date>2025-09-06T13:18:07.075876</dc:date>
    <dc:format>image/svg+xml</dc:format>
    <dc:creator>
     <cc:Agent>
      <dc:title>Matplotlib v3.9.2, https://matplotlib.org/</dc:title>
     </cc:Agent>
    </dc:creator>
   </cc:Work>
  </rdf:RDF>
 </metadata>
 <defs>
  <style type="text/css">*{stroke-linejoin: round; stroke-linecap: butt}</style>
 </defs>
 <g id="figure_1">
  <g id="patch_1">
   <path d="M 0 216 
L 720 216 
L 720 0 
L 0 0 
z
" style="fill: #ffffff"/>
  </g>
  <g id="axes_1">
   <g id="patch_2">
    <path d="M 49.96 172.34 
L 370.02 172.34 
L 370.02 29.76 
L 49.96 29.76 
z
" style="fill: #ffffff"/>
   </g>
   <g id="matplotlib.axis_1">
    <g id="xtick_1">
     <g id="line2d_1">
      <defs>
       <path id="m2155e7eb3c" d="M 0 0 
L 0 4 
" style="stroke: #000000; stroke-width: 0.8"/>
      </defs>
      <g>
       <use xlink:href="#m2155e7eb3c" x="64.508182" y="172.34" style="stroke: #000000; stroke-width: 0.8"/>
      </g>
     </g>
     <g id="text_1">
      <!-- −0.5 -->
      <g transform="translate(52.366776 187.438437) scale(0.1 -0.1)">
       <defs>
        <path id="DejaVuSans-2212" d="M 678 2272 
L 4684 2272 
L 4684 1741 
L 678 1741 
L 678 2272 
z
" transform="scale(0.015625)"/>
        <path id="DejaVuSans-30" d="M 2034 4250 
Q 1547 4250 1301 3770 
Q 1056 3291 1056 2328 
Q 1056 1369 1301 889 
Q 1547 409 2034 409 
Q 2525 409 2770 889 
Q 3016 1369 3016 2328 
Q 3016 3291 2770 3770 
Q 2525 4250 2034 4250 
z
M 2034 4750 
Q 2819 4750 3233 4129 
Q 3647 3509 3647 2328 
Q 3647 1150 3233 529 
Q 2819 -91 2034 -91 
Q 1250 -91 836 529 
Q 422 1150 422 2328 
Q 422 3509 836 4129 
Q 1250 4750 2034 4750 
z
" transform="scale(0.015625)"/>
        <path id="DejaVuSans-2e" d="M 684 794 
L 1344 794 
L 1344 0 
L 684 0 
L 684 794 
z
" transform="scale(0.015625)"/>
        <path id="DejaVuSans-35" d="M 691 4666 
L 3169 4666 
L 3169 4134 
L 1269 4134 
L 1269 2991 
Q 1406 3038 1543 3061 
Q 1681 3084 1819 3084 
Q 2600 3084 3056 2656 
Q 3513 2228 3513 1497 
Q 3513 744 3044 326 
Q 2575 -91 1722 -91 
Q 1428 -91 1123 -41 
Q 819 9 494 109 
L 494 744 
Q 775 591 1075 516 
Q 1375 441 1709 441 
Q 2250 441 2565 725 
Q 2881 1009 2881 1497 
Q 2881 1984 2565 2268 
Q 2250 2553 1709 2553 
Q 1456 2553 1204 2497 
Q 953 2441 691 2322 
L 691 4666 
z
" transform="scale(0.015625)"/>
       </defs>
       <use xlink:href="#DejaVuSans-2212"/>
       <use xlink:href="#DejaVuSans-30" x="83.789062"/>
       <use xlink:href="#DejaVuSans-2e" x="147.412109"/>
       <use xlink:href="#DejaVuSans-35" x="179.199219"/>
      </g>
     </g>
    </g>
    <g id="xtick_2">
     <g id="line2d_2">
      <g>
       <use xlink:href="#m2155e7eb3c" x="161.496061" y="172.34" style="stroke: #000000; stroke-width: 0.8"/>
      </g>
     </g>
     <g id="text_2">
      <!-- 0.0 -->
      <g transform="translate(153.544498 187.438437) scale(0.1 -0.1)">
       <use xlink:href="#DejaVuSans-30"/>
       <use xlink:href="#DejaVuSans-2e" x="63.623047"/>
       <use xlink:href="#DejaVuSans-30" x="95.410156"/>
      </g>
     </g>
    </g>
    <g id="xtick_3">
     <g id="line2d_3">
      <g>
       <use xlink:href="#m2155e7eb3c" x="258.483939" y="172.34" style="stroke: #000000; stroke-width: 0.8"/>
      </g>
     </g>
     <g id="text_3">
      <!-- 0.5 -->
      <g transform="translate(250.532377 187.438437) scale(0.1 -0.1)">
       <use xlink:href="#DejaVuSans-30"/>
       <use xlink:href="#DejaVuSans-2e" x="63.623047"/>
       <use xlink:href="#DejaVuSans-35" x="95.410156"/>
      </g>
     </g>
    </g>
    <g id="xtick_4">
     <g id="line2d_4">
      <g>
       <use xlink:href="#m2155e7eb3c" x="355.471818" y="172.34" style="stroke: #000000; stroke-width: 0.8"/>
      </g>
     </g>
     <g id="text_4">
      <!-- 1.0 -->
      <g transform="translate(347.520256 187.438437) scale(0.1 -0.1)">
       <defs>
        <path id="DejaVuSans-31" d="M 794 531 
L 1825 531 
L 1825 4091 
L 703 3866 
L 703 4441 
L 1819 4666 
L 2450 4666 
L 2450 531 
L 3481 531 
L 3481 0 
L 794 0 
L 794 531 
z
" transform="scale(0.015625)"/>
       </defs>
       <use xlink:href="#DejaVuSans-31"/>
       <use xlink:href="#DejaVuSans-2e" x="63.623047"/>
       <use xlink:href="#DejaVuSans-30" x="95.410156"/>
      </g>
     </g>
    </g>
    <g id="text_5">
     <!-- Time (s) -->
     <g transform="translate(189.661094 201.116562) scale(0.1 -0.1)">
      <defs>
       <path id="DejaVuSans-54" d="M -19 4666 
L 3928 4666 
L 3928 4134 
L 2272 4134 
L 2272 0 
L 1638 0 
L 1638 4134 
L -19 4134 
L -19 4666 
z
" transform="scale(0.015625)"/>
       <path id="DejaVuSans-69" d="M 603 3500 
L 1178 3500 
L 1178 0 
L 603 0 
L 603 3500 
z
M 603 4863 
L 1178 4863 
L 1178 4134 
L 603 4134 
L 603 4863 
z
" transform="scale(0.015625)"/>
       <path id="DejaVuSans-6d" d="M 3328 2828 
Q 3544 3216 3844 3400 
Q 4144 3584 4550 3584 
Q 5097 3584 5394 3201 
Q 5691 2819 5691 2113 
L 5691 0 
L 5113 0 
L 5113 2094 
Q 5113 2597 4934 2840 
Q 4756 3084 4391 3084 
Q 3944 3084 3684 2787 
Q 3425 2491 3425 1978 
L 3425 0 
L 2847 0 
L 2847 2094 
Q 2847 2600 2669 2842 
Q 2491 3084 2119 3084 
Q 1678 3084 1418 2786 
Q 1159 2488 1159 1978 
L 1159 0 
L 581 0 
L 581 3500 
L 1159 3500 
L 1159 2956 
Q 1356 3278 1631 3431 
Q 1906 3584 2284 3584 
Q 2666 3584 2933 3390 
Q 3200 3197 3328 2828 
z
" transform="scale(0.015625)"/>
       <path id="DejaVuSans-65" d="M 3597 1894 
L 3597 1613 
L 953 1613 
Q 991 1019 1311 708 
Q 1631 397 2203 397 
Q 2534 397 2845 478 
Q 3156 559 3463 722 
L 3463 178 
Q 3153 47 2828 -22 
Q 2503 -91 2169 -91 
Q 1331 -91 842 396 
Q 353 884 353 1716 
Q 353 2575 817 3079 
Q 1281 3584 2069 3584 
Q 2775 3584 3186 3129 
Q 3597 2675 3597 1894 
z
M 3022 2063 
Q 3016 2534 2758 2815 
Q 2500 3097 2075 3097 
Q 1594 3097 1305 2825 
Q 1016 2553 972 2059 
L 3022 2063 
z
" transform="scale(0.015625)"/>
       <path id="DejaVuSans-20" transform="scale(0.015625)"/>
       <path id="DejaVuSans-28" d="M 1984 4856 
Q 1566 4138 1362 3434 
Q 1159 2731 1159 2009 
Q 1159 1288 1364 580 
Q 1569 -128 1984 -844 
L 1484 -844 
Q 1016 -109 783 600 
Q 550 1309 550 2009 
Q 550 2706 781 3412 
Q 1013 4119 1484 4856 
L 1984 4856 
z
" transform="scale(0.015625)"/>
       <path id="DejaVuSans-73" d="M 2834 3397 
L 2834 2853 
Q 2591 2978 2328 3040 
Q 2066 3103 1784 3103 
Q 1356 3103 1142 2972 
Q 928 2841 928 2578 
Q 928 2378 1081 2264 
Q 1234 2150 1697 2047 
L 1894 2003 
Q 2506 1872 2764 1633 
Q 3022 1394 3022 966 
Q 3022 478 2636 193 
Q 2250 -91 1575 -91 
Q 1294 -91 989 -36 
Q 684 19 347 128 
L 347 722 
Q 666 556 975 473 
Q 1284 391 1588 391 
Q 1994 391 2212 530 
Q 2431 669 2431 922 
Q 2431 1156 2273 1281 
Q 2116 1406 1581 1522 
L 1381 1569 
Q 847 1681 609 1914 
Q 372 2147 372 2553 
Q 372 3047 722 3315 
Q 1072 3584 1716 3584 
Q 2034 3584 2315 3537 
Q 2597 3491 2834 3397 
z
" transform="scale(0.015625)"/>
       <path id="DejaVuSans-29" d="M 513 4856 
L 1013 4856 
Q 1481 4119 1714 3412 
Q 1947 2706 1947 2009 
Q 1947 1309 1714 600 
Q 1481 -109 1013 -844 
L 513 -844 
Q 928 -128 1133 580 
Q 1338 1288 1338 2009 
Q 1338 2731 1133 3434 
Q 928 4138 513 4856 
z
" transform="scale(0.015625)"/>
      </defs>
      <use xlink:href="#DejaVuSans-54"/>
      <use xlink:href="#DejaVuSans-69" x="57.958984"/>
      <use xlink:href="#DejaVuSans-6d" x="85.742188"/>
      <use xlink:href="#DejaVuSans-65" x="183.154297"/>
      <use xlink:href="#DejaVuSans-20" x="244.677734"/>
      <use xlink:href="#DejaVuSans-28" x="276.464844"/>
      <use xlink:href="#DejaVuSans-73" x="315.478516"/>
      <use xlink:href="#DejaVuSans-29" x="367.578125"/>
     </g>
    </g>
   </g>
   <g id="matplotlib.axis_2">
    <g id="ytick_1">
     <g id="line2d_5">
      <defs>
       <path id="m5d6df934ce" d="M 0 0 
L -4 0 
" style="stroke: #000000; stroke-width: 0.8"/>
      </defs>
      <g>
       <use xlink:href="#m5d6df934ce" x="49.96" y="165.859091" style="stroke: #000000; stroke-width: 0.8"/>
      </g>
     </g>
     <g id="text_6">
      <!-- 0.0 -->
      <g transform="translate(26.556875 169.65831) scale(0.1 -0.1)">
       <use xlink:href="#DejaVuSans-30"/>
       <use xlink:href="#DejaVuSans-2e" x="63.623047"/>
       <use xlink:href="#DejaVuSans-30" x="95.410156"/>
      </g>
     </g>
    </g>
    <g id="ytick_2">
     <g id="line2d_6">
      <g>
       <use xlink:href="#m5d6df934ce" x="49.96" y="46.891493" style="stroke: #000000; stroke-width: 0.8"/>
      </g>
     </g>
     <g id="text_7">
      <!-- 0.5 -->
      <g transform="translate(26.556875 50.690712) scale(0.1 -0.1)">
       <use xlink:href="#DejaVuSans-30"/>
       <use xlink:href="#DejaVuSans-2e" x="63.623047"/>
       <use xlink:href="#DejaVuSans-35" x="95.410156"/>
      </g>
     </g>
    </g>
    <g id="text_8">
     <!-- Amplitude (a.u.) -->
     <g transform="translate(20.477188 141.574219) rotate(-90) scale(0.1 -0.1)">
      <defs>
       <path id="DejaVuSans-41" d="M 2188 4044 
L 1331 1722 
L 3047 1722 
L 2188 4044 
z
M 1831 4666 
L 2547 4666 
L 4325 0 
L 3669 0 
L 3244 1197 
L 1141 1197 
L 716 0 
L 50 0 
L 1831 4666 
z
" transform="scale(0.015625)"/>
       <path id="DejaVuSans-70" d="M 1159 525 
L 1159 -1331 
L 581 -1331 
L 581 3500 
L 1159 3500 
L 1159 2969 
Q 1341 3281 1617 3432 
Q 1894 3584 2278 3584 
Q 2916 3584 3314 3078 
Q 3713 2572 3713 1747 
Q 3713 922 3314 415 
Q 2916 -91 2278 -91 
Q 1894 -91 1617 61 
Q 1341 213 1159 525 
z
M 3116 1747 
Q 3116 2381 2855 2742 
Q 2594 3103 2138 3103 
Q 1681 3103 1420 2742 
Q 1159 2381 1159 1747 
Q 1159 1113 1420 752 
Q 1681 391 2138 391 
Q 2594 391 2855 752 
Q 3116 1113 3116 1747 
z
" transform="scale(0.015625)"/>
       <path id="DejaVuSans-6c" d="M 603 4863 
L 1178 4863 
L 1178 0 
L 603 0 
L 603 4863 
z
" transform="scale(0.015625)"/>
       <path id="DejaVuSans-74" d="M 1172 4494 
L 1172 3500 
L 2356 3500 
L 2356 3053 
L 1172 3053 
L 1172 1153 
Q 1172 725 1289 603 
Q 1406 481 1766 481 
L 2356 481 
L 2356 0 
L 1766 0 
Q 1100 0 847 248 
Q 594 497 594 1153 
L 594 3053 
L 172 3053 
L 172 3500 
L 594 3500 
L 594 4494 
L 1172 4494 
z
" transform="scale(0.015625)"/>
       <path id="DejaVuSans-75" d="M 544 1381 
L 544 3500 
L 1119 3500 
L 1119 1403 
Q 1119 906 1312 657 
Q 1506 409 1894 409 
Q 2359 409 2629 706 
Q 2900 1003 2900 1516 
L 2900 3500 
L 3475 3500 
L 3475 0 
L 2900 0 
L 2900 538 
Q 2691 219 2414 64 
Q 2138 -91 1772 -91 
Q 1169 -91 856 284 
Q 544 659 544 1381 
z
M 1991 3584 
L 1991 3584 
z
" transform="scale(0.015625)"/>
       <path id="DejaVuSans-64" d="M 2906 2969 
L 2906 4863 
L 3481 4863 
L 3481 0 
L 2906 0 
L 2906 525 
Q 2725 213 2448 61 
Q 2172 -91 1784 -91 
Q 1150 -91 751 415 
Q 353 922 353 1747 
Q 353 2572 751 3078 
Q 1150 3584 1784 3584 
Q 2172 3584 2448 3432 
Q 2725 3281 2906 2969 
z
M 947 1747 
Q 947 1113 1208 752 
Q 1469 391 1925 391 
Q 2381 391 2643 752 
Q 2906 1113 2906 1747 
Q 2906 2381 2643 2742 
Q 2381 3103 1925 3103 
Q 1469 3103 1208 2742 
Q 947 2381 947 1747 
z
" transform="scale(0.015625)"/>
       <path id="DejaVuSans-61" d="M 2194 1759 
Q 1497 1759 1228 1600 
Q 959 1441 959 1056 
Q 959 750 1161 570 
Q 1363 391 1709 391 
Q 2188 391 2477 730 
Q 2766 1069 2766 1631 
L 2766 1759 
L 2194 1759 
z
M 3341 1997 
L 3341 0 
L 2766 0 
L 2766 531 
Q 2569 213 2275 61 
Q 1981 -91 1556 -91 
Q 1019 -91 701 211 
Q 384 513 384 1019 
Q 384 1609 779 1909 
Q 1175 2209 1959 2209 
L 2766 2209 
L 2766 2266 
Q 2766 2663 2505 2880 
Q 2244 3097 1772 3097 
Q 1472 3097 1187 3025 
Q 903 2953 641 2809 
L 641 3341 
Q 956 3463 1253 3523 
Q 1550 3584 1831 3584 
Q 2591 3584 2966 3190 
Q 3341 2797 3341 1997 
z
" transform="scale(0.015625)"/>
      </defs>
      <use xlink:href="#DejaVuSans-41"/>
      <use xlink:href="#DejaVuSans-6d" x="68.408203"/>
      <use xlink:href="#DejaVuSans-70" x="165.820312"/>
      <use xlink:href="#DejaVuSans-6c" x="229.296875"/>
      <use xlink:href="#DejaVuSans-69" x="257.080078"/>
      <use xlink:href="#DejaVuSans-74" x="284.863281"/>
      <use xlink:href="#DejaVuSans-75" x="324.072266"/>
      <use xlink:href="#DejaVuSans-64" x="387.451172"/>
      <use xlink:href="#DejaVuSans-65" x="450.927734"/>
      <use xlink:href="#DejaVuSans-20" x="512.451172"/>
      <use xlink:href="#DejaVuSans-28" x="544.238281"/>
      <use xlink:href="#DejaVuSans-61" x="583.251953"/>
      <use xlink:href="#DejaVuSans-2e" x="644.53125"/>
      <use xlink:href="#DejaVuSans-75" x="676.318359"/>
      <use xlink:href="#DejaVuSans-2e" x="739.697266"/>
      <use xlink:href="#DejaVuSans-29" x="771.484375"/>
     </g>
    </g>
   </g>
   <g id="line2d_7">
    <path d="M 64.508182 165.859091 
L 159.556303 165.859091 
L 161.496061 142.285694 
L 163.435818 130.772626 
L 165.375576 115.462717 
L 167.315333 101.798395 
L 171.194848 86.410995 
L 173.134606 80.509471 
L 175.074364 81.269749 
L 177.014121 80.04938 
L 180.893636 76.807759 
L 182.833394 75.174088 
L 184.773152 72.474988 
L 186.712909 69.450617 
L 188.652667 74.215995 
L 190.592424 82.838057 
L 196.411697 121.188893 
L 198.351455 132.003053 
L 200.291212 139.104424 
L 202.23097 141.501952 
L 204.170727 141.719751 
L 206.110485 145.507031 
L 208.050242 139.646805 
L 209.99 130.839138 
L 211.929758 123.693943 
L 215.809273 112.008628 
L 217.74903 112.421706 
L 219.688788 117.202592 
L 221.628545 118.329976 
L 223.568303 119.28746 
L 225.508061 119.409106 
L 227.447818 121.489189 
L 229.387576 121.776195 
L 233.267091 123.203232 
L 235.206848 123.821105 
L 237.146606 124.804642 
L 241.026121 127.739011 
L 242.965879 128.532349 
L 244.905636 128.192874 
L 246.845394 127.541994 
L 248.785152 127.901737 
L 250.724909 128.705522 
L 252.664667 130.809385 
L 254.604424 132.628047 
L 256.544182 135.49946 
L 258.483939 136.524086 
L 260.423697 140.090237 
L 264.303212 152.150977 
L 266.24297 165.859091 
L 355.471818 165.859091 
L 355.471818 165.859091 
" clip-path="url(#peb4e59aa3b)" style="fill: none; stroke: #4682b4; stroke-opacity: 0.3; stroke-width: 0.5; stroke-linecap: square"/>
   </g>
   <g id="line2d_8">
    <path d="M 64.508182 165.859091 
L 159.556303 165.859091 
L 161.496061 145.013599 
L 165.375576 121.543518 
L 167.315333 112.153084 
L 171.194848 106.399616 
L 173.134606 105.481768 
L 175.074364 102.922905 
L 178.953879 98.384957 
L 180.893636 96.25365 
L 182.833394 95.296582 
L 184.773152 95.647154 
L 186.712909 95.524202 
L 190.592424 95.751542 
L 192.532182 95.070384 
L 194.471939 94.79839 
L 196.411697 94.650692 
L 198.351455 95.153166 
L 200.291212 95.455014 
L 204.170727 97.696284 
L 206.110485 99.535237 
L 208.050242 100.726194 
L 209.99 102.606858 
L 211.929758 103.675374 
L 213.869515 109.193101 
L 215.809273 118.168246 
L 217.74903 125.262964 
L 221.628545 138.287425 
L 223.568303 141.082389 
L 225.508061 140.133044 
L 227.447818 142.72965 
L 229.387576 146.800446 
L 231.327333 152.228457 
L 233.267091 156.581443 
L 235.206848 159.580537 
L 237.146606 152.117035 
L 239.086364 129.690205 
L 241.026121 102.627537 
L 242.965879 78.785421 
L 244.905636 59.290939 
L 246.845394 50.36876 
L 248.785152 58.312611 
L 250.724909 70.080263 
L 252.664667 79.01725 
L 254.604424 85.139186 
L 256.544182 89.986451 
L 258.483939 91.636931 
L 260.423697 93.669692 
L 262.363455 96.573661 
L 266.24297 103.013845 
L 268.182727 106.475999 
L 270.122485 108.895737 
L 272.062242 110.278359 
L 274.002 111.471749 
L 275.941758 112.171028 
L 277.881515 113.087854 
L 279.821273 114.463846 
L 281.76103 116.026407 
L 283.700788 116.893448 
L 285.640545 119.063198 
L 287.580303 119.580219 
L 289.520061 126.675859 
L 293.399576 145.605723 
L 295.339333 165.859091 
L 355.471818 165.859091 
L 355.471818 165.859091 
" clip-path="url(#peb4e59aa3b)" style="fill: none; stroke: #4682b4; stroke-opacity: 0.3; stroke-width: 0.5; stroke-linecap: square"/>
   </g>
   <g id="line2d_9">
    <path d="M 64.508182 165.859091 
L 159.556303 165.859091 
L 161.496061 151.701276 
L 163.435818 140.126586 
L 165.375576 126.336825 
L 167.315333 108.559434 
L 169.255091 97.923681 
L 171.194848 92.71961 
L 173.134606 88.032862 
L 175.074364 88.491085 
L 177.014121 91.99634 
L 178.953879 92.638591 
L 180.893636 96.067613 
L 182.833394 101.240788 
L 184.773152 104.646043 
L 186.712909 113.946294 
L 188.652667 124.772064 
L 190.592424 133.432731 
L 194.471939 152.115072 
L 196.411697 156.856972 
L 198.351455 159.999335 
L 200.291212 162.755604 
L 202.23097 164.216483 
L 204.170727 164.911476 
L 206.110485 164.031342 
L 208.050242 161.287143 
L 209.99 154.596452 
L 211.929758 151.351092 
L 213.869515 149.810137 
L 215.809273 149.050096 
L 217.74903 147.669995 
L 219.688788 144.274411 
L 221.628545 137.521649 
L 225.508061 119.827662 
L 227.447818 114.323988 
L 229.387576 115.542462 
L 233.267091 119.320349 
L 235.206848 122.650344 
L 237.146606 123.925446 
L 239.086364 122.781893 
L 241.026121 122.434776 
L 242.965879 121.275947 
L 244.905636 119.439184 
L 246.845394 119.982908 
L 248.785152 122.167096 
L 250.724909 122.784162 
L 254.604424 128.373205 
L 256.544182 130.348451 
L 258.483939 132.016916 
L 260.423697 134.182176 
L 262.363455 134.769807 
L 264.303212 135.885591 
L 266.24297 135.702537 
L 268.182727 136.299799 
L 272.062242 148.357351 
L 274.002 165.859091 
L 355.471818 165.859091 
L 355.471818 165.859091 
" clip-path="url(#peb4e59aa3b)" style="fill: none; stroke: #4682b4; stroke-opacity: 0.3; stroke-width: 0.5; stroke-linecap: square"/>
   </g>
   <g id="line2d_10">
    <path d="M 64.508182 165.859091 
L 159.556303 165.859091 
L 161.496061 151.801929 
L 163.435818 140.600338 
L 165.375576 127.557885 
L 167.315333 110.65194 
L 169.255091 98.49866 
L 171.194848 92.320677 
L 173.134606 89.747303 
L 175.074364 89.199082 
L 177.014121 91.571803 
L 180.893636 101.744695 
L 182.833394 105.387768 
L 184.773152 112.590228 
L 186.712909 122.159799 
L 188.652667 130.238545 
L 192.532182 149.413354 
L 194.471939 155.342813 
L 196.411697 160.246192 
L 198.351455 162.172833 
L 202.23097 159.543476 
L 206.110485 153.366179 
L 208.050242 144.512518 
L 211.929758 118.893221 
L 215.809273 97.642405 
L 217.74903 94.189715 
L 219.688788 95.279559 
L 221.628545 94.981244 
L 223.568303 94.449992 
L 225.508061 94.299613 
L 227.447818 94.919645 
L 229.387576 95.879134 
L 231.327333 97.714874 
L 233.267091 99.182129 
L 235.206848 100.157812 
L 237.146606 99.306854 
L 239.086364 100.33986 
L 241.026121 102.338456 
L 242.965879 104.695428 
L 244.905636 106.655232 
L 246.845394 110.389691 
L 248.785152 111.586118 
L 250.724909 112.978327 
L 252.664667 113.683587 
L 254.604424 115.309904 
L 256.544182 114.853092 
L 258.483939 125.732919 
L 262.363455 145.626637 
L 264.303212 165.859091 
L 355.471818 165.859091 
L 355.471818 165.859091 
" clip-path="url(#peb4e59aa3b)" style="fill: none; stroke: #4682b4; stroke-opacity: 0.3; stroke-width: 0.5; stroke-linecap: square"/>
   </g>
   <g id="line2d_11">
    <path d="M 64.508182 165.859091 
L 159.556303 165.859091 
L 161.496061 143.984824 
L 163.435818 133.735325 
L 165.375576 121.979109 
L 167.315333 109.424281 
L 169.255091 104.972443 
L 171.194848 101.451699 
L 173.134606 97.368669 
L 175.074364 95.011374 
L 177.014121 95.594727 
L 178.953879 95.238759 
L 180.893636 94.714775 
L 182.833394 93.728115 
L 184.773152 91.725474 
L 186.712909 91.208388 
L 188.652667 89.188196 
L 190.592424 85.794681 
L 192.532182 83.721271 
L 194.471939 82.838161 
L 196.411697 80.729668 
L 198.351455 79.644673 
L 200.291212 79.993802 
L 202.23097 82.590837 
L 206.110485 90.988597 
L 208.050242 94.694968 
L 209.99 99.670569 
L 213.869515 105.860257 
L 215.809273 112.24659 
L 217.74903 120.683719 
L 221.628545 139.037799 
L 223.568303 146.925301 
L 225.508061 152.00887 
L 227.447818 155.649356 
L 229.387576 157.630064 
L 231.327333 158.452267 
L 233.267091 157.644066 
L 235.206848 155.789716 
L 237.146606 145.89585 
L 239.086364 131.859634 
L 242.965879 108.623974 
L 244.905636 98.106206 
L 246.845394 96.824422 
L 248.785152 99.8989 
L 250.724909 101.463503 
L 252.664667 104.473037 
L 254.604424 107.996548 
L 256.544182 111.800404 
L 258.483939 115.122444 
L 260.423697 118.103427 
L 264.303212 121.846308 
L 266.24297 122.101206 
L 268.182727 122.621401 
L 270.122485 122.638546 
L 272.062242 124.16736 
L 275.941758 128.125802 
L 277.881515 130.597445 
L 279.821273 133.403633 
L 281.76103 135.998185 
L 283.700788 137.388681 
L 285.640545 139.431672 
L 287.580303 141.2682 
L 289.520061 143.857136 
L 295.339333 158.549395 
L 297.279091 165.859091 
L 355.471818 165.859091 
L 355.471818 165.859091 
" clip-path="url(#peb4e59aa3b)" style="fill: none; stroke: #4682b4; stroke-opacity: 0.3; stroke-width: 0.5; stroke-linecap: square"/>
   </g>
   <g id="line2d_12">
    <path d="M 64.508182 165.859091 
L 159.556303 165.859091 
L 161.496061 142.625674 
L 163.435818 131.747313 
L 165.375576 119.24594 
L 167.315333 105.919392 
L 169.255091 101.170315 
L 171.194848 97.455746 
L 173.134606 93.116477 
L 175.074364 90.623393 
L 177.014121 91.243869 
L 178.953879 90.849662 
L 180.893636 90.295653 
L 182.833394 89.206894 
L 184.773152 87.111321 
L 186.712909 86.495558 
L 188.652667 84.397631 
L 190.592424 80.709036 
L 192.532182 78.577705 
L 194.471939 77.518224 
L 196.411697 75.378063 
L 198.351455 74.091394 
L 200.291212 74.608642 
L 202.23097 77.205171 
L 204.170727 81.968575 
L 208.050242 90.34011 
L 209.99 95.015051 
L 211.929758 97.630782 
L 213.869515 100.983875 
L 215.809273 107.794941 
L 217.74903 116.691863 
L 219.688788 126.651217 
L 221.628545 137.676651 
L 223.568303 145.640047 
L 225.508061 151.199982 
L 227.447818 154.946435 
L 229.387576 157.110896 
L 231.327333 157.811371 
L 233.267091 158.634959 
L 235.206848 158.286 
L 237.146606 157.565769 
L 239.086364 147.731852 
L 241.026121 126.546072 
L 242.965879 108.40933 
L 244.905636 92.587517 
L 246.845394 79.813865 
L 248.785152 78.109749 
L 250.724909 88.903528 
L 252.664667 97.501111 
L 254.604424 104.147054 
L 256.544182 109.557639 
L 258.483939 113.250504 
L 260.423697 116.59692 
L 262.363455 119.04459 
L 264.303212 123.160619 
L 268.182727 128.569133 
L 270.122485 129.962351 
L 272.062242 128.929048 
L 277.881515 119.625001 
L 279.821273 118.209657 
L 281.76103 118.820973 
L 285.640545 124.544759 
L 287.580303 130.505644 
L 291.459818 147.832412 
L 293.399576 165.859091 
L 355.471818 165.859091 
L 355.471818 165.859091 
" clip-path="url(#peb4e59aa3b)" style="fill: none; stroke: #4682b4; stroke-opacity: 0.3; stroke-width: 0.5; stroke-linecap: square"/>
   </g>
   <g id="line2d_13">
    <path d="M 64.508182 165.859091 
L 159.556303 165.859091 
L 161.496061 142.598473 
L 163.435818 126.403726 
L 165.375576 107.119345 
L 167.315333 90.279706 
L 169.255091 80.0846 
L 171.194848 73.906628 
L 173.134606 72.442704 
L 175.074364 72.077543 
L 177.014121 72.990159 
L 178.953879 76.219172 
L 180.893636 84.217621 
L 182.833394 97.245066 
L 184.773152 111.821321 
L 186.712909 124.757062 
L 188.652667 136.354901 
L 190.592424 141.947608 
L 192.532182 141.935152 
L 194.471939 143.364854 
L 196.411697 143.490062 
L 198.351455 144.982587 
L 200.291212 145.62816 
L 202.23097 137.732914 
L 204.170727 126.919197 
L 206.110485 118.967421 
L 208.050242 109.996454 
L 209.99 102.866761 
L 211.929758 103.637264 
L 213.869515 107.534126 
L 215.809273 110.157387 
L 219.688788 116.61407 
L 221.628545 120.706671 
L 223.568303 123.429834 
L 225.508061 124.044422 
L 227.447818 124.957651 
L 229.387576 126.389358 
L 231.327333 127.411983 
L 233.267091 128.184023 
L 237.146606 131.956736 
L 239.086364 133.057076 
L 241.026121 134.401138 
L 242.965879 136.612525 
L 244.905636 139.650542 
L 246.845394 141.781526 
L 248.785152 143.430492 
L 252.664667 146.287163 
L 256.544182 149.088018 
L 258.483939 152.597456 
L 260.423697 156.416796 
L 262.363455 159.903769 
L 264.303212 165.859091 
L 355.471818 165.859091 
L 355.471818 165.859091 
" clip-path="url(#peb4e59aa3b)" style="fill: none; stroke: #4682b4; stroke-opacity: 0.3; stroke-width: 0.5; stroke-linecap: square"/>
   </g>
   <g id="line2d_14">
    <path d="M 64.508182 165.859091 
L 159.556303 165.859091 
L 161.496061 132.981545 
L 163.435818 114.918357 
L 165.375576 92.523471 
L 167.315333 71.633614 
L 169.255091 66.210883 
L 171.194848 64.400206 
L 173.134606 61.548803 
L 175.074364 63.024898 
L 178.953879 66.822312 
L 180.893636 67.306514 
L 182.833394 69.384946 
L 184.773152 76.158728 
L 188.652667 96.974309 
L 192.532182 123.024931 
L 194.471939 133.307845 
L 196.411697 140.216795 
L 198.351455 144.40276 
L 200.291212 146.678775 
L 202.23097 150.342496 
L 204.170727 153.463921 
L 208.050242 158.287401 
L 209.99 151.031774 
L 211.929758 136.00405 
L 217.74903 83.034856 
L 219.688788 77.002788 
L 221.628545 78.513445 
L 223.568303 80.992474 
L 225.508061 84.398177 
L 227.447818 87.137741 
L 229.387576 89.537566 
L 231.327333 90.938508 
L 233.267091 92.055973 
L 235.206848 93.79851 
L 237.146606 96.864509 
L 239.086364 100.349104 
L 241.026121 105.12819 
L 244.905636 117.140822 
L 246.845394 121.015691 
L 248.785152 124.387393 
L 250.724909 127.253152 
L 252.664667 130.727731 
L 258.483939 140.320382 
L 260.423697 144.395602 
L 262.363455 147.163966 
L 264.303212 149.029192 
L 266.24297 152.333196 
L 268.182727 155.091212 
L 272.062242 159.010534 
L 274.002 161.770608 
L 277.881515 164.380495 
L 279.821273 165.859091 
L 355.471818 165.859091 
L 355.471818 165.859091 
" clip-path="url(#peb4e59aa3b)" style="fill: none; stroke: #4682b4; stroke-opacity: 0.3; stroke-width: 0.5; stroke-linecap: square"/>
   </g>
   <g id="line2d_15">
    <path d="M 64.508182 165.859091 
L 159.556303 165.859091 
L 161.496061 144.717945 
L 163.435818 130.5604 
L 165.375576 113.954579 
L 167.315333 95.343383 
L 169.255091 85.672358 
L 171.194848 82.125815 
L 173.134606 79.693415 
L 175.074364 80.290563 
L 177.014121 82.851257 
L 178.953879 81.407627 
L 180.893636 78.854506 
L 182.833394 79.592575 
L 184.773152 80.173724 
L 186.712909 88.494727 
L 190.592424 113.769102 
L 194.471939 135.497603 
L 196.411697 141.581416 
L 198.351455 144.819711 
L 200.291212 149.435066 
L 202.23097 153.115115 
L 204.170727 157.796896 
L 206.110485 158.116541 
L 208.050242 152.22064 
L 209.99 135.622512 
L 213.869515 90.800162 
L 215.809273 74.435232 
L 217.74903 68.224058 
L 219.688788 71.836753 
L 221.628545 79.190846 
L 223.568303 88.052646 
L 225.508061 96.273311 
L 227.447818 100.199856 
L 229.387576 103.615851 
L 231.327333 109.073954 
L 233.267091 112.088911 
L 235.206848 113.504186 
L 237.146606 117.270102 
L 239.086364 122.578222 
L 241.026121 128.674498 
L 244.905636 139.255832 
L 246.845394 143.226399 
L 248.785152 146.357345 
L 250.724909 148.58123 
L 252.664667 151.568382 
L 254.604424 153.34676 
L 256.544182 154.751643 
L 262.363455 161.868741 
L 264.303212 165.859091 
L 355.471818 165.859091 
L 355.471818 165.859091 
" clip-path="url(#peb4e59aa3b)" style="fill: none; stroke: #4682b4; stroke-opacity: 0.3; stroke-width: 0.5; stroke-linecap: square"/>
   </g>
   <g id="line2d_16">
    <path d="M 64.508182 165.859091 
L 159.556303 165.859091 
L 161.496061 136.832452 
L 163.435818 118.510978 
L 167.315333 77.402889 
L 169.255091 68.358947 
L 171.194848 63.106873 
L 173.134606 61.710274 
L 175.074364 66.223691 
L 177.014121 77.311499 
L 180.893636 107.467693 
L 182.833394 123.642369 
L 184.773152 134.956802 
L 186.712909 144.355165 
L 188.652667 148.210284 
L 190.592424 152.401695 
L 192.532182 151.51878 
L 194.471939 152.923821 
L 196.411697 152.230155 
L 198.351455 143.455948 
L 200.291212 133.994939 
L 202.23097 128.623743 
L 204.170727 121.393246 
L 206.110485 112.321804 
L 208.050242 113.104444 
L 209.99 114.015616 
L 211.929758 114.195583 
L 213.869515 113.607866 
L 215.809273 113.516277 
L 217.74903 114.94608 
L 219.688788 116.077305 
L 221.628545 116.61307 
L 223.568303 117.929134 
L 225.508061 120.420421 
L 227.447818 121.498287 
L 229.387576 121.582644 
L 231.327333 123.015655 
L 233.267091 125.309953 
L 235.206848 126.853263 
L 237.146606 127.682827 
L 239.086364 129.366003 
L 241.026121 129.914439 
L 242.965879 128.644058 
L 246.845394 143.435632 
L 248.785152 150.382843 
L 250.724909 165.859091 
L 355.471818 165.859091 
L 355.471818 165.859091 
" clip-path="url(#peb4e59aa3b)" style="fill: none; stroke: #4682b4; stroke-opacity: 0.3; stroke-width: 0.5; stroke-linecap: square"/>
   </g>
   <g id="line2d_17">
    <path d="M 64.508182 165.859091 
L 159.556303 165.859091 
L 161.496061 141.061276 
L 163.435818 131.424842 
L 165.375576 120.345492 
L 167.315333 111.756261 
L 169.255091 113.000583 
L 171.194848 114.658333 
L 173.134606 115.862462 
L 175.074364 120.892081 
L 177.014121 126.512423 
L 180.893636 143.871609 
L 182.833394 151.883878 
L 184.773152 157.155796 
L 186.712909 161.051018 
L 188.652667 162.23035 
L 190.592424 162.533133 
L 192.532182 157.078565 
L 194.471939 149.80997 
L 196.411697 146.897701 
L 198.351455 143.691043 
L 200.291212 142.216961 
L 202.23097 144.83977 
L 204.170727 151.753751 
L 206.110485 148.642963 
L 209.99 129.14293 
L 211.929758 118.663443 
L 213.869515 106.130171 
L 215.809273 99.591761 
L 219.688788 98.648655 
L 221.628545 102.652647 
L 223.568303 107.313859 
L 227.447818 110.461192 
L 229.387576 111.69483 
L 231.327333 109.720202 
L 233.267091 107.98548 
L 235.206848 107.877932 
L 237.146606 109.388043 
L 239.086364 111.929676 
L 241.026121 115.398669 
L 242.965879 117.849177 
L 244.905636 121.455413 
L 246.845394 124.666419 
L 248.785152 126.735045 
L 250.724909 127.547406 
L 252.664667 129.125664 
L 254.604424 128.279918 
L 256.544182 129.751874 
L 260.423697 144.794757 
L 262.363455 165.859091 
L 355.471818 165.859091 
L 355.471818 165.859091 
" clip-path="url(#peb4e59aa3b)" style="fill: none; stroke: #4682b4; stroke-opacity: 0.3; stroke-width: 0.5; stroke-linecap: square"/>
   </g>
   <g id="line2d_18">
    <path d="M 64.508182 165.859091 
L 159.556303 165.859091 
L 161.496061 143.116645 
L 163.435818 127.45967 
L 167.315333 85.141822 
L 169.255091 71.433941 
L 173.134606 57.180847 
L 175.074364 56.8733 
L 177.014121 60.083555 
L 178.953879 73.124293 
L 184.773152 134.376089 
L 186.712909 151.650451 
L 188.652667 159.301294 
L 190.592424 160.95041 
L 192.532182 163.3929 
L 194.471939 163.796457 
L 196.411697 164.628617 
L 198.351455 164.4069 
L 200.291212 163.41592 
L 202.23097 159.306134 
L 204.170727 154.662244 
L 206.110485 151.581056 
L 208.050242 151.613187 
L 209.99 147.864675 
L 211.929758 139.679564 
L 213.869515 132.281571 
L 215.809273 122.484425 
L 217.74903 109.797349 
L 219.688788 100.231156 
L 221.628545 97.713811 
L 223.568303 95.543884 
L 225.508061 96.102559 
L 227.447818 97.134647 
L 229.387576 99.780276 
L 233.267091 107.667684 
L 235.206848 109.385556 
L 237.146606 110.493793 
L 239.086364 112.061656 
L 241.026121 111.85368 
L 242.965879 112.018702 
L 244.905636 113.080381 
L 246.845394 116.766977 
L 248.785152 119.673641 
L 252.664667 127.962888 
L 254.604424 130.357128 
L 256.544182 131.585468 
L 258.483939 134.754612 
L 260.423697 137.430438 
L 262.363455 140.689416 
L 264.303212 147.838089 
L 266.24297 154.149836 
L 268.182727 158.544525 
L 270.122485 165.859091 
L 355.471818 165.859091 
L 355.471818 165.859091 
" clip-path="url(#peb4e59aa3b)" style="fill: none; stroke: #4682b4; stroke-opacity: 0.3; stroke-width: 0.5; stroke-linecap: square"/>
   </g>
   <g id="line2d_19">
    <path d="M 64.508182 165.859091 
L 159.556303 165.859091 
L 161.496061 126.37086 
L 163.435818 106.737809 
L 165.375576 85.600535 
L 167.315333 67.297493 
L 169.255091 62.993421 
L 171.194848 62.741168 
L 173.134606 62.367294 
L 175.074364 64.530731 
L 177.014121 67.879092 
L 178.953879 72.105354 
L 180.893636 74.585388 
L 182.833394 77.560953 
L 186.712909 78.401499 
L 188.652667 79.684184 
L 190.592424 80.431402 
L 192.532182 80.411656 
L 194.471939 82.998811 
L 196.411697 92.41873 
L 198.351455 102.553164 
L 200.291212 113.676939 
L 202.23097 126.249157 
L 204.170727 137.587015 
L 206.110485 141.320234 
L 208.050242 142.594179 
L 211.929758 143.314237 
L 213.869515 146.867986 
L 215.809273 144.836141 
L 217.74903 130.809248 
L 221.628545 95.789436 
L 223.568303 76.222055 
L 225.508061 63.992213 
L 227.447818 65.436034 
L 229.387576 70.914364 
L 231.327333 72.826654 
L 233.267091 77.62567 
L 235.206848 81.262139 
L 237.146606 84.414478 
L 239.086364 89.125618 
L 241.026121 95.329691 
L 242.965879 98.621356 
L 244.905636 100.445357 
L 246.845394 101.992002 
L 248.785152 101.931676 
L 250.724909 102.762418 
L 252.664667 102.320904 
L 254.604424 103.141379 
L 256.544182 103.436496 
L 258.483939 105.708549 
L 260.423697 107.570498 
L 262.363455 114.534399 
L 266.24297 138.742833 
L 268.182727 149.267781 
L 270.122485 165.859091 
L 355.471818 165.859091 
L 355.471818 165.859091 
" clip-path="url(#peb4e59aa3b)" style="fill: none; stroke: #4682b4; stroke-opacity: 0.3; stroke-width: 0.5; stroke-linecap: square"/>
   </g>
   <g id="line2d_20">
    <path d="M 64.508182 165.859091 
L 159.556303 165.859091 
L 161.496061 125.039931 
L 165.375576 82.259968 
L 167.315333 64.387906 
L 169.255091 61.226387 
L 171.194848 64.18446 
L 173.134606 68.210938 
L 175.074364 72.53968 
L 177.014121 76.551049 
L 178.953879 79.728715 
L 180.893636 84.348564 
L 182.833394 92.121928 
L 184.773152 103.518284 
L 186.712909 117.028069 
L 190.592424 146.376888 
L 192.532182 151.207119 
L 194.471939 151.093022 
L 196.411697 150.789632 
L 198.351455 149.819684 
L 200.291212 147.719649 
L 202.23097 150.790635 
L 204.170727 154.97803 
L 206.110485 154.196282 
L 208.050242 149.834156 
L 211.929758 133.692986 
L 213.869515 125.312863 
L 215.809273 118.807973 
L 217.74903 115.931114 
L 221.628545 114.004647 
L 223.568303 114.570724 
L 225.508061 116.127027 
L 227.447818 116.187601 
L 229.387576 116.849701 
L 231.327333 119.674453 
L 233.267091 119.126167 
L 235.206848 118.160765 
L 237.146606 120.254195 
L 239.086364 121.895356 
L 241.026121 124.128933 
L 242.965879 128.814438 
L 244.905636 135.277174 
L 246.845394 140.4783 
L 248.785152 146.059321 
L 250.724909 150.038242 
L 252.664667 152.814569 
L 256.544182 157.390765 
L 258.483939 160.124106 
L 260.423697 162.549906 
L 262.363455 165.859091 
L 355.471818 165.859091 
L 355.471818 165.859091 
" clip-path="url(#peb4e59aa3b)" style="fill: none; stroke: #4682b4; stroke-opacity: 0.3; stroke-width: 0.5; stroke-linecap: square"/>
   </g>
   <g id="line2d_21">
    <path d="M 64.508182 165.859091 
L 159.556303 165.859091 
L 161.496061 132.051296 
L 163.435818 113.375653 
L 167.315333 72.282052 
L 169.255091 63.845226 
L 171.194848 60.258279 
L 173.134606 58.445948 
L 175.074364 59.721034 
L 177.014121 63.224563 
L 178.953879 67.875831 
L 180.893636 70.955841 
L 182.833394 75.42072 
L 184.773152 87.483661 
L 188.652667 118.994166 
L 190.592424 136.673053 
L 192.532182 151.891041 
L 194.471939 159.209935 
L 196.411697 162.257632 
L 198.351455 163.412956 
L 200.291212 160.739616 
L 202.23097 158.441286 
L 204.170727 155.299527 
L 206.110485 153.294119 
L 208.050242 150.838467 
L 209.99 148.988077 
L 211.929758 149.024574 
L 213.869515 141.613284 
L 221.628545 91.704401 
L 223.568303 87.860412 
L 225.508061 89.048344 
L 227.447818 91.441908 
L 229.387576 98.297286 
L 233.267091 109.801707 
L 235.206848 114.275411 
L 237.146606 119.316085 
L 239.086364 120.835235 
L 241.026121 122.821116 
L 242.965879 125.306191 
L 244.905636 125.836104 
L 246.845394 124.353141 
L 250.724909 122.055224 
L 252.664667 120.0907 
L 254.604424 120.450506 
L 256.544182 122.166753 
L 258.483939 125.220059 
L 260.423697 127.109162 
L 262.363455 128.456611 
L 264.303212 129.607076 
L 266.24297 135.034846 
L 268.182727 141.628877 
L 270.122485 148.770575 
L 272.062242 165.859091 
L 355.471818 165.859091 
L 355.471818 165.859091 
" clip-path="url(#peb4e59aa3b)" style="fill: none; stroke: #4682b4; stroke-opacity: 0.3; stroke-width: 0.5; stroke-linecap: square"/>
   </g>
   <g id="line2d_22">
    <path d="M 64.508182 165.859091 
L 159.556303 165.859091 
L 161.496061 124.178582 
L 163.435818 101.43514 
L 165.375576 75.595877 
L 167.315333 54.593745 
L 169.255091 48.389092 
L 171.194848 44.190191 
L 173.134606 44.428485 
L 175.074364 48.218857 
L 177.014121 49.329056 
L 178.953879 49.736148 
L 180.893636 50.739787 
L 182.833394 50.994588 
L 184.773152 53.417992 
L 186.712909 56.515484 
L 188.652667 65.959852 
L 190.592424 83.404982 
L 194.471939 122.863332 
L 196.411697 141.905157 
L 198.351455 157.454815 
L 200.291212 161.937314 
L 202.23097 163.595847 
L 204.170727 161.126852 
L 206.110485 159.993688 
L 208.050242 157.845814 
L 211.929758 154.826323 
L 213.869515 147.036357 
L 215.809273 131.148941 
L 217.74903 117.04375 
L 221.628545 87.702831 
L 223.568303 84.232443 
L 225.508061 88.686218 
L 227.447818 91.936843 
L 229.387576 95.471579 
L 231.327333 99.287483 
L 233.267091 101.007733 
L 235.206848 103.424786 
L 237.146606 105.180855 
L 239.086364 108.411766 
L 241.026121 110.558132 
L 242.965879 113.779333 
L 244.905636 112.189854 
L 246.845394 111.362448 
L 248.785152 109.005783 
L 250.724909 101.600143 
L 252.664667 96.015217 
L 254.604424 98.8084 
L 256.544182 101.09166 
L 258.483939 107.130596 
L 260.423697 117.034727 
L 262.363455 124.568974 
L 266.24297 144.297101 
L 268.182727 150.988234 
L 270.122485 165.859091 
L 355.471818 165.859091 
L 355.471818 165.859091 
" clip-path="url(#peb4e59aa3b)" style="fill: none; stroke: #4682b4; stroke-opacity: 0.3; stroke-width: 0.5; stroke-linecap: square"/>
   </g>
   <g id="line2d_23">
    <path d="M 64.508182 165.859091 
L 159.556303 165.859091 
L 161.496061 130.13855 
L 165.375576 93.986777 
L 167.315333 79.287417 
L 169.255091 76.121449 
L 171.194848 76.911797 
L 173.134606 78.009782 
L 175.074364 78.365743 
L 177.014121 77.88231 
L 178.953879 78.719074 
L 180.893636 80.503537 
L 182.833394 81.844866 
L 184.773152 84.600685 
L 186.712909 92.772999 
L 194.471939 141.497978 
L 196.411697 148.255366 
L 198.351455 150.773632 
L 200.291212 152.685637 
L 202.23097 152.733445 
L 204.170727 147.970611 
L 208.050242 131.195091 
L 209.99 123.405266 
L 211.929758 117.928624 
L 213.869515 115.077475 
L 215.809273 115.556717 
L 217.74903 116.781984 
L 221.628545 116.96165 
L 223.568303 118.093816 
L 225.508061 119.495929 
L 227.447818 119.996082 
L 231.327333 123.73125 
L 233.267091 125.344196 
L 237.146606 129.588097 
L 241.026121 133.295773 
L 242.965879 135.591475 
L 246.845394 139.029475 
L 248.785152 141.054343 
L 250.724909 144.086313 
L 254.604424 154.569758 
L 256.544182 165.859091 
L 355.471818 165.859091 
L 355.471818 165.859091 
" clip-path="url(#peb4e59aa3b)" style="fill: none; stroke: #4682b4; stroke-opacity: 0.3; stroke-width: 0.5; stroke-linecap: square"/>
   </g>
   <g id="line2d_24">
    <path d="M 64.508182 165.859091 
L 159.556303 165.859091 
L 161.496061 125.197918 
L 165.375576 87.151836 
L 167.315333 71.139792 
L 169.255091 67.092441 
L 171.194848 65.563186 
L 173.134606 63.608163 
L 175.074364 61.423462 
L 177.014121 59.605157 
L 178.953879 59.999403 
L 180.893636 58.237904 
L 182.833394 59.694757 
L 184.773152 65.666237 
L 186.712909 73.994049 
L 188.652667 86.176867 
L 190.592424 101.634933 
L 192.532182 114.796476 
L 194.471939 122.879129 
L 196.411697 128.134333 
L 198.351455 130.605825 
L 200.291212 131.515975 
L 202.23097 131.709308 
L 204.170727 131.339673 
L 206.110485 132.136583 
L 208.050242 130.565688 
L 209.99 125.911018 
L 211.929758 116.643235 
L 213.869515 105.832051 
L 215.809273 93.854999 
L 217.74903 82.803499 
L 219.688788 77.332839 
L 221.628545 77.540927 
L 223.568303 80.688736 
L 225.508061 85.377026 
L 227.447818 91.269167 
L 229.387576 95.349847 
L 231.327333 98.807157 
L 235.206848 102.554464 
L 237.146606 103.262793 
L 239.086364 103.843209 
L 241.026121 103.563479 
L 242.965879 105.024584 
L 244.905636 104.711182 
L 246.845394 106.069562 
L 248.785152 107.141862 
L 250.724909 111.167527 
L 252.664667 114.123559 
L 254.604424 113.513018 
L 256.544182 118.895559 
L 258.483939 123.339366 
L 260.423697 126.807842 
L 262.363455 132.895008 
L 264.303212 144.166333 
L 266.24297 149.175917 
L 268.182727 155.758069 
L 270.122485 160.575042 
L 272.062242 165.859091 
L 355.471818 165.859091 
L 355.471818 165.859091 
" clip-path="url(#peb4e59aa3b)" style="fill: none; stroke: #4682b4; stroke-opacity: 0.3; stroke-width: 0.5; stroke-linecap: square"/>
   </g>
   <g id="line2d_25">
    <path d="M 64.508182 165.859091 
L 159.556303 165.859091 
L 161.496061 144.095891 
L 163.435818 132.407268 
L 165.375576 119.693533 
L 167.315333 107.83771 
L 169.255091 102.920782 
L 171.194848 100.996543 
L 173.134606 96.347961 
L 175.074364 88.795874 
L 177.014121 82.060531 
L 180.893636 70.239132 
L 182.833394 70.846309 
L 184.773152 78.63441 
L 186.712909 89.458982 
L 190.592424 116.166821 
L 192.532182 125.998987 
L 194.471939 133.80832 
L 196.411697 137.858926 
L 198.351455 140.51745 
L 202.23097 144.610547 
L 204.170727 146.330725 
L 206.110485 149.547863 
L 208.050242 149.425748 
L 209.99 140.526502 
L 211.929758 130.032062 
L 213.869515 120.799562 
L 215.809273 108.711762 
L 217.74903 100.913292 
L 219.688788 103.53135 
L 221.628545 107.013487 
L 223.568303 110.044592 
L 225.508061 114.524319 
L 227.447818 117.614961 
L 229.387576 121.551827 
L 231.327333 123.522764 
L 237.146606 113.718018 
L 239.086364 109.43563 
L 241.026121 107.805406 
L 242.965879 110.46664 
L 244.905636 113.971356 
L 246.845394 117.950612 
L 250.724909 124.901714 
L 252.664667 127.881511 
L 254.604424 129.69084 
L 256.544182 131.950668 
L 258.483939 132.407505 
L 260.423697 133.441251 
L 264.303212 147.080605 
L 266.24297 165.859091 
L 355.471818 165.859091 
L 355.471818 165.859091 
" clip-path="url(#peb4e59aa3b)" style="fill: none; stroke: #4682b4; stroke-opacity: 0.3; stroke-width: 0.5; stroke-linecap: square"/>
   </g>
   <g id="line2d_26">
    <path d="M 64.508182 165.859091 
L 159.556303 165.859091 
L 161.496061 141.219281 
L 163.435818 128.049168 
L 165.375576 113.528492 
L 167.315333 100.156971 
L 169.255091 94.298351 
L 171.194848 92.137034 
L 173.134606 86.559369 
L 175.074364 77.880699 
L 177.014121 69.910194 
L 180.893636 55.965924 
L 182.833394 51.427656 
L 184.773152 55.743793 
L 186.712909 66.47991 
L 188.652667 80.92929 
L 190.592424 97.114302 
L 192.532182 115.091573 
L 194.471939 129.604068 
L 196.411697 136.398939 
L 198.351455 140.895641 
L 200.291212 144.011284 
L 202.23097 145.958774 
L 204.170727 147.078102 
L 206.110485 147.419388 
L 208.050242 149.557477 
L 209.99 148.193974 
L 211.929758 137.024945 
L 213.869515 127.185537 
L 215.809273 119.336008 
L 217.74903 107.581702 
L 219.688788 100.228636 
L 221.628545 103.344361 
L 223.568303 105.880444 
L 225.508061 107.79889 
L 227.447818 110.510442 
L 231.327333 112.615272 
L 233.267091 113.967427 
L 235.206848 114.160236 
L 237.146606 113.539145 
L 239.086364 114.649119 
L 241.026121 113.905894 
L 242.965879 112.804845 
L 244.905636 112.551487 
L 246.845394 115.187805 
L 248.785152 117.292743 
L 254.604424 126.832498 
L 256.544182 128.348747 
L 258.483939 128.761803 
L 260.423697 130.067505 
L 262.363455 128.444879 
L 264.303212 131.103573 
L 268.182727 145.76039 
L 270.122485 165.859091 
L 355.471818 165.859091 
L 355.471818 165.859091 
" clip-path="url(#peb4e59aa3b)" style="fill: none; stroke: #4682b4; stroke-opacity: 0.3; stroke-width: 0.5; stroke-linecap: square"/>
   </g>
   <g id="line2d_27">
    <path d="M 64.508182 165.859091 
L 159.556303 165.859091 
L 161.496061 141.549493 
L 163.435818 128.453653 
L 167.315333 94.425983 
L 169.255091 86.094956 
L 171.194848 81.173314 
L 173.134606 75.38183 
L 175.074364 72.800648 
L 177.014121 70.829795 
L 178.953879 68.306724 
L 180.893636 64.6586 
L 182.833394 62.590114 
L 184.773152 67.653853 
L 186.712909 73.169036 
L 188.652667 83.907609 
L 192.532182 115.482671 
L 196.411697 133.934068 
L 198.351455 141.522124 
L 200.291212 144.072562 
L 202.23097 147.902925 
L 204.170727 146.456934 
L 206.110485 141.66141 
L 208.050242 130.410811 
L 209.99 120.489555 
L 211.929758 112.728085 
L 213.869515 108.663552 
L 215.809273 110.144374 
L 217.74903 115.661451 
L 219.688788 119.85931 
L 221.628545 120.699123 
L 223.568303 123.121727 
L 225.508061 123.058866 
L 227.447818 122.786922 
L 229.387576 123.702895 
L 233.267091 125.982168 
L 235.206848 127.987991 
L 237.146606 130.468666 
L 239.086364 131.129062 
L 241.026121 130.336438 
L 242.965879 130.664941 
L 244.905636 130.038827 
L 246.845394 130.337981 
L 248.785152 131.273974 
L 250.724909 136.051997 
L 252.664667 142.809754 
L 254.604424 150.23586 
L 256.544182 155.999502 
L 258.483939 165.859091 
L 355.471818 165.859091 
L 355.471818 165.859091 
" clip-path="url(#peb4e59aa3b)" style="fill: none; stroke: #4682b4; stroke-opacity: 0.3; stroke-width: 0.5; stroke-linecap: square"/>
   </g>
   <g id="line2d_28">
    <path d="M 64.508182 165.859091 
L 159.556303 165.859091 
L 161.496061 134.976984 
L 167.315333 76.862741 
L 169.255091 69.373673 
L 171.194848 67.104536 
L 173.134606 65.763558 
L 175.074364 65.824658 
L 177.014121 63.969573 
L 178.953879 63.135205 
L 180.893636 67.268682 
L 182.833394 75.655516 
L 184.773152 88.868554 
L 188.652667 124.737804 
L 190.592424 139.298926 
L 192.532182 151.330132 
L 194.471939 157.689524 
L 196.411697 161.34063 
L 198.351455 163.058068 
L 200.291212 163.635966 
L 202.23097 163.604881 
L 204.170727 164.129333 
L 206.110485 164.042984 
L 208.050242 163.708352 
L 209.99 160.310492 
L 213.869515 134.544746 
L 215.809273 124.005433 
L 217.74903 116.456077 
L 219.688788 111.843028 
L 223.568303 121.323342 
L 225.508061 123.952831 
L 227.447818 124.133133 
L 229.387576 123.993262 
L 231.327333 124.632728 
L 235.206848 123.374773 
L 237.146606 121.973501 
L 239.086364 121.425502 
L 241.026121 120.357758 
L 242.965879 121.495773 
L 244.905636 121.633145 
L 246.845394 124.134165 
L 248.785152 125.422172 
L 250.724909 129.55801 
L 252.664667 137.463265 
L 254.604424 146.435413 
L 256.544182 153.603645 
L 258.483939 165.859091 
L 355.471818 165.859091 
L 355.471818 165.859091 
" clip-path="url(#peb4e59aa3b)" style="fill: none; stroke: #4682b4; stroke-opacity: 0.3; stroke-width: 0.5; stroke-linecap: square"/>
   </g>
   <g id="line2d_29">
    <path d="M 64.508182 165.859091 
L 159.556303 165.859091 
L 161.496061 134.059845 
L 163.435818 117.31079 
L 165.375576 99.039848 
L 167.315333 82.09586 
L 171.194848 68.147011 
L 173.134606 59.218575 
L 175.074364 51.617634 
L 177.014121 44.793896 
L 178.953879 39.199992 
L 180.893636 39.652636 
L 182.833394 47.210244 
L 184.773152 56.51697 
L 186.712909 67.040287 
L 190.592424 98.092007 
L 194.471939 121.916 
L 196.411697 131.650405 
L 200.291212 145.032993 
L 202.23097 149.73772 
L 204.170727 153.237836 
L 206.110485 153.999605 
L 208.050242 150.893752 
L 209.99 146.886877 
L 211.929758 144.85321 
L 213.869515 139.848273 
L 215.809273 138.995352 
L 217.74903 140.280195 
L 219.688788 129.83957 
L 221.628545 115.470587 
L 225.508061 90.632457 
L 227.447818 79.000753 
L 229.387576 78.017852 
L 231.327333 79.483454 
L 233.267091 82.05574 
L 242.965879 97.809953 
L 244.905636 99.320647 
L 246.845394 101.079277 
L 248.785152 102.235931 
L 254.604424 113.240347 
L 256.544182 117.622923 
L 258.483939 122.517533 
L 260.423697 126.675641 
L 262.363455 131.255173 
L 264.303212 138.078654 
L 266.24297 145.966203 
L 268.182727 153.303232 
L 270.122485 165.859091 
L 355.471818 165.859091 
L 355.471818 165.859091 
" clip-path="url(#peb4e59aa3b)" style="fill: none; stroke: #4682b4; stroke-opacity: 0.3; stroke-width: 0.5; stroke-linecap: square"/>
   </g>
   <g id="line2d_30">
    <path d="M 64.508182 165.859091 
L 159.556303 165.859091 
L 161.496061 133.847636 
L 163.435818 116.877932 
L 165.375576 98.6734 
L 167.315333 81.54005 
L 169.255091 74.803334 
L 171.194848 67.390598 
L 173.134606 58.69482 
L 175.074364 50.681651 
L 177.014121 44.100698 
L 178.953879 38.129744 
L 180.893636 38.887551 
L 182.833394 46.183724 
L 184.773152 55.735575 
L 186.712909 66.031738 
L 188.652667 77.538955 
L 190.592424 92.171812 
L 192.532182 102.528296 
L 196.411697 123.918583 
L 198.351455 133.878374 
L 202.23097 143.871998 
L 204.170727 148.288219 
L 206.110485 151.212527 
L 209.99 155.747084 
L 211.929758 156.615074 
L 213.869515 156.094848 
L 215.809273 154.618136 
L 217.74903 144.266201 
L 219.688788 128.595486 
L 223.568303 99.524452 
L 225.508061 85.707741 
L 227.447818 83.498196 
L 229.387576 87.80575 
L 231.327333 91.723706 
L 233.267091 94.783484 
L 235.206848 98.666156 
L 237.146606 101.557253 
L 239.086364 103.250714 
L 241.026121 105.494242 
L 242.965879 107.546926 
L 244.905636 110.579231 
L 246.845394 112.822049 
L 248.785152 114.849535 
L 250.724909 112.220858 
L 252.664667 112.462433 
L 254.604424 107.269577 
L 256.544182 101.001225 
L 258.483939 102.333532 
L 260.423697 105.287212 
L 262.363455 110.495497 
L 264.303212 116.976291 
L 266.24297 127.68311 
L 268.182727 135.817391 
L 270.122485 146.210066 
L 272.062242 151.864559 
L 274.002 165.859091 
L 355.471818 165.859091 
L 355.471818 165.859091 
" clip-path="url(#peb4e59aa3b)" style="fill: none; stroke: #4682b4; stroke-opacity: 0.3; stroke-width: 0.5; stroke-linecap: square"/>
   </g>
   <g id="line2d_31">
    <path d="M 64.508182 165.859091 
L 159.556303 165.859091 
L 161.496061 142.669983 
L 163.435818 130.561179 
L 165.375576 117.268868 
L 167.315333 105.342602 
L 169.255091 100.593005 
L 171.194848 99.574349 
L 173.134606 95.426353 
L 175.074364 88.840038 
L 177.014121 82.752694 
L 180.893636 72.52465 
L 182.833394 68.374948 
L 184.773152 70.268548 
L 186.712909 74.17603 
L 188.652667 78.609422 
L 190.592424 83.612302 
L 192.532182 92.12103 
L 194.471939 103.3605 
L 200.291212 128.574098 
L 202.23097 134.985132 
L 204.170727 139.444184 
L 206.110485 144.835914 
L 208.050242 147.352129 
L 209.99 149.670251 
L 211.929758 147.82728 
L 215.809273 120.357507 
L 217.74903 110.079169 
L 219.688788 101.239659 
L 221.628545 94.493016 
L 223.568303 97.558822 
L 225.508061 103.737557 
L 227.447818 108.479021 
L 229.387576 112.594044 
L 231.327333 119.273968 
L 233.267091 124.811797 
L 239.086364 132.639807 
L 241.026121 134.050338 
L 244.905636 130.670531 
L 248.785152 125.516214 
L 250.724909 123.679816 
L 254.604424 126.963838 
L 256.544182 129.974268 
L 258.483939 131.999112 
L 260.423697 136.453993 
L 264.303212 150.349938 
L 266.24297 165.859091 
L 355.471818 165.859091 
L 355.471818 165.859091 
" clip-path="url(#peb4e59aa3b)" style="fill: none; stroke: #4682b4; stroke-opacity: 0.3; stroke-width: 0.5; stroke-linecap: square"/>
   </g>
   <g id="line2d_32">
    <path d="M 64.508182 165.859091 
L 159.556303 165.859091 
L 161.496061 142.635125 
L 163.435818 130.238485 
L 165.375576 117.01747 
L 167.315333 104.575342 
L 169.255091 100.308737 
L 171.194848 98.285917 
L 173.134606 95.560727 
L 175.074364 90.508073 
L 177.014121 83.518281 
L 180.893636 71.727435 
L 182.833394 66.568161 
L 184.773152 68.124948 
L 186.712909 74.449585 
L 188.652667 80.111526 
L 190.592424 87.340465 
L 194.471939 105.067668 
L 196.411697 111.070351 
L 198.351455 118.019465 
L 200.291212 124.165083 
L 202.23097 126.261995 
L 206.110485 120.004426 
L 208.050242 114.002787 
L 209.99 106.927697 
L 213.869515 94.073633 
L 215.809273 85.225966 
L 217.74903 74.22003 
L 219.688788 67.313583 
L 221.628545 64.112827 
L 223.568303 65.170776 
L 225.508061 70.331312 
L 227.447818 80.118313 
L 229.387576 84.842344 
L 231.327333 86.214049 
L 233.267091 88.755747 
L 235.206848 90.729469 
L 237.146606 92.941977 
L 241.026121 103.188576 
L 242.965879 105.857296 
L 244.905636 108.738811 
L 248.785152 111.533916 
L 250.724909 114.05476 
L 252.664667 114.720633 
L 254.604424 114.344408 
L 256.544182 116.166045 
L 258.483939 116.911721 
L 260.423697 118.66926 
L 262.363455 121.501366 
L 264.303212 125.503683 
L 266.24297 127.711902 
L 268.182727 132.521039 
L 272.062242 148.471616 
L 274.002 154.982933 
L 275.941758 165.859091 
L 355.471818 165.859091 
L 355.471818 165.859091 
" clip-path="url(#peb4e59aa3b)" style="fill: none; stroke: #4682b4; stroke-opacity: 0.3; stroke-width: 0.5; stroke-linecap: square"/>
   </g>
   <g id="line2d_33">
    <path d="M 64.508182 165.859091 
L 159.556303 165.859091 
L 161.496061 138.336643 
L 163.435818 123.118224 
L 167.315333 90.072687 
L 169.255091 83.614269 
L 171.194848 80.302091 
L 173.134606 77.335341 
L 175.074364 76.101863 
L 177.014121 75.84985 
L 178.953879 76.476098 
L 180.893636 78.140021 
L 182.833394 81.623627 
L 184.773152 87.424288 
L 186.712909 95.172795 
L 192.532182 121.042837 
L 194.471939 127.674462 
L 196.411697 132.680067 
L 198.351455 136.155147 
L 200.291212 138.206754 
L 202.23097 139.849084 
L 204.170727 140.463631 
L 206.110485 139.921826 
L 208.050242 137.578933 
L 209.99 133.209252 
L 211.929758 127.545843 
L 213.869515 121.467859 
L 215.809273 115.837944 
L 217.74903 111.330439 
L 219.688788 108.314525 
L 221.628545 106.951506 
L 223.568303 106.798657 
L 225.508061 107.289933 
L 227.447818 108.763731 
L 231.327333 113.491209 
L 233.267091 115.232053 
L 235.206848 116.680198 
L 237.146606 117.387414 
L 239.086364 117.155981 
L 241.026121 116.415247 
L 242.965879 116.027363 
L 244.905636 115.931077 
L 246.845394 116.880551 
L 248.785152 118.7268 
L 252.664667 124.277926 
L 254.604424 126.677145 
L 256.544182 129.371362 
L 258.483939 132.937676 
L 260.423697 135.997739 
L 262.363455 140.106475 
L 266.24297 149.637375 
L 268.182727 152.421391 
L 270.122485 156.791563 
L 272.062242 158.553906 
L 274.002 160.120598 
L 275.941758 160.577854 
L 279.821273 160.801393 
L 285.640545 161.453797 
L 287.580303 161.773583 
L 289.520061 162.475577 
L 291.459818 163.365644 
L 293.399576 164.622354 
L 295.339333 165.577949 
L 297.279091 165.859091 
L 355.471818 165.859091 
L 355.471818 165.859091 
" clip-path="url(#peb4e59aa3b)" style="fill: none; stroke: #000080; stroke-linecap: square"/>
   </g>
   <g id="patch_3">
    <path d="M 49.96 172.34 
L 49.96 29.76 
" style="fill: none; stroke: #000000; stroke-width: 0.8; stroke-linejoin: miter; stroke-linecap: square"/>
   </g>
   <g id="patch_4">
    <path d="M 49.96 172.34 
L 370.02 172.34 
" style="fill: none; stroke: #000000; stroke-width: 0.8; stroke-linejoin: miter; stroke-linecap: square"/>
   </g>
   <g id="text_9">
    <!-- VCV -->
    <g transform="translate(195.525156 23.76) scale(0.14 -0.14)">
     <defs>
      <path id="DejaVuSans-56" d="M 1831 0 
L 50 4666 
L 709 4666 
L 2188 738 
L 3669 4666 
L 4325 4666 
L 2547 0 
L 1831 0 
z
" transform="scale(0.015625)"/>
      <path id="DejaVuSans-43" d="M 4122 4306 
L 4122 3641 
Q 3803 3938 3442 4084 
Q 3081 4231 2675 4231 
Q 1875 4231 1450 3742 
Q 1025 3253 1025 2328 
Q 1025 1406 1450 917 
Q 1875 428 2675 428 
Q 3081 428 3442 575 
Q 3803 722 4122 1019 
L 4122 359 
Q 3791 134 3420 21 
Q 3050 -91 2638 -91 
Q 1578 -91 968 557 
Q 359 1206 359 2328 
Q 359 3453 968 4101 
Q 1578 4750 2638 4750 
Q 3056 4750 3426 4639 
Q 3797 4528 4122 4306 
z
" transform="scale(0.015625)"/>
     </defs>
     <use xlink:href="#DejaVuSans-56"/>
     <use xlink:href="#DejaVuSans-43" x="68.408203"/>
     <use xlink:href="#DejaVuSans-56" x="138.232422"/>
    </g>
   </g>
  </g>
  <g id="axes_2">
   <g id="patch_5">
    <path d="M 386.98 172.34 
L 707.04 172.34 
L 707.04 29.76 
L 386.98 29.76 
z
" style="fill: #ffffff"/>
   </g>
   <g id="matplotlib.axis_3">
    <g id="xtick_5">
     <g id="line2d_34">
      <g>
       <use xlink:href="#m2155e7eb3c" x="401.528182" y="172.34" style="stroke: #000000; stroke-width: 0.8"/>
      </g>
     </g>
     <g id="text_10">
      <!-- −0.5 -->
      <g transform="translate(389.386776 187.438437) scale(0.1 -0.1)">
       <use xlink:href="#DejaVuSans-2212"/>
       <use xlink:href="#DejaVuSans-30" x="83.789062"/>
       <use xlink:href="#DejaVuSans-2e" x="147.412109"/>
       <use xlink:href="#DejaVuSans-35" x="179.199219"/>
      </g>
     </g>
    </g>
    <g id="xtick_6">
     <g id="line2d_35">
      <g>
       <use xlink:href="#m2155e7eb3c" x="498.516061" y="172.34" style="stroke: #000000; stroke-width: 0.8"/>
      </g>
     </g>
     <g id="text_11">
      <!-- 0.0 -->
      <g transform="translate(490.564498 187.438437) scale(0.1 -0.1)">
       <use xlink:href="#DejaVuSans-30"/>
       <use xlink:href="#DejaVuSans-2e" x="63.623047"/>
       <use xlink:href="#DejaVuSans-30" x="95.410156"/>
      </g>
     </g>
    </g>
    <g id="xtick_7">
     <g id="line2d_36">
      <g>
       <use xlink:href="#m2155e7eb3c" x="595.503939" y="172.34" style="stroke: #000000; stroke-width: 0.8"/>
      </g>
     </g>
     <g id="text_12">
      <!-- 0.5 -->
      <g transform="translate(587.552377 187.438437) scale(0.1 -0.1)">
       <use xlink:href="#DejaVuSans-30"/>
       <use xlink:href="#DejaVuSans-2e" x="63.623047"/>
       <use xlink:href="#DejaVuSans-35" x="95.410156"/>
      </g>
     </g>
    </g>
    <g id="xtick_8">
     <g id="line2d_37">
      <g>
       <use xlink:href="#m2155e7eb3c" x="692.491818" y="172.34" style="stroke: #000000; stroke-width: 0.8"/>
      </g>
     </g>
     <g id="text_13">
      <!-- 1.0 -->
      <g transform="translate(684.540256 187.438437) scale(0.1 -0.1)">
       <use xlink:href="#DejaVuSans-31"/>
       <use xlink:href="#DejaVuSans-2e" x="63.623047"/>
       <use xlink:href="#DejaVuSans-30" x="95.410156"/>
      </g>
     </g>
    </g>
    <g id="text_14">
     <!-- Time (s) -->
     <g transform="translate(526.681094 201.116562) scale(0.1 -0.1)">
      <use xlink:href="#DejaVuSans-54"/>
      <use xlink:href="#DejaVuSans-69" x="57.958984"/>
      <use xlink:href="#DejaVuSans-6d" x="85.742188"/>
      <use xlink:href="#DejaVuSans-65" x="183.154297"/>
      <use xlink:href="#DejaVuSans-20" x="244.677734"/>
      <use xlink:href="#DejaVuSans-28" x="276.464844"/>
      <use xlink:href="#DejaVuSans-73" x="315.478516"/>
      <use xlink:href="#DejaVuSans-29" x="367.578125"/>
     </g>
    </g>
   </g>
   <g id="matplotlib.axis_4">
    <g id="ytick_3">
     <g id="line2d_38">
      <g>
       <use xlink:href="#m5d6df934ce" x="386.98" y="165.859091" style="stroke: #000000; stroke-width: 0.8"/>
      </g>
     </g>
    </g>
    <g id="ytick_4">
     <g id="line2d_39">
      <g>
       <use xlink:href="#m5d6df934ce" x="386.98" y="46.891493" style="stroke: #000000; stroke-width: 0.8"/>
      </g>
     </g>
    </g>
   </g>
   <g id="line2d_40">
    <path d="M 401.528182 165.859091 
L 496.576303 165.859091 
L 498.516061 162.710376 
L 502.395576 157.749096 
L 504.335333 156.972704 
L 506.275091 157.586592 
L 510.154606 160.959811 
L 512.094364 158.621711 
L 514.034121 147.885062 
L 515.973879 133.048056 
L 519.853394 105.226967 
L 521.793152 94.40743 
L 523.732909 88.803972 
L 525.672667 88.494384 
L 527.612424 87.372821 
L 529.552182 85.967816 
L 531.491939 86.667592 
L 533.431697 89.746918 
L 535.371455 92.223577 
L 537.311212 96.039731 
L 539.25097 101.32571 
L 541.190727 99.278352 
L 543.130485 99.002949 
L 545.070242 99.322326 
L 547.01 97.924125 
L 548.949758 96.298382 
L 550.889515 100.496707 
L 554.76903 104.355548 
L 558.648545 114.501767 
L 560.588303 123.066702 
L 562.528061 132.18184 
L 564.467818 139.422721 
L 566.407576 143.392343 
L 568.347333 148.159721 
L 570.287091 149.188649 
L 574.166606 151.842441 
L 576.106364 153.584776 
L 578.046121 154.139475 
L 579.985879 154.257396 
L 581.925636 153.652447 
L 583.865394 153.408322 
L 587.744909 157.861823 
L 589.684667 160.943385 
L 591.624424 165.859091 
L 692.491818 165.859091 
L 692.491818 165.859091 
" clip-path="url(#p8f5c86bab0)" style="fill: none; stroke: #4682b4; stroke-opacity: 0.3; stroke-width: 0.5; stroke-linecap: square"/>
   </g>
   <g id="line2d_41">
    <path d="M 401.528182 165.859091 
L 496.576303 165.859091 
L 498.516061 165.558289 
L 500.455818 165.084306 
L 502.395576 162.985987 
L 506.275091 158.414927 
L 508.214848 157.132274 
L 510.154606 152.863333 
L 512.094364 139.479538 
L 514.034121 119.115352 
L 515.973879 104.000212 
L 517.913636 93.020551 
L 519.853394 83.789738 
L 521.793152 84.398049 
L 523.732909 93.156344 
L 525.672667 98.148692 
L 527.612424 100.269435 
L 529.552182 106.888088 
L 531.491939 115.069884 
L 533.431697 122.21563 
L 535.371455 127.946088 
L 537.311212 132.549328 
L 539.25097 134.205538 
L 541.190727 135.099812 
L 547.01 139.668836 
L 548.949758 142.276594 
L 552.829273 151.210675 
L 554.76903 156.20611 
L 556.708788 160.06218 
L 558.648545 163.097511 
L 560.588303 164.428695 
L 562.528061 165.043669 
L 564.467818 165.369747 
L 566.407576 163.377397 
L 568.347333 162.606026 
L 570.287091 162.219079 
L 572.226848 161.375397 
L 574.166606 160.758186 
L 576.106364 162.162852 
L 578.046121 162.564843 
L 579.985879 162.653376 
L 585.805152 164.707013 
L 587.744909 165.13218 
L 589.684667 165.859091 
L 692.491818 165.859091 
L 692.491818 165.859091 
" clip-path="url(#p8f5c86bab0)" style="fill: none; stroke: #4682b4; stroke-opacity: 0.3; stroke-width: 0.5; stroke-linecap: square"/>
   </g>
   <g id="line2d_42">
    <path d="M 401.528182 165.859091 
L 496.576303 165.859091 
L 498.516061 154.584275 
L 500.455818 147.975695 
L 502.395576 139.329027 
L 504.335333 129.679879 
L 506.275091 125.622562 
L 508.214848 126.311752 
L 510.154606 128.61952 
L 512.094364 134.398762 
L 514.034121 141.222197 
L 515.973879 141.934866 
L 517.913636 131.800234 
L 519.853394 117.286705 
L 523.732909 91.314335 
L 525.672667 85.543977 
L 527.612424 92.637597 
L 529.552182 103.159511 
L 533.431697 117.179656 
L 535.371455 123.34969 
L 537.311212 125.201811 
L 539.25097 126.046628 
L 541.190727 127.288162 
L 543.130485 129.209691 
L 545.070242 129.570931 
L 547.01 130.883065 
L 548.949758 130.861333 
L 550.889515 131.140428 
L 552.829273 132.841805 
L 554.76903 137.061648 
L 556.708788 140.238364 
L 558.648545 144.814562 
L 562.528061 154.348361 
L 564.467818 154.987526 
L 566.407576 153.845504 
L 568.347333 156.268794 
L 570.287091 156.64184 
L 572.226848 156.093651 
L 574.166606 157.133705 
L 576.106364 160.811238 
L 578.046121 160.217203 
L 579.985879 160.959292 
L 583.865394 162.268591 
L 585.805152 162.624682 
L 587.744909 163.688571 
L 589.684667 164.593866 
L 591.624424 165.076302 
L 593.564182 165.859091 
L 692.491818 165.859091 
L 692.491818 165.859091 
" clip-path="url(#p8f5c86bab0)" style="fill: none; stroke: #4682b4; stroke-opacity: 0.3; stroke-width: 0.5; stroke-linecap: square"/>
   </g>
   <g id="line2d_43">
    <path d="M 401.528182 165.859091 
L 496.576303 165.859091 
L 498.516061 165.184184 
L 502.395576 164.572067 
L 504.335333 164.409966 
L 506.275091 164.389792 
L 508.214848 164.903413 
L 510.154606 159.877209 
L 512.094364 149.830165 
L 514.034121 134.690664 
L 517.913636 91.42743 
L 519.853394 74.60291 
L 521.793152 61.443839 
L 523.732909 50.168363 
L 525.672667 47.882172 
L 527.612424 51.300357 
L 529.552182 56.44562 
L 531.491939 64.326051 
L 533.431697 74.9574 
L 535.371455 84.795904 
L 539.25097 92.315871 
L 541.190727 92.671979 
L 543.130485 90.635862 
L 545.070242 89.733272 
L 547.01 91.556179 
L 548.949758 96.900498 
L 550.889515 106.40902 
L 552.829273 120.987131 
L 554.76903 134.247685 
L 556.708788 145.807694 
L 558.648545 153.720043 
L 560.588303 158.394784 
L 562.528061 160.734685 
L 564.467818 161.99404 
L 566.407576 162.428531 
L 568.347333 162.079826 
L 572.226848 163.476563 
L 574.166606 163.891516 
L 576.106364 164.024274 
L 583.865394 165.194519 
L 585.805152 165.859091 
L 692.491818 165.859091 
L 692.491818 165.859091 
" clip-path="url(#p8f5c86bab0)" style="fill: none; stroke: #4682b4; stroke-opacity: 0.3; stroke-width: 0.5; stroke-linecap: square"/>
   </g>
   <g id="line2d_44">
    <path d="M 401.528182 165.859091 
L 496.576303 165.859091 
L 498.516061 164.666515 
L 504.335333 163.029893 
L 506.275091 162.843932 
L 508.214848 159.113559 
L 510.154606 158.098091 
L 512.094364 153.295202 
L 515.973879 131.175184 
L 517.913636 121.757979 
L 519.853394 113.024249 
L 521.793152 106.803351 
L 523.732909 107.121124 
L 525.672667 107.22415 
L 527.612424 108.824002 
L 529.552182 108.29934 
L 531.491939 108.482104 
L 533.431697 108.864545 
L 535.371455 109.691125 
L 537.311212 111.301797 
L 541.190727 113.417509 
L 545.070242 109.483009 
L 547.01 106.839923 
L 550.889515 100.669307 
L 552.829273 100.895236 
L 554.76903 101.653854 
L 556.708788 105.167053 
L 560.588303 120.966218 
L 562.528061 129.804296 
L 564.467818 137.958561 
L 566.407576 142.782661 
L 568.347333 144.830403 
L 570.287091 147.084033 
L 572.226848 148.433928 
L 574.166606 150.553049 
L 576.106364 152.47011 
L 578.046121 152.704626 
L 579.985879 152.345852 
L 581.925636 152.495351 
L 583.865394 152.020344 
L 585.805152 152.710315 
L 587.744909 155.601771 
L 589.684667 158.883104 
L 591.624424 165.859091 
L 692.491818 165.859091 
L 692.491818 165.859091 
" clip-path="url(#p8f5c86bab0)" style="fill: none; stroke: #4682b4; stroke-opacity: 0.3; stroke-width: 0.5; stroke-linecap: square"/>
   </g>
   <g id="line2d_45">
    <path d="M 401.528182 165.859091 
L 496.576303 165.859091 
L 498.516061 159.18787 
L 500.455818 153.056989 
L 502.395576 142.969716 
L 504.335333 134.928403 
L 506.275091 132.7616 
L 508.214848 131.083681 
L 510.154606 130.987155 
L 512.094364 131.932583 
L 514.034121 124.528846 
L 515.973879 113.388367 
L 517.913636 99.867369 
L 519.853394 89.535387 
L 521.793152 83.765006 
L 523.732909 84.681302 
L 525.672667 87.348181 
L 527.612424 90.83729 
L 529.552182 91.824442 
L 531.491939 90.290673 
L 533.431697 89.614881 
L 535.371455 91.363344 
L 537.311212 96.649898 
L 541.190727 109.186051 
L 543.130485 113.839634 
L 545.070242 117.337161 
L 547.01 118.109628 
L 548.949758 120.316214 
L 552.829273 125.777131 
L 556.708788 132.146763 
L 558.648545 133.65861 
L 562.528061 137.917427 
L 564.467818 138.970053 
L 566.407576 139.122409 
L 568.347333 138.314482 
L 570.287091 138.143079 
L 576.106364 137.060814 
L 578.046121 139.572984 
L 579.985879 142.692762 
L 581.925636 147.25315 
L 583.865394 152.625425 
L 585.805152 158.499951 
L 587.744909 162.480032 
L 589.684667 165.859091 
L 692.491818 165.859091 
L 692.491818 165.859091 
" clip-path="url(#p8f5c86bab0)" style="fill: none; stroke: #4682b4; stroke-opacity: 0.3; stroke-width: 0.5; stroke-linecap: square"/>
   </g>
   <g id="line2d_46">
    <path d="M 401.528182 165.859091 
L 496.576303 165.859091 
L 500.455818 156.918613 
L 502.395576 149.905912 
L 504.335333 144.108081 
L 508.214848 141.400053 
L 510.154606 141.472728 
L 512.094364 141.979804 
L 514.034121 136.932316 
L 515.973879 129.979203 
L 517.913636 121.763957 
L 519.853394 114.940266 
L 521.793152 108.947357 
L 523.732909 106.601691 
L 525.672667 105.295697 
L 527.612424 107.153968 
L 529.552182 106.263774 
L 531.491939 108.057042 
L 533.431697 111.33385 
L 535.371455 113.239664 
L 537.311212 112.96935 
L 539.25097 116.045745 
L 541.190727 119.545953 
L 543.130485 119.646454 
L 545.070242 122.702742 
L 547.01 123.416821 
L 548.949758 125.649862 
L 550.889515 125.13309 
L 552.829273 127.034675 
L 554.76903 129.255593 
L 556.708788 133.272011 
L 558.648545 135.767942 
L 560.588303 139.492812 
L 562.528061 144.702982 
L 564.467818 147.528111 
L 566.407576 150.795009 
L 568.347333 153.020818 
L 570.287091 156.148482 
L 572.226848 157.630186 
L 574.166606 159.306611 
L 578.046121 161.979226 
L 579.985879 162.073376 
L 581.925636 162.952738 
L 585.805152 164.39406 
L 587.744909 165.859091 
L 692.491818 165.859091 
L 692.491818 165.859091 
" clip-path="url(#p8f5c86bab0)" style="fill: none; stroke: #4682b4; stroke-opacity: 0.3; stroke-width: 0.5; stroke-linecap: square"/>
   </g>
   <g id="line2d_47">
    <path d="M 401.528182 165.859091 
L 496.576303 165.859091 
L 498.516061 164.496131 
L 500.455818 164.158266 
L 502.395576 163.467401 
L 504.335333 163.250546 
L 506.275091 161.490073 
L 508.214848 158.083189 
L 510.154606 157.008814 
L 512.094364 148.227145 
L 514.034121 136.427458 
L 515.973879 125.569917 
L 519.853394 107.356048 
L 521.793152 103.933454 
L 523.732909 104.582984 
L 525.672667 105.530654 
L 527.612424 106.160819 
L 529.552182 104.60325 
L 531.491939 106.463501 
L 533.431697 106.721963 
L 535.371455 107.793447 
L 537.311212 109.469331 
L 539.25097 112.26281 
L 541.190727 112.675591 
L 543.130485 114.064689 
L 545.070242 116.438003 
L 547.01 118.098684 
L 548.949758 120.797637 
L 550.889515 124.304379 
L 554.76903 132.684507 
L 556.708788 137.558138 
L 558.648545 141.189202 
L 560.588303 146.139979 
L 562.528061 150.779347 
L 566.407576 157.815342 
L 568.347333 160.601257 
L 570.287091 159.910325 
L 572.226848 159.372233 
L 574.166606 159.637715 
L 576.106364 158.766067 
L 578.046121 158.036916 
L 579.985879 159.697561 
L 581.925636 160.255632 
L 583.865394 159.814482 
L 585.805152 160.836881 
L 587.744909 161.229078 
L 593.564182 164.748133 
L 595.503939 165.859091 
L 692.491818 165.859091 
L 692.491818 165.859091 
" clip-path="url(#p8f5c86bab0)" style="fill: none; stroke: #4682b4; stroke-opacity: 0.3; stroke-width: 0.5; stroke-linecap: square"/>
   </g>
   <g id="line2d_48">
    <path d="M 401.528182 165.859091 
L 496.576303 165.859091 
L 498.516061 164.729271 
L 500.455818 164.103604 
L 502.395576 163.825864 
L 504.335333 163.080274 
L 506.275091 163.055856 
L 508.214848 158.956153 
L 510.154606 158.191992 
L 512.094364 152.802328 
L 515.973879 130.410661 
L 519.853394 113.011548 
L 521.793152 107.972254 
L 523.732909 108.999282 
L 525.672667 110.533127 
L 527.612424 114.012322 
L 529.552182 114.542834 
L 531.491939 115.386469 
L 533.431697 117.645357 
L 535.371455 118.983833 
L 537.311212 115.72461 
L 539.25097 114.699002 
L 541.190727 114.175249 
L 543.130485 112.861982 
L 545.070242 110.926984 
L 547.01 112.858548 
L 548.949758 113.959527 
L 550.889515 114.302758 
L 552.829273 114.458108 
L 554.76903 116.594276 
L 556.708788 120.634578 
L 558.648545 123.948969 
L 562.528061 134.44915 
L 564.467818 139.832665 
L 566.407576 142.396772 
L 568.347333 146.766923 
L 570.287091 150.277759 
L 572.226848 153.458925 
L 574.166606 155.872057 
L 576.106364 158.905451 
L 578.046121 159.893955 
L 579.985879 160.029796 
L 581.925636 160.603246 
L 585.805152 162.832443 
L 587.744909 165.859091 
L 692.491818 165.859091 
L 692.491818 165.859091 
" clip-path="url(#p8f5c86bab0)" style="fill: none; stroke: #4682b4; stroke-opacity: 0.3; stroke-width: 0.5; stroke-linecap: square"/>
   </g>
   <g id="line2d_49">
    <path d="M 401.528182 165.859091 
L 496.576303 165.859091 
L 498.516061 165.080239 
L 502.395576 164.285034 
L 504.335333 163.932401 
L 508.214848 163.8007 
L 510.154606 163.411575 
L 512.094364 163.446474 
L 514.034121 162.24825 
L 515.973879 162.468807 
L 517.913636 145.921863 
L 519.853394 124.099249 
L 525.672667 66.925065 
L 527.612424 62.461101 
L 529.552182 64.743332 
L 531.491939 63.534928 
L 533.431697 66.631162 
L 537.311212 65.898186 
L 539.25097 64.346225 
L 541.190727 63.273721 
L 543.130485 60.732144 
L 545.070242 60.25581 
L 547.01 63.287253 
L 548.949758 67.400653 
L 550.889515 73.613036 
L 554.76903 93.152352 
L 556.708788 101.839082 
L 558.648545 109.421062 
L 560.588303 113.614244 
L 562.528061 112.540566 
L 566.407576 108.295955 
L 568.347333 105.196904 
L 570.287091 102.938897 
L 572.226848 101.307466 
L 574.166606 100.861577 
L 576.106364 99.645758 
L 579.985879 99.25398 
L 581.925636 99.879997 
L 583.865394 98.739487 
L 585.805152 99.518765 
L 587.744909 106.52209 
L 591.624424 125.360568 
L 593.564182 137.321647 
L 595.503939 148.38208 
L 597.443697 152.62647 
L 599.383455 154.007707 
L 601.323212 154.540776 
L 603.26297 154.942439 
L 605.202727 155.951012 
L 607.142485 157.688388 
L 609.082242 160.243109 
L 611.022 162.385202 
L 612.961758 163.761265 
L 616.841273 164.746119 
L 618.78103 165.042121 
L 620.720788 165.859091 
L 692.491818 165.859091 
L 692.491818 165.859091 
" clip-path="url(#p8f5c86bab0)" style="fill: none; stroke: #4682b4; stroke-opacity: 0.3; stroke-width: 0.5; stroke-linecap: square"/>
   </g>
   <g id="line2d_50">
    <path d="M 401.528182 165.859091 
L 496.576303 165.859091 
L 498.516061 157.150445 
L 500.455818 150.562639 
L 502.395576 147.076897 
L 504.335333 141.761959 
L 506.275091 138.926883 
L 508.214848 143.175082 
L 510.154606 146.230399 
L 512.094364 143.890372 
L 514.034121 140.085586 
L 515.973879 129.913081 
L 517.913636 113.598658 
L 519.853394 94.201964 
L 521.793152 76.498549 
L 523.732909 61.468862 
L 525.672667 51.12854 
L 527.612424 48.385503 
L 529.552182 49.484406 
L 531.491939 52.214466 
L 533.431697 56.459866 
L 535.371455 58.631276 
L 539.25097 59.807343 
L 541.190727 61.754518 
L 543.130485 62.811493 
L 548.949758 76.707245 
L 550.889515 78.71169 
L 552.829273 84.092489 
L 556.708788 107.737332 
L 562.528061 146.719741 
L 566.407576 156.518464 
L 570.287091 161.16728 
L 572.226848 161.188295 
L 574.166606 160.585457 
L 576.106364 160.69033 
L 578.046121 161.145433 
L 579.985879 162.29161 
L 581.925636 163.303927 
L 583.865394 165.859091 
L 692.491818 165.859091 
L 692.491818 165.859091 
" clip-path="url(#p8f5c86bab0)" style="fill: none; stroke: #4682b4; stroke-opacity: 0.3; stroke-width: 0.5; stroke-linecap: square"/>
   </g>
   <g id="line2d_51">
    <path d="M 401.528182 165.859091 
L 496.576303 165.859091 
L 498.516061 148.653396 
L 500.455818 142.744704 
L 502.395576 138.375428 
L 504.335333 138.076265 
L 506.275091 136.416088 
L 508.214848 127.685154 
L 510.154606 121.041008 
L 512.094364 106.168665 
L 514.034121 86.403192 
L 515.973879 73.407924 
L 517.913636 65.185496 
L 519.853394 52.245176 
L 521.793152 45.656798 
L 523.732909 41.388872 
L 525.672667 39.146384 
L 527.612424 41.883482 
L 529.552182 46.042014 
L 531.491939 51.222431 
L 533.431697 58.662251 
L 535.371455 67.249569 
L 537.311212 72.783294 
L 539.25097 79.58936 
L 541.190727 88.56878 
L 543.130485 92.628565 
L 545.070242 91.758656 
L 547.01 94.256383 
L 548.949758 95.208299 
L 550.889515 94.182909 
L 552.829273 91.866638 
L 554.76903 93.582963 
L 556.708788 94.854444 
L 558.648545 102.463521 
L 560.588303 113.360987 
L 564.467818 139.640547 
L 566.407576 149.861258 
L 568.347333 155.645029 
L 570.287091 156.046152 
L 572.226848 159.583039 
L 574.166606 161.796869 
L 576.106364 162.778535 
L 578.046121 162.962331 
L 581.925636 165.859091 
L 692.491818 165.859091 
L 692.491818 165.859091 
" clip-path="url(#p8f5c86bab0)" style="fill: none; stroke: #4682b4; stroke-opacity: 0.3; stroke-width: 0.5; stroke-linecap: square"/>
   </g>
   <g id="line2d_52">
    <path d="M 401.528182 165.859091 
L 496.576303 165.859091 
L 498.516061 164.25985 
L 500.455818 158.743753 
L 502.395576 151.450887 
L 504.335333 145.366161 
L 506.275091 141.964356 
L 508.214848 138.860115 
L 510.154606 138.444957 
L 512.094364 142.410935 
L 514.034121 145.319394 
L 515.973879 141.7965 
L 519.853394 126.051523 
L 521.793152 115.409321 
L 523.732909 102.619595 
L 525.672667 93.444094 
L 527.612424 88.975152 
L 529.552182 87.35356 
L 531.491939 84.931671 
L 533.431697 85.680357 
L 535.371455 85.368156 
L 537.311212 86.741453 
L 539.25097 85.598901 
L 541.190727 84.733382 
L 543.130485 84.102195 
L 545.070242 82.119737 
L 547.01 83.687338 
L 548.949758 86.319669 
L 550.889515 89.33734 
L 552.829273 91.270415 
L 554.76903 95.801127 
L 556.708788 95.189272 
L 558.648545 98.049122 
L 560.588303 105.361779 
L 562.528061 113.512712 
L 564.467818 123.09429 
L 566.407576 133.283331 
L 568.347333 139.881069 
L 570.287091 142.089295 
L 572.226848 144.015908 
L 574.166606 145.4057 
L 576.106364 147.321981 
L 578.046121 148.800448 
L 579.985879 151.475587 
L 581.925636 152.277356 
L 583.865394 152.350294 
L 585.805152 151.858199 
L 587.744909 152.595426 
L 589.684667 154.638231 
L 591.624424 158.099202 
L 593.564182 165.859091 
L 692.491818 165.859091 
L 692.491818 165.859091 
" clip-path="url(#p8f5c86bab0)" style="fill: none; stroke: #4682b4; stroke-opacity: 0.3; stroke-width: 0.5; stroke-linecap: square"/>
   </g>
   <g id="line2d_53">
    <path d="M 401.528182 165.859091 
L 496.576303 165.859091 
L 498.516061 164.886631 
L 500.455818 164.633206 
L 502.395576 164.000865 
L 504.335333 163.989284 
L 506.275091 163.393771 
L 508.214848 163.447501 
L 510.154606 161.84844 
L 512.094364 162.239861 
L 514.034121 151.891106 
L 515.973879 130.307891 
L 517.913636 111.948787 
L 519.853394 95.933618 
L 521.793152 78.645265 
L 523.732909 71.567042 
L 525.672667 75.536515 
L 527.612424 77.915025 
L 529.552182 82.81193 
L 531.491939 87.362722 
L 533.431697 93.438925 
L 535.371455 100.413769 
L 537.311212 105.77577 
L 541.190727 110.63357 
L 543.130485 112.147368 
L 545.070242 114.857704 
L 547.01 117.128364 
L 550.889515 122.869818 
L 552.829273 120.676713 
L 554.76903 117.275934 
L 556.708788 113.587558 
L 558.648545 109.595033 
L 560.588303 107.231444 
L 562.528061 109.732447 
L 564.467818 113.532802 
L 568.347333 122.756361 
L 572.226848 133.31703 
L 576.106364 140.325034 
L 578.046121 143.036184 
L 579.985879 143.608635 
L 581.925636 144.947795 
L 583.865394 146.521375 
L 585.805152 149.016756 
L 587.744909 151.189405 
L 589.684667 152.443391 
L 593.564182 156.736837 
L 595.503939 157.832681 
L 597.443697 159.324198 
L 599.383455 161.78936 
L 607.142485 165.859091 
L 692.491818 165.859091 
L 692.491818 165.859091 
" clip-path="url(#p8f5c86bab0)" style="fill: none; stroke: #4682b4; stroke-opacity: 0.3; stroke-width: 0.5; stroke-linecap: square"/>
   </g>
   <g id="line2d_54">
    <path d="M 401.528182 165.859091 
L 496.576303 165.859091 
L 498.516061 164.847689 
L 500.455818 164.741998 
L 502.395576 164.188095 
L 504.335333 163.945562 
L 506.275091 158.157128 
L 508.214848 144.08837 
L 510.154606 123.414556 
L 512.094364 111.243534 
L 514.034121 107.054843 
L 515.973879 101.75806 
L 517.913636 109.164197 
L 519.853394 121.802316 
L 521.793152 114.051488 
L 523.732909 97.479116 
L 525.672667 88.48494 
L 527.612424 75.654368 
L 529.552182 65.300662 
L 533.431697 65.398562 
L 535.371455 63.6052 
L 537.311212 64.249136 
L 539.25097 66.466179 
L 541.190727 72.059427 
L 543.130485 76.657923 
L 545.070242 80.219183 
L 547.01 81.915406 
L 548.949758 83.123027 
L 550.889515 84.499114 
L 552.829273 87.138522 
L 554.76903 92.136717 
L 556.708788 95.532317 
L 558.648545 97.162209 
L 560.588303 101.254026 
L 562.528061 108.309901 
L 564.467818 116.968511 
L 566.407576 127.60089 
L 568.347333 136.325792 
L 570.287091 141.946633 
L 572.226848 143.945525 
L 574.166606 143.34506 
L 576.106364 136.492367 
L 578.046121 128.53926 
L 579.985879 122.48411 
L 581.925636 119.969683 
L 583.865394 117.899265 
L 585.805152 121.683217 
L 587.744909 129.50667 
L 589.684667 136.150977 
L 593.564182 151.29489 
L 595.503939 165.859091 
L 692.491818 165.859091 
L 692.491818 165.859091 
" clip-path="url(#p8f5c86bab0)" style="fill: none; stroke: #4682b4; stroke-opacity: 0.3; stroke-width: 0.5; stroke-linecap: square"/>
   </g>
   <g id="line2d_55">
    <path d="M 401.528182 165.859091 
L 496.576303 165.859091 
L 498.516061 163.835342 
L 500.455818 162.775752 
L 502.395576 158.484993 
L 504.335333 155.531497 
L 506.275091 152.07914 
L 508.214848 149.832208 
L 510.154606 144.952461 
L 512.094364 143.755193 
L 514.034121 131.249293 
L 517.913636 89.629335 
L 521.793152 52.642118 
L 523.732909 43.199748 
L 525.672667 42.811282 
L 527.612424 40.326764 
L 529.552182 38.376903 
L 531.491939 36.240909 
L 533.431697 40.412751 
L 537.311212 53.027688 
L 541.190727 70.468219 
L 543.130485 74.852519 
L 547.01 81.381016 
L 548.949758 83.984042 
L 550.889515 84.601722 
L 552.829273 85.459185 
L 554.76903 86.943929 
L 556.708788 92.965526 
L 560.588303 109.796596 
L 562.528061 119.398905 
L 564.467818 128.239998 
L 566.407576 134.057873 
L 568.347333 136.794654 
L 570.287091 140.822465 
L 572.226848 142.957707 
L 574.166606 146.344124 
L 576.106364 147.910308 
L 578.046121 149.108293 
L 579.985879 150.486178 
L 581.925636 150.801651 
L 583.865394 151.33352 
L 585.805152 150.743279 
L 587.744909 150.6718 
L 589.684667 152.795947 
L 591.624424 156.531334 
L 593.564182 165.859091 
L 692.491818 165.859091 
L 692.491818 165.859091 
" clip-path="url(#p8f5c86bab0)" style="fill: none; stroke: #4682b4; stroke-opacity: 0.3; stroke-width: 0.5; stroke-linecap: square"/>
   </g>
   <g id="line2d_56">
    <path d="M 401.528182 165.859091 
L 496.576303 165.859091 
L 498.516061 164.193928 
L 500.455818 163.206071 
L 502.395576 162.507608 
L 504.335333 161.567097 
L 506.275091 161.538245 
L 508.214848 160.837659 
L 510.154606 159.097535 
L 512.094364 151.276081 
L 514.034121 130.124477 
L 515.973879 111.587907 
L 517.913636 95.827675 
L 519.853394 81.564015 
L 521.793152 72.858894 
L 523.732909 79.314397 
L 525.672667 83.49705 
L 527.612424 83.878882 
L 529.552182 84.595534 
L 531.491939 85.563662 
L 533.431697 86.692924 
L 535.371455 86.418742 
L 537.311212 88.074519 
L 539.25097 88.834634 
L 541.190727 92.32096 
L 543.130485 94.151066 
L 545.070242 96.935608 
L 547.01 99.276774 
L 548.949758 105.715644 
L 550.889515 110.323292 
L 552.829273 113.629722 
L 554.76903 116.357954 
L 556.708788 121.145381 
L 558.648545 126.61688 
L 560.588303 132.979028 
L 562.528061 140.51703 
L 564.467818 149.82352 
L 566.407576 155.308134 
L 568.347333 154.153238 
L 570.287091 155.289287 
L 572.226848 156.08906 
L 574.166606 156.033341 
L 576.106364 157.639793 
L 578.046121 161.740098 
L 579.985879 161.611086 
L 581.925636 162.268318 
L 585.805152 162.521567 
L 587.744909 162.518063 
L 589.684667 163.311814 
L 591.624424 163.869626 
L 593.564182 164.563116 
L 595.503939 165.859091 
L 692.491818 165.859091 
L 692.491818 165.859091 
" clip-path="url(#p8f5c86bab0)" style="fill: none; stroke: #4682b4; stroke-opacity: 0.3; stroke-width: 0.5; stroke-linecap: square"/>
   </g>
   <g id="line2d_57">
    <path d="M 401.528182 165.859091 
L 496.576303 165.859091 
L 498.516061 164.655468 
L 500.455818 163.981382 
L 502.395576 163.457135 
L 504.335333 162.71476 
L 506.275091 162.862831 
L 508.214848 158.214856 
L 510.154606 152.277578 
L 512.094364 147.931244 
L 514.034121 138.843397 
L 515.973879 127.387934 
L 519.853394 100.026049 
L 521.793152 87.17491 
L 523.732909 80.786896 
L 525.672667 77.54953 
L 527.612424 82.13871 
L 529.552182 91.545772 
L 531.491939 98.022137 
L 533.431697 103.096282 
L 537.311212 108.166122 
L 539.25097 108.854974 
L 541.190727 110.257464 
L 543.130485 112.33116 
L 545.070242 117.042898 
L 547.01 121.124415 
L 548.949758 124.749786 
L 552.829273 131.197917 
L 554.76903 136.500685 
L 556.708788 142.672889 
L 562.528061 159.896553 
L 564.467818 162.10432 
L 566.407576 163.328837 
L 568.347333 163.06387 
L 570.287091 161.736096 
L 572.226848 160.685965 
L 576.106364 159.650859 
L 578.046121 160.260871 
L 579.985879 161.929106 
L 581.925636 162.807602 
L 583.865394 163.232604 
L 585.805152 163.940524 
L 587.744909 164.486264 
L 589.684667 165.859091 
L 692.491818 165.859091 
L 692.491818 165.859091 
" clip-path="url(#p8f5c86bab0)" style="fill: none; stroke: #4682b4; stroke-opacity: 0.3; stroke-width: 0.5; stroke-linecap: square"/>
   </g>
   <g id="line2d_58">
    <path d="M 401.528182 165.859091 
L 496.576303 165.859091 
L 498.516061 164.547042 
L 504.335333 162.600516 
L 506.275091 162.748442 
L 508.214848 160.258583 
L 510.154606 154.159145 
L 512.094364 150.434237 
L 514.034121 143.340778 
L 515.973879 133.210526 
L 517.913636 122.275691 
L 519.853394 109.861735 
L 521.793152 95.673786 
L 523.732909 84.671042 
L 525.672667 76.69451 
L 527.612424 72.11436 
L 529.552182 73.577202 
L 531.491939 76.322451 
L 535.371455 87.816634 
L 537.311212 94.502876 
L 539.25097 101.87789 
L 541.190727 107.50859 
L 545.070242 112.553261 
L 547.01 114.399831 
L 548.949758 113.110443 
L 550.889515 111.611643 
L 552.829273 110.651186 
L 554.76903 109.243316 
L 556.708788 108.177135 
L 558.648545 112.010602 
L 560.588303 119.389244 
L 566.407576 147.934159 
L 568.347333 154.217824 
L 570.287091 156.889066 
L 572.226848 158.424432 
L 574.166606 159.291279 
L 578.046121 160.523584 
L 579.985879 161.474472 
L 581.925636 161.470752 
L 585.805152 162.572171 
L 587.744909 162.919478 
L 593.564182 164.699321 
L 595.503939 165.859091 
L 692.491818 165.859091 
L 692.491818 165.859091 
" clip-path="url(#p8f5c86bab0)" style="fill: none; stroke: #4682b4; stroke-opacity: 0.3; stroke-width: 0.5; stroke-linecap: square"/>
   </g>
   <g id="line2d_59">
    <path d="M 401.528182 165.859091 
L 496.576303 165.859091 
L 498.516061 165.171129 
L 500.455818 164.721085 
L 502.395576 164.474088 
L 504.335333 163.996315 
L 508.214848 159.379798 
L 510.154606 157.46512 
L 514.034121 154.170176 
L 515.973879 154.467504 
L 517.913636 142.780505 
L 521.793152 102.226683 
L 525.672667 62.453195 
L 527.612424 53.147888 
L 529.552182 53.082196 
L 531.491939 53.833471 
L 535.371455 61.605355 
L 539.25097 72.596284 
L 541.190727 76.92377 
L 543.130485 79.341533 
L 545.070242 77.886221 
L 547.01 76.013126 
L 548.949758 77.627771 
L 550.889515 78.015937 
L 552.829273 79.349531 
L 554.76903 89.733286 
L 558.648545 117.403804 
L 560.588303 133.086446 
L 562.528061 147.094367 
L 564.467818 156.117952 
L 566.407576 161.767372 
L 568.347333 163.570534 
L 570.287091 164.161378 
L 572.226848 161.76879 
L 574.166606 159.656309 
L 576.106364 159.454793 
L 579.985879 157.421516 
L 583.865394 160.993635 
L 585.805152 160.734109 
L 587.744909 162.267489 
L 589.684667 163.168879 
L 591.624424 165.859091 
L 692.491818 165.859091 
L 692.491818 165.859091 
" clip-path="url(#p8f5c86bab0)" style="fill: none; stroke: #4682b4; stroke-opacity: 0.3; stroke-width: 0.5; stroke-linecap: square"/>
   </g>
   <g id="line2d_60">
    <path d="M 401.528182 165.859091 
L 496.576303 165.859091 
L 500.455818 165.127193 
L 502.395576 165.003011 
L 504.335333 164.539797 
L 508.214848 159.860297 
L 510.154606 157.936996 
L 514.034121 154.599016 
L 515.973879 154.934965 
L 517.913636 143.580461 
L 521.793152 103.843024 
L 525.672667 63.806879 
L 527.612424 54.785979 
L 529.552182 55.696804 
L 531.491939 55.040455 
L 533.431697 54.940775 
L 535.371455 58.213108 
L 537.311212 64.043633 
L 539.25097 67.868584 
L 541.190727 72.095236 
L 543.130485 79.28855 
L 545.070242 84.813317 
L 548.949758 93.76808 
L 550.889515 97.555352 
L 552.829273 100.860623 
L 554.76903 104.661114 
L 556.708788 108.977196 
L 558.648545 117.800676 
L 560.588303 128.967002 
L 562.528061 137.483148 
L 564.467818 147.005758 
L 566.407576 154.809158 
L 568.347333 159.263311 
L 570.287091 161.129133 
L 572.226848 162.729607 
L 574.166606 162.163457 
L 578.046121 160.714749 
L 579.985879 160.757404 
L 581.925636 161.756033 
L 583.865394 162.1489 
L 585.805152 163.009168 
L 587.744909 163.18653 
L 589.684667 163.807329 
L 593.564182 164.818555 
L 595.503939 165.859091 
L 692.491818 165.859091 
L 692.491818 165.859091 
" clip-path="url(#p8f5c86bab0)" style="fill: none; stroke: #4682b4; stroke-opacity: 0.3; stroke-width: 0.5; stroke-linecap: square"/>
   </g>
   <g id="line2d_61">
    <path d="M 401.528182 165.859091 
L 496.576303 165.859091 
L 498.516061 153.095438 
L 500.455818 146.186112 
L 502.395576 137.171892 
L 504.335333 126.228784 
L 506.275091 120.337239 
L 508.214848 121.103128 
L 510.154606 118.993881 
L 512.094364 117.135449 
L 514.034121 111.962774 
L 515.973879 99.621498 
L 519.853394 78.545949 
L 521.793152 69.924212 
L 523.732909 65.88341 
L 525.672667 69.295398 
L 529.552182 80.144781 
L 531.491939 86.792714 
L 533.431697 94.081025 
L 535.371455 100.436797 
L 537.311212 102.846397 
L 539.25097 105.666561 
L 541.190727 107.804062 
L 543.130485 109.327921 
L 545.070242 110.391011 
L 547.01 112.729865 
L 548.949758 115.438597 
L 550.889515 117.587016 
L 552.829273 120.194398 
L 554.76903 125.435092 
L 556.708788 131.725585 
L 562.528061 149.252774 
L 564.467818 153.292116 
L 566.407576 154.379438 
L 568.347333 155.903905 
L 570.287091 156.774538 
L 572.226848 157.994157 
L 574.166606 157.268592 
L 576.106364 155.941481 
L 578.046121 156.212053 
L 579.985879 156.726607 
L 581.925636 157.521732 
L 583.865394 159.685286 
L 585.805152 163.077629 
L 587.744909 164.067752 
L 589.684667 165.859091 
L 692.491818 165.859091 
L 692.491818 165.859091 
" clip-path="url(#p8f5c86bab0)" style="fill: none; stroke: #4682b4; stroke-opacity: 0.3; stroke-width: 0.5; stroke-linecap: square"/>
   </g>
   <g id="line2d_62">
    <path d="M 401.528182 165.859091 
L 496.576303 165.859091 
L 498.516061 150.926632 
L 504.335333 125.010036 
L 506.275091 121.620474 
L 508.214848 124.495424 
L 510.154606 126.438093 
L 512.094364 127.752303 
L 514.034121 121.196473 
L 515.973879 110.323573 
L 521.793152 71.938516 
L 523.732909 67.161828 
L 525.672667 67.28147 
L 527.612424 69.101705 
L 529.552182 73.271194 
L 531.491939 76.441312 
L 533.431697 82.364223 
L 535.371455 89.813444 
L 537.311212 98.621019 
L 539.25097 103.895658 
L 541.190727 110.771805 
L 543.130485 115.536646 
L 545.070242 117.216817 
L 547.01 120.475451 
L 548.949758 125.614557 
L 550.889515 129.479739 
L 552.829273 133.967905 
L 554.76903 141.492798 
L 556.708788 146.620497 
L 558.648545 151.079535 
L 560.588303 155.979413 
L 562.528061 160.324445 
L 564.467818 161.668861 
L 566.407576 161.861874 
L 570.287091 161.893793 
L 572.226848 161.376441 
L 574.166606 162.000361 
L 576.106364 163.023011 
L 578.046121 163.505617 
L 581.925636 164.02555 
L 583.865394 164.184072 
L 589.684667 165.2259 
L 591.624424 165.859091 
L 692.491818 165.859091 
L 692.491818 165.859091 
" clip-path="url(#p8f5c86bab0)" style="fill: none; stroke: #4682b4; stroke-opacity: 0.3; stroke-width: 0.5; stroke-linecap: square"/>
   </g>
   <g id="line2d_63">
    <path d="M 401.528182 165.859091 
L 496.576303 165.859091 
L 498.516061 156.603985 
L 502.395576 136.355264 
L 504.335333 124.879926 
L 506.275091 115.746915 
L 508.214848 113.312755 
L 510.154606 112.679925 
L 514.034121 112.529492 
L 515.973879 110.309028 
L 517.913636 103.454127 
L 519.853394 91.256897 
L 523.732909 59.330702 
L 525.672667 50.012641 
L 527.612424 48.489016 
L 529.552182 52.531809 
L 533.431697 70.089914 
L 535.371455 73.917808 
L 537.311212 74.655933 
L 539.25097 75.718441 
L 541.190727 76.15974 
L 543.130485 75.545248 
L 545.070242 77.385659 
L 547.01 80.694893 
L 550.889515 87.900848 
L 552.829273 92.057211 
L 556.708788 101.352663 
L 558.648545 105.525431 
L 560.588303 111.028461 
L 562.528061 115.920496 
L 570.287091 143.123465 
L 572.226848 150.786594 
L 574.166606 155.255976 
L 576.106364 157.596952 
L 578.046121 160.50476 
L 579.985879 159.980907 
L 581.925636 160.358295 
L 583.865394 160.231819 
L 585.805152 160.78171 
L 587.744909 160.397232 
L 589.684667 161.603768 
L 591.624424 162.482271 
L 593.564182 162.337707 
L 597.443697 163.579059 
L 599.383455 164.357619 
L 601.323212 165.859091 
L 692.491818 165.859091 
L 692.491818 165.859091 
" clip-path="url(#p8f5c86bab0)" style="fill: none; stroke: #4682b4; stroke-opacity: 0.3; stroke-width: 0.5; stroke-linecap: square"/>
   </g>
   <g id="line2d_64">
    <path d="M 401.528182 165.859091 
L 496.576303 165.859091 
L 498.516061 156.797509 
L 506.275091 123.796691 
L 508.214848 121.825451 
L 512.094364 121.496015 
L 514.034121 118.025473 
L 517.913636 104.618506 
L 521.793152 86.094966 
L 523.732909 79.941456 
L 525.672667 77.165242 
L 527.612424 74.89949 
L 529.552182 72.805948 
L 531.491939 70.508832 
L 533.431697 67.534381 
L 535.371455 67.006667 
L 537.311212 70.4976 
L 539.25097 75.690138 
L 541.190727 81.921208 
L 543.130485 89.810635 
L 545.070242 96.614759 
L 547.01 100.395489 
L 548.949758 104.909561 
L 552.829273 115.107464 
L 554.76903 120.841012 
L 556.708788 128.120398 
L 558.648545 134.312852 
L 562.528061 145.615742 
L 564.467818 148.374672 
L 568.347333 152.464333 
L 570.287091 153.322668 
L 572.226848 153.910734 
L 574.166606 156.235027 
L 576.106364 157.562782 
L 578.046121 158.112703 
L 581.925636 161.388821 
L 583.865394 161.93874 
L 585.805152 162.334828 
L 587.744909 163.376132 
L 589.684667 164.063485 
L 591.624424 165.859091 
L 692.491818 165.859091 
L 692.491818 165.859091 
" clip-path="url(#p8f5c86bab0)" style="fill: none; stroke: #4682b4; stroke-opacity: 0.3; stroke-width: 0.5; stroke-linecap: square"/>
   </g>
   <g id="line2d_65">
    <path d="M 401.528182 165.859091 
L 496.576303 165.859091 
L 498.516061 155.414511 
L 506.275091 117.255571 
L 508.214848 115.011631 
L 512.094364 114.62623 
L 514.034121 110.614309 
L 517.913636 95.799392 
L 519.853394 86.369769 
L 521.793152 77.952117 
L 523.732909 73.054725 
L 527.612424 71.034462 
L 529.552182 70.773962 
L 531.491939 68.13778 
L 533.431697 68.144862 
L 535.371455 70.25558 
L 537.311212 74.218156 
L 539.25097 76.452479 
L 543.130485 83.388947 
L 545.070242 85.718304 
L 547.01 88.784127 
L 548.949758 93.45382 
L 550.889515 104.338034 
L 554.76903 128.419681 
L 556.708788 138.229959 
L 558.648545 150.897385 
L 560.588303 153.213629 
L 562.528061 151.807039 
L 564.467818 153.721856 
L 566.407576 154.082424 
L 568.347333 152.699969 
L 570.287091 155.199613 
L 572.226848 159.142069 
L 574.166606 157.999126 
L 576.106364 159.354662 
L 578.046121 159.673573 
L 579.985879 160.718243 
L 581.925636 160.679936 
L 583.865394 162.37236 
L 587.744909 164.356476 
L 589.684667 165.859091 
L 692.491818 165.859091 
L 692.491818 165.859091 
" clip-path="url(#p8f5c86bab0)" style="fill: none; stroke: #4682b4; stroke-opacity: 0.3; stroke-width: 0.5; stroke-linecap: square"/>
   </g>
   <g id="line2d_66">
    <path d="M 401.528182 165.859091 
L 496.576303 165.859091 
L 498.516061 161.077204 
L 500.455818 157.687128 
L 504.335333 150.080311 
L 506.275091 147.4423 
L 508.214848 145.442663 
L 510.154606 143.190498 
L 512.094364 139.965219 
L 514.034121 132.474746 
L 515.973879 122.649177 
L 517.913636 111.361336 
L 519.853394 99.089203 
L 521.793152 87.963868 
L 523.732909 80.583087 
L 525.672667 76.664608 
L 527.612424 76.091988 
L 529.552182 77.697411 
L 531.491939 79.908604 
L 533.431697 83.528684 
L 535.371455 86.874375 
L 539.25097 92.885313 
L 541.190727 95.784991 
L 543.130485 97.69238 
L 545.070242 99.420569 
L 547.01 101.393366 
L 548.949758 103.929607 
L 550.889515 106.7209 
L 552.829273 110.06052 
L 556.708788 119.867094 
L 558.648545 125.522749 
L 562.528061 137.829107 
L 564.467818 142.977678 
L 566.407576 146.801176 
L 568.347333 149.284653 
L 570.287091 150.957452 
L 572.226848 152.209871 
L 576.106364 153.66113 
L 579.985879 154.516224 
L 583.865394 155.863918 
L 585.805152 156.903906 
L 587.744909 158.393535 
L 593.564182 163.53784 
L 595.503939 164.765212 
L 599.383455 165.188991 
L 605.202727 165.436346 
L 612.961758 165.778405 
L 632.359333 165.859091 
L 692.491818 165.859091 
L 692.491818 165.859091 
" clip-path="url(#p8f5c86bab0)" style="fill: none; stroke: #000080; stroke-linecap: square"/>
   </g>
   <g id="patch_6">
    <path d="M 386.98 172.34 
L 386.98 29.76 
" style="fill: none; stroke: #000000; stroke-width: 0.8; stroke-linejoin: miter; stroke-linecap: square"/>
   </g>
   <g id="patch_7">
    <path d="M 386.98 172.34 
L 707.04 172.34 
" style="fill: none; stroke: #000000; stroke-width: 0.8; stroke-linejoin: miter; stroke-linecap: square"/>
   </g>
   <g id="text_15">
    <!-- CVC -->
    <g transform="translate(532.445625 23.76) scale(0.14 -0.14)">
     <use xlink:href="#DejaVuSans-43"/>
     <use xlink:href="#DejaVuSans-56" x="69.824219"/>
     <use xlink:href="#DejaVuSans-43" x="138.232422"/>
    </g>
   </g>
  </g>
 </g>
 <defs>
  <clipPath id="peb4e59aa3b">
   <rect x="49.96" y="29.76" width="320.06" height="142.58"/>
  </clipPath>
  <clipPath id="p8f5c86bab0">
   <rect x="386.98" y="29.76" width="320.06" height="142.58"/>
  </clipPath>
 </defs>
</svg>
