<?xml version="1.0" encoding="utf-8" standalone="no"?>
<!DOCTYPE svg PUBLIC "-//W3C//DTD SVG 1.1//EN"
  "http://www.w3.org/Graphics/SVG/1.1/DTD/svg11.dtd">
<svg xmlns:xlink="http://www.w3.org/1999/xlink" width="712.88375pt" height="280.954375pt" viewBox="0 0 712.88375 280.954375" xmlns="http://www.w3.org/2000/svg" version="1.1">
 <metadata>
  <rdf:RDF xmlns:dc="http://purl.org/dc/elements/1.1/" xmlns:cc="http://creativecommons.org/ns#" xmlns:rdf="http://www.w3.org/1999/02/22-rdf-syntax-ns#">
   <cc:Work>
    <dc:type rdf:resource="http://purl.org/dc/dcmitype/StillImage"/>
    <dc:date>2025-09-06T13:15:28.557073</dc:date>
    <dc:format>image/svg+xml</dc:format>
    <dc:creator>
     <cc:Agent>
      <dc:title>Matplotlib v3.9.2, https://matplotlib.org/</dc:title>
     </cc:Agent>
    </dc:creator>
   </cc:Work>
  </rdf:RDF>
 </metadata>
 <defs>
  <style type="text/css">*{stroke-linejoin: round; stroke-linecap: butt}</style>
 </defs>
 <g id="figure_1">
  <g id="patch_1">
   <path d="M 0 280.954375 
L 712.88375 280.954375 
L 712.88375 0 
L 0 0 
z
" style="fill: #ffffff"/>
  </g>
  <g id="axes_1">
   <g id="patch_2">
    <path d="M 50.64375 242.898125 
L 351.08375 242.898125 
L 351.08375 22.318125 
L 50.64375 22.318125 
z
" style="fill: #ffffff"/>
   </g>
   <g id="PolyCollection_1">
    <defs>
     <path id="m3afc842d5c" d="M 50.64375 -107.784518 
L 50.64375 -69.118395 
L 52.954827 -70.464708 
L 55.265904 -72.672662 
L 57.576981 -73.372745 
L 59.888058 -73.534303 
L 62.199135 -72.026432 
L 64.510212 -71.541759 
L 66.821288 -66.641178 
L 69.132365 -65.456422 
L 71.443442 -65.564127 
L 73.754519 -65.941095 
L 76.065596 -65.187159 
L 78.376673 -67.395113 
L 80.68775 -66.587325 
L 82.998827 -65.617979 
L 85.309904 -64.433224 
L 87.620981 -67.879786 
L 89.932058 -70.249298 
L 92.243135 -73.965123 
L 94.554212 -78.273326 
L 96.865288 -80.104312 
L 99.176365 -82.204562 
L 101.487442 -82.743087 
L 103.798519 -86.351207 
L 106.109596 -88.613014 
L 108.420673 -88.182193 
L 110.73175 -87.805226 
L 113.042827 -89.474654 
L 115.353904 -89.151539 
L 117.664981 -87.912931 
L 119.976058 -88.236046 
L 122.287135 -84.520221 
L 124.598212 -84.843336 
L 126.909288 -87.05129 
L 129.220365 -90.01318 
L 131.531442 -96.475484 
L 133.842519 -102.668526 
L 136.153596 -107.245992 
L 138.464673 -109.615504 
L 140.77575 -106.599762 
L 143.086827 -106.599762 
L 145.397904 -107.138287 
L 147.708981 -112.738951 
L 150.020058 -119.093551 
L 152.331135 -122.970934 
L 154.642212 -122.540113 
L 156.953288 -123.078639 
L 159.264365 -120.816832 
L 161.575442 -116.724039 
L 163.886519 -114.785348 
L 166.197596 -113.385182 
L 168.508673 -115.323873 
L 170.81975 -118.124205 
L 173.130827 -122.647818 
L 175.441904 -124.155689 
L 177.752981 -126.632906 
L 180.064058 -126.848316 
L 182.375135 -130.402584 
L 184.686212 -134.495377 
L 186.997288 -137.188004 
L 189.308365 -138.480465 
L 191.619442 -140.634566 
L 193.930519 -137.080299 
L 196.241596 -134.710787 
L 198.552673 -132.01816 
L 200.86375 -131.37193 
L 203.174827 -131.479635 
L 205.485904 -131.80275 
L 207.796981 -133.741441 
L 210.108058 -138.695875 
L 212.419135 -144.081129 
L 214.730212 -150.435729 
L 217.041288 -154.743932 
L 219.352365 -156.898033 
L 221.663442 -160.02148 
L 223.974519 -162.498697 
L 226.285596 -165.191324 
L 228.596673 -165.94526 
L 230.90775 -166.59149 
L 233.218827 -167.022311 
L 235.529904 -167.883951 
L 237.840981 -168.207066 
L 240.152058 -164.760504 
L 242.463135 -159.37525 
L 244.774212 -152.482125 
L 247.085288 -149.143268 
L 249.396365 -148.281627 
L 251.707442 -146.558346 
L 254.018519 -145.265885 
L 256.329596 -148.389332 
L 258.640673 -151.081959 
L 260.95175 -150.866549 
L 263.262827 -149.358678 
L 265.573904 -150.004908 
L 267.884981 -149.574088 
L 270.196058 -144.619654 
L 272.507135 -141.603912 
L 274.818212 -136.218658 
L 277.129288 -129.217828 
L 279.440365 -124.047984 
L 281.751442 -118.124205 
L 284.062519 -111.985016 
L 286.373596 -107.030582 
L 288.684673 -105.415006 
L 290.99575 -105.199596 
L 293.306827 -104.01484 
L 295.617904 -104.87648 
L 297.928981 -104.23025 
L 300.240058 -105.630416 
L 302.551135 -109.615504 
L 304.862212 -111.338785 
L 307.173288 -109.292389 
L 309.484365 -106.168941 
L 311.795442 -99.814342 
L 314.106519 -95.183023 
L 316.417596 -88.289898 
L 318.728673 -83.335465 
L 321.03975 -82.043004 
L 323.350827 -81.773741 
L 325.661904 -83.550875 
L 327.972981 -85.758829 
L 330.284058 -86.135797 
L 332.595135 -88.343751 
L 334.906212 -90.336295 
L 337.217288 -89.151539 
L 339.528365 -89.528507 
L 341.839442 -88.451456 
L 344.150519 -85.220304 
L 346.461596 -84.197105 
L 348.772673 -83.22776 
L 351.08375 -82.473824 
L 351.08375 -115.970104 
L 351.08375 -115.970104 
L 348.772673 -115.216168 
L 346.461596 -116.293219 
L 344.150519 -116.616334 
L 341.839442 -119.524371 
L 339.528365 -122.863229 
L 337.217288 -125.340445 
L 334.906212 -125.01733 
L 332.595135 -122.755523 
L 330.284058 -119.955191 
L 327.972981 -117.37027 
L 325.661904 -114.246822 
L 323.350827 -115.862398 
L 321.03975 -117.37027 
L 318.728673 -121.032242 
L 316.417596 -125.555855 
L 314.106519 -130.941109 
L 311.795442 -134.926197 
L 309.484365 -139.126695 
L 307.173288 -139.880631 
L 304.862212 -144.727359 
L 302.551135 -144.511949 
L 300.240058 -141.173092 
L 297.928981 -140.634566 
L 295.617904 -140.634566 
L 293.306827 -136.326363 
L 290.99575 -137.941939 
L 288.684673 -140.311451 
L 286.373596 -142.357848 
L 284.062519 -146.23523 
L 281.751442 -150.435729 
L 279.440365 -154.420816 
L 277.129288 -161.098531 
L 274.818212 -168.530182 
L 272.507135 -178.008229 
L 270.196058 -184.470533 
L 267.884981 -189.640377 
L 265.573904 -191.363658 
L 263.262827 -191.794479 
L 260.95175 -188.778736 
L 258.640673 -188.563326 
L 256.329596 -190.394312 
L 254.018519 -190.071197 
L 251.707442 -189.640377 
L 249.396365 -191.794479 
L 247.085288 -196.318092 
L 244.774212 -200.30318 
L 242.463135 -204.611383 
L 240.152058 -211.073687 
L 237.840981 -214.08943 
L 235.529904 -214.412545 
L 233.218827 -214.73566 
L 230.90775 -216.028121 
L 228.596673 -218.182223 
L 226.285596 -219.474684 
L 223.974519 -216.458941 
L 221.663442 -213.012379 
L 219.352365 -205.580729 
L 217.041288 -200.626295 
L 214.730212 -191.579068 
L 212.419135 -187.16316 
L 210.108058 -183.070367 
L 207.796981 -179.839215 
L 205.485904 -175.315602 
L 203.174827 -174.561666 
L 200.86375 -175.100191 
L 198.552673 -175.315602 
L 196.241596 -176.931178 
L 193.930519 -177.577408 
L 191.619442 -177.254293 
L 189.308365 -175.961832 
L 186.997288 -169.284117 
L 184.686212 -164.868209 
L 182.375135 -160.990826 
L 180.064058 -158.298199 
L 177.752981 -156.790328 
L 175.441904 -155.390162 
L 173.130827 -153.451471 
L 170.81975 -150.435729 
L 168.508673 -148.712447 
L 166.197596 -149.358678 
L 163.886519 -147.958512 
L 161.575442 -149.035562 
L 159.264365 -152.697535 
L 156.953288 -155.820982 
L 154.642212 -155.713277 
L 152.331135 -153.774586 
L 150.020058 -150.974254 
L 147.708981 -147.419986 
L 145.397904 -143.758014 
L 143.086827 -141.711617 
L 140.77575 -140.203746 
L 138.464673 -138.911285 
L 136.153596 -136.326363 
L 133.842519 -133.956852 
L 131.531442 -125.986676 
L 129.220365 -120.816832 
L 126.909288 -118.770436 
L 124.598212 -116.185514 
L 122.287135 -116.616334 
L 119.976058 -118.66273 
L 117.664981 -119.524371 
L 115.353904 -121.247652 
L 113.042827 -122.432408 
L 110.73175 -122.432408 
L 108.420673 -120.924537 
L 106.109596 -119.416666 
L 103.798519 -115.539283 
L 101.487442 -114.031412 
L 99.176365 -109.507799 
L 96.865288 -106.599762 
L 94.554212 -101.968443 
L 92.243135 -100.245162 
L 89.932058 -98.144913 
L 87.620981 -97.498683 
L 85.309904 -98.144913 
L 82.998827 -96.744747 
L 80.68775 -97.175567 
L 78.376673 -97.66024 
L 76.065596 -97.714093 
L 73.754519 -95.021466 
L 71.443442 -94.321383 
L 69.132365 -95.290729 
L 66.821288 -97.87565 
L 64.510212 -101.914591 
L 62.199135 -102.399264 
L 59.888058 -104.984186 
L 57.576981 -106.815172 
L 55.265904 -108.861568 
L 52.954827 -108.646158 
L 50.64375 -107.784518 
z
"/>
    </defs>
    <g clip-path="url(#p30f134ccbc)">
     <use xlink:href="#m3afc842d5c" x="0" y="280.954375" style="fill: #f14432; fill-opacity: 0.2"/>
    </g>
   </g>
   <g id="PolyCollection_2">
    <defs>
     <path id="m4fb91d2778" d="M 50.64375 -101.483771 
L 50.64375 -85.220304 
L 52.954827 -85.112599 
L 55.265904 -84.735631 
L 57.576981 -84.358663 
L 59.888058 -83.65858 
L 62.199135 -84.412516 
L 64.510212 -84.304811 
L 66.821288 -84.358663 
L 69.132365 -84.789483 
L 71.443442 -83.389317 
L 73.754519 -84.250958 
L 76.065596 -84.951041 
L 78.376673 -83.44317 
L 80.68775 -84.197105 
L 82.998827 -83.497022 
L 85.309904 -82.635382 
L 87.620981 -81.935299 
L 89.932058 -82.689234 
L 92.243135 -82.258414 
L 94.554212 -83.927843 
L 96.865288 -84.035548 
L 99.176365 -83.44317 
L 101.487442 -81.450626 
L 103.798519 -82.904645 
L 106.109596 -83.87399 
L 108.420673 -82.366119 
L 110.73175 -81.989151 
L 113.042827 -82.635382 
L 115.353904 -81.342921 
L 117.664981 -82.796939 
L 119.976058 -82.419972 
L 122.287135 -83.120055 
L 124.598212 -83.173907 
L 126.909288 -83.87399 
L 129.220365 -84.466368 
L 131.531442 -83.44317 
L 133.842519 -83.389317 
L 136.153596 -84.574073 
L 138.464673 -83.066202 
L 140.77575 -82.904645 
L 143.086827 -83.173907 
L 145.397904 -83.65858 
L 147.708981 -83.497022 
L 150.020058 -82.958497 
L 152.331135 -82.743087 
L 154.642212 -84.520221 
L 156.953288 -83.981695 
L 159.264365 -83.173907 
L 161.575442 -82.581529 
L 163.886519 -81.289068 
L 166.197596 -81.504479 
L 168.508673 -82.043004 
L 170.81975 -82.689234 
L 173.130827 -81.289068 
L 175.441904 -81.396773 
L 177.752981 -82.043004 
L 180.064058 -81.396773 
L 182.375135 -82.581529 
L 184.686212 -83.335465 
L 186.997288 -85.166451 
L 189.308365 -85.704977 
L 191.619442 -84.735631 
L 193.930519 -84.735631 
L 196.241596 -84.0894 
L 198.552673 -84.627926 
L 200.86375 -85.489566 
L 203.174827 -85.220304 
L 205.485904 -83.927843 
L 207.796981 -83.712433 
L 210.108058 -83.120055 
L 212.419135 -83.44317 
L 214.730212 -83.173907 
L 217.041288 -82.904645 
L 219.352365 -84.035548 
L 221.663442 -83.22776 
L 223.974519 -83.22776 
L 226.285596 -83.22776 
L 228.596673 -85.651124 
L 230.90775 -84.951041 
L 233.218827 -83.550875 
L 235.529904 -84.250958 
L 237.840981 -85.166451 
L 240.152058 -83.389317 
L 242.463135 -83.335465 
L 244.774212 -83.22776 
L 247.085288 -83.766285 
L 249.396365 -84.466368 
L 251.707442 -83.820138 
L 254.018519 -82.581529 
L 256.329596 -82.904645 
L 258.640673 -84.681778 
L 260.95175 -84.358663 
L 263.262827 -83.604728 
L 265.573904 -85.166451 
L 267.884981 -83.604728 
L 270.196058 -84.0894 
L 272.507135 -83.981695 
L 274.818212 -84.681778 
L 277.129288 -84.412516 
L 279.440365 -85.489566 
L 281.751442 -84.627926 
L 284.062519 -85.704977 
L 286.373596 -86.889732 
L 288.684673 -85.489566 
L 290.99575 -86.458912 
L 293.306827 -87.697521 
L 295.617904 -87.374405 
L 297.928981 -88.666866 
L 300.240058 -86.728175 
L 302.551135 -86.566617 
L 304.862212 -86.62047 
L 307.173288 -84.735631 
L 309.484365 -84.627926 
L 311.795442 -84.197105 
L 314.106519 -84.035548 
L 316.417596 -83.497022 
L 318.728673 -83.01235 
L 321.03975 -83.604728 
L 323.350827 -83.766285 
L 325.661904 -83.335465 
L 327.972981 -82.150709 
L 330.284058 -83.65858 
L 332.595135 -83.066202 
L 334.906212 -86.189649 
L 337.217288 -86.40506 
L 339.528365 -86.189649 
L 341.839442 -85.597271 
L 344.150519 -85.597271 
L 346.461596 -85.597271 
L 348.772673 -84.0894 
L 351.08375 -84.681778 
L 351.08375 -99.329669 
L 351.08375 -99.329669 
L 348.772673 -100.029752 
L 346.461596 -99.922047 
L 344.150519 -101.214508 
L 341.839442 -101.322213 
L 339.528365 -99.545079 
L 337.217288 -99.652784 
L 334.906212 -101.05295 
L 332.595135 -100.62213 
L 330.284058 -101.429918 
L 327.972981 -103.045494 
L 325.661904 -102.506969 
L 323.350827 -102.937789 
L 321.03975 -103.853282 
L 318.728673 -102.506969 
L 316.417596 -102.560821 
L 314.106519 -101.591476 
L 311.795442 -101.968443 
L 309.484365 -101.645328 
L 307.173288 -102.183854 
L 304.862212 -102.022296 
L 302.551135 -103.58402 
L 300.240058 -103.207052 
L 297.928981 -102.991642 
L 295.617904 -102.345411 
L 293.306827 -102.345411 
L 290.99575 -102.076148 
L 288.684673 -103.260904 
L 286.373596 -104.553365 
L 284.062519 -104.66107 
L 281.751442 -103.58402 
L 279.440365 -101.968443 
L 277.129288 -100.891393 
L 274.818212 -100.299015 
L 272.507135 -98.521881 
L 270.196058 -97.983355 
L 267.884981 -99.652784 
L 265.573904 -99.706637 
L 263.262827 -100.62213 
L 260.95175 -101.160655 
L 258.640673 -100.729835 
L 256.329596 -99.060406 
L 254.018519 -98.737291 
L 251.707442 -98.683438 
L 249.396365 -99.114259 
L 247.085288 -99.598932 
L 244.774212 -98.091061 
L 242.463135 -97.552535 
L 240.152058 -98.791144 
L 237.840981 -98.521881 
L 235.529904 -99.437374 
L 233.218827 -99.598932 
L 230.90775 -101.322213 
L 228.596673 -101.914591 
L 226.285596 -100.675982 
L 223.974519 -99.922047 
L 221.663442 -100.352867 
L 219.352365 -101.591476 
L 217.041288 -99.706637 
L 214.730212 -100.83754 
L 212.419135 -100.891393 
L 210.108058 -100.568277 
L 207.796981 -99.975899 
L 205.485904 -100.729835 
L 203.174827 -101.591476 
L 200.86375 -100.999098 
L 198.552673 -99.814342 
L 196.241596 -100.783687 
L 193.930519 -100.891393 
L 191.619442 -101.214508 
L 189.308365 -100.568277 
L 186.997288 -100.999098 
L 184.686212 -101.322213 
L 182.375135 -100.029752 
L 180.064058 -98.737291 
L 177.752981 -100.783687 
L 175.441904 -101.645328 
L 173.130827 -101.322213 
L 170.81975 -101.106803 
L 168.508673 -100.460572 
L 166.197596 -100.675982 
L 163.886519 -101.537623 
L 161.575442 -100.029752 
L 159.264365 -101.699181 
L 156.953288 -100.460572 
L 154.642212 -100.245162 
L 152.331135 -101.26836 
L 150.020058 -100.729835 
L 147.708981 -99.437374 
L 145.397904 -99.814342 
L 143.086827 -100.299015 
L 140.77575 -101.645328 
L 138.464673 -100.40672 
L 136.153596 -100.62213 
L 133.842519 -101.05295 
L 131.531442 -100.245162 
L 129.220365 -100.945245 
L 126.909288 -100.783687 
L 124.598212 -99.545079 
L 122.287135 -100.137457 
L 119.976058 -100.299015 
L 117.664981 -100.137457 
L 115.353904 -99.975899 
L 113.042827 -99.975899 
L 110.73175 -99.975899 
L 108.420673 -99.491227 
L 106.109596 -99.275816 
L 103.798519 -98.198766 
L 101.487442 -98.468028 
L 99.176365 -96.906305 
L 96.865288 -97.175567 
L 94.554212 -97.606388 
L 92.243135 -97.121715 
L 89.932058 -96.152369 
L 87.620981 -95.936959 
L 85.309904 -95.990812 
L 82.998827 -97.283272 
L 80.68775 -98.844996 
L 78.376673 -98.737291 
L 76.065596 -100.029752 
L 73.754519 -99.545079 
L 71.443442 -98.791144 
L 69.132365 -100.083604 
L 66.821288 -100.40672 
L 64.510212 -99.275816 
L 62.199135 -98.952701 
L 59.888058 -98.306471 
L 57.576981 -99.221964 
L 55.265904 -100.245162 
L 52.954827 -100.299015 
L 50.64375 -101.483771 
z
"/>
    </defs>
    <g clip-path="url(#p30f134ccbc)">
     <use xlink:href="#m4fb91d2778" x="0" y="280.954375" style="fill: #4a98c9; fill-opacity: 0.2"/>
    </g>
   </g>
   <g id="patch_3">
    <path d="M 145.397904 227.457525 
L 147.708981 227.457525 
L 147.708981 223.045925 
L 145.397904 223.045925 
z
" clip-path="url(#p30f134ccbc)" style="fill: #f14432"/>
   </g>
   <g id="patch_4">
    <path d="M 147.708981 227.457525 
L 150.020058 227.457525 
L 150.020058 223.045925 
L 147.708981 223.045925 
z
" clip-path="url(#p30f134ccbc)" style="fill: #f14432"/>
   </g>
   <g id="patch_5">
    <path d="M 150.020058 227.457525 
L 152.331135 227.457525 
L 152.331135 223.045925 
L 150.020058 223.045925 
z
" clip-path="url(#p30f134ccbc)" style="fill: #f14432"/>
   </g>
   <g id="patch_6">
    <path d="M 152.331135 227.457525 
L 154.642212 227.457525 
L 154.642212 223.045925 
L 152.331135 223.045925 
z
" clip-path="url(#p30f134ccbc)" style="fill: #f14432"/>
   </g>
   <g id="patch_7">
    <path d="M 154.642212 227.457525 
L 156.953288 227.457525 
L 156.953288 223.045925 
L 154.642212 223.045925 
z
" clip-path="url(#p30f134ccbc)" style="fill: #f14432"/>
   </g>
   <g id="patch_8">
    <path d="M 156.953288 227.457525 
L 159.264365 227.457525 
L 159.264365 223.045925 
L 156.953288 223.045925 
z
" clip-path="url(#p30f134ccbc)" style="fill: #f14432"/>
   </g>
   <g id="patch_9">
    <path d="M 159.264365 227.457525 
L 161.575442 227.457525 
L 161.575442 223.045925 
L 159.264365 223.045925 
z
" clip-path="url(#p30f134ccbc)" style="fill: #f14432"/>
   </g>
   <g id="patch_10">
    <path d="M 161.575442 227.457525 
L 163.886519 227.457525 
L 163.886519 223.045925 
L 161.575442 223.045925 
z
" clip-path="url(#p30f134ccbc)" style="fill: #f14432"/>
   </g>
   <g id="patch_11">
    <path d="M 163.886519 227.457525 
L 166.197596 227.457525 
L 166.197596 223.045925 
L 163.886519 223.045925 
z
" clip-path="url(#p30f134ccbc)" style="fill: #f14432"/>
   </g>
   <g id="patch_12">
    <path d="M 166.197596 227.457525 
L 168.508673 227.457525 
L 168.508673 223.045925 
L 166.197596 223.045925 
z
" clip-path="url(#p30f134ccbc)" style="fill: #f14432"/>
   </g>
   <g id="patch_13">
    <path d="M 168.508673 227.457525 
L 170.81975 227.457525 
L 170.81975 223.045925 
L 168.508673 223.045925 
z
" clip-path="url(#p30f134ccbc)" style="fill: #f14432"/>
   </g>
   <g id="patch_14">
    <path d="M 170.81975 227.457525 
L 173.130827 227.457525 
L 173.130827 223.045925 
L 170.81975 223.045925 
z
" clip-path="url(#p30f134ccbc)" style="fill: #f14432"/>
   </g>
   <g id="patch_15">
    <path d="M 173.130827 227.457525 
L 175.441904 227.457525 
L 175.441904 223.045925 
L 173.130827 223.045925 
z
" clip-path="url(#p30f134ccbc)" style="fill: #f14432"/>
   </g>
   <g id="patch_16">
    <path d="M 175.441904 227.457525 
L 177.752981 227.457525 
L 177.752981 223.045925 
L 175.441904 223.045925 
z
" clip-path="url(#p30f134ccbc)" style="fill: #f14432"/>
   </g>
   <g id="patch_17">
    <path d="M 177.752981 227.457525 
L 180.064058 227.457525 
L 180.064058 223.045925 
L 177.752981 223.045925 
z
" clip-path="url(#p30f134ccbc)" style="fill: #f14432"/>
   </g>
   <g id="patch_18">
    <path d="M 180.064058 227.457525 
L 182.375135 227.457525 
L 182.375135 223.045925 
L 180.064058 223.045925 
z
" clip-path="url(#p30f134ccbc)" style="fill: #f14432"/>
   </g>
   <g id="patch_19">
    <path d="M 182.375135 227.457525 
L 184.686212 227.457525 
L 184.686212 223.045925 
L 182.375135 223.045925 
z
" clip-path="url(#p30f134ccbc)" style="fill: #f14432"/>
   </g>
   <g id="patch_20">
    <path d="M 184.686212 227.457525 
L 186.997288 227.457525 
L 186.997288 223.045925 
L 184.686212 223.045925 
z
" clip-path="url(#p30f134ccbc)" style="fill: #f14432"/>
   </g>
   <g id="patch_21">
    <path d="M 186.997288 227.457525 
L 189.308365 227.457525 
L 189.308365 223.045925 
L 186.997288 223.045925 
z
" clip-path="url(#p30f134ccbc)" style="fill: #f14432"/>
   </g>
   <g id="patch_22">
    <path d="M 189.308365 227.457525 
L 191.619442 227.457525 
L 191.619442 223.045925 
L 189.308365 223.045925 
z
" clip-path="url(#p30f134ccbc)" style="fill: #f14432"/>
   </g>
   <g id="patch_23">
    <path d="M 191.619442 227.457525 
L 193.930519 227.457525 
L 193.930519 223.045925 
L 191.619442 223.045925 
z
" clip-path="url(#p30f134ccbc)" style="fill: #f14432"/>
   </g>
   <g id="patch_24">
    <path d="M 193.930519 227.457525 
L 196.241596 227.457525 
L 196.241596 223.045925 
L 193.930519 223.045925 
z
" clip-path="url(#p30f134ccbc)" style="fill: #f14432"/>
   </g>
   <g id="patch_25">
    <path d="M 196.241596 227.457525 
L 198.552673 227.457525 
L 198.552673 223.045925 
L 196.241596 223.045925 
z
" clip-path="url(#p30f134ccbc)" style="fill: #f14432"/>
   </g>
   <g id="patch_26">
    <path d="M 198.552673 227.457525 
L 200.86375 227.457525 
L 200.86375 223.045925 
L 198.552673 223.045925 
z
" clip-path="url(#p30f134ccbc)" style="fill: #f14432"/>
   </g>
   <g id="patch_27">
    <path d="M 200.86375 227.457525 
L 203.174827 227.457525 
L 203.174827 223.045925 
L 200.86375 223.045925 
z
" clip-path="url(#p30f134ccbc)" style="fill: #f14432"/>
   </g>
   <g id="patch_28">
    <path d="M 203.174827 227.457525 
L 205.485904 227.457525 
L 205.485904 223.045925 
L 203.174827 223.045925 
z
" clip-path="url(#p30f134ccbc)" style="fill: #f14432"/>
   </g>
   <g id="patch_29">
    <path d="M 205.485904 227.457525 
L 207.796981 227.457525 
L 207.796981 223.045925 
L 205.485904 223.045925 
z
" clip-path="url(#p30f134ccbc)" style="fill: #f14432"/>
   </g>
   <g id="patch_30">
    <path d="M 207.796981 227.457525 
L 210.108058 227.457525 
L 210.108058 223.045925 
L 207.796981 223.045925 
z
" clip-path="url(#p30f134ccbc)" style="fill: #f14432"/>
   </g>
   <g id="patch_31">
    <path d="M 210.108058 227.457525 
L 212.419135 227.457525 
L 212.419135 223.045925 
L 210.108058 223.045925 
z
" clip-path="url(#p30f134ccbc)" style="fill: #f14432"/>
   </g>
   <g id="patch_32">
    <path d="M 212.419135 227.457525 
L 214.730212 227.457525 
L 214.730212 223.045925 
L 212.419135 223.045925 
z
" clip-path="url(#p30f134ccbc)" style="fill: #f14432"/>
   </g>
   <g id="patch_33">
    <path d="M 214.730212 227.457525 
L 217.041288 227.457525 
L 217.041288 223.045925 
L 214.730212 223.045925 
z
" clip-path="url(#p30f134ccbc)" style="fill: #f14432"/>
   </g>
   <g id="patch_34">
    <path d="M 217.041288 227.457525 
L 219.352365 227.457525 
L 219.352365 223.045925 
L 217.041288 223.045925 
z
" clip-path="url(#p30f134ccbc)" style="fill: #f14432"/>
   </g>
   <g id="patch_35">
    <path d="M 219.352365 227.457525 
L 221.663442 227.457525 
L 221.663442 223.045925 
L 219.352365 223.045925 
z
" clip-path="url(#p30f134ccbc)" style="fill: #f14432"/>
   </g>
   <g id="patch_36">
    <path d="M 221.663442 227.457525 
L 223.974519 227.457525 
L 223.974519 223.045925 
L 221.663442 223.045925 
z
" clip-path="url(#p30f134ccbc)" style="fill: #f14432"/>
   </g>
   <g id="patch_37">
    <path d="M 223.974519 227.457525 
L 226.285596 227.457525 
L 226.285596 223.045925 
L 223.974519 223.045925 
z
" clip-path="url(#p30f134ccbc)" style="fill: #f14432"/>
   </g>
   <g id="patch_38">
    <path d="M 226.285596 227.457525 
L 228.596673 227.457525 
L 228.596673 223.045925 
L 226.285596 223.045925 
z
" clip-path="url(#p30f134ccbc)" style="fill: #f14432"/>
   </g>
   <g id="patch_39">
    <path d="M 228.596673 227.457525 
L 230.90775 227.457525 
L 230.90775 223.045925 
L 228.596673 223.045925 
z
" clip-path="url(#p30f134ccbc)" style="fill: #f14432"/>
   </g>
   <g id="patch_40">
    <path d="M 230.90775 227.457525 
L 233.218827 227.457525 
L 233.218827 223.045925 
L 230.90775 223.045925 
z
" clip-path="url(#p30f134ccbc)" style="fill: #f14432"/>
   </g>
   <g id="patch_41">
    <path d="M 233.218827 227.457525 
L 235.529904 227.457525 
L 235.529904 223.045925 
L 233.218827 223.045925 
z
" clip-path="url(#p30f134ccbc)" style="fill: #f14432"/>
   </g>
   <g id="patch_42">
    <path d="M 235.529904 227.457525 
L 237.840981 227.457525 
L 237.840981 223.045925 
L 235.529904 223.045925 
z
" clip-path="url(#p30f134ccbc)" style="fill: #f14432"/>
   </g>
   <g id="patch_43">
    <path d="M 237.840981 227.457525 
L 240.152058 227.457525 
L 240.152058 223.045925 
L 237.840981 223.045925 
z
" clip-path="url(#p30f134ccbc)" style="fill: #f14432"/>
   </g>
   <g id="patch_44">
    <path d="M 240.152058 227.457525 
L 242.463135 227.457525 
L 242.463135 223.045925 
L 240.152058 223.045925 
z
" clip-path="url(#p30f134ccbc)" style="fill: #f14432"/>
   </g>
   <g id="patch_45">
    <path d="M 242.463135 227.457525 
L 244.774212 227.457525 
L 244.774212 223.045925 
L 242.463135 223.045925 
z
" clip-path="url(#p30f134ccbc)" style="fill: #f14432"/>
   </g>
   <g id="patch_46">
    <path d="M 244.774212 227.457525 
L 247.085288 227.457525 
L 247.085288 223.045925 
L 244.774212 223.045925 
z
" clip-path="url(#p30f134ccbc)" style="fill: #f14432"/>
   </g>
   <g id="patch_47">
    <path d="M 247.085288 227.457525 
L 249.396365 227.457525 
L 249.396365 223.045925 
L 247.085288 223.045925 
z
" clip-path="url(#p30f134ccbc)" style="fill: #f14432"/>
   </g>
   <g id="patch_48">
    <path d="M 249.396365 227.457525 
L 251.707442 227.457525 
L 251.707442 223.045925 
L 249.396365 223.045925 
z
" clip-path="url(#p30f134ccbc)" style="fill: #f14432"/>
   </g>
   <g id="patch_49">
    <path d="M 251.707442 227.457525 
L 254.018519 227.457525 
L 254.018519 223.045925 
L 251.707442 223.045925 
z
" clip-path="url(#p30f134ccbc)" style="fill: #f14432"/>
   </g>
   <g id="patch_50">
    <path d="M 254.018519 227.457525 
L 256.329596 227.457525 
L 256.329596 223.045925 
L 254.018519 223.045925 
z
" clip-path="url(#p30f134ccbc)" style="fill: #f14432"/>
   </g>
   <g id="patch_51">
    <path d="M 256.329596 227.457525 
L 258.640673 227.457525 
L 258.640673 223.045925 
L 256.329596 223.045925 
z
" clip-path="url(#p30f134ccbc)" style="fill: #f14432"/>
   </g>
   <g id="patch_52">
    <path d="M 258.640673 227.457525 
L 260.95175 227.457525 
L 260.95175 223.045925 
L 258.640673 223.045925 
z
" clip-path="url(#p30f134ccbc)" style="fill: #f14432"/>
   </g>
   <g id="patch_53">
    <path d="M 260.95175 227.457525 
L 263.262827 227.457525 
L 263.262827 223.045925 
L 260.95175 223.045925 
z
" clip-path="url(#p30f134ccbc)" style="fill: #f14432"/>
   </g>
   <g id="patch_54">
    <path d="M 263.262827 227.457525 
L 265.573904 227.457525 
L 265.573904 223.045925 
L 263.262827 223.045925 
z
" clip-path="url(#p30f134ccbc)" style="fill: #f14432"/>
   </g>
   <g id="patch_55">
    <path d="M 265.573904 227.457525 
L 267.884981 227.457525 
L 267.884981 223.045925 
L 265.573904 223.045925 
z
" clip-path="url(#p30f134ccbc)" style="fill: #f14432"/>
   </g>
   <g id="patch_56">
    <path d="M 267.884981 227.457525 
L 270.196058 227.457525 
L 270.196058 223.045925 
L 267.884981 223.045925 
z
" clip-path="url(#p30f134ccbc)" style="fill: #f14432"/>
   </g>
   <g id="patch_57">
    <path d="M 270.196058 227.457525 
L 272.507135 227.457525 
L 272.507135 223.045925 
L 270.196058 223.045925 
z
" clip-path="url(#p30f134ccbc)" style="fill: #f14432"/>
   </g>
   <g id="patch_58">
    <path d="M 272.507135 227.457525 
L 274.818212 227.457525 
L 274.818212 223.045925 
L 272.507135 223.045925 
z
" clip-path="url(#p30f134ccbc)" style="fill: #f14432"/>
   </g>
   <g id="patch_59">
    <path d="M 274.818212 227.457525 
L 277.129288 227.457525 
L 277.129288 223.045925 
L 274.818212 223.045925 
z
" clip-path="url(#p30f134ccbc)" style="fill: #f14432"/>
   </g>
   <g id="patch_60">
    <path d="M 277.129288 227.457525 
L 279.440365 227.457525 
L 279.440365 223.045925 
L 277.129288 223.045925 
z
" clip-path="url(#p30f134ccbc)" style="fill: #f14432"/>
   </g>
   <g id="patch_61">
    <path d="M 279.440365 227.457525 
L 281.751442 227.457525 
L 281.751442 223.045925 
L 279.440365 223.045925 
z
" clip-path="url(#p30f134ccbc)" style="fill: #f14432"/>
   </g>
   <g id="patch_62">
    <path d="M 281.751442 227.457525 
L 284.062519 227.457525 
L 284.062519 223.045925 
L 281.751442 223.045925 
z
" clip-path="url(#p30f134ccbc)" style="fill: #f14432"/>
   </g>
   <g id="matplotlib.axis_1">
    <g id="xtick_1">
     <g id="line2d_1">
      <defs>
       <path id="m8191b66f1b" d="M 0 0 
L 0 4 
" style="stroke: #000000; stroke-width: 0.8"/>
      </defs>
      <g>
       <use xlink:href="#m8191b66f1b" x="143.086827" y="242.898125" style="stroke: #000000; stroke-width: 0.8"/>
      </g>
     </g>
     <g id="text_1">
      <!-- 0.0 -->
      <g transform="translate(135.135264 257.996562) scale(0.1 -0.1)">
       <defs>
        <path id="DejaVuSans-30" d="M 2034 4250 
Q 1547 4250 1301 3770 
Q 1056 3291 1056 2328 
Q 1056 1369 1301 889 
Q 1547 409 2034 409 
Q 2525 409 2770 889 
Q 3016 1369 3016 2328 
Q 3016 3291 2770 3770 
Q 2525 4250 2034 4250 
z
M 2034 4750 
Q 2819 4750 3233 4129 
Q 3647 3509 3647 2328 
Q 3647 1150 3233 529 
Q 2819 -91 2034 -91 
Q 1250 -91 836 529 
Q 422 1150 422 2328 
Q 422 3509 836 4129 
Q 1250 4750 2034 4750 
z
" transform="scale(0.015625)"/>
        <path id="DejaVuSans-2e" d="M 684 794 
L 1344 794 
L 1344 0 
L 684 0 
L 684 794 
z
" transform="scale(0.015625)"/>
       </defs>
       <use xlink:href="#DejaVuSans-30"/>
       <use xlink:href="#DejaVuSans-2e" x="63.623047"/>
       <use xlink:href="#DejaVuSans-30" x="95.410156"/>
      </g>
     </g>
    </g>
    <g id="xtick_2">
     <g id="line2d_2">
      <g>
       <use xlink:href="#m8191b66f1b" x="258.640673" y="242.898125" style="stroke: #000000; stroke-width: 0.8"/>
      </g>
     </g>
     <g id="text_2">
      <!-- 0.5 -->
      <g transform="translate(250.689111 257.996562) scale(0.1 -0.1)">
       <defs>
        <path id="DejaVuSans-35" d="M 691 4666 
L 3169 4666 
L 3169 4134 
L 1269 4134 
L 1269 2991 
Q 1406 3038 1543 3061 
Q 1681 3084 1819 3084 
Q 2600 3084 3056 2656 
Q 3513 2228 3513 1497 
Q 3513 744 3044 326 
Q 2575 -91 1722 -91 
Q 1428 -91 1123 -41 
Q 819 9 494 109 
L 494 744 
Q 775 591 1075 516 
Q 1375 441 1709 441 
Q 2250 441 2565 725 
Q 2881 1009 2881 1497 
Q 2881 1984 2565 2268 
Q 2250 2553 1709 2553 
Q 1456 2553 1204 2497 
Q 953 2441 691 2322 
L 691 4666 
z
" transform="scale(0.015625)"/>
       </defs>
       <use xlink:href="#DejaVuSans-30"/>
       <use xlink:href="#DejaVuSans-2e" x="63.623047"/>
       <use xlink:href="#DejaVuSans-35" x="95.410156"/>
      </g>
     </g>
    </g>
    <g id="text_3">
     <!-- Time from Onset (s) -->
     <g transform="translate(150.977812 271.674687) scale(0.1 -0.1)">
      <defs>
       <path id="DejaVuSans-54" d="M -19 4666 
L 3928 4666 
L 3928 4134 
L 2272 4134 
L 2272 0 
L 1638 0 
L 1638 4134 
L -19 4134 
L -19 4666 
z
" transform="scale(0.015625)"/>
       <path id="DejaVuSans-69" d="M 603 3500 
L 1178 3500 
L 1178 0 
L 603 0 
L 603 3500 
z
M 603 4863 
L 1178 4863 
L 1178 4134 
L 603 4134 
L 603 4863 
z
" transform="scale(0.015625)"/>
       <path id="DejaVuSans-6d" d="M 3328 2828 
Q 3544 3216 3844 3400 
Q 4144 3584 4550 3584 
Q 5097 3584 5394 3201 
Q 5691 2819 5691 2113 
L 5691 0 
L 5113 0 
L 5113 2094 
Q 5113 2597 4934 2840 
Q 4756 3084 4391 3084 
Q 3944 3084 3684 2787 
Q 3425 2491 3425 1978 
L 3425 0 
L 2847 0 
L 2847 2094 
Q 2847 2600 2669 2842 
Q 2491 3084 2119 3084 
Q 1678 3084 1418 2786 
Q 1159 2488 1159 1978 
L 1159 0 
L 581 0 
L 581 3500 
L 1159 3500 
L 1159 2956 
Q 1356 3278 1631 3431 
Q 1906 3584 2284 3584 
Q 2666 3584 2933 3390 
Q 3200 3197 3328 2828 
z
" transform="scale(0.015625)"/>
       <path id="DejaVuSans-65" d="M 3597 1894 
L 3597 1613 
L 953 1613 
Q 991 1019 1311 708 
Q 1631 397 2203 397 
Q 2534 397 2845 478 
Q 3156 559 3463 722 
L 3463 178 
Q 3153 47 2828 -22 
Q 2503 -91 2169 -91 
Q 1331 -91 842 396 
Q 353 884 353 1716 
Q 353 2575 817 3079 
Q 1281 3584 2069 3584 
Q 2775 3584 3186 3129 
Q 3597 2675 3597 1894 
z
M 3022 2063 
Q 3016 2534 2758 2815 
Q 2500 3097 2075 3097 
Q 1594 3097 1305 2825 
Q 1016 2553 972 2059 
L 3022 2063 
z
" transform="scale(0.015625)"/>
       <path id="DejaVuSans-20" transform="scale(0.015625)"/>
       <path id="DejaVuSans-66" d="M 2375 4863 
L 2375 4384 
L 1825 4384 
Q 1516 4384 1395 4259 
Q 1275 4134 1275 3809 
L 1275 3500 
L 2222 3500 
L 2222 3053 
L 1275 3053 
L 1275 0 
L 697 0 
L 697 3053 
L 147 3053 
L 147 3500 
L 697 3500 
L 697 3744 
Q 697 4328 969 4595 
Q 1241 4863 1831 4863 
L 2375 4863 
z
" transform="scale(0.015625)"/>
       <path id="DejaVuSans-72" d="M 2631 2963 
Q 2534 3019 2420 3045 
Q 2306 3072 2169 3072 
Q 1681 3072 1420 2755 
Q 1159 2438 1159 1844 
L 1159 0 
L 581 0 
L 581 3500 
L 1159 3500 
L 1159 2956 
Q 1341 3275 1631 3429 
Q 1922 3584 2338 3584 
Q 2397 3584 2469 3576 
Q 2541 3569 2628 3553 
L 2631 2963 
z
" transform="scale(0.015625)"/>
       <path id="DejaVuSans-6f" d="M 1959 3097 
Q 1497 3097 1228 2736 
Q 959 2375 959 1747 
Q 959 1119 1226 758 
Q 1494 397 1959 397 
Q 2419 397 2687 759 
Q 2956 1122 2956 1747 
Q 2956 2369 2687 2733 
Q 2419 3097 1959 3097 
z
M 1959 3584 
Q 2709 3584 3137 3096 
Q 3566 2609 3566 1747 
Q 3566 888 3137 398 
Q 2709 -91 1959 -91 
Q 1206 -91 779 398 
Q 353 888 353 1747 
Q 353 2609 779 3096 
Q 1206 3584 1959 3584 
z
" transform="scale(0.015625)"/>
       <path id="DejaVuSans-4f" d="M 2522 4238 
Q 1834 4238 1429 3725 
Q 1025 3213 1025 2328 
Q 1025 1447 1429 934 
Q 1834 422 2522 422 
Q 3209 422 3611 934 
Q 4013 1447 4013 2328 
Q 4013 3213 3611 3725 
Q 3209 4238 2522 4238 
z
M 2522 4750 
Q 3503 4750 4090 4092 
Q 4678 3434 4678 2328 
Q 4678 1225 4090 567 
Q 3503 -91 2522 -91 
Q 1538 -91 948 565 
Q 359 1222 359 2328 
Q 359 3434 948 4092 
Q 1538 4750 2522 4750 
z
" transform="scale(0.015625)"/>
       <path id="DejaVuSans-6e" d="M 3513 2113 
L 3513 0 
L 2938 0 
L 2938 2094 
Q 2938 2591 2744 2837 
Q 2550 3084 2163 3084 
Q 1697 3084 1428 2787 
Q 1159 2491 1159 1978 
L 1159 0 
L 581 0 
L 581 3500 
L 1159 3500 
L 1159 2956 
Q 1366 3272 1645 3428 
Q 1925 3584 2291 3584 
Q 2894 3584 3203 3211 
Q 3513 2838 3513 2113 
z
" transform="scale(0.015625)"/>
       <path id="DejaVuSans-73" d="M 2834 3397 
L 2834 2853 
Q 2591 2978 2328 3040 
Q 2066 3103 1784 3103 
Q 1356 3103 1142 2972 
Q 928 2841 928 2578 
Q 928 2378 1081 2264 
Q 1234 2150 1697 2047 
L 1894 2003 
Q 2506 1872 2764 1633 
Q 3022 1394 3022 966 
Q 3022 478 2636 193 
Q 2250 -91 1575 -91 
Q 1294 -91 989 -36 
Q 684 19 347 128 
L 347 722 
Q 666 556 975 473 
Q 1284 391 1588 391 
Q 1994 391 2212 530 
Q 2431 669 2431 922 
Q 2431 1156 2273 1281 
Q 2116 1406 1581 1522 
L 1381 1569 
Q 847 1681 609 1914 
Q 372 2147 372 2553 
Q 372 3047 722 3315 
Q 1072 3584 1716 3584 
Q 2034 3584 2315 3537 
Q 2597 3491 2834 3397 
z
" transform="scale(0.015625)"/>
       <path id="DejaVuSans-74" d="M 1172 4494 
L 1172 3500 
L 2356 3500 
L 2356 3053 
L 1172 3053 
L 1172 1153 
Q 1172 725 1289 603 
Q 1406 481 1766 481 
L 2356 481 
L 2356 0 
L 1766 0 
Q 1100 0 847 248 
Q 594 497 594 1153 
L 594 3053 
L 172 3053 
L 172 3500 
L 594 3500 
L 594 4494 
L 1172 4494 
z
" transform="scale(0.015625)"/>
       <path id="DejaVuSans-28" d="M 1984 4856 
Q 1566 4138 1362 3434 
Q 1159 2731 1159 2009 
Q 1159 1288 1364 580 
Q 1569 -128 1984 -844 
L 1484 -844 
Q 1016 -109 783 600 
Q 550 1309 550 2009 
Q 550 2706 781 3412 
Q 1013 4119 1484 4856 
L 1984 4856 
z
" transform="scale(0.015625)"/>
       <path id="DejaVuSans-29" d="M 513 4856 
L 1013 4856 
Q 1481 4119 1714 3412 
Q 1947 2706 1947 2009 
Q 1947 1309 1714 600 
Q 1481 -109 1013 -844 
L 513 -844 
Q 928 -128 1133 580 
Q 1338 1288 1338 2009 
Q 1338 2731 1133 3434 
Q 928 4138 513 4856 
z
" transform="scale(0.015625)"/>
      </defs>
      <use xlink:href="#DejaVuSans-54"/>
      <use xlink:href="#DejaVuSans-69" x="57.958984"/>
      <use xlink:href="#DejaVuSans-6d" x="85.742188"/>
      <use xlink:href="#DejaVuSans-65" x="183.154297"/>
      <use xlink:href="#DejaVuSans-20" x="244.677734"/>
      <use xlink:href="#DejaVuSans-66" x="276.464844"/>
      <use xlink:href="#DejaVuSans-72" x="311.669922"/>
      <use xlink:href="#DejaVuSans-6f" x="350.533203"/>
      <use xlink:href="#DejaVuSans-6d" x="411.714844"/>
      <use xlink:href="#DejaVuSans-20" x="509.126953"/>
      <use xlink:href="#DejaVuSans-4f" x="540.914062"/>
      <use xlink:href="#DejaVuSans-6e" x="619.625"/>
      <use xlink:href="#DejaVuSans-73" x="683.003906"/>
      <use xlink:href="#DejaVuSans-65" x="735.103516"/>
      <use xlink:href="#DejaVuSans-74" x="796.626953"/>
      <use xlink:href="#DejaVuSans-20" x="835.835938"/>
      <use xlink:href="#DejaVuSans-28" x="867.623047"/>
      <use xlink:href="#DejaVuSans-73" x="906.636719"/>
      <use xlink:href="#DejaVuSans-29" x="958.736328"/>
     </g>
    </g>
   </g>
   <g id="matplotlib.axis_2">
    <g id="ytick_1">
     <g id="line2d_3">
      <defs>
       <path id="md2920fc1be" d="M 0 0 
L -4 0 
" style="stroke: #000000; stroke-width: 0.8"/>
      </defs>
      <g>
       <use xlink:href="#md2920fc1be" x="50.64375" y="242.898125" style="stroke: #000000; stroke-width: 0.8"/>
      </g>
     </g>
     <g id="text_4">
      <!-- 0.05 -->
      <g transform="translate(20.878125 246.697344) scale(0.1 -0.1)">
       <use xlink:href="#DejaVuSans-30"/>
       <use xlink:href="#DejaVuSans-2e" x="63.623047"/>
       <use xlink:href="#DejaVuSans-30" x="95.410156"/>
       <use xlink:href="#DejaVuSans-35" x="159.033203"/>
      </g>
     </g>
    </g>
    <g id="ytick_2">
     <g id="line2d_4">
      <g>
       <use xlink:href="#md2920fc1be" x="50.64375" y="198.782125" style="stroke: #000000; stroke-width: 0.8"/>
      </g>
     </g>
     <g id="text_5">
      <!-- 0.10 -->
      <g transform="translate(20.878125 202.581344) scale(0.1 -0.1)">
       <defs>
        <path id="DejaVuSans-31" d="M 794 531 
L 1825 531 
L 1825 4091 
L 703 3866 
L 703 4441 
L 1819 4666 
L 2450 4666 
L 2450 531 
L 3481 531 
L 3481 0 
L 794 0 
L 794 531 
z
" transform="scale(0.015625)"/>
       </defs>
       <use xlink:href="#DejaVuSans-30"/>
       <use xlink:href="#DejaVuSans-2e" x="63.623047"/>
       <use xlink:href="#DejaVuSans-31" x="95.410156"/>
       <use xlink:href="#DejaVuSans-30" x="159.033203"/>
      </g>
     </g>
    </g>
    <g id="ytick_3">
     <g id="line2d_5">
      <g>
       <use xlink:href="#md2920fc1be" x="50.64375" y="154.666125" style="stroke: #000000; stroke-width: 0.8"/>
      </g>
     </g>
     <g id="text_6">
      <!-- 0.15 -->
      <g transform="translate(20.878125 158.465344) scale(0.1 -0.1)">
       <use xlink:href="#DejaVuSans-30"/>
       <use xlink:href="#DejaVuSans-2e" x="63.623047"/>
       <use xlink:href="#DejaVuSans-31" x="95.410156"/>
       <use xlink:href="#DejaVuSans-35" x="159.033203"/>
      </g>
     </g>
    </g>
    <g id="ytick_4">
     <g id="line2d_6">
      <g>
       <use xlink:href="#md2920fc1be" x="50.64375" y="110.550125" style="stroke: #000000; stroke-width: 0.8"/>
      </g>
     </g>
     <g id="text_7">
      <!-- 0.20 -->
      <g transform="translate(20.878125 114.349344) scale(0.1 -0.1)">
       <defs>
        <path id="DejaVuSans-32" d="M 1228 531 
L 3431 531 
L 3431 0 
L 469 0 
L 469 531 
Q 828 903 1448 1529 
Q 2069 2156 2228 2338 
Q 2531 2678 2651 2914 
Q 2772 3150 2772 3378 
Q 2772 3750 2511 3984 
Q 2250 4219 1831 4219 
Q 1534 4219 1204 4116 
Q 875 4013 500 3803 
L 500 4441 
Q 881 4594 1212 4672 
Q 1544 4750 1819 4750 
Q 2544 4750 2975 4387 
Q 3406 4025 3406 3419 
Q 3406 3131 3298 2873 
Q 3191 2616 2906 2266 
Q 2828 2175 2409 1742 
Q 1991 1309 1228 531 
z
" transform="scale(0.015625)"/>
       </defs>
       <use xlink:href="#DejaVuSans-30"/>
       <use xlink:href="#DejaVuSans-2e" x="63.623047"/>
       <use xlink:href="#DejaVuSans-32" x="95.410156"/>
       <use xlink:href="#DejaVuSans-30" x="159.033203"/>
      </g>
     </g>
    </g>
    <g id="ytick_5">
     <g id="line2d_7">
      <g>
       <use xlink:href="#md2920fc1be" x="50.64375" y="66.434125" style="stroke: #000000; stroke-width: 0.8"/>
      </g>
     </g>
     <g id="text_8">
      <!-- 0.25 -->
      <g transform="translate(20.878125 70.233344) scale(0.1 -0.1)">
       <use xlink:href="#DejaVuSans-30"/>
       <use xlink:href="#DejaVuSans-2e" x="63.623047"/>
       <use xlink:href="#DejaVuSans-32" x="95.410156"/>
       <use xlink:href="#DejaVuSans-35" x="159.033203"/>
      </g>
     </g>
    </g>
    <g id="ytick_6">
     <g id="line2d_8">
      <g>
       <use xlink:href="#md2920fc1be" x="50.64375" y="22.318125" style="stroke: #000000; stroke-width: 0.8"/>
      </g>
     </g>
     <g id="text_9">
      <!-- 0.30 -->
      <g transform="translate(20.878125 26.117344) scale(0.1 -0.1)">
       <defs>
        <path id="DejaVuSans-33" d="M 2597 2516 
Q 3050 2419 3304 2112 
Q 3559 1806 3559 1356 
Q 3559 666 3084 287 
Q 2609 -91 1734 -91 
Q 1441 -91 1130 -33 
Q 819 25 488 141 
L 488 750 
Q 750 597 1062 519 
Q 1375 441 1716 441 
Q 2309 441 2620 675 
Q 2931 909 2931 1356 
Q 2931 1769 2642 2001 
Q 2353 2234 1838 2234 
L 1294 2234 
L 1294 2753 
L 1863 2753 
Q 2328 2753 2575 2939 
Q 2822 3125 2822 3475 
Q 2822 3834 2567 4026 
Q 2313 4219 1838 4219 
Q 1578 4219 1281 4162 
Q 984 4106 628 3988 
L 628 4550 
Q 988 4650 1302 4700 
Q 1616 4750 1894 4750 
Q 2613 4750 3031 4423 
Q 3450 4097 3450 3541 
Q 3450 3153 3228 2886 
Q 3006 2619 2597 2516 
z
" transform="scale(0.015625)"/>
       </defs>
       <use xlink:href="#DejaVuSans-30"/>
       <use xlink:href="#DejaVuSans-2e" x="63.623047"/>
       <use xlink:href="#DejaVuSans-33" x="95.410156"/>
       <use xlink:href="#DejaVuSans-30" x="159.033203"/>
      </g>
     </g>
    </g>
    <g id="text_10">
     <!-- Accuracy -->
     <g transform="translate(14.798438 155.43625) rotate(-90) scale(0.1 -0.1)">
      <defs>
       <path id="DejaVuSans-41" d="M 2188 4044 
L 1331 1722 
L 3047 1722 
L 2188 4044 
z
M 1831 4666 
L 2547 4666 
L 4325 0 
L 3669 0 
L 3244 1197 
L 1141 1197 
L 716 0 
L 50 0 
L 1831 4666 
z
" transform="scale(0.015625)"/>
       <path id="DejaVuSans-63" d="M 3122 3366 
L 3122 2828 
Q 2878 2963 2633 3030 
Q 2388 3097 2138 3097 
Q 1578 3097 1268 2742 
Q 959 2388 959 1747 
Q 959 1106 1268 751 
Q 1578 397 2138 397 
Q 2388 397 2633 464 
Q 2878 531 3122 666 
L 3122 134 
Q 2881 22 2623 -34 
Q 2366 -91 2075 -91 
Q 1284 -91 818 406 
Q 353 903 353 1747 
Q 353 2603 823 3093 
Q 1294 3584 2113 3584 
Q 2378 3584 2631 3529 
Q 2884 3475 3122 3366 
z
" transform="scale(0.015625)"/>
       <path id="DejaVuSans-75" d="M 544 1381 
L 544 3500 
L 1119 3500 
L 1119 1403 
Q 1119 906 1312 657 
Q 1506 409 1894 409 
Q 2359 409 2629 706 
Q 2900 1003 2900 1516 
L 2900 3500 
L 3475 3500 
L 3475 0 
L 2900 0 
L 2900 538 
Q 2691 219 2414 64 
Q 2138 -91 1772 -91 
Q 1169 -91 856 284 
Q 544 659 544 1381 
z
M 1991 3584 
L 1991 3584 
z
" transform="scale(0.015625)"/>
       <path id="DejaVuSans-61" d="M 2194 1759 
Q 1497 1759 1228 1600 
Q 959 1441 959 1056 
Q 959 750 1161 570 
Q 1363 391 1709 391 
Q 2188 391 2477 730 
Q 2766 1069 2766 1631 
L 2766 1759 
L 2194 1759 
z
M 3341 1997 
L 3341 0 
L 2766 0 
L 2766 531 
Q 2569 213 2275 61 
Q 1981 -91 1556 -91 
Q 1019 -91 701 211 
Q 384 513 384 1019 
Q 384 1609 779 1909 
Q 1175 2209 1959 2209 
L 2766 2209 
L 2766 2266 
Q 2766 2663 2505 2880 
Q 2244 3097 1772 3097 
Q 1472 3097 1187 3025 
Q 903 2953 641 2809 
L 641 3341 
Q 956 3463 1253 3523 
Q 1550 3584 1831 3584 
Q 2591 3584 2966 3190 
Q 3341 2797 3341 1997 
z
" transform="scale(0.015625)"/>
       <path id="DejaVuSans-79" d="M 2059 -325 
Q 1816 -950 1584 -1140 
Q 1353 -1331 966 -1331 
L 506 -1331 
L 506 -850 
L 844 -850 
Q 1081 -850 1212 -737 
Q 1344 -625 1503 -206 
L 1606 56 
L 191 3500 
L 800 3500 
L 1894 763 
L 2988 3500 
L 3597 3500 
L 2059 -325 
z
" transform="scale(0.015625)"/>
      </defs>
      <use xlink:href="#DejaVuSans-41"/>
      <use xlink:href="#DejaVuSans-63" x="66.658203"/>
      <use xlink:href="#DejaVuSans-63" x="121.638672"/>
      <use xlink:href="#DejaVuSans-75" x="176.619141"/>
      <use xlink:href="#DejaVuSans-72" x="239.998047"/>
      <use xlink:href="#DejaVuSans-61" x="281.111328"/>
      <use xlink:href="#DejaVuSans-63" x="342.390625"/>
      <use xlink:href="#DejaVuSans-79" x="397.371094"/>
     </g>
    </g>
   </g>
   <g id="line2d_9">
    <path d="M 50.64375 189.076605 
L 351.08375 189.076605 
" clip-path="url(#p30f134ccbc)" style="fill: none; stroke-dasharray: 5.55,2.4; stroke-dashoffset: 0; stroke: #000000; stroke-width: 1.5"/>
   </g>
   <g id="line2d_10">
    <path d="M 143.086827 242.898125 
L 143.086827 22.318125 
" clip-path="url(#p30f134ccbc)" style="fill: none; stroke-dasharray: 1.5,2.475; stroke-dashoffset: 0; stroke: #000000; stroke-opacity: 0.3; stroke-width: 1.5"/>
   </g>
   <g id="line2d_11">
    <path d="M 50.64375 192.502919 
L 52.954827 191.425868 
L 55.265904 190.18726 
L 57.576981 190.83349 
L 59.888058 191.695131 
L 62.199135 193.741527 
L 64.510212 194.2262 
L 66.821288 198.695961 
L 69.132365 200.5808 
L 71.443442 201.01162 
L 73.754519 200.473095 
L 78.376673 198.426698 
L 82.998827 199.773012 
L 85.309904 199.665307 
L 89.932058 196.75727 
L 94.554212 190.83349 
L 96.865288 187.602338 
L 103.798519 180.00913 
L 106.109596 176.939535 
L 110.73175 175.862484 
L 113.042827 175.000844 
L 115.353904 175.754779 
L 117.664981 177.26265 
L 119.976058 177.531913 
L 122.287135 180.386098 
L 124.598212 180.43995 
L 126.909288 178.070438 
L 129.220365 175.539369 
L 131.531442 169.723295 
L 133.842519 162.61476 
L 136.153596 159.168197 
L 138.464673 156.69098 
L 140.77575 157.552621 
L 143.086827 156.798686 
L 145.397904 155.506225 
L 147.708981 150.874906 
L 150.020058 145.920473 
L 152.331135 142.581615 
L 154.642212 141.82768 
L 156.953288 141.504564 
L 159.264365 144.197191 
L 161.575442 148.074574 
L 163.886519 149.582445 
L 166.197596 149.582445 
L 168.508673 148.936215 
L 170.81975 146.674408 
L 173.130827 142.90473 
L 175.441904 141.181449 
L 177.752981 139.242758 
L 180.064058 138.381117 
L 182.375135 135.25767 
L 184.686212 131.272582 
L 186.997288 127.718314 
L 189.308365 123.733227 
L 191.619442 122.009945 
L 196.241596 125.133393 
L 198.552673 127.287494 
L 200.86375 127.718314 
L 203.174827 127.933725 
L 205.485904 127.395199 
L 207.796981 124.164047 
L 210.108058 120.071254 
L 212.419135 115.33223 
L 214.730212 109.946977 
L 217.041288 103.269262 
L 219.352365 99.714994 
L 221.663442 94.437445 
L 226.285596 88.621371 
L 228.596673 88.836781 
L 230.90775 89.698422 
L 233.218827 90.021537 
L 235.529904 89.806127 
L 237.840981 89.806127 
L 240.152058 93.037279 
L 242.463135 98.961059 
L 244.774212 104.561723 
L 247.085288 108.223695 
L 249.396365 110.916322 
L 251.707442 112.855014 
L 254.018519 113.285834 
L 256.329596 111.562553 
L 258.640673 111.131732 
L 260.95175 111.131732 
L 263.262827 110.377797 
L 265.573904 110.270092 
L 267.884981 111.347143 
L 270.196058 116.409281 
L 272.507135 121.148305 
L 277.129288 135.796195 
L 279.440365 141.719975 
L 284.062519 151.844252 
L 286.373596 156.26016 
L 288.684673 158.091146 
L 293.306827 160.783773 
L 295.617904 158.198852 
L 297.928981 158.521967 
L 300.240058 157.552621 
L 302.551135 153.890648 
L 304.862212 152.921303 
L 307.173288 156.367865 
L 309.484365 158.306557 
L 311.795442 163.584105 
L 314.106519 167.892309 
L 316.417596 174.031498 
L 318.728673 178.770521 
L 321.03975 181.247738 
L 323.350827 182.109379 
L 325.661904 182.055526 
L 327.972981 179.362899 
L 330.284058 177.908881 
L 332.595135 175.431664 
L 334.906212 173.277562 
L 337.217288 173.708383 
L 339.528365 174.785434 
L 341.839442 176.939535 
L 344.150519 180.00913 
L 346.461596 180.709213 
L 348.772673 181.732411 
L 351.08375 181.732411 
L 351.08375 181.732411 
" clip-path="url(#p30f134ccbc)" style="fill: none; stroke: #f14432; stroke-width: 1.5; stroke-linecap: square"/>
   </g>
   <g id="line2d_12">
    <path d="M 50.64375 187.602338 
L 52.954827 188.248568 
L 55.265904 188.463979 
L 59.888058 189.97185 
L 62.199135 189.271767 
L 64.510212 189.164062 
L 66.821288 188.571684 
L 69.132365 188.517831 
L 71.443442 189.864145 
L 73.754519 189.056356 
L 76.065596 188.463979 
L 78.376673 189.864145 
L 80.68775 189.433324 
L 85.309904 191.641278 
L 87.620981 192.018246 
L 89.932058 191.533573 
L 92.243135 191.264311 
L 94.554212 190.18726 
L 96.865288 190.348817 
L 99.176365 190.779638 
L 101.487442 190.995048 
L 103.798519 190.40267 
L 106.109596 189.379472 
L 108.420673 190.025702 
L 110.73175 189.97185 
L 113.042827 189.648734 
L 115.353904 190.294965 
L 117.664981 189.487177 
L 119.976058 189.594882 
L 122.287135 189.325619 
L 124.598212 189.594882 
L 126.909288 188.625536 
L 129.220365 188.248568 
L 131.531442 189.110209 
L 136.153596 188.356273 
L 138.464673 189.217914 
L 140.77575 188.679389 
L 143.086827 189.217914 
L 145.397904 189.217914 
L 147.708981 189.487177 
L 150.020058 189.110209 
L 152.331135 188.948651 
L 154.642212 188.571684 
L 156.953288 188.733241 
L 159.264365 188.517831 
L 161.575442 189.648734 
L 163.886519 189.541029 
L 166.197596 189.864145 
L 168.508673 189.702587 
L 170.81975 189.056356 
L 173.130827 189.648734 
L 175.441904 189.433324 
L 177.752981 189.541029 
L 180.064058 190.887343 
L 182.375135 189.648734 
L 184.686212 188.625536 
L 186.997288 187.871601 
L 189.308365 187.817748 
L 193.930519 188.140863 
L 196.241596 188.517831 
L 198.552673 188.733241 
L 200.86375 187.710043 
L 203.174827 187.548485 
L 205.485904 188.625536 
L 207.796981 189.110209 
L 210.108058 189.110209 
L 212.419135 188.787094 
L 214.730212 188.948651 
L 217.041288 189.648734 
L 219.352365 188.140863 
L 221.663442 189.164062 
L 223.974519 189.379472 
L 226.285596 189.002504 
L 228.596673 187.171518 
L 230.90775 187.817748 
L 233.218827 189.379472 
L 235.529904 189.110209 
L 237.840981 189.110209 
L 242.463135 190.510375 
L 244.774212 190.294965 
L 247.085288 189.271767 
L 249.396365 189.164062 
L 254.018519 190.294965 
L 256.329596 189.97185 
L 258.640673 188.248568 
L 260.95175 188.194716 
L 263.262827 188.840946 
L 265.573904 188.517831 
L 267.884981 189.325619 
L 270.196058 189.917997 
L 272.507135 189.702587 
L 274.818212 188.463979 
L 277.129288 188.302421 
L 279.440365 187.22537 
L 281.751442 186.848402 
L 284.062519 185.771352 
L 286.373596 185.232826 
L 288.684673 186.57914 
L 290.99575 186.686845 
L 293.306827 185.932909 
L 295.617904 186.094467 
L 297.928981 185.125121 
L 300.240058 185.986762 
L 302.551135 185.879057 
L 307.173288 187.494633 
L 309.484365 187.817748 
L 311.795442 187.871601 
L 314.106519 188.140863 
L 316.417596 187.925453 
L 318.728673 188.194716 
L 321.03975 187.22537 
L 327.972981 188.356273 
L 330.284058 188.410126 
L 332.595135 189.110209 
L 334.906212 187.333075 
L 337.217288 187.925453 
L 339.528365 188.087011 
L 341.839442 187.494633 
L 344.150519 187.548485 
L 348.772673 188.894799 
L 351.08375 188.948651 
L 351.08375 188.948651 
" clip-path="url(#p30f134ccbc)" style="fill: none; stroke: #4a98c9; stroke-width: 1.5; stroke-linecap: square"/>
   </g>
   <g id="patch_63">
    <path d="M 50.64375 242.898125 
L 50.64375 22.318125 
" style="fill: none; stroke: #000000; stroke-width: 0.8; stroke-linejoin: miter; stroke-linecap: square"/>
   </g>
   <g id="patch_64">
    <path d="M 50.64375 242.898125 
L 351.08375 242.898125 
" style="fill: none; stroke: #000000; stroke-width: 0.8; stroke-linejoin: miter; stroke-linecap: square"/>
   </g>
   <g id="text_11">
    <!-- aud -->
    <g transform="translate(189.575313 16.318125) scale(0.12 -0.12)">
     <defs>
      <path id="DejaVuSans-64" d="M 2906 2969 
L 2906 4863 
L 3481 4863 
L 3481 0 
L 2906 0 
L 2906 525 
Q 2725 213 2448 61 
Q 2172 -91 1784 -91 
Q 1150 -91 751 415 
Q 353 922 353 1747 
Q 353 2572 751 3078 
Q 1150 3584 1784 3584 
Q 2172 3584 2448 3432 
Q 2725 3281 2906 2969 
z
M 947 1747 
Q 947 1113 1208 752 
Q 1469 391 1925 391 
Q 2381 391 2643 752 
Q 2906 1113 2906 1747 
Q 2906 2381 2643 2742 
Q 2381 3103 1925 3103 
Q 1469 3103 1208 2742 
Q 947 2381 947 1747 
z
" transform="scale(0.015625)"/>
     </defs>
     <use xlink:href="#DejaVuSans-61"/>
     <use xlink:href="#DejaVuSans-75" x="61.279297"/>
     <use xlink:href="#DejaVuSans-64" x="124.658203"/>
    </g>
   </g>
   <g id="legend_1">
    <g id="line2d_13">
     <path d="M 61.44375 38.03625 
L 73.44375 38.03625 
L 85.44375 38.03625 
" style="fill: none; stroke: #f14432; stroke-width: 1.5; stroke-linecap: square"/>
    </g>
    <g id="text_12">
     <!-- 1st phoneme -->
     <g transform="translate(95.04375 42.23625) scale(0.12 -0.12)">
      <defs>
       <path id="DejaVuSans-70" d="M 1159 525 
L 1159 -1331 
L 581 -1331 
L 581 3500 
L 1159 3500 
L 1159 2969 
Q 1341 3281 1617 3432 
Q 1894 3584 2278 3584 
Q 2916 3584 3314 3078 
Q 3713 2572 3713 1747 
Q 3713 922 3314 415 
Q 2916 -91 2278 -91 
Q 1894 -91 1617 61 
Q 1341 213 1159 525 
z
M 3116 1747 
Q 3116 2381 2855 2742 
Q 2594 3103 2138 3103 
Q 1681 3103 1420 2742 
Q 1159 2381 1159 1747 
Q 1159 1113 1420 752 
Q 1681 391 2138 391 
Q 2594 391 2855 752 
Q 3116 1113 3116 1747 
z
" transform="scale(0.015625)"/>
       <path id="DejaVuSans-68" d="M 3513 2113 
L 3513 0 
L 2938 0 
L 2938 2094 
Q 2938 2591 2744 2837 
Q 2550 3084 2163 3084 
Q 1697 3084 1428 2787 
Q 1159 2491 1159 1978 
L 1159 0 
L 581 0 
L 581 4863 
L 1159 4863 
L 1159 2956 
Q 1366 3272 1645 3428 
Q 1925 3584 2291 3584 
Q 2894 3584 3203 3211 
Q 3513 2838 3513 2113 
z
" transform="scale(0.015625)"/>
      </defs>
      <use xlink:href="#DejaVuSans-31"/>
      <use xlink:href="#DejaVuSans-73" x="63.623047"/>
      <use xlink:href="#DejaVuSans-74" x="115.722656"/>
      <use xlink:href="#DejaVuSans-20" x="154.931641"/>
      <use xlink:href="#DejaVuSans-70" x="186.71875"/>
      <use xlink:href="#DejaVuSans-68" x="250.195312"/>
      <use xlink:href="#DejaVuSans-6f" x="313.574219"/>
      <use xlink:href="#DejaVuSans-6e" x="374.755859"/>
      <use xlink:href="#DejaVuSans-65" x="438.134766"/>
      <use xlink:href="#DejaVuSans-6d" x="499.658203"/>
      <use xlink:href="#DejaVuSans-65" x="597.070312"/>
     </g>
    </g>
    <g id="line2d_14">
     <path d="M 61.44375 55.65 
L 73.44375 55.65 
L 85.44375 55.65 
" style="fill: none; stroke: #4a98c9; stroke-width: 1.5; stroke-linecap: square"/>
    </g>
    <g id="text_13">
     <!-- Shuffled -->
     <g transform="translate(95.04375 59.85) scale(0.12 -0.12)">
      <defs>
       <path id="DejaVuSans-53" d="M 3425 4513 
L 3425 3897 
Q 3066 4069 2747 4153 
Q 2428 4238 2131 4238 
Q 1616 4238 1336 4038 
Q 1056 3838 1056 3469 
Q 1056 3159 1242 3001 
Q 1428 2844 1947 2747 
L 2328 2669 
Q 3034 2534 3370 2195 
Q 3706 1856 3706 1288 
Q 3706 609 3251 259 
Q 2797 -91 1919 -91 
Q 1588 -91 1214 -16 
Q 841 59 441 206 
L 441 856 
Q 825 641 1194 531 
Q 1563 422 1919 422 
Q 2459 422 2753 634 
Q 3047 847 3047 1241 
Q 3047 1584 2836 1778 
Q 2625 1972 2144 2069 
L 1759 2144 
Q 1053 2284 737 2584 
Q 422 2884 422 3419 
Q 422 4038 858 4394 
Q 1294 4750 2059 4750 
Q 2388 4750 2728 4690 
Q 3069 4631 3425 4513 
z
" transform="scale(0.015625)"/>
       <path id="DejaVuSans-6c" d="M 603 4863 
L 1178 4863 
L 1178 0 
L 603 0 
L 603 4863 
z
" transform="scale(0.015625)"/>
      </defs>
      <use xlink:href="#DejaVuSans-53"/>
      <use xlink:href="#DejaVuSans-68" x="63.476562"/>
      <use xlink:href="#DejaVuSans-75" x="126.855469"/>
      <use xlink:href="#DejaVuSans-66" x="190.234375"/>
      <use xlink:href="#DejaVuSans-66" x="225.439453"/>
      <use xlink:href="#DejaVuSans-6c" x="260.644531"/>
      <use xlink:href="#DejaVuSans-65" x="288.427734"/>
      <use xlink:href="#DejaVuSans-64" x="349.951172"/>
     </g>
    </g>
   </g>
  </g>
  <g id="axes_2">
   <g id="patch_65">
    <path d="M 405.24375 242.898125 
L 705.68375 242.898125 
L 705.68375 22.318125 
L 405.24375 22.318125 
z
" style="fill: #ffffff"/>
   </g>
   <g id="PolyCollection_3">
    <defs>
     <path id="mf053ef5da6" d="M 405.24375 -83.22776 
L 405.24375 -53.070338 
L 407.554827 -54.793619 
L 409.865904 -56.247638 
L 412.176981 -59.155675 
L 414.488058 -62.817647 
L 416.799135 -64.702486 
L 419.110212 -65.994947 
L 421.421288 -64.864044 
L 423.732365 -64.810191 
L 426.043442 -63.140763 
L 428.354519 -66.210357 
L 430.665596 -67.448966 
L 432.976673 -71.380201 
L 435.28775 -75.149879 
L 437.598827 -77.034718 
L 439.909904 -80.642838 
L 442.220981 -79.565787 
L 444.532058 -79.350377 
L 446.843135 -79.673492 
L 449.154212 -79.404229 
L 451.465288 -81.612184 
L 453.776365 -85.166451 
L 456.087442 -89.474654 
L 458.398519 -88.989981 
L 460.709596 -91.197936 
L 463.020673 -93.136627 
L 465.33175 -94.967613 
L 467.642827 -95.236876 
L 469.953904 -95.344581 
L 472.264981 -93.352037 
L 474.576058 -91.844166 
L 476.887135 -88.343751 
L 479.198212 -86.889732 
L 481.509288 -86.028092 
L 483.820365 -83.981695 
L 486.131442 -85.974239 
L 488.442519 -89.905475 
L 490.753596 -94.967613 
L 493.064673 -104.01484 
L 495.37575 -109.507799 
L 497.686827 -114.031412 
L 499.997904 -111.338785 
L 502.308981 -111.01567 
L 504.620058 -110.907965 
L 506.931135 -111.338785 
L 509.242212 -110.58485 
L 511.553288 -104.337955 
L 513.864365 -100.083604 
L 516.175442 -96.260074 
L 518.486519 -97.067862 
L 520.797596 -96.044664 
L 523.108673 -98.791144 
L 525.41975 -101.05295 
L 527.730827 -101.322213 
L 530.041904 -100.19131 
L 532.352981 -98.091061 
L 534.664058 -95.613844 
L 536.975135 -89.959327 
L 539.286212 -87.428258 
L 541.597288 -84.412516 
L 543.908365 -83.22776 
L 546.219442 -82.689234 
L 548.530519 -80.48128 
L 550.841596 -77.680948 
L 553.152673 -80.965953 
L 555.46375 -84.843336 
L 557.774827 -90.497853 
L 560.085904 -98.521881 
L 562.396981 -102.237706 
L 564.708058 -107.245992 
L 567.019135 -105.953531 
L 569.330212 -104.768775 
L 571.641288 -103.79943 
L 573.952365 -102.345411 
L 576.263442 -102.668526 
L 578.574519 -101.968443 
L 580.885596 -104.337955 
L 583.196673 -106.061236 
L 585.50775 -109.938619 
L 587.818827 -110.58485 
L 590.129904 -110.80026 
L 592.440981 -112.092721 
L 594.752058 -116.616334 
L 597.063135 -117.58568 
L 599.374212 -120.601422 
L 601.685288 -118.66273 
L 603.996365 -119.308961 
L 606.307442 -117.262564 
L 608.618519 -116.185514 
L 610.929596 -116.831744 
L 613.240673 -115.754693 
L 615.55175 -114.893053 
L 617.862827 -116.724039 
L 620.173904 -123.940279 
L 622.484981 -124.155689 
L 624.796058 -121.355357 
L 627.107135 -116.508629 
L 629.418212 -113.708297 
L 631.729288 -106.061236 
L 634.040365 -100.999098 
L 636.351442 -96.206222 
L 638.662519 -91.305641 
L 640.973596 -85.381861 
L 643.284673 -83.65858 
L 645.59575 -83.389317 
L 647.906827 -87.643668 
L 650.217904 -87.966783 
L 652.528981 -89.582359 
L 654.840058 -88.074488 
L 657.151135 -86.351207 
L 659.462212 -86.243502 
L 661.773288 -85.435714 
L 664.084365 -82.473824 
L 666.395442 -81.773741 
L 668.706519 -80.912101 
L 671.017596 -81.450626 
L 673.328673 -80.427428 
L 675.63975 -80.858248 
L 677.950827 -83.44317 
L 680.261904 -87.212848 
L 682.572981 -90.87482 
L 684.884058 -93.244332 
L 687.195135 -96.637042 
L 689.506212 -95.613844 
L 691.817288 -95.775401 
L 694.128365 -94.806056 
L 696.439442 -93.675152 
L 698.750519 -93.244332 
L 701.061596 -93.998268 
L 703.372673 -92.274986 
L 705.68375 -88.451456 
L 705.68375 -116.724039 
L 705.68375 -116.724039 
L 703.372673 -119.201256 
L 701.061596 -122.001588 
L 698.750519 -125.771266 
L 696.439442 -129.002418 
L 694.128365 -130.941109 
L 691.817288 -131.479635 
L 689.506212 -130.941109 
L 687.195135 -132.987506 
L 684.884058 -130.510289 
L 682.572981 -126.417496 
L 680.261904 -121.678473 
L 677.950827 -117.047154 
L 675.63975 -115.539283 
L 673.328673 -114.354527 
L 671.017596 -113.169771 
L 668.706519 -110.907965 
L 666.395442 -108.323043 
L 664.084365 -110.907965 
L 661.773288 -112.415836 
L 659.462212 -114.462232 
L 657.151135 -115.000758 
L 654.840058 -119.524371 
L 652.528981 -122.324703 
L 650.217904 -122.216998 
L 647.906827 -119.632076 
L 645.59575 -116.831744 
L 643.284673 -114.462232 
L 640.973596 -116.724039 
L 638.662519 -120.170602 
L 636.351442 -125.986676 
L 634.040365 -132.879801 
L 631.729288 -140.311451 
L 629.418212 -146.01982 
L 627.107135 -153.343766 
L 624.796058 -157.544264 
L 622.484981 -161.421646 
L 620.173904 -159.913775 
L 617.862827 -159.59066 
L 615.55175 -157.759674 
L 613.240673 -154.528521 
L 610.929596 -155.174752 
L 608.618519 -155.605572 
L 606.307442 -155.174752 
L 603.996365 -154.420816 
L 601.685288 -154.851637 
L 599.374212 -154.636227 
L 597.063135 -152.266715 
L 594.752058 -148.712447 
L 592.440981 -146.127525 
L 590.129904 -144.835064 
L 587.818827 -145.696705 
L 585.50775 -145.696705 
L 583.196673 -144.619654 
L 580.885596 -143.111783 
L 578.574519 -139.01899 
L 576.263442 -136.003248 
L 573.952365 -137.295709 
L 571.641288 -138.695875 
L 569.330212 -140.096041 
L 567.019135 -141.496207 
L 564.708058 -143.004078 
L 562.396981 -139.342105 
L 560.085904 -134.495377 
L 557.774827 -126.956021 
L 555.46375 -122.324703 
L 553.152673 -116.939449 
L 550.841596 -115.323873 
L 548.530519 -116.831744 
L 546.219442 -116.400924 
L 543.908365 -118.0165 
L 541.597288 -117.262564 
L 539.286212 -119.955191 
L 536.975135 -122.432408 
L 534.664058 -124.047984 
L 532.352981 -127.817662 
L 530.041904 -131.80275 
L 527.730827 -133.202916 
L 525.41975 -131.37193 
L 523.108673 -126.740611 
L 520.797596 -124.047984 
L 518.486519 -124.58651 
L 516.175442 -127.925367 
L 513.864365 -133.310621 
L 511.553288 -138.37276 
L 509.242212 -145.912115 
L 506.931135 -145.80441 
L 504.620058 -145.80441 
L 502.308981 -146.558346 
L 499.997904 -147.096871 
L 497.686827 -145.696705 
L 495.37575 -142.250143 
L 493.064673 -135.033902 
L 490.753596 -126.632906 
L 488.442519 -121.139947 
L 486.131442 -116.616334 
L 483.820365 -115.862398 
L 481.509288 -115.323873 
L 479.198212 -117.37027 
L 476.887135 -119.739781 
L 474.576058 -121.139947 
L 472.264981 -123.940279 
L 469.953904 -123.617164 
L 467.642827 -125.878971 
L 465.33175 -128.787008 
L 463.020673 -128.248482 
L 460.709596 -125.23274 
L 458.398519 -123.832574 
L 456.087442 -120.924537 
L 453.776365 -118.555025 
L 451.465288 -114.569937 
L 449.154212 -112.631246 
L 446.843135 -112.415836 
L 444.532058 -113.277477 
L 442.220981 -113.169771 
L 439.909904 -112.308131 
L 437.598827 -110.369439 
L 435.28775 -107.030582 
L 432.976673 -102.399264 
L 430.665596 -97.175567 
L 428.354519 -94.105973 
L 426.043442 -90.390147 
L 423.732365 -86.243502 
L 421.421288 -88.343751 
L 419.110212 -89.043834 
L 416.799135 -88.613014 
L 414.488058 -87.374405 
L 412.176981 -84.466368 
L 409.865904 -84.466368 
L 407.554827 -83.981695 
L 405.24375 -83.22776 
z
"/>
    </defs>
    <g clip-path="url(#p5df8b001ec)">
     <use xlink:href="#mf053ef5da6" x="0" y="280.954375" style="fill: #f14432; fill-opacity: 0.2"/>
    </g>
   </g>
   <g id="PolyCollection_4">
    <defs>
     <path id="mc2ffacaea7" d="M 405.24375 -99.437374 
L 405.24375 -83.497022 
L 407.554827 -82.258414 
L 409.865904 -83.981695 
L 412.176981 -84.250958 
L 414.488058 -84.627926 
L 416.799135 -82.096856 
L 419.110212 -82.258414 
L 421.421288 -81.342921 
L 423.732365 -81.666036 
L 426.043442 -81.289068 
L 428.354519 -81.827594 
L 430.665596 -83.497022 
L 432.976673 -85.543419 
L 435.28775 -86.728175 
L 437.598827 -84.897188 
L 439.909904 -84.789483 
L 442.220981 -85.920387 
L 444.532058 -85.220304 
L 446.843135 -85.166451 
L 449.154212 -85.974239 
L 451.465288 -85.812682 
L 453.776365 -86.028092 
L 456.087442 -86.889732 
L 458.398519 -83.712433 
L 460.709596 -85.381861 
L 463.020673 -84.843336 
L 465.33175 -85.004894 
L 467.642827 -84.412516 
L 469.953904 -82.581529 
L 472.264981 -82.689234 
L 474.576058 -81.773741 
L 476.887135 -81.450626 
L 479.198212 -81.935299 
L 481.509288 -82.743087 
L 483.820365 -84.520221 
L 486.131442 -84.627926 
L 488.442519 -83.927843 
L 490.753596 -82.850792 
L 493.064673 -81.558331 
L 495.37575 -81.342921 
L 497.686827 -83.927843 
L 499.997904 -83.01235 
L 502.308981 -79.61964 
L 504.620058 -80.750543 
L 506.931135 -80.48128 
L 509.242212 -81.235216 
L 511.553288 -80.26587 
L 513.864365 -81.666036 
L 516.175442 -82.581529 
L 518.486519 -81.935299 
L 520.797596 -81.935299 
L 523.108673 -82.366119 
L 525.41975 -82.743087 
L 527.730827 -84.035548 
L 530.041904 -86.243502 
L 532.352981 -86.243502 
L 534.664058 -84.789483 
L 536.975135 -85.866534 
L 539.286212 -85.543419 
L 541.597288 -83.335465 
L 543.908365 -83.927843 
L 546.219442 -82.958497 
L 548.530519 -85.004894 
L 550.841596 -86.028092 
L 553.152673 -85.812682 
L 555.46375 -85.597271 
L 557.774827 -84.627926 
L 560.085904 -85.381861 
L 562.396981 -83.981695 
L 564.708058 -84.520221 
L 567.019135 -85.866534 
L 569.330212 -85.166451 
L 571.641288 -85.920387 
L 573.952365 -84.250958 
L 576.263442 -85.812682 
L 578.574519 -85.381861 
L 580.885596 -83.604728 
L 583.196673 -82.527677 
L 585.50775 -85.274156 
L 587.818827 -84.951041 
L 590.129904 -84.627926 
L 592.440981 -84.897188 
L 594.752058 -83.766285 
L 597.063135 -83.927843 
L 599.374212 -83.927843 
L 601.685288 -85.651124 
L 603.996365 -85.489566 
L 606.307442 -84.358663 
L 608.618519 -83.981695 
L 610.929596 -82.635382 
L 613.240673 -83.120055 
L 615.55175 -82.743087 
L 617.862827 -82.904645 
L 620.173904 -82.096856 
L 622.484981 -83.927843 
L 624.796058 -85.381861 
L 627.107135 -84.951041 
L 629.418212 -84.951041 
L 631.729288 -85.166451 
L 634.040365 -85.381861 
L 636.351442 -84.627926 
L 638.662519 -85.651124 
L 640.973596 -84.197105 
L 643.284673 -82.689234 
L 645.59575 -85.866534 
L 647.906827 -84.358663 
L 650.217904 -83.22776 
L 652.528981 -82.150709 
L 654.840058 -84.304811 
L 657.151135 -85.597271 
L 659.462212 -84.951041 
L 661.773288 -84.466368 
L 664.084365 -85.328009 
L 666.395442 -83.335465 
L 668.706519 -82.204562 
L 671.017596 -80.750543 
L 673.328673 -82.473824 
L 675.63975 -83.820138 
L 677.950827 -83.44317 
L 680.261904 -82.581529 
L 682.572981 -83.173907 
L 684.884058 -83.22776 
L 687.195135 -81.881446 
L 689.506212 -81.989151 
L 691.817288 -81.181363 
L 694.128365 -81.666036 
L 696.439442 -81.289068 
L 698.750519 -82.796939 
L 701.061596 -83.550875 
L 703.372673 -82.581529 
L 705.68375 -81.181363 
L 705.68375 -98.521881 
L 705.68375 -98.521881 
L 703.372673 -99.706637 
L 701.061596 -99.275816 
L 698.750519 -100.245162 
L 696.439442 -99.060406 
L 694.128365 -100.299015 
L 691.817288 -98.521881 
L 689.506212 -97.714093 
L 687.195135 -96.637042 
L 684.884058 -97.66024 
L 682.572981 -99.221964 
L 680.261904 -100.675982 
L 677.950827 -99.814342 
L 675.63975 -99.221964 
L 673.328673 -99.383521 
L 671.017596 -100.783687 
L 668.706519 -99.545079 
L 666.395442 -102.614674 
L 664.084365 -101.591476 
L 661.773288 -101.376065 
L 659.462212 -100.137457 
L 657.151135 -100.245162 
L 654.840058 -102.614674 
L 652.528981 -101.860738 
L 650.217904 -102.076148 
L 647.906827 -102.237706 
L 645.59575 -102.130001 
L 643.284673 -101.968443 
L 640.973596 -101.322213 
L 638.662519 -100.40672 
L 636.351442 -100.891393 
L 634.040365 -101.968443 
L 631.729288 -99.706637 
L 629.418212 -100.568277 
L 627.107135 -103.476314 
L 624.796058 -103.045494 
L 622.484981 -100.945245 
L 620.173904 -99.114259 
L 617.862827 -99.706637 
L 615.55175 -99.221964 
L 613.240673 -100.352867 
L 610.929596 -100.19131 
L 608.618519 -100.137457 
L 606.307442 -100.729835 
L 603.996365 -100.999098 
L 601.685288 -100.40672 
L 599.374212 -100.40672 
L 597.063135 -99.221964 
L 594.752058 -100.029752 
L 592.440981 -100.083604 
L 590.129904 -99.275816 
L 587.818827 -99.491227 
L 585.50775 -100.029752 
L 583.196673 -98.898849 
L 580.885596 -99.006554 
L 578.574519 -100.245162 
L 576.263442 -99.168111 
L 573.952365 -99.221964 
L 571.641288 -100.245162 
L 569.330212 -101.645328 
L 567.019135 -101.26836 
L 564.708058 -100.137457 
L 562.396981 -99.922047 
L 560.085904 -99.275816 
L 557.774827 -100.891393 
L 555.46375 -99.275816 
L 553.152673 -99.598932 
L 550.841596 -98.844996 
L 548.530519 -99.221964 
L 546.219442 -99.437374 
L 543.908365 -100.083604 
L 541.597288 -100.999098 
L 539.286212 -99.114259 
L 536.975135 -98.791144 
L 534.664058 -99.652784 
L 532.352981 -98.629586 
L 530.041904 -99.922047 
L 527.730827 -99.545079 
L 525.41975 -98.683438 
L 523.108673 -99.922047 
L 520.797596 -97.44483 
L 518.486519 -96.260074 
L 516.175442 -97.552535 
L 513.864365 -98.898849 
L 511.553288 -99.437374 
L 509.242212 -99.006554 
L 506.931135 -98.683438 
L 504.620058 -96.7986 
L 502.308981 -96.637042 
L 499.997904 -96.475484 
L 497.686827 -96.960157 
L 495.37575 -96.637042 
L 493.064673 -97.714093 
L 490.753596 -97.390978 
L 488.442519 -97.498683 
L 486.131442 -97.01401 
L 483.820365 -97.767945 
L 481.509288 -96.960157 
L 479.198212 -97.44483 
L 476.887135 -98.360323 
L 474.576058 -101.26836 
L 472.264981 -99.814342 
L 469.953904 -100.460572 
L 467.642827 -99.491227 
L 465.33175 -101.591476 
L 463.020673 -101.106803 
L 460.709596 -101.645328 
L 458.398519 -100.62213 
L 456.087442 -101.214508 
L 453.776365 -101.214508 
L 451.465288 -100.675982 
L 449.154212 -102.883937 
L 446.843135 -101.968443 
L 444.532058 -100.514425 
L 442.220981 -101.322213 
L 439.909904 -101.160655 
L 437.598827 -102.453116 
L 435.28775 -100.729835 
L 432.976673 -102.345411 
L 430.665596 -101.160655 
L 428.354519 -102.076148 
L 426.043442 -101.429918 
L 423.732365 -102.668526 
L 421.421288 -99.975899 
L 419.110212 -100.460572 
L 416.799135 -99.221964 
L 414.488058 -98.737291 
L 412.176981 -100.945245 
L 409.865904 -100.568277 
L 407.554827 -99.922047 
L 405.24375 -99.437374 
z
"/>
    </defs>
    <g clip-path="url(#p5df8b001ec)">
     <use xlink:href="#mc2ffacaea7" x="0" y="280.954375" style="fill: #4a98c9; fill-opacity: 0.2"/>
    </g>
   </g>
   <g id="patch_66">
    <path d="M 583.196673 227.457525 
L 585.50775 227.457525 
L 585.50775 223.045925 
L 583.196673 223.045925 
z
" clip-path="url(#p5df8b001ec)" style="fill: #f14432"/>
   </g>
   <g id="patch_67">
    <path d="M 585.50775 227.457525 
L 587.818827 227.457525 
L 587.818827 223.045925 
L 585.50775 223.045925 
z
" clip-path="url(#p5df8b001ec)" style="fill: #f14432"/>
   </g>
   <g id="patch_68">
    <path d="M 587.818827 227.457525 
L 590.129904 227.457525 
L 590.129904 223.045925 
L 587.818827 223.045925 
z
" clip-path="url(#p5df8b001ec)" style="fill: #f14432"/>
   </g>
   <g id="patch_69">
    <path d="M 590.129904 227.457525 
L 592.440981 227.457525 
L 592.440981 223.045925 
L 590.129904 223.045925 
z
" clip-path="url(#p5df8b001ec)" style="fill: #f14432"/>
   </g>
   <g id="patch_70">
    <path d="M 592.440981 227.457525 
L 594.752058 227.457525 
L 594.752058 223.045925 
L 592.440981 223.045925 
z
" clip-path="url(#p5df8b001ec)" style="fill: #f14432"/>
   </g>
   <g id="patch_71">
    <path d="M 594.752058 227.457525 
L 597.063135 227.457525 
L 597.063135 223.045925 
L 594.752058 223.045925 
z
" clip-path="url(#p5df8b001ec)" style="fill: #f14432"/>
   </g>
   <g id="patch_72">
    <path d="M 597.063135 227.457525 
L 599.374212 227.457525 
L 599.374212 223.045925 
L 597.063135 223.045925 
z
" clip-path="url(#p5df8b001ec)" style="fill: #f14432"/>
   </g>
   <g id="patch_73">
    <path d="M 599.374212 227.457525 
L 601.685288 227.457525 
L 601.685288 223.045925 
L 599.374212 223.045925 
z
" clip-path="url(#p5df8b001ec)" style="fill: #f14432"/>
   </g>
   <g id="patch_74">
    <path d="M 601.685288 227.457525 
L 603.996365 227.457525 
L 603.996365 223.045925 
L 601.685288 223.045925 
z
" clip-path="url(#p5df8b001ec)" style="fill: #f14432"/>
   </g>
   <g id="patch_75">
    <path d="M 603.996365 227.457525 
L 606.307442 227.457525 
L 606.307442 223.045925 
L 603.996365 223.045925 
z
" clip-path="url(#p5df8b001ec)" style="fill: #f14432"/>
   </g>
   <g id="patch_76">
    <path d="M 606.307442 227.457525 
L 608.618519 227.457525 
L 608.618519 223.045925 
L 606.307442 223.045925 
z
" clip-path="url(#p5df8b001ec)" style="fill: #f14432"/>
   </g>
   <g id="patch_77">
    <path d="M 608.618519 227.457525 
L 610.929596 227.457525 
L 610.929596 223.045925 
L 608.618519 223.045925 
z
" clip-path="url(#p5df8b001ec)" style="fill: #f14432"/>
   </g>
   <g id="patch_78">
    <path d="M 610.929596 227.457525 
L 613.240673 227.457525 
L 613.240673 223.045925 
L 610.929596 223.045925 
z
" clip-path="url(#p5df8b001ec)" style="fill: #f14432"/>
   </g>
   <g id="patch_79">
    <path d="M 613.240673 227.457525 
L 615.55175 227.457525 
L 615.55175 223.045925 
L 613.240673 223.045925 
z
" clip-path="url(#p5df8b001ec)" style="fill: #f14432"/>
   </g>
   <g id="patch_80">
    <path d="M 615.55175 227.457525 
L 617.862827 227.457525 
L 617.862827 223.045925 
L 615.55175 223.045925 
z
" clip-path="url(#p5df8b001ec)" style="fill: #f14432"/>
   </g>
   <g id="patch_81">
    <path d="M 617.862827 227.457525 
L 620.173904 227.457525 
L 620.173904 223.045925 
L 617.862827 223.045925 
z
" clip-path="url(#p5df8b001ec)" style="fill: #f14432"/>
   </g>
   <g id="patch_82">
    <path d="M 620.173904 227.457525 
L 622.484981 227.457525 
L 622.484981 223.045925 
L 620.173904 223.045925 
z
" clip-path="url(#p5df8b001ec)" style="fill: #f14432"/>
   </g>
   <g id="patch_83">
    <path d="M 622.484981 227.457525 
L 624.796058 227.457525 
L 624.796058 223.045925 
L 622.484981 223.045925 
z
" clip-path="url(#p5df8b001ec)" style="fill: #f14432"/>
   </g>
   <g id="patch_84">
    <path d="M 624.796058 227.457525 
L 627.107135 227.457525 
L 627.107135 223.045925 
L 624.796058 223.045925 
z
" clip-path="url(#p5df8b001ec)" style="fill: #f14432"/>
   </g>
   <g id="patch_85">
    <path d="M 627.107135 227.457525 
L 629.418212 227.457525 
L 629.418212 223.045925 
L 627.107135 223.045925 
z
" clip-path="url(#p5df8b001ec)" style="fill: #f14432"/>
   </g>
   <g id="patch_86">
    <path d="M 629.418212 227.457525 
L 631.729288 227.457525 
L 631.729288 223.045925 
L 629.418212 223.045925 
z
" clip-path="url(#p5df8b001ec)" style="fill: #f14432"/>
   </g>
   <g id="matplotlib.axis_3">
    <g id="xtick_3">
     <g id="line2d_15">
      <g>
       <use xlink:href="#m8191b66f1b" x="497.686827" y="242.898125" style="stroke: #000000; stroke-width: 0.8"/>
      </g>
     </g>
     <g id="text_14">
      <!-- 0.0 -->
      <g transform="translate(489.735264 257.996562) scale(0.1 -0.1)">
       <use xlink:href="#DejaVuSans-30"/>
       <use xlink:href="#DejaVuSans-2e" x="63.623047"/>
       <use xlink:href="#DejaVuSans-30" x="95.410156"/>
      </g>
     </g>
    </g>
    <g id="xtick_4">
     <g id="line2d_16">
      <g>
       <use xlink:href="#m8191b66f1b" x="613.240673" y="242.898125" style="stroke: #000000; stroke-width: 0.8"/>
      </g>
     </g>
     <g id="text_15">
      <!-- 0.5 -->
      <g transform="translate(605.289111 257.996562) scale(0.1 -0.1)">
       <use xlink:href="#DejaVuSans-30"/>
       <use xlink:href="#DejaVuSans-2e" x="63.623047"/>
       <use xlink:href="#DejaVuSans-35" x="95.410156"/>
      </g>
     </g>
    </g>
    <g id="text_16">
     <!-- Time from Onset (s) -->
     <g transform="translate(505.577813 271.674687) scale(0.1 -0.1)">
      <use xlink:href="#DejaVuSans-54"/>
      <use xlink:href="#DejaVuSans-69" x="57.958984"/>
      <use xlink:href="#DejaVuSans-6d" x="85.742188"/>
      <use xlink:href="#DejaVuSans-65" x="183.154297"/>
      <use xlink:href="#DejaVuSans-20" x="244.677734"/>
      <use xlink:href="#DejaVuSans-66" x="276.464844"/>
      <use xlink:href="#DejaVuSans-72" x="311.669922"/>
      <use xlink:href="#DejaVuSans-6f" x="350.533203"/>
      <use xlink:href="#DejaVuSans-6d" x="411.714844"/>
      <use xlink:href="#DejaVuSans-20" x="509.126953"/>
      <use xlink:href="#DejaVuSans-4f" x="540.914062"/>
      <use xlink:href="#DejaVuSans-6e" x="619.625"/>
      <use xlink:href="#DejaVuSans-73" x="683.003906"/>
      <use xlink:href="#DejaVuSans-65" x="735.103516"/>
      <use xlink:href="#DejaVuSans-74" x="796.626953"/>
      <use xlink:href="#DejaVuSans-20" x="835.835938"/>
      <use xlink:href="#DejaVuSans-28" x="867.623047"/>
      <use xlink:href="#DejaVuSans-73" x="906.636719"/>
      <use xlink:href="#DejaVuSans-29" x="958.736328"/>
     </g>
    </g>
   </g>
   <g id="matplotlib.axis_4">
    <g id="ytick_7">
     <g id="line2d_17">
      <g>
       <use xlink:href="#md2920fc1be" x="405.24375" y="242.898125" style="stroke: #000000; stroke-width: 0.8"/>
      </g>
     </g>
     <g id="text_17">
      <!-- 0.05 -->
      <g transform="translate(375.478125 246.697344) scale(0.1 -0.1)">
       <use xlink:href="#DejaVuSans-30"/>
       <use xlink:href="#DejaVuSans-2e" x="63.623047"/>
       <use xlink:href="#DejaVuSans-30" x="95.410156"/>
       <use xlink:href="#DejaVuSans-35" x="159.033203"/>
      </g>
     </g>
    </g>
    <g id="ytick_8">
     <g id="line2d_18">
      <g>
       <use xlink:href="#md2920fc1be" x="405.24375" y="198.782125" style="stroke: #000000; stroke-width: 0.8"/>
      </g>
     </g>
     <g id="text_18">
      <!-- 0.10 -->
      <g transform="translate(375.478125 202.581344) scale(0.1 -0.1)">
       <use xlink:href="#DejaVuSans-30"/>
       <use xlink:href="#DejaVuSans-2e" x="63.623047"/>
       <use xlink:href="#DejaVuSans-31" x="95.410156"/>
       <use xlink:href="#DejaVuSans-30" x="159.033203"/>
      </g>
     </g>
    </g>
    <g id="ytick_9">
     <g id="line2d_19">
      <g>
       <use xlink:href="#md2920fc1be" x="405.24375" y="154.666125" style="stroke: #000000; stroke-width: 0.8"/>
      </g>
     </g>
     <g id="text_19">
      <!-- 0.15 -->
      <g transform="translate(375.478125 158.465344) scale(0.1 -0.1)">
       <use xlink:href="#DejaVuSans-30"/>
       <use xlink:href="#DejaVuSans-2e" x="63.623047"/>
       <use xlink:href="#DejaVuSans-31" x="95.410156"/>
       <use xlink:href="#DejaVuSans-35" x="159.033203"/>
      </g>
     </g>
    </g>
    <g id="ytick_10">
     <g id="line2d_20">
      <g>
       <use xlink:href="#md2920fc1be" x="405.24375" y="110.550125" style="stroke: #000000; stroke-width: 0.8"/>
      </g>
     </g>
     <g id="text_20">
      <!-- 0.20 -->
      <g transform="translate(375.478125 114.349344) scale(0.1 -0.1)">
       <use xlink:href="#DejaVuSans-30"/>
       <use xlink:href="#DejaVuSans-2e" x="63.623047"/>
       <use xlink:href="#DejaVuSans-32" x="95.410156"/>
       <use xlink:href="#DejaVuSans-30" x="159.033203"/>
      </g>
     </g>
    </g>
    <g id="ytick_11">
     <g id="line2d_21">
      <g>
       <use xlink:href="#md2920fc1be" x="405.24375" y="66.434125" style="stroke: #000000; stroke-width: 0.8"/>
      </g>
     </g>
     <g id="text_21">
      <!-- 0.25 -->
      <g transform="translate(375.478125 70.233344) scale(0.1 -0.1)">
       <use xlink:href="#DejaVuSans-30"/>
       <use xlink:href="#DejaVuSans-2e" x="63.623047"/>
       <use xlink:href="#DejaVuSans-32" x="95.410156"/>
       <use xlink:href="#DejaVuSans-35" x="159.033203"/>
      </g>
     </g>
    </g>
    <g id="ytick_12">
     <g id="line2d_22">
      <g>
       <use xlink:href="#md2920fc1be" x="405.24375" y="22.318125" style="stroke: #000000; stroke-width: 0.8"/>
      </g>
     </g>
     <g id="text_22">
      <!-- 0.30 -->
      <g transform="translate(375.478125 26.117344) scale(0.1 -0.1)">
       <use xlink:href="#DejaVuSans-30"/>
       <use xlink:href="#DejaVuSans-2e" x="63.623047"/>
       <use xlink:href="#DejaVuSans-33" x="95.410156"/>
       <use xlink:href="#DejaVuSans-30" x="159.033203"/>
      </g>
     </g>
    </g>
    <g id="text_23">
     <!-- Accuracy -->
     <g transform="translate(369.398438 155.43625) rotate(-90) scale(0.1 -0.1)">
      <use xlink:href="#DejaVuSans-41"/>
      <use xlink:href="#DejaVuSans-63" x="66.658203"/>
      <use xlink:href="#DejaVuSans-63" x="121.638672"/>
      <use xlink:href="#DejaVuSans-75" x="176.619141"/>
      <use xlink:href="#DejaVuSans-72" x="239.998047"/>
      <use xlink:href="#DejaVuSans-61" x="281.111328"/>
      <use xlink:href="#DejaVuSans-63" x="342.390625"/>
      <use xlink:href="#DejaVuSans-79" x="397.371094"/>
     </g>
    </g>
   </g>
   <g id="line2d_23">
    <path d="M 405.24375 189.076605 
L 705.68375 189.076605 
" clip-path="url(#p5df8b001ec)" style="fill: none; stroke-dasharray: 5.55,2.4; stroke-dashoffset: 0; stroke: #000000; stroke-width: 1.5"/>
   </g>
   <g id="line2d_24">
    <path d="M 497.686827 242.898125 
L 497.686827 22.318125 
" clip-path="url(#p5df8b001ec)" style="fill: none; stroke-dasharray: 1.5,2.475; stroke-dashoffset: 0; stroke: #000000; stroke-opacity: 0.3; stroke-width: 1.5"/>
   </g>
   <g id="line2d_25">
    <path d="M 405.24375 212.805326 
L 407.554827 211.566718 
L 409.865904 210.597372 
L 412.176981 209.143354 
L 414.488058 205.858349 
L 416.799135 204.296625 
L 419.110212 203.434984 
L 421.421288 204.350478 
L 423.732365 205.427528 
L 426.043442 204.18892 
L 428.354519 200.79621 
L 430.665596 198.642108 
L 432.976673 194.064643 
L 435.28775 189.864145 
L 437.598827 187.279223 
L 439.909904 184.478891 
L 449.154212 184.909711 
L 451.465288 182.863314 
L 453.776365 179.093637 
L 456.087442 175.754779 
L 458.398519 174.570023 
L 460.709596 172.739037 
L 463.020673 170.26182 
L 465.33175 169.077064 
L 467.642827 170.369525 
L 469.953904 171.446576 
L 472.264981 172.308217 
L 474.576058 174.462318 
L 476.887135 176.885683 
L 479.198212 178.824374 
L 481.509288 180.278393 
L 483.820365 181.032328 
L 486.131442 179.686015 
L 488.442519 175.431664 
L 490.753596 170.154115 
L 493.064673 161.430004 
L 495.37575 155.075404 
L 497.686827 151.090316 
L 499.997904 151.736547 
L 504.620058 152.598187 
L 506.931135 152.382777 
L 509.242212 152.705893 
L 511.553288 159.599018 
L 516.175442 168.861654 
L 518.486519 170.154115 
L 520.797596 170.908051 
L 523.108673 168.215424 
L 525.41975 164.768861 
L 527.730827 163.691811 
L 530.041904 164.984271 
L 534.664058 171.123461 
L 536.975135 174.785434 
L 539.286212 177.26265 
L 541.597288 180.116835 
L 543.908365 180.332245 
L 546.219442 181.409296 
L 548.530519 182.324789 
L 550.841596 184.425038 
L 553.152673 182.001674 
L 555.46375 177.370355 
L 557.774827 172.200512 
L 560.085904 164.445746 
L 564.708058 155.82934 
L 569.330212 158.521967 
L 571.641288 159.706723 
L 573.952365 161.106889 
L 576.263442 161.645414 
L 578.574519 160.460658 
L 580.885596 157.229506 
L 583.196673 155.61393 
L 585.50775 153.136713 
L 587.818827 152.813598 
L 590.129904 153.136713 
L 592.440981 151.844252 
L 594.752058 148.289984 
L 597.063135 146.028178 
L 599.374212 143.335551 
L 601.685288 144.197191 
L 603.996365 144.089486 
L 606.307442 144.735717 
L 608.618519 145.058832 
L 610.929596 144.951127 
L 613.240673 145.812768 
L 615.55175 144.628012 
L 617.862827 142.797025 
L 620.173904 139.027348 
L 622.484981 138.165707 
L 624.796058 141.504564 
L 627.107135 146.028178 
L 629.418212 151.090316 
L 631.729288 157.768031 
L 634.040365 164.014926 
L 636.351442 169.831 
L 638.662519 175.216254 
L 640.973596 179.901425 
L 643.284673 181.893969 
L 645.59575 180.816918 
L 647.906827 177.316503 
L 650.217904 175.862484 
L 652.528981 175.000844 
L 654.840058 177.154945 
L 657.151135 180.278393 
L 659.462212 180.601508 
L 661.773288 182.001674 
L 664.084365 184.26348 
L 666.395442 185.879057 
L 668.706519 185.017416 
L 671.017596 183.61725 
L 673.328673 183.563397 
L 675.63975 182.755609 
L 677.950827 180.709213 
L 682.572981 172.308217 
L 684.884058 169.077064 
L 687.195135 166.169027 
L 689.506212 167.676898 
L 691.817288 167.353783 
L 694.128365 168.107719 
L 696.439442 169.61559 
L 698.750519 171.446576 
L 701.061596 172.954447 
L 703.372673 175.216254 
L 705.68375 178.393554 
L 705.68375 178.393554 
" clip-path="url(#p5df8b001ec)" style="fill: none; stroke: #f14432; stroke-width: 1.5; stroke-linecap: square"/>
   </g>
   <g id="line2d_26">
    <path d="M 405.24375 189.487177 
L 407.554827 189.864145 
L 409.865904 188.679389 
L 412.176981 188.356273 
L 416.799135 190.294965 
L 419.110212 189.594882 
L 421.421288 190.294965 
L 423.732365 188.787094 
L 426.043442 189.594882 
L 428.354519 189.002504 
L 430.665596 188.625536 
L 432.976673 187.00996 
L 435.28775 187.22537 
L 437.598827 187.279223 
L 439.909904 187.979306 
L 442.220981 187.333075 
L 444.532058 188.087011 
L 446.843135 187.386928 
L 449.154212 186.525287 
L 451.465288 187.710043 
L 456.087442 186.902255 
L 458.398519 188.787094 
L 460.709596 187.44078 
L 463.020673 187.979306 
L 465.33175 187.65619 
L 467.642827 189.002504 
L 469.953904 189.433324 
L 472.264981 189.702587 
L 474.576058 189.433324 
L 476.887135 191.0489 
L 479.198212 191.264311 
L 481.509288 191.102753 
L 483.820365 189.810292 
L 486.131442 190.133407 
L 488.442519 190.241112 
L 495.37575 191.964394 
L 497.686827 190.510375 
L 499.997904 191.210458 
L 502.308981 192.826034 
L 504.620058 192.179804 
L 506.931135 191.372016 
L 509.242212 190.83349 
L 511.553288 191.102753 
L 513.864365 190.671933 
L 516.175442 190.887343 
L 518.486519 191.856688 
L 520.797596 191.264311 
L 523.108673 189.810292 
L 525.41975 190.241112 
L 527.730827 189.164062 
L 530.041904 187.871601 
L 532.352981 188.517831 
L 534.664058 188.733241 
L 539.286212 188.625536 
L 543.908365 188.948651 
L 546.219442 189.756439 
L 548.530519 188.840946 
L 553.152673 188.248568 
L 555.46375 188.517831 
L 557.774827 188.194716 
L 562.396981 189.002504 
L 564.708058 188.625536 
L 567.019135 187.386928 
L 569.330212 187.548485 
L 571.641288 187.871601 
L 573.952365 189.217914 
L 576.263442 188.463979 
L 578.574519 188.140863 
L 580.885596 189.648734 
L 583.196673 190.241112 
L 585.50775 188.302421 
L 587.818827 188.733241 
L 590.129904 189.002504 
L 592.440981 188.463979 
L 594.752058 189.056356 
L 597.063135 189.379472 
L 599.374212 188.787094 
L 601.685288 187.925453 
L 603.996365 187.710043 
L 606.307442 188.410126 
L 608.618519 188.894799 
L 610.929596 189.541029 
L 613.240673 189.217914 
L 615.55175 189.97185 
L 617.862827 189.648734 
L 620.173904 190.348817 
L 624.796058 186.740697 
L 627.107135 186.740697 
L 629.418212 188.194716 
L 631.729288 188.517831 
L 634.040365 187.279223 
L 636.351442 188.194716 
L 638.662519 187.925453 
L 640.973596 188.194716 
L 643.284673 188.625536 
L 645.59575 186.956107 
L 652.528981 188.948651 
L 654.840058 187.494633 
L 657.151135 188.033158 
L 659.462212 188.410126 
L 661.773288 188.033158 
L 664.084365 187.494633 
L 666.395442 187.979306 
L 668.706519 190.079555 
L 671.017596 190.18726 
L 673.328673 190.025702 
L 675.63975 189.433324 
L 680.261904 189.325619 
L 682.572981 189.756439 
L 684.884058 190.510375 
L 687.195135 191.695131 
L 689.506212 191.102753 
L 691.817288 191.102753 
L 694.128365 189.97185 
L 696.439442 190.779638 
L 698.750519 189.433324 
L 701.061596 189.541029 
L 703.372673 189.810292 
L 705.68375 191.102753 
L 705.68375 191.102753 
" clip-path="url(#p5df8b001ec)" style="fill: none; stroke: #4a98c9; stroke-width: 1.5; stroke-linecap: square"/>
   </g>
   <g id="patch_87">
    <path d="M 405.24375 242.898125 
L 405.24375 22.318125 
" style="fill: none; stroke: #000000; stroke-width: 0.8; stroke-linejoin: miter; stroke-linecap: square"/>
   </g>
   <g id="patch_88">
    <path d="M 405.24375 242.898125 
L 705.68375 242.898125 
" style="fill: none; stroke: #000000; stroke-width: 0.8; stroke-linejoin: miter; stroke-linecap: square"/>
   </g>
   <g id="text_24">
    <!-- resp -->
    <g transform="translate(542.505625 16.318125) scale(0.12 -0.12)">
     <use xlink:href="#DejaVuSans-72"/>
     <use xlink:href="#DejaVuSans-65" x="38.863281"/>
     <use xlink:href="#DejaVuSans-73" x="100.386719"/>
     <use xlink:href="#DejaVuSans-70" x="152.486328"/>
    </g>
   </g>
  </g>
 </g>
 <defs>
  <clipPath id="p30f134ccbc">
   <rect x="50.64375" y="22.318125" width="300.44" height="220.58"/>
  </clipPath>
  <clipPath id="p5df8b001ec">
   <rect x="405.24375" y="22.318125" width="300.44" height="220.58"/>
  </clipPath>
 </defs>
</svg>
