<?xml version="1.0" encoding="utf-8" standalone="no"?>
<!DOCTYPE svg PUBLIC "-//W3C//DTD SVG 1.1//EN"
  "http://www.w3.org/Graphics/SVG/1.1/DTD/svg11.dtd">
<svg xmlns:xlink="http://www.w3.org/1999/xlink" width="576pt" height="216pt" viewBox="0 0 576 216" xmlns="http://www.w3.org/2000/svg" version="1.1">
 <metadata>
  <rdf:RDF xmlns:dc="http://purl.org/dc/elements/1.1/" xmlns:cc="http://creativecommons.org/ns#" xmlns:rdf="http://www.w3.org/1999/02/22-rdf-syntax-ns#">
   <cc:Work>
    <dc:type rdf:resource="http://purl.org/dc/dcmitype/StillImage"/>
    <dc:date>2025-09-01T14:28:56.864686</dc:date>
    <dc:format>image/svg+xml</dc:format>
    <dc:creator>
     <cc:Agent>
      <dc:title>Matplotlib v3.9.2, https://matplotlib.org/</dc:title>
     </cc:Agent>
    </dc:creator>
   </cc:Work>
  </rdf:RDF>
 </metadata>
 <defs>
  <style type="text/css">*{stroke-linejoin: round; stroke-linecap: butt}</style>
 </defs>
 <g id="figure_1">
  <g id="patch_1">
   <path d="M 0 216 
L 576 216 
L 576 0 
L 0 0 
z
" style="fill: #ffffff"/>
  </g>
  <g id="axes_1">
   <g id="patch_2">
    <path d="M 53.25 170.34 
L 298.654711 170.34 
L 298.654711 29.76 
L 53.25 29.76 
z
" style="fill: #ffffff"/>
   </g>
   <g id="matplotlib.axis_1">
    <g id="xtick_1">
     <g id="line2d_1">
      <defs>
       <path id="m080b970dc2" d="M 0 0 
L 0 -3.5 
" style="stroke: #000000; stroke-width: 0.5"/>
      </defs>
      <g>
       <use xlink:href="#m080b970dc2" x="64.40476" y="170.34" style="stroke: #000000; stroke-width: 0.5"/>
      </g>
     </g>
     <g id="text_1">
      <!-- −0.5 -->
      <g transform="translate(49.835072 182.958125) scale(0.12 -0.12)">
       <defs>
        <path id="DejaVuSans-2212" d="M 678 2272 
L 4684 2272 
L 4684 1741 
L 678 1741 
L 678 2272 
z
" transform="scale(0.015625)"/>
        <path id="DejaVuSans-30" d="M 2034 4250 
Q 1547 4250 1301 3770 
Q 1056 3291 1056 2328 
Q 1056 1369 1301 889 
Q 1547 409 2034 409 
Q 2525 409 2770 889 
Q 3016 1369 3016 2328 
Q 3016 3291 2770 3770 
Q 2525 4250 2034 4250 
z
M 2034 4750 
Q 2819 4750 3233 4129 
Q 3647 3509 3647 2328 
Q 3647 1150 3233 529 
Q 2819 -91 2034 -91 
Q 1250 -91 836 529 
Q 422 1150 422 2328 
Q 422 3509 836 4129 
Q 1250 4750 2034 4750 
z
" transform="scale(0.015625)"/>
        <path id="DejaVuSans-2e" d="M 684 794 
L 1344 794 
L 1344 0 
L 684 0 
L 684 794 
z
" transform="scale(0.015625)"/>
        <path id="DejaVuSans-35" d="M 691 4666 
L 3169 4666 
L 3169 4134 
L 1269 4134 
L 1269 2991 
Q 1406 3038 1543 3061 
Q 1681 3084 1819 3084 
Q 2600 3084 3056 2656 
Q 3513 2228 3513 1497 
Q 3513 744 3044 326 
Q 2575 -91 1722 -91 
Q 1428 -91 1123 -41 
Q 819 9 494 109 
L 494 744 
Q 775 591 1075 516 
Q 1375 441 1709 441 
Q 2250 441 2565 725 
Q 2881 1009 2881 1497 
Q 2881 1984 2565 2268 
Q 2250 2553 1709 2553 
Q 1456 2553 1204 2497 
Q 953 2441 691 2322 
L 691 4666 
z
" transform="scale(0.015625)"/>
       </defs>
       <use xlink:href="#DejaVuSans-2212"/>
       <use xlink:href="#DejaVuSans-30" x="83.789062"/>
       <use xlink:href="#DejaVuSans-2e" x="147.412109"/>
       <use xlink:href="#DejaVuSans-35" x="179.199219"/>
      </g>
     </g>
    </g>
    <g id="xtick_2">
     <g id="line2d_2">
      <g>
       <use xlink:href="#m080b970dc2" x="138.769823" y="170.34" style="stroke: #000000; stroke-width: 0.5"/>
      </g>
     </g>
     <g id="text_2">
      <!-- 0.0 -->
      <g transform="translate(129.227948 182.958125) scale(0.12 -0.12)">
       <use xlink:href="#DejaVuSans-30"/>
       <use xlink:href="#DejaVuSans-2e" x="63.623047"/>
       <use xlink:href="#DejaVuSans-30" x="95.410156"/>
      </g>
     </g>
    </g>
    <g id="xtick_3">
     <g id="line2d_3">
      <g>
       <use xlink:href="#m080b970dc2" x="213.134887" y="170.34" style="stroke: #000000; stroke-width: 0.5"/>
      </g>
     </g>
     <g id="text_3">
      <!-- 0.5 -->
      <g transform="translate(203.593012 182.958125) scale(0.12 -0.12)">
       <use xlink:href="#DejaVuSans-30"/>
       <use xlink:href="#DejaVuSans-2e" x="63.623047"/>
       <use xlink:href="#DejaVuSans-35" x="95.410156"/>
      </g>
     </g>
    </g>
    <g id="xtick_4">
     <g id="line2d_4">
      <g>
       <use xlink:href="#m080b970dc2" x="287.499951" y="170.34" style="stroke: #000000; stroke-width: 0.5"/>
      </g>
     </g>
     <g id="text_4">
      <!-- 1.0 -->
      <g transform="translate(277.958076 182.958125) scale(0.12 -0.12)">
       <defs>
        <path id="DejaVuSans-31" d="M 794 531 
L 1825 531 
L 1825 4091 
L 703 3866 
L 703 4441 
L 1819 4666 
L 2450 4666 
L 2450 531 
L 3481 531 
L 3481 0 
L 794 0 
L 794 531 
z
" transform="scale(0.015625)"/>
       </defs>
       <use xlink:href="#DejaVuSans-31"/>
       <use xlink:href="#DejaVuSans-2e" x="63.623047"/>
       <use xlink:href="#DejaVuSans-30" x="95.410156"/>
      </g>
     </g>
    </g>
    <g id="text_5">
     <!-- Time (s) -->
     <g transform="translate(147.491887 200.091563) scale(0.14 -0.14)">
      <defs>
       <path id="DejaVuSans-54" d="M -19 4666 
L 3928 4666 
L 3928 4134 
L 2272 4134 
L 2272 0 
L 1638 0 
L 1638 4134 
L -19 4134 
L -19 4666 
z
" transform="scale(0.015625)"/>
       <path id="DejaVuSans-69" d="M 603 3500 
L 1178 3500 
L 1178 0 
L 603 0 
L 603 3500 
z
M 603 4863 
L 1178 4863 
L 1178 4134 
L 603 4134 
L 603 4863 
z
" transform="scale(0.015625)"/>
       <path id="DejaVuSans-6d" d="M 3328 2828 
Q 3544 3216 3844 3400 
Q 4144 3584 4550 3584 
Q 5097 3584 5394 3201 
Q 5691 2819 5691 2113 
L 5691 0 
L 5113 0 
L 5113 2094 
Q 5113 2597 4934 2840 
Q 4756 3084 4391 3084 
Q 3944 3084 3684 2787 
Q 3425 2491 3425 1978 
L 3425 0 
L 2847 0 
L 2847 2094 
Q 2847 2600 2669 2842 
Q 2491 3084 2119 3084 
Q 1678 3084 1418 2786 
Q 1159 2488 1159 1978 
L 1159 0 
L 581 0 
L 581 3500 
L 1159 3500 
L 1159 2956 
Q 1356 3278 1631 3431 
Q 1906 3584 2284 3584 
Q 2666 3584 2933 3390 
Q 3200 3197 3328 2828 
z
" transform="scale(0.015625)"/>
       <path id="DejaVuSans-65" d="M 3597 1894 
L 3597 1613 
L 953 1613 
Q 991 1019 1311 708 
Q 1631 397 2203 397 
Q 2534 397 2845 478 
Q 3156 559 3463 722 
L 3463 178 
Q 3153 47 2828 -22 
Q 2503 -91 2169 -91 
Q 1331 -91 842 396 
Q 353 884 353 1716 
Q 353 2575 817 3079 
Q 1281 3584 2069 3584 
Q 2775 3584 3186 3129 
Q 3597 2675 3597 1894 
z
M 3022 2063 
Q 3016 2534 2758 2815 
Q 2500 3097 2075 3097 
Q 1594 3097 1305 2825 
Q 1016 2553 972 2059 
L 3022 2063 
z
" transform="scale(0.015625)"/>
       <path id="DejaVuSans-20" transform="scale(0.015625)"/>
       <path id="DejaVuSans-28" d="M 1984 4856 
Q 1566 4138 1362 3434 
Q 1159 2731 1159 2009 
Q 1159 1288 1364 580 
Q 1569 -128 1984 -844 
L 1484 -844 
Q 1016 -109 783 600 
Q 550 1309 550 2009 
Q 550 2706 781 3412 
Q 1013 4119 1484 4856 
L 1984 4856 
z
" transform="scale(0.015625)"/>
       <path id="DejaVuSans-73" d="M 2834 3397 
L 2834 2853 
Q 2591 2978 2328 3040 
Q 2066 3103 1784 3103 
Q 1356 3103 1142 2972 
Q 928 2841 928 2578 
Q 928 2378 1081 2264 
Q 1234 2150 1697 2047 
L 1894 2003 
Q 2506 1872 2764 1633 
Q 3022 1394 3022 966 
Q 3022 478 2636 193 
Q 2250 -91 1575 -91 
Q 1294 -91 989 -36 
Q 684 19 347 128 
L 347 722 
Q 666 556 975 473 
Q 1284 391 1588 391 
Q 1994 391 2212 530 
Q 2431 669 2431 922 
Q 2431 1156 2273 1281 
Q 2116 1406 1581 1522 
L 1381 1569 
Q 847 1681 609 1914 
Q 372 2147 372 2553 
Q 372 3047 722 3315 
Q 1072 3584 1716 3584 
Q 2034 3584 2315 3537 
Q 2597 3491 2834 3397 
z
" transform="scale(0.015625)"/>
       <path id="DejaVuSans-29" d="M 513 4856 
L 1013 4856 
Q 1481 4119 1714 3412 
Q 1947 2706 1947 2009 
Q 1947 1309 1714 600 
Q 1481 -109 1013 -844 
L 513 -844 
Q 928 -128 1133 580 
Q 1338 1288 1338 2009 
Q 1338 2731 1133 3434 
Q 928 4138 513 4856 
z
" transform="scale(0.015625)"/>
      </defs>
      <use xlink:href="#DejaVuSans-54"/>
      <use xlink:href="#DejaVuSans-69" x="57.958984"/>
      <use xlink:href="#DejaVuSans-6d" x="85.742188"/>
      <use xlink:href="#DejaVuSans-65" x="183.154297"/>
      <use xlink:href="#DejaVuSans-20" x="244.677734"/>
      <use xlink:href="#DejaVuSans-28" x="276.464844"/>
      <use xlink:href="#DejaVuSans-73" x="315.478516"/>
      <use xlink:href="#DejaVuSans-29" x="367.578125"/>
     </g>
    </g>
   </g>
   <g id="matplotlib.axis_2">
    <g id="ytick_1">
     <g id="line2d_5">
      <defs>
       <path id="m1c2c4d7f1f" d="M 0 0 
L 3.5 0 
" style="stroke: #000000; stroke-width: 0.5"/>
      </defs>
      <g>
       <use xlink:href="#m1c2c4d7f1f" x="53.25" y="163.95" style="stroke: #000000; stroke-width: 0.5"/>
      </g>
     </g>
     <g id="text_6">
      <!-- 0.0 -->
      <g transform="translate(30.66625 168.509063) scale(0.12 -0.12)">
       <use xlink:href="#DejaVuSans-30"/>
       <use xlink:href="#DejaVuSans-2e" x="63.623047"/>
       <use xlink:href="#DejaVuSans-30" x="95.410156"/>
      </g>
     </g>
    </g>
    <g id="ytick_2">
     <g id="line2d_6">
      <g>
       <use xlink:href="#m1c2c4d7f1f" x="53.25" y="46.651186" style="stroke: #000000; stroke-width: 0.5"/>
      </g>
     </g>
     <g id="text_7">
      <!-- 0.5 -->
      <g transform="translate(30.66625 51.210248) scale(0.12 -0.12)">
       <use xlink:href="#DejaVuSans-30"/>
       <use xlink:href="#DejaVuSans-2e" x="63.623047"/>
       <use xlink:href="#DejaVuSans-35" x="95.410156"/>
      </g>
     </g>
    </g>
    <g id="text_8">
     <!-- Amplitude (a.u.) -->
     <g transform="translate(23.754687 156.783906) rotate(-90) scale(0.14 -0.14)">
      <defs>
       <path id="DejaVuSans-41" d="M 2188 4044 
L 1331 1722 
L 3047 1722 
L 2188 4044 
z
M 1831 4666 
L 2547 4666 
L 4325 0 
L 3669 0 
L 3244 1197 
L 1141 1197 
L 716 0 
L 50 0 
L 1831 4666 
z
" transform="scale(0.015625)"/>
       <path id="DejaVuSans-70" d="M 1159 525 
L 1159 -1331 
L 581 -1331 
L 581 3500 
L 1159 3500 
L 1159 2969 
Q 1341 3281 1617 3432 
Q 1894 3584 2278 3584 
Q 2916 3584 3314 3078 
Q 3713 2572 3713 1747 
Q 3713 922 3314 415 
Q 2916 -91 2278 -91 
Q 1894 -91 1617 61 
Q 1341 213 1159 525 
z
M 3116 1747 
Q 3116 2381 2855 2742 
Q 2594 3103 2138 3103 
Q 1681 3103 1420 2742 
Q 1159 2381 1159 1747 
Q 1159 1113 1420 752 
Q 1681 391 2138 391 
Q 2594 391 2855 752 
Q 3116 1113 3116 1747 
z
" transform="scale(0.015625)"/>
       <path id="DejaVuSans-6c" d="M 603 4863 
L 1178 4863 
L 1178 0 
L 603 0 
L 603 4863 
z
" transform="scale(0.015625)"/>
       <path id="DejaVuSans-74" d="M 1172 4494 
L 1172 3500 
L 2356 3500 
L 2356 3053 
L 1172 3053 
L 1172 1153 
Q 1172 725 1289 603 
Q 1406 481 1766 481 
L 2356 481 
L 2356 0 
L 1766 0 
Q 1100 0 847 248 
Q 594 497 594 1153 
L 594 3053 
L 172 3053 
L 172 3500 
L 594 3500 
L 594 4494 
L 1172 4494 
z
" transform="scale(0.015625)"/>
       <path id="DejaVuSans-75" d="M 544 1381 
L 544 3500 
L 1119 3500 
L 1119 1403 
Q 1119 906 1312 657 
Q 1506 409 1894 409 
Q 2359 409 2629 706 
Q 2900 1003 2900 1516 
L 2900 3500 
L 3475 3500 
L 3475 0 
L 2900 0 
L 2900 538 
Q 2691 219 2414 64 
Q 2138 -91 1772 -91 
Q 1169 -91 856 284 
Q 544 659 544 1381 
z
M 1991 3584 
L 1991 3584 
z
" transform="scale(0.015625)"/>
       <path id="DejaVuSans-64" d="M 2906 2969 
L 2906 4863 
L 3481 4863 
L 3481 0 
L 2906 0 
L 2906 525 
Q 2725 213 2448 61 
Q 2172 -91 1784 -91 
Q 1150 -91 751 415 
Q 353 922 353 1747 
Q 353 2572 751 3078 
Q 1150 3584 1784 3584 
Q 2172 3584 2448 3432 
Q 2725 3281 2906 2969 
z
M 947 1747 
Q 947 1113 1208 752 
Q 1469 391 1925 391 
Q 2381 391 2643 752 
Q 2906 1113 2906 1747 
Q 2906 2381 2643 2742 
Q 2381 3103 1925 3103 
Q 1469 3103 1208 2742 
Q 947 2381 947 1747 
z
" transform="scale(0.015625)"/>
       <path id="DejaVuSans-61" d="M 2194 1759 
Q 1497 1759 1228 1600 
Q 959 1441 959 1056 
Q 959 750 1161 570 
Q 1363 391 1709 391 
Q 2188 391 2477 730 
Q 2766 1069 2766 1631 
L 2766 1759 
L 2194 1759 
z
M 3341 1997 
L 3341 0 
L 2766 0 
L 2766 531 
Q 2569 213 2275 61 
Q 1981 -91 1556 -91 
Q 1019 -91 701 211 
Q 384 513 384 1019 
Q 384 1609 779 1909 
Q 1175 2209 1959 2209 
L 2766 2209 
L 2766 2266 
Q 2766 2663 2505 2880 
Q 2244 3097 1772 3097 
Q 1472 3097 1187 3025 
Q 903 2953 641 2809 
L 641 3341 
Q 956 3463 1253 3523 
Q 1550 3584 1831 3584 
Q 2591 3584 2966 3190 
Q 3341 2797 3341 1997 
z
" transform="scale(0.015625)"/>
      </defs>
      <use xlink:href="#DejaVuSans-41"/>
      <use xlink:href="#DejaVuSans-6d" x="68.408203"/>
      <use xlink:href="#DejaVuSans-70" x="165.820312"/>
      <use xlink:href="#DejaVuSans-6c" x="229.296875"/>
      <use xlink:href="#DejaVuSans-69" x="257.080078"/>
      <use xlink:href="#DejaVuSans-74" x="284.863281"/>
      <use xlink:href="#DejaVuSans-75" x="324.072266"/>
      <use xlink:href="#DejaVuSans-64" x="387.451172"/>
      <use xlink:href="#DejaVuSans-65" x="450.927734"/>
      <use xlink:href="#DejaVuSans-20" x="512.451172"/>
      <use xlink:href="#DejaVuSans-28" x="544.238281"/>
      <use xlink:href="#DejaVuSans-61" x="583.251953"/>
      <use xlink:href="#DejaVuSans-2e" x="644.53125"/>
      <use xlink:href="#DejaVuSans-75" x="676.318359"/>
      <use xlink:href="#DejaVuSans-2e" x="739.697266"/>
      <use xlink:href="#DejaVuSans-29" x="771.484375"/>
     </g>
    </g>
   </g>
   <g id="line2d_7">
    <path d="M 64.40476 163.95 
L 137.282522 163.95 
L 138.769823 140.707273 
L 140.257125 129.3557 
L 141.744426 114.260547 
L 143.231727 100.787897 
L 146.20633 85.616339 
L 147.693631 79.797597 
L 149.180932 80.547211 
L 150.668234 79.34396 
L 155.130137 74.537055 
L 156.617439 71.875815 
L 158.10474 68.893869 
L 159.592041 73.592401 
L 161.079343 82.09352 
L 165.541246 119.906401 
L 167.028548 130.568868 
L 168.515849 137.570627 
L 170.00315 139.934524 
L 171.490452 140.149267 
L 172.977753 143.883423 
L 174.465054 138.105399 
L 175.952355 129.42128 
L 177.439657 122.376312 
L 180.414259 110.854909 
L 181.90156 111.262193 
L 183.388862 115.976016 
L 184.876163 117.087586 
L 186.363464 118.031639 
L 187.850766 118.151579 
L 189.338067 120.202484 
L 190.825368 120.485464 
L 193.799971 121.892484 
L 195.287272 122.50169 
L 196.774573 123.471431 
L 199.749176 126.364638 
L 201.236477 127.146848 
L 202.723778 126.812135 
L 204.21108 126.170386 
L 205.698381 126.525082 
L 207.185682 127.317592 
L 208.672983 129.391944 
L 210.160285 131.185095 
L 211.647586 134.01623 
L 213.134887 135.026483 
L 214.622189 138.542611 
L 217.596791 150.434173 
L 219.084092 163.95 
L 287.499951 163.95 
L 287.499951 163.95 
" clip-path="url(#p535ba1661e)" style="fill: none; stroke: #4682b4; stroke-opacity: 0.3; stroke-width: 0.5; stroke-linecap: square"/>
   </g>
   <g id="line2d_8">
    <path d="M 64.40476 163.95 
L 137.282522 163.95 
L 138.769823 143.396912 
L 141.744426 120.256051 
L 143.231727 110.997338 
L 146.20633 105.324576 
L 147.693631 104.419602 
L 149.180932 101.896633 
L 152.155535 97.42234 
L 153.642836 95.32093 
L 155.130137 94.377286 
L 156.617439 94.722941 
L 158.10474 94.601714 
L 161.079343 94.825865 
L 162.566644 94.154261 
L 164.053945 93.886082 
L 165.541246 93.740457 
L 167.028548 94.235882 
L 168.515849 94.533496 
L 171.490452 96.743328 
L 172.977753 98.556485 
L 174.465054 99.730736 
L 175.952355 101.585019 
L 177.439657 102.638547 
L 178.926958 108.078876 
L 180.414259 116.928125 
L 183.388862 130.453122 
L 184.876163 136.765088 
L 186.363464 139.520846 
L 187.850766 138.584818 
L 189.338067 141.145001 
L 190.825368 145.158695 
L 192.312669 150.510566 
L 193.799971 154.802491 
L 195.287272 157.759517 
L 196.774573 150.400707 
L 198.261875 128.288463 
L 199.749176 101.605409 
L 201.236477 78.097731 
L 202.723778 58.876703 
L 204.21108 50.079676 
L 205.698381 57.912097 
L 207.185682 69.514682 
L 208.672983 78.326309 
L 210.160285 84.36237 
L 211.647586 89.141642 
L 213.134887 90.768971 
L 214.622189 92.773217 
L 216.10949 95.636451 
L 219.084092 101.986298 
L 220.571394 105.399888 
L 222.058695 107.785683 
L 223.545996 109.148911 
L 225.033298 110.325561 
L 226.520599 111.015031 
L 228.0079 111.918997 
L 229.495201 113.275687 
L 230.982503 114.816329 
L 232.469804 115.671208 
L 233.957105 117.810523 
L 235.444406 118.320292 
L 236.931708 125.316399 
L 239.90631 143.980731 
L 241.393612 163.95 
L 287.499951 163.95 
L 287.499951 163.95 
" clip-path="url(#p535ba1661e)" style="fill: none; stroke: #4682b4; stroke-opacity: 0.3; stroke-width: 0.5; stroke-linecap: square"/>
   </g>
   <g id="line2d_9">
    <path d="M 64.40476 163.95 
L 137.282522 163.95 
L 138.769823 149.990779 
L 140.257125 138.57845 
L 141.744426 124.982122 
L 143.231727 107.454098 
L 144.719029 96.967535 
L 146.20633 91.836462 
L 147.693631 87.215456 
L 149.180932 87.667251 
L 150.668234 91.123337 
L 152.155535 91.756579 
L 153.642836 95.137502 
L 155.130137 100.238112 
L 156.617439 103.595601 
L 158.10474 112.765394 
L 159.592041 123.43931 
L 161.079343 131.978492 
L 164.053945 150.398771 
L 165.541246 155.074155 
L 167.028548 158.17244 
L 168.515849 160.890047 
L 170.00315 162.330433 
L 171.490452 163.015677 
L 172.977753 162.147889 
L 174.465054 159.442184 
L 175.952355 152.845345 
L 177.439657 149.645508 
L 178.926958 148.126168 
L 180.414259 147.376789 
L 181.90156 146.016046 
L 183.388862 142.668093 
L 184.876163 136.010054 
L 187.850766 118.564263 
L 189.338067 113.137791 
L 190.825368 114.339173 
L 193.799971 118.064067 
L 195.287272 121.347351 
L 196.774573 122.604568 
L 198.261875 121.477055 
L 199.749176 121.134807 
L 201.236477 119.992234 
L 202.723778 118.181235 
L 204.21108 118.717332 
L 205.698381 120.870882 
L 207.185682 121.479292 
L 210.160285 126.989936 
L 211.647586 128.937476 
L 213.134887 130.582537 
L 214.622189 132.717424 
L 216.10949 133.296812 
L 217.596791 134.396945 
L 219.084092 134.216458 
L 220.571394 134.805342 
L 223.545996 146.693761 
L 225.033298 163.95 
L 287.499951 163.95 
L 287.499951 163.95 
" clip-path="url(#p535ba1661e)" style="fill: none; stroke: #4682b4; stroke-opacity: 0.3; stroke-width: 0.5; stroke-linecap: square"/>
   </g>
   <g id="line2d_10">
    <path d="M 64.40476 163.95 
L 137.282522 163.95 
L 138.769823 150.090021 
L 140.257125 139.045557 
L 141.744426 126.186053 
L 143.231727 109.517251 
L 144.719029 97.534448 
L 146.20633 91.443125 
L 147.693631 88.905849 
L 149.180932 88.365318 
L 150.668234 90.704756 
L 153.642836 100.73495 
L 155.130137 104.326921 
L 156.617439 111.428351 
L 158.10474 120.863688 
L 159.592041 128.829111 
L 162.566644 147.734951 
L 164.053945 153.581236 
L 165.541246 158.415834 
L 167.028548 160.31545 
L 170.00315 157.722975 
L 172.977753 151.632329 
L 174.465054 142.90286 
L 177.439657 117.64293 
L 180.414259 96.690204 
L 181.90156 93.285945 
L 183.388862 94.360503 
L 184.876163 94.066372 
L 186.363464 93.542572 
L 187.850766 93.394302 
L 189.338067 94.005636 
L 190.825368 94.951666 
L 192.312669 96.761657 
L 193.799971 98.20833 
L 195.287272 99.170327 
L 196.774573 98.331305 
L 198.261875 99.349821 
L 199.749176 101.320382 
L 201.236477 103.644293 
L 202.723778 105.576606 
L 204.21108 109.258682 
L 205.698381 110.438326 
L 207.185682 111.811006 
L 208.672983 112.506373 
L 210.160285 114.109877 
L 211.647586 113.659473 
L 213.134887 124.386686 
L 216.10949 144.001351 
L 217.596791 163.95 
L 287.499951 163.95 
L 287.499951 163.95 
" clip-path="url(#p535ba1661e)" style="fill: none; stroke: #4682b4; stroke-opacity: 0.3; stroke-width: 0.5; stroke-linecap: square"/>
   </g>
   <g id="line2d_11">
    <path d="M 64.40476 163.95 
L 137.282522 163.95 
L 138.769823 142.382568 
L 140.257125 132.276841 
L 143.231727 108.306814 
L 144.719029 103.917422 
L 146.20633 100.446064 
L 147.693631 96.420308 
L 149.180932 94.096079 
L 150.668234 94.671249 
L 152.155535 94.320275 
L 153.642836 93.803641 
L 155.130137 92.83082 
L 156.617439 90.856271 
L 158.10474 90.346439 
L 159.592041 88.354584 
L 161.079343 85.008671 
L 162.566644 82.964345 
L 164.053945 82.093622 
L 165.541246 80.014706 
L 167.028548 78.94493 
L 168.515849 79.289162 
L 170.00315 81.849768 
L 172.977753 90.12973 
L 174.465054 93.784112 
L 175.952355 98.689919 
L 178.926958 104.792783 
L 180.414259 111.089533 
L 183.388862 128.220796 
L 184.876163 137.504936 
L 186.363464 145.281798 
L 187.850766 150.294059 
L 189.338067 153.883479 
L 190.825368 155.836403 
L 192.312669 156.647073 
L 193.799971 155.850209 
L 195.287272 154.02187 
L 196.774573 144.266788 
L 198.261875 130.42746 
L 201.236477 107.517732 
L 202.723778 97.1475 
L 204.21108 95.883695 
L 205.698381 98.915047 
L 207.185682 100.457703 
L 208.672983 103.425021 
L 213.134887 113.925047 
L 214.622189 116.864215 
L 217.596791 120.554594 
L 219.084092 120.805916 
L 220.571394 121.318814 
L 222.058695 121.335719 
L 223.545996 122.843088 
L 226.520599 126.746004 
L 228.0079 129.182977 
L 230.982503 134.50796 
L 232.469804 135.878951 
L 233.957105 137.893284 
L 235.444406 139.704051 
L 236.931708 142.256671 
L 241.393612 156.742839 
L 242.880913 163.95 
L 287.499951 163.95 
L 287.499951 163.95 
" clip-path="url(#p535ba1661e)" style="fill: none; stroke: #4682b4; stroke-opacity: 0.3; stroke-width: 0.5; stroke-linecap: square"/>
   </g>
   <g id="line2d_12">
    <path d="M 64.40476 163.95 
L 137.282522 163.95 
L 138.769823 141.042483 
L 140.257125 130.316715 
L 143.231727 104.851088 
L 144.719029 100.168627 
L 146.20633 96.506163 
L 147.693631 92.227763 
L 149.180932 89.76965 
L 150.668234 90.381422 
L 152.155535 89.992744 
L 153.642836 89.446507 
L 155.130137 88.373019 
L 156.617439 86.306842 
L 158.10474 85.699716 
L 159.592041 83.631217 
L 161.079343 79.994363 
L 162.566644 77.892929 
L 164.053945 76.848309 
L 165.541246 74.738169 
L 167.028548 73.469549 
L 168.515849 73.97954 
L 170.00315 76.539648 
L 171.490452 81.236234 
L 174.465054 89.49034 
L 175.952355 94.099705 
L 177.439657 96.678744 
L 178.926958 99.984802 
L 180.414259 106.700329 
L 181.90156 115.472451 
L 183.388862 125.292103 
L 184.876163 136.162881 
L 186.363464 144.014573 
L 187.850766 149.496517 
L 189.338067 153.190419 
L 190.825368 155.324518 
L 193.799971 156.827203 
L 195.287272 156.483139 
L 196.774573 155.773011 
L 198.261875 146.077036 
L 199.749176 125.188433 
L 201.236477 107.306099 
L 202.723778 91.706222 
L 204.21108 79.111749 
L 205.698381 77.431536 
L 207.185682 88.07391 
L 208.672983 96.550892 
L 210.160285 103.103611 
L 211.647586 108.4383 
L 213.134887 112.079365 
L 214.622189 115.37884 
L 216.10949 117.792176 
L 217.596791 121.850468 
L 220.571394 127.183116 
L 222.058695 128.556791 
L 223.545996 127.537983 
L 228.0079 118.364445 
L 229.495201 116.968955 
L 230.982503 117.571695 
L 233.957105 123.215193 
L 235.444406 129.092464 
L 238.419009 146.176185 
L 239.90631 163.95 
L 287.499951 163.95 
L 287.499951 163.95 
" clip-path="url(#p535ba1661e)" style="fill: none; stroke: #4682b4; stroke-opacity: 0.3; stroke-width: 0.5; stroke-linecap: square"/>
   </g>
   <g id="line2d_13">
    <path d="M 64.40476 163.95 
L 137.282522 163.95 
L 138.769823 141.015663 
L 140.257125 125.048084 
L 141.744426 106.034209 
L 143.231727 89.430784 
L 144.719029 79.378686 
L 146.20633 73.287374 
L 147.693631 71.843984 
L 149.180932 71.483946 
L 150.668234 72.38376 
L 152.155535 75.567479 
L 153.642836 83.453733 
L 155.130137 96.298439 
L 156.617439 110.670229 
L 158.10474 123.424518 
L 159.592041 134.859671 
L 161.079343 140.373928 
L 162.566644 140.361647 
L 164.053945 141.771295 
L 165.541246 141.894746 
L 167.028548 143.366335 
L 168.515849 144.002853 
L 170.00315 136.218355 
L 171.490452 125.556325 
L 172.977753 117.71609 
L 174.465054 108.87096 
L 175.952355 101.841277 
L 177.439657 102.600972 
L 178.926958 106.443172 
L 180.414259 109.029636 
L 183.388862 115.39575 
L 184.876163 119.430943 
L 186.363464 122.115908 
L 187.850766 122.721875 
L 189.338067 123.622293 
L 190.825368 125.033917 
L 192.312669 126.042198 
L 193.799971 126.803409 
L 196.774573 130.523201 
L 198.261875 131.608106 
L 199.749176 132.933315 
L 201.236477 135.113682 
L 202.723778 138.109084 
L 204.21108 140.210176 
L 207.185682 143.30491 
L 211.647586 147.414178 
L 213.134887 150.874388 
L 214.622189 154.640154 
L 216.10949 158.078215 
L 217.596791 163.95 
L 287.499951 163.95 
L 287.499951 163.95 
" clip-path="url(#p535ba1661e)" style="fill: none; stroke: #4682b4; stroke-opacity: 0.3; stroke-width: 0.5; stroke-linecap: square"/>
   </g>
   <g id="line2d_14">
    <path d="M 64.40476 163.95 
L 137.282522 163.95 
L 138.769823 131.533634 
L 140.257125 113.723823 
L 143.231727 71.046244 
L 144.719029 65.699579 
L 146.20633 63.914301 
L 147.693631 61.102895 
L 149.180932 62.558284 
L 152.155535 66.302431 
L 153.642836 66.779841 
L 155.130137 68.829118 
L 156.617439 75.507883 
L 159.592041 96.031479 
L 162.566644 121.716684 
L 164.053945 131.855357 
L 165.541246 138.667394 
L 167.028548 142.794642 
L 168.515849 145.03873 
L 170.00315 148.65106 
L 171.490452 151.7287 
L 174.465054 156.484519 
L 175.952355 149.330669 
L 177.439657 134.513742 
L 181.90156 82.287558 
L 183.388862 76.340103 
L 184.876163 77.82957 
L 186.363464 80.273826 
L 187.850766 83.631756 
L 189.338067 86.332891 
L 190.825368 88.699054 
L 192.312669 90.080344 
L 193.799971 91.182134 
L 195.287272 92.900228 
L 196.774573 95.92322 
L 198.261875 99.358935 
L 199.749176 104.070985 
L 202.723778 115.915113 
L 204.21108 119.735628 
L 205.698381 123.060034 
L 207.185682 125.885594 
L 210.160285 132.464135 
L 213.134887 138.769528 
L 214.622189 142.787584 
L 216.10949 145.517115 
L 217.596791 147.356178 
L 219.084092 150.613836 
L 220.571394 153.333165 
L 223.545996 157.197509 
L 225.033298 159.918867 
L 228.0079 162.492145 
L 229.495201 163.95 
L 287.499951 163.95 
L 287.499951 163.95 
" clip-path="url(#p535ba1661e)" style="fill: none; stroke: #4682b4; stroke-opacity: 0.3; stroke-width: 0.5; stroke-linecap: square"/>
   </g>
   <g id="line2d_15">
    <path d="M 64.40476 163.95 
L 137.282522 163.95 
L 138.769823 143.105405 
L 140.257125 129.146451 
L 141.744426 112.773564 
L 143.231727 94.423431 
L 144.719029 84.888064 
L 146.20633 81.391269 
L 147.693631 78.992988 
L 149.180932 79.58176 
L 150.668234 82.106534 
L 152.155535 80.683154 
L 153.642836 78.165847 
L 155.130137 78.893563 
L 156.617439 79.46656 
L 158.10474 87.670842 
L 161.079343 112.590688 
L 164.053945 134.014399 
L 165.541246 140.012873 
L 167.028548 143.205744 
L 168.515849 147.756358 
L 170.00315 151.384786 
L 171.490452 156.000895 
L 172.977753 156.316057 
L 174.465054 150.502858 
L 175.952355 134.137556 
L 178.926958 89.943938 
L 180.414259 73.808563 
L 181.90156 67.684514 
L 183.388862 71.246534 
L 184.876163 78.497469 
L 187.850766 95.340314 
L 189.338067 99.211781 
L 190.825368 102.579859 
L 192.312669 107.9614 
L 193.799971 110.934066 
L 195.287272 112.329488 
L 196.774573 116.042579 
L 198.261875 121.276241 
L 199.749176 127.287003 
L 202.723778 137.719911 
L 204.21108 141.634781 
L 205.698381 144.721809 
L 207.185682 146.914499 
L 208.672983 149.85975 
L 210.160285 151.613182 
L 211.647586 152.998358 
L 216.10949 160.015624 
L 217.596791 163.95 
L 287.499951 163.95 
L 287.499951 163.95 
" clip-path="url(#p535ba1661e)" style="fill: none; stroke: #4682b4; stroke-opacity: 0.3; stroke-width: 0.5; stroke-linecap: square"/>
   </g>
   <g id="line2d_16">
    <path d="M 64.40476 163.95 
L 137.282522 163.95 
L 138.769823 135.330524 
L 140.257125 117.266049 
L 143.231727 76.734592 
L 144.719029 67.817512 
L 146.20633 62.63911 
L 147.693631 61.262101 
L 149.180932 65.712207 
L 150.668234 76.644484 
L 153.642836 106.377671 
L 155.130137 122.325461 
L 156.617439 133.481184 
L 158.10474 142.747714 
L 159.592041 146.548757 
L 161.079343 150.681374 
L 162.566644 149.810844 
L 164.053945 151.196176 
L 165.541246 150.512241 
L 167.028548 141.861111 
L 168.515849 132.532814 
L 170.00315 127.236961 
L 171.490452 120.107887 
L 172.977753 111.163692 
L 174.465054 111.935353 
L 175.952355 112.833745 
L 177.439657 113.011187 
L 178.926958 112.431714 
L 180.414259 112.34141 
L 181.90156 113.751156 
L 183.388862 114.866513 
L 184.876163 115.394763 
L 186.363464 116.692367 
L 187.850766 119.148708 
L 189.338067 120.211455 
L 190.825368 120.294628 
L 192.312669 121.707538 
L 193.799971 123.969653 
L 195.287272 125.491315 
L 196.774573 126.309243 
L 198.261875 127.968808 
L 199.749176 128.509551 
L 201.236477 127.25699 
L 205.698381 148.690841 
L 207.185682 163.95 
L 287.499951 163.95 
L 287.499951 163.95 
" clip-path="url(#p535ba1661e)" style="fill: none; stroke: #4682b4; stroke-opacity: 0.3; stroke-width: 0.5; stroke-linecap: square"/>
   </g>
   <g id="line2d_17">
    <path d="M 64.40476 163.95 
L 137.282522 163.95 
L 138.769823 139.500029 
L 140.257125 129.998767 
L 141.744426 119.07483 
L 143.231727 110.606082 
L 144.719029 111.832949 
L 146.20633 113.467446 
L 147.693631 114.654685 
L 149.180932 119.613751 
L 150.668234 125.155256 
L 153.642836 142.270941 
L 155.130137 150.17082 
L 156.617439 155.368788 
L 158.10474 159.209371 
L 159.592041 160.372161 
L 161.079343 160.670696 
L 162.566644 155.292641 
L 164.053945 148.126003 
L 165.541246 145.254586 
L 167.028548 142.092908 
L 168.515849 140.639504 
L 170.00315 143.225522 
L 171.490452 150.042519 
L 172.977753 146.975366 
L 177.439657 117.416376 
L 178.926958 105.05891 
L 180.414259 98.612216 
L 183.388862 97.68234 
L 184.876163 101.630167 
L 186.363464 106.225995 
L 189.338067 109.329179 
L 190.825368 110.545513 
L 192.312669 108.598583 
L 193.799971 106.888194 
L 195.287272 106.782156 
L 196.774573 108.271084 
L 198.261875 110.777065 
L 199.749176 114.197397 
L 201.236477 116.613532 
L 202.723778 120.169182 
L 204.21108 123.335147 
L 205.698381 125.374756 
L 207.185682 126.175721 
L 208.672983 127.731841 
L 210.160285 126.897958 
L 211.647586 128.349266 
L 214.622189 143.18114 
L 216.10949 163.95 
L 287.499951 163.95 
L 287.499951 163.95 
" clip-path="url(#p535ba1661e)" style="fill: none; stroke: #4682b4; stroke-opacity: 0.3; stroke-width: 0.5; stroke-linecap: square"/>
   </g>
   <g id="line2d_18">
    <path d="M 64.40476 163.95 
L 137.282522 163.95 
L 138.769823 141.526568 
L 140.257125 126.089216 
L 143.231727 84.36497 
L 144.719029 70.849371 
L 147.693631 56.796209 
L 149.180932 56.492976 
L 150.668234 59.6582 
L 152.155535 72.516012 
L 156.617439 132.908617 
L 158.10474 149.940668 
L 159.592041 157.48419 
L 161.079343 159.110174 
L 162.566644 161.518403 
L 164.053945 161.9163 
L 165.541246 162.736786 
L 167.028548 162.518179 
L 168.515849 161.5411 
L 170.00315 157.488963 
L 171.490452 152.910214 
L 172.977753 149.872246 
L 174.465054 149.903927 
L 175.952355 146.207995 
L 177.439657 138.137699 
L 178.926958 130.843479 
L 180.414259 121.183759 
L 181.90156 108.674648 
L 183.388862 99.242642 
L 184.876163 96.760608 
L 186.363464 94.62112 
L 187.850766 95.171958 
L 189.338067 96.189569 
L 190.825368 98.798087 
L 193.799971 106.574857 
L 195.287272 108.268631 
L 196.774573 109.361323 
L 198.261875 110.907194 
L 199.749176 110.702134 
L 201.236477 110.864842 
L 202.723778 111.911628 
L 204.21108 115.546511 
L 205.698381 118.412403 
L 208.672983 126.585375 
L 210.160285 128.94603 
L 211.647586 130.15714 
L 213.134887 133.28183 
L 214.622189 135.920122 
L 216.10949 139.133385 
L 217.596791 146.181782 
L 219.084092 152.404994 
L 220.571394 156.738037 
L 222.058695 163.95 
L 287.499951 163.95 
L 287.499951 163.95 
" clip-path="url(#p535ba1661e)" style="fill: none; stroke: #4682b4; stroke-opacity: 0.3; stroke-width: 0.5; stroke-linecap: square"/>
   </g>
   <g id="line2d_19">
    <path d="M 64.40476 163.95 
L 137.282522 163.95 
L 138.769823 125.015679 
L 140.257125 105.658025 
L 141.744426 84.817248 
L 143.231727 66.770946 
L 144.719029 62.527249 
L 146.20633 62.278534 
L 147.693631 61.909904 
L 149.180932 64.042994 
L 150.668234 67.344388 
L 152.155535 71.511367 
L 153.642836 73.956612 
L 155.130137 76.890439 
L 158.10474 77.719194 
L 159.592041 78.983887 
L 161.079343 79.720623 
L 162.566644 79.701154 
L 164.053945 82.252019 
L 165.541246 91.539803 
L 167.028548 101.532079 
L 168.515849 112.499818 
L 170.00315 124.895683 
L 171.490452 136.074503 
L 172.977753 139.755355 
L 174.465054 141.01143 
L 177.439657 141.721387 
L 178.926958 145.225288 
L 180.414259 143.221943 
L 181.90156 129.391808 
L 186.363464 75.570322 
L 187.850766 63.51203 
L 189.338067 64.935599 
L 190.825368 70.337083 
L 192.312669 72.222549 
L 193.799971 76.954248 
L 195.287272 80.539707 
L 196.774573 83.647828 
L 198.261875 88.292884 
L 199.749176 94.409931 
L 201.236477 97.655423 
L 202.723778 99.453839 
L 204.21108 100.978789 
L 205.698381 100.919309 
L 207.185682 101.738397 
L 208.672983 101.303077 
L 210.160285 102.112043 
L 211.647586 102.40302 
L 213.134887 104.643203 
L 214.622189 106.479034 
L 216.10949 113.345251 
L 219.084092 137.214107 
L 220.571394 147.59142 
L 222.058695 163.95 
L 287.499951 163.95 
L 287.499951 163.95 
" clip-path="url(#p535ba1661e)" style="fill: none; stroke: #4682b4; stroke-opacity: 0.3; stroke-width: 0.5; stroke-linecap: square"/>
   </g>
   <g id="line2d_20">
    <path d="M 64.40476 163.95 
L 137.282522 163.95 
L 138.769823 123.703419 
L 141.744426 81.52354 
L 143.231727 63.902173 
L 144.719029 60.785001 
L 146.20633 63.701581 
L 150.668234 75.894701 
L 152.155535 79.027794 
L 153.642836 83.582839 
L 155.130137 91.247163 
L 156.617439 102.483661 
L 158.10474 115.803941 
L 161.079343 144.741078 
L 162.566644 149.503554 
L 164.053945 149.391058 
L 165.541246 149.091923 
L 167.028548 148.135581 
L 168.515849 146.065004 
L 170.00315 149.092913 
L 171.490452 153.22157 
L 172.977753 152.450788 
L 174.465054 148.149851 
L 177.439657 132.235096 
L 178.926958 123.972522 
L 180.414259 117.558878 
L 181.90156 114.722373 
L 184.876163 112.82293 
L 186.363464 113.381066 
L 187.850766 114.915538 
L 189.338067 114.975263 
L 190.825368 115.628075 
L 192.312669 118.413204 
L 193.799971 117.872608 
L 195.287272 116.920749 
L 196.774573 118.984814 
L 198.261875 120.602954 
L 199.749176 122.8052 
L 201.236477 127.42498 
L 202.723778 133.797062 
L 205.698381 144.427965 
L 207.185682 148.351074 
L 208.672983 151.088457 
L 211.647586 155.600461 
L 213.134887 158.295461 
L 214.622189 160.687234 
L 216.10949 163.95 
L 287.499951 163.95 
L 287.499951 163.95 
" clip-path="url(#p535ba1661e)" style="fill: none; stroke: #4682b4; stroke-opacity: 0.3; stroke-width: 0.5; stroke-linecap: square"/>
   </g>
   <g id="line2d_21">
    <path d="M 64.40476 163.95 
L 137.282522 163.95 
L 138.769823 130.616434 
L 140.257125 112.202759 
L 143.231727 71.685586 
L 144.719029 63.367105 
L 146.20633 59.830474 
L 147.693631 58.043564 
L 149.180932 59.300764 
L 150.668234 62.755148 
L 152.155535 67.341172 
L 153.642836 70.377978 
L 155.130137 74.780227 
L 156.617439 86.673959 
L 159.592041 117.742459 
L 161.079343 135.173361 
L 162.566644 150.177883 
L 164.053945 157.394113 
L 165.541246 160.399059 
L 167.028548 161.538178 
L 168.515849 158.902337 
L 170.00315 156.636246 
L 171.490452 153.538558 
L 172.977753 151.56128 
L 174.465054 149.140073 
L 175.952355 147.315639 
L 177.439657 147.351625 
L 178.926958 140.044294 
L 184.876163 90.835494 
L 186.363464 87.045425 
L 187.850766 88.216694 
L 189.338067 90.576683 
L 190.825368 97.335899 
L 193.799971 108.678945 
L 195.287272 113.089895 
L 196.774573 118.059862 
L 198.261875 119.557704 
L 199.749176 121.515728 
L 201.236477 123.965944 
L 202.723778 124.488425 
L 204.21108 123.026263 
L 207.185682 120.76058 
L 208.672983 118.823612 
L 210.160285 119.178371 
L 211.647586 120.870543 
L 213.134887 123.88102 
L 214.622189 125.743625 
L 216.10949 127.072173 
L 217.596791 128.2065 
L 219.084092 133.558134 
L 220.571394 140.059669 
L 222.058695 147.101188 
L 223.545996 163.95 
L 287.499951 163.95 
L 287.499951 163.95 
" clip-path="url(#p535ba1661e)" style="fill: none; stroke: #4682b4; stroke-opacity: 0.3; stroke-width: 0.5; stroke-linecap: square"/>
   </g>
   <g id="line2d_22">
    <path d="M 64.40476 163.95 
L 137.282522 163.95 
L 138.769823 122.854153 
L 140.257125 100.429737 
L 141.744426 74.952928 
L 143.231727 54.245396 
L 144.719029 48.127778 
L 146.20633 43.987776 
L 147.693631 44.222727 
L 149.180932 47.959931 
L 150.668234 49.054556 
L 152.155535 49.455939 
L 153.642836 50.445499 
L 155.130137 50.696725 
L 156.617439 53.086137 
L 158.10474 56.140179 
L 159.592041 65.452069 
L 161.079343 82.652493 
L 164.053945 121.557352 
L 165.541246 140.332073 
L 167.028548 155.663613 
L 168.515849 160.083235 
L 170.00315 161.718503 
L 171.490452 159.284142 
L 172.977753 158.166873 
L 174.465054 156.049127 
L 177.439657 153.071991 
L 178.926958 145.391297 
L 180.414259 129.726737 
L 183.388862 100.945528 
L 184.876163 86.890055 
L 186.363464 83.468346 
L 187.850766 87.859648 
L 189.338067 91.064676 
L 192.312669 98.312206 
L 193.799971 100.008326 
L 195.287272 102.391474 
L 196.774573 104.12291 
L 198.261875 107.308501 
L 199.749176 109.424759 
L 201.236477 112.600776 
L 202.723778 111.033592 
L 204.21108 110.217793 
L 205.698381 107.894185 
L 207.185682 100.592426 
L 208.672983 95.085841 
L 210.160285 97.839843 
L 211.647586 100.091076 
L 213.134887 106.045302 
L 214.622189 115.810506 
L 216.10949 123.239068 
L 219.084092 142.690465 
L 220.571394 149.28774 
L 222.058695 163.95 
L 287.499951 163.95 
L 287.499951 163.95 
" clip-path="url(#p535ba1661e)" style="fill: none; stroke: #4682b4; stroke-opacity: 0.3; stroke-width: 0.5; stroke-linecap: square"/>
   </g>
   <g id="line2d_23">
    <path d="M 64.40476 163.95 
L 137.282522 163.95 
L 138.769823 128.730519 
L 141.744426 93.085854 
L 143.231727 78.592685 
L 144.719029 75.471127 
L 146.20633 76.250389 
L 147.693631 77.332972 
L 149.180932 77.68394 
L 150.668234 77.207288 
L 152.155535 78.032315 
L 153.642836 79.791747 
L 155.130137 81.114261 
L 156.617439 83.831423 
L 158.10474 91.889102 
L 164.053945 139.930605 
L 165.541246 146.593206 
L 167.028548 149.076148 
L 168.515849 150.961333 
L 170.00315 151.00847 
L 171.490452 146.312446 
L 174.465054 129.772239 
L 175.952355 122.091684 
L 177.439657 116.691864 
L 178.926958 113.880709 
L 180.414259 114.353228 
L 181.90156 115.561308 
L 184.876163 115.738454 
L 186.363464 116.854739 
L 187.850766 118.237184 
L 189.338067 118.730321 
L 192.312669 122.413095 
L 193.799971 124.003416 
L 196.774573 128.187787 
L 199.749176 131.843455 
L 201.236477 134.106954 
L 204.21108 137.496728 
L 205.698381 139.493193 
L 207.185682 142.482634 
L 210.160285 152.819025 
L 211.647586 163.95 
L 287.499951 163.95 
L 287.499951 163.95 
" clip-path="url(#p535ba1661e)" style="fill: none; stroke: #4682b4; stroke-opacity: 0.3; stroke-width: 0.5; stroke-linecap: square"/>
   </g>
   <g id="line2d_24">
    <path d="M 64.40476 163.95 
L 137.282522 163.95 
L 138.769823 123.85919 
L 141.744426 86.346789 
L 143.231727 70.559349 
L 144.719029 66.568771 
L 146.20633 65.060967 
L 147.693631 63.133368 
L 149.180932 60.979312 
L 150.668234 59.186512 
L 152.155535 59.575229 
L 153.642836 57.838439 
L 155.130137 59.274856 
L 156.617439 65.162573 
L 158.10474 73.373568 
L 159.592041 85.385496 
L 161.079343 100.626728 
L 162.566644 113.603651 
L 164.053945 121.572928 
L 165.541246 126.754415 
L 167.028548 129.19124 
L 168.515849 130.088622 
L 170.00315 130.279243 
L 171.490452 129.914793 
L 172.977753 130.700525 
L 174.465054 129.151665 
L 175.952355 124.562288 
L 177.439657 115.424505 
L 178.926958 104.764972 
L 180.414259 92.955925 
L 181.90156 82.059446 
L 183.388862 76.665525 
L 184.876163 76.870694 
L 186.363464 79.974348 
L 187.850766 84.596874 
L 189.338067 90.406365 
L 190.825368 94.429804 
L 192.312669 97.838618 
L 195.287272 101.53336 
L 196.774573 102.231754 
L 198.261875 102.804028 
L 199.749176 102.528222 
L 201.236477 103.968832 
L 202.723778 103.659826 
L 204.21108 104.999152 
L 205.698381 106.056411 
L 207.185682 110.025606 
L 208.672983 112.940173 
L 210.160285 112.338196 
L 211.647586 117.645235 
L 213.134887 122.026708 
L 214.622189 125.446531 
L 216.10949 131.448311 
L 217.596791 142.561531 
L 219.084092 147.500845 
L 220.571394 153.990667 
L 222.058695 158.740072 
L 223.545996 163.95 
L 287.499951 163.95 
L 287.499951 163.95 
" clip-path="url(#p535ba1661e)" style="fill: none; stroke: #4682b4; stroke-opacity: 0.3; stroke-width: 0.5; stroke-linecap: square"/>
   </g>
   <g id="line2d_25">
    <path d="M 64.40476 163.95 
L 137.282522 163.95 
L 138.769823 142.492077 
L 140.257125 130.967413 
L 143.231727 106.742497 
L 144.719029 101.89454 
L 146.20633 99.997293 
L 147.693631 95.413917 
L 149.180932 87.967765 
L 150.668234 81.3269 
L 153.642836 69.671322 
L 155.130137 70.269983 
L 156.617439 77.948839 
L 158.10474 88.621571 
L 161.079343 114.954774 
L 162.566644 124.649022 
L 164.053945 132.348812 
L 165.541246 136.3426 
L 167.028548 138.963832 
L 170.00315 142.999514 
L 171.490452 144.695562 
L 172.977753 147.867573 
L 174.465054 147.747171 
L 175.952355 138.972757 
L 177.439657 128.625525 
L 178.926958 119.52253 
L 180.414259 107.604289 
L 181.90156 99.91521 
L 183.388862 102.496543 
L 184.876163 105.929836 
L 186.363464 108.918423 
L 187.850766 113.335312 
L 189.338067 116.382601 
L 190.825368 120.264244 
L 192.312669 122.207533 
L 196.774573 112.540321 
L 198.261875 108.318003 
L 199.749176 106.710646 
L 201.236477 109.334551 
L 202.723778 112.790106 
L 204.21108 116.713544 
L 207.185682 123.56714 
L 208.672983 126.50514 
L 210.160285 128.289089 
L 211.647586 130.517218 
L 213.134887 130.967647 
L 214.622189 131.986892 
L 217.596791 145.434924 
L 219.084092 163.95 
L 287.499951 163.95 
L 287.499951 163.95 
" clip-path="url(#p535ba1661e)" style="fill: none; stroke: #4682b4; stroke-opacity: 0.3; stroke-width: 0.5; stroke-linecap: square"/>
   </g>
   <g id="line2d_26">
    <path d="M 64.40476 163.95 
L 137.282522 163.95 
L 138.769823 139.655818 
L 140.257125 126.670445 
L 141.744426 112.353454 
L 143.231727 99.169498 
L 144.719029 93.393057 
L 146.20633 91.262058 
L 147.693631 85.762632 
L 149.180932 77.205699 
L 150.668234 69.346998 
L 153.642836 55.598328 
L 155.130137 51.123719 
L 156.617439 55.379313 
L 158.10474 65.964832 
L 159.592041 80.211527 
L 161.079343 96.169509 
L 162.566644 113.894609 
L 164.053945 128.203534 
L 165.541246 134.903091 
L 167.028548 139.336718 
L 168.515849 142.408657 
L 170.00315 144.328829 
L 171.490452 145.432456 
L 172.977753 145.768955 
L 174.465054 147.877052 
L 175.952355 146.532676 
L 177.439657 135.520316 
L 178.926958 125.818928 
L 180.414259 118.079506 
L 181.90156 106.490081 
L 183.388862 99.240157 
L 184.876163 102.312177 
L 186.363464 104.812686 
L 187.850766 106.704222 
L 189.338067 109.377738 
L 192.312669 111.453044 
L 193.799971 112.786232 
L 195.287272 112.976336 
L 196.774573 112.363957 
L 198.261875 113.458361 
L 199.749176 112.725562 
L 201.236477 111.639957 
L 202.723778 111.390153 
L 204.21108 113.989491 
L 205.698381 116.064902 
L 210.160285 125.470841 
L 211.647586 126.965822 
L 213.134887 127.373084 
L 214.622189 128.66047 
L 216.10949 127.060605 
L 217.596791 129.682005 
L 220.571394 144.133228 
L 222.058695 163.95 
L 287.499951 163.95 
L 287.499951 163.95 
" clip-path="url(#p535ba1661e)" style="fill: none; stroke: #4682b4; stroke-opacity: 0.3; stroke-width: 0.5; stroke-linecap: square"/>
   </g>
   <g id="line2d_27">
    <path d="M 64.40476 163.95 
L 137.282522 163.95 
L 138.769823 139.981398 
L 140.257125 127.069256 
L 143.231727 93.5189 
L 144.719029 85.304734 
L 146.20633 80.452128 
L 147.693631 74.741883 
L 149.180932 72.196908 
L 150.668234 70.253701 
L 152.155535 67.76602 
L 153.642836 64.16907 
L 155.130137 62.129599 
L 156.617439 67.122308 
L 158.10474 72.560128 
L 159.592041 83.148069 
L 162.566644 114.280221 
L 165.541246 132.472797 
L 167.028548 139.954413 
L 168.515849 142.469075 
L 170.00315 146.24571 
L 171.490452 144.820002 
L 172.977753 140.091745 
L 174.465054 128.99896 
L 175.952355 119.216873 
L 177.439657 111.564274 
L 178.926958 107.556755 
L 180.414259 109.016805 
L 181.90156 114.456493 
L 183.388862 118.595468 
L 184.876163 119.423501 
L 186.363464 121.812122 
L 187.850766 121.750143 
L 189.338067 121.482014 
L 190.825368 122.385138 
L 193.799971 124.632439 
L 195.287272 126.610126 
L 196.774573 129.056004 
L 198.261875 129.707137 
L 199.749176 128.925631 
L 201.236477 129.249526 
L 202.723778 128.632194 
L 204.21108 128.927153 
L 205.698381 129.850016 
L 207.185682 134.561016 
L 208.672983 141.223982 
L 210.160285 148.545919 
L 211.647586 154.228713 
L 213.134887 163.95 
L 287.499951 163.95 
L 287.499951 163.95 
" clip-path="url(#p535ba1661e)" style="fill: none; stroke: #4682b4; stroke-opacity: 0.3; stroke-width: 0.5; stroke-linecap: square"/>
   </g>
   <g id="line2d_28">
    <path d="M 64.40476 163.95 
L 137.282522 163.95 
L 138.769823 133.501083 
L 143.231727 76.202021 
L 144.719029 68.818003 
L 146.20633 66.580696 
L 147.693631 65.258529 
L 149.180932 65.318771 
L 150.668234 63.489708 
L 152.155535 62.667044 
L 153.642836 66.742539 
L 155.130137 75.01173 
L 156.617439 88.039426 
L 159.592041 123.40553 
L 161.079343 137.762401 
L 162.566644 149.624842 
L 164.053945 155.895029 
L 165.541246 159.49492 
L 167.028548 161.188268 
L 168.515849 161.758059 
L 170.00315 161.72741 
L 171.490452 162.244506 
L 172.977753 162.159368 
L 174.465054 161.82943 
L 175.952355 158.479232 
L 178.926958 133.074908 
L 180.414259 122.683432 
L 181.90156 115.239973 
L 183.388862 110.691632 
L 186.363464 120.038963 
L 187.850766 122.631568 
L 189.338067 122.809341 
L 190.825368 122.671432 
L 192.312669 123.301928 
L 195.287272 122.061619 
L 196.774573 120.680003 
L 198.261875 120.13969 
L 199.749176 119.086924 
L 201.236477 120.208976 
L 202.723778 120.344421 
L 204.21108 122.810359 
L 205.698381 124.080299 
L 207.185682 128.158122 
L 208.672983 135.952488 
L 210.160285 144.798782 
L 211.647586 151.866464 
L 213.134887 163.95 
L 287.499951 163.95 
L 287.499951 163.95 
" clip-path="url(#p535ba1661e)" style="fill: none; stroke: #4682b4; stroke-opacity: 0.3; stroke-width: 0.5; stroke-linecap: square"/>
   </g>
   <g id="line2d_29">
    <path d="M 64.40476 163.95 
L 137.282522 163.95 
L 138.769823 132.596809 
L 140.257125 116.082697 
L 143.231727 81.361734 
L 146.20633 67.608548 
L 147.693631 58.805354 
L 149.180932 51.311033 
L 150.668234 44.583013 
L 152.155535 39.067576 
L 153.642836 39.51387 
L 155.130137 46.965466 
L 156.617439 56.141644 
L 158.10474 66.517348 
L 161.079343 97.133499 
L 164.053945 120.623308 
L 165.541246 130.221166 
L 168.515849 143.416034 
L 170.00315 148.054767 
L 171.490452 151.505787 
L 172.977753 152.25687 
L 174.465054 149.194583 
L 175.952355 145.243913 
L 177.439657 143.238773 
L 178.926958 138.304041 
L 180.414259 137.463084 
L 181.90156 138.729905 
L 183.388862 128.435733 
L 184.876163 114.268306 
L 189.338067 78.310042 
L 190.825368 77.340929 
L 192.312669 78.785972 
L 193.799971 81.322177 
L 201.236477 96.855402 
L 202.723778 98.344905 
L 204.21108 100.078867 
L 205.698381 101.219295 
L 210.160285 112.06935 
L 211.647586 116.390451 
L 213.134887 121.216404 
L 214.622189 125.316185 
L 216.10949 129.831479 
L 217.596791 136.559245 
L 220.571394 151.570265 
L 222.058695 163.95 
L 287.499951 163.95 
L 287.499951 163.95 
" clip-path="url(#p535ba1661e)" style="fill: none; stroke: #4682b4; stroke-opacity: 0.3; stroke-width: 0.5; stroke-linecap: square"/>
   </g>
   <g id="line2d_30">
    <path d="M 64.40476 163.95 
L 137.282522 163.95 
L 138.769823 132.387576 
L 141.744426 97.706737 
L 143.231727 80.81372 
L 144.719029 74.171502 
L 146.20633 66.862745 
L 147.693631 58.288945 
L 149.180932 50.388178 
L 150.668234 43.899538 
L 152.155535 38.01234 
L 153.642836 38.759516 
L 155.130137 45.953345 
L 156.617439 55.37121 
L 158.10474 65.522947 
L 159.592041 76.86875 
L 161.079343 91.296348 
L 167.028548 132.417883 
L 170.00315 142.271325 
L 171.490452 146.625598 
L 172.977753 149.508886 
L 175.952355 153.979837 
L 177.439657 154.835651 
L 178.926958 154.322722 
L 180.414259 152.866724 
L 181.90156 142.659999 
L 184.876163 112.782527 
L 187.850766 84.92295 
L 189.338067 82.744399 
L 190.825368 86.99153 
L 192.312669 90.854528 
L 193.799971 93.871386 
L 195.287272 97.699595 
L 196.774573 100.550138 
L 198.261875 102.219844 
L 201.236477 106.455792 
L 202.723778 109.445562 
L 204.21108 111.65692 
L 205.698381 113.655966 
L 207.185682 111.064162 
L 208.672983 111.302348 
L 210.160285 106.182334 
L 211.647586 100.001909 
L 213.134887 101.315528 
L 214.622189 104.227776 
L 216.10949 109.363003 
L 217.596791 115.75289 
L 219.084092 126.309521 
L 220.571394 134.329702 
L 222.058695 144.576596 
L 223.545996 150.151773 
L 225.033298 163.95 
L 287.499951 163.95 
L 287.499951 163.95 
" clip-path="url(#p535ba1661e)" style="fill: none; stroke: #4682b4; stroke-opacity: 0.3; stroke-width: 0.5; stroke-linecap: square"/>
   </g>
   <g id="line2d_31">
    <path d="M 64.40476 163.95 
L 137.282522 163.95 
L 138.769823 141.086171 
L 140.257125 129.147219 
L 141.744426 116.041362 
L 143.231727 104.282389 
L 144.719029 99.599415 
L 146.20633 98.595048 
L 147.693631 94.505238 
L 150.668234 82.009354 
L 153.642836 71.924781 
L 155.130137 67.833288 
L 156.617439 69.700326 
L 158.10474 73.552997 
L 159.592041 77.924201 
L 161.079343 82.856904 
L 162.566644 91.246278 
L 164.053945 102.32809 
L 168.515849 127.188012 
L 170.00315 133.509116 
L 171.490452 137.90562 
L 172.977753 143.22172 
L 175.952355 147.988244 
L 177.439657 146.171125 
L 180.414259 119.086676 
L 181.90156 108.952515 
L 183.388862 100.236999 
L 184.876163 93.584992 
L 186.363464 96.607794 
L 187.850766 102.699858 
L 189.338067 107.374813 
L 190.825368 111.432113 
L 192.312669 118.018336 
L 193.799971 123.478485 
L 198.261875 131.19669 
L 199.749176 132.587435 
L 202.723778 129.255038 
L 205.698381 124.173022 
L 207.185682 122.362382 
L 210.160285 125.600339 
L 211.647586 128.568541 
L 213.134887 130.564982 
L 214.622189 134.957374 
L 217.596791 148.658397 
L 219.084092 163.95 
L 287.499951 163.95 
L 287.499951 163.95 
" clip-path="url(#p535ba1661e)" style="fill: none; stroke: #4682b4; stroke-opacity: 0.3; stroke-width: 0.5; stroke-linecap: square"/>
   </g>
   <g id="line2d_32">
    <path d="M 64.40476 163.95 
L 137.282522 163.95 
L 138.769823 141.051802 
L 143.231727 103.525891 
L 144.719029 99.319135 
L 146.20633 97.324689 
L 147.693631 94.637726 
L 149.180932 89.655947 
L 150.668234 82.764202 
L 153.642836 71.138749 
L 155.130137 66.051845 
L 156.617439 67.586795 
L 158.10474 73.822714 
L 159.592041 79.405234 
L 161.079343 86.532771 
L 164.053945 104.011311 
L 165.541246 109.929793 
L 167.028548 116.781431 
L 168.515849 122.840843 
L 170.00315 124.908341 
L 172.977753 118.738549 
L 174.465054 112.821096 
L 175.952355 105.845249 
L 178.926958 93.171492 
L 180.414259 84.447933 
L 181.90156 73.59638 
L 183.388862 66.786811 
L 184.876163 63.630952 
L 186.363464 64.674062 
L 187.850766 69.76221 
L 189.338067 79.411926 
L 190.825368 84.069693 
L 192.312669 85.422156 
L 193.799971 87.928201 
L 195.287272 89.874238 
L 196.774573 92.05571 
L 199.749176 102.158578 
L 202.723778 107.630958 
L 205.698381 110.386856 
L 207.185682 112.872339 
L 208.672983 113.528873 
L 210.160285 113.157924 
L 211.647586 114.954009 
L 213.134887 115.689225 
L 214.622189 117.422111 
L 216.10949 120.21449 
L 217.596791 124.160666 
L 219.084092 126.337909 
L 220.571394 131.079588 
L 223.545996 146.806423 
L 225.033298 153.226405 
L 226.520599 163.95 
L 287.499951 163.95 
L 287.499951 163.95 
" clip-path="url(#p535ba1661e)" style="fill: none; stroke: #4682b4; stroke-opacity: 0.3; stroke-width: 0.5; stroke-linecap: square"/>
   </g>
   <g id="line2d_33">
    <path d="M 64.40476 163.95 
L 137.282522 163.95 
L 138.769823 136.813615 
L 140.257125 121.808668 
L 143.231727 89.226668 
L 144.719029 82.858844 
L 146.20633 79.593126 
L 147.693631 76.667991 
L 149.180932 75.451816 
L 150.668234 75.203338 
L 152.155535 75.820801 
L 153.642836 77.461384 
L 155.130137 80.896124 
L 156.617439 86.615418 
L 158.10474 94.255236 
L 162.566644 119.762394 
L 164.053945 126.300995 
L 165.541246 131.236385 
L 167.028548 134.66272 
L 168.515849 136.685548 
L 170.00315 138.304841 
L 171.490452 138.910768 
L 172.977753 138.376562 
L 174.465054 136.066533 
L 175.952355 131.758148 
L 180.414259 114.63051 
L 181.90156 110.186233 
L 183.388862 107.212624 
L 184.876163 105.868724 
L 186.363464 105.718019 
L 187.850766 106.202404 
L 189.338067 107.655529 
L 192.312669 112.316694 
L 193.799971 114.033118 
L 195.287272 115.46095 
L 196.774573 116.158246 
L 198.261875 115.930059 
L 199.749176 115.199716 
L 201.236477 114.817272 
L 202.723778 114.722337 
L 204.21108 115.658493 
L 205.698381 117.478844 
L 208.672983 122.952103 
L 210.160285 125.317668 
L 211.647586 127.974092 
L 213.134887 131.490381 
L 214.622189 134.50752 
L 216.10949 138.558622 
L 219.084092 147.955829 
L 220.571394 150.700794 
L 222.058695 155.009664 
L 223.545996 156.747286 
L 225.033298 158.292002 
L 226.520599 158.742844 
L 229.495201 158.963248 
L 233.957105 159.6065 
L 235.444406 159.9218 
L 236.931708 160.613947 
L 238.419009 161.491529 
L 239.90631 162.730611 
L 241.393612 163.672801 
L 242.880913 163.95 
L 287.499951 163.95 
L 287.499951 163.95 
" clip-path="url(#p535ba1661e)" style="fill: none; stroke: #000080; stroke-linecap: square"/>
   </g>
   <g id="patch_3">
    <path d="M 53.25 170.34 
L 53.25 29.76 
" style="fill: none; stroke: #000000; stroke-linejoin: miter; stroke-linecap: square"/>
   </g>
   <g id="patch_4">
    <path d="M 53.25 170.34 
L 298.654711 170.34 
" style="fill: none; stroke: #000000; stroke-linejoin: miter; stroke-linecap: square"/>
   </g>
   <g id="text_9">
    <!-- VCV -->
    <g transform="translate(161.487512 23.76) scale(0.14 -0.14)">
     <defs>
      <path id="DejaVuSans-56" d="M 1831 0 
L 50 4666 
L 709 4666 
L 2188 738 
L 3669 4666 
L 4325 4666 
L 2547 0 
L 1831 0 
z
" transform="scale(0.015625)"/>
      <path id="DejaVuSans-43" d="M 4122 4306 
L 4122 3641 
Q 3803 3938 3442 4084 
Q 3081 4231 2675 4231 
Q 1875 4231 1450 3742 
Q 1025 3253 1025 2328 
Q 1025 1406 1450 917 
Q 1875 428 2675 428 
Q 3081 428 3442 575 
Q 3803 722 4122 1019 
L 4122 359 
Q 3791 134 3420 21 
Q 3050 -91 2638 -91 
Q 1578 -91 968 557 
Q 359 1206 359 2328 
Q 359 3453 968 4101 
Q 1578 4750 2638 4750 
Q 3056 4750 3426 4639 
Q 3797 4528 4122 4306 
z
" transform="scale(0.015625)"/>
     </defs>
     <use xlink:href="#DejaVuSans-56"/>
     <use xlink:href="#DejaVuSans-43" x="68.408203"/>
     <use xlink:href="#DejaVuSans-56" x="138.232422"/>
    </g>
   </g>
  </g>
  <g id="axes_2">
   <g id="patch_5">
    <path d="M 317.30343 170.34 
L 562.70814 170.34 
L 562.70814 29.76 
L 317.30343 29.76 
z
" style="fill: #ffffff"/>
   </g>
   <g id="matplotlib.axis_3">
    <g id="xtick_5">
     <g id="line2d_34">
      <g>
       <use xlink:href="#m080b970dc2" x="328.458189" y="170.34" style="stroke: #000000; stroke-width: 0.5"/>
      </g>
     </g>
     <g id="text_10">
      <!-- −0.5 -->
      <g transform="translate(313.888502 182.958125) scale(0.12 -0.12)">
       <use xlink:href="#DejaVuSans-2212"/>
       <use xlink:href="#DejaVuSans-30" x="83.789062"/>
       <use xlink:href="#DejaVuSans-2e" x="147.412109"/>
       <use xlink:href="#DejaVuSans-35" x="179.199219"/>
      </g>
     </g>
    </g>
    <g id="xtick_6">
     <g id="line2d_35">
      <g>
       <use xlink:href="#m080b970dc2" x="402.823253" y="170.34" style="stroke: #000000; stroke-width: 0.5"/>
      </g>
     </g>
     <g id="text_11">
      <!-- 0.0 -->
      <g transform="translate(393.281378 182.958125) scale(0.12 -0.12)">
       <use xlink:href="#DejaVuSans-30"/>
       <use xlink:href="#DejaVuSans-2e" x="63.623047"/>
       <use xlink:href="#DejaVuSans-30" x="95.410156"/>
      </g>
     </g>
    </g>
    <g id="xtick_7">
     <g id="line2d_36">
      <g>
       <use xlink:href="#m080b970dc2" x="477.188317" y="170.34" style="stroke: #000000; stroke-width: 0.5"/>
      </g>
     </g>
     <g id="text_12">
      <!-- 0.5 -->
      <g transform="translate(467.646442 182.958125) scale(0.12 -0.12)">
       <use xlink:href="#DejaVuSans-30"/>
       <use xlink:href="#DejaVuSans-2e" x="63.623047"/>
       <use xlink:href="#DejaVuSans-35" x="95.410156"/>
      </g>
     </g>
    </g>
    <g id="xtick_8">
     <g id="line2d_37">
      <g>
       <use xlink:href="#m080b970dc2" x="551.553381" y="170.34" style="stroke: #000000; stroke-width: 0.5"/>
      </g>
     </g>
     <g id="text_13">
      <!-- 1.0 -->
      <g transform="translate(542.011506 182.958125) scale(0.12 -0.12)">
       <use xlink:href="#DejaVuSans-31"/>
       <use xlink:href="#DejaVuSans-2e" x="63.623047"/>
       <use xlink:href="#DejaVuSans-30" x="95.410156"/>
      </g>
     </g>
    </g>
    <g id="text_14">
     <!-- Time (s) -->
     <g transform="translate(411.545316 200.091563) scale(0.14 -0.14)">
      <use xlink:href="#DejaVuSans-54"/>
      <use xlink:href="#DejaVuSans-69" x="57.958984"/>
      <use xlink:href="#DejaVuSans-6d" x="85.742188"/>
      <use xlink:href="#DejaVuSans-65" x="183.154297"/>
      <use xlink:href="#DejaVuSans-20" x="244.677734"/>
      <use xlink:href="#DejaVuSans-28" x="276.464844"/>
      <use xlink:href="#DejaVuSans-73" x="315.478516"/>
      <use xlink:href="#DejaVuSans-29" x="367.578125"/>
     </g>
    </g>
   </g>
   <g id="matplotlib.axis_4">
    <g id="ytick_3">
     <g id="line2d_38">
      <g>
       <use xlink:href="#m1c2c4d7f1f" x="317.30343" y="163.95" style="stroke: #000000; stroke-width: 0.5"/>
      </g>
     </g>
    </g>
    <g id="ytick_4">
     <g id="line2d_39">
      <g>
       <use xlink:href="#m1c2c4d7f1f" x="317.30343" y="46.651186" style="stroke: #000000; stroke-width: 0.5"/>
      </g>
     </g>
    </g>
   </g>
   <g id="line2d_40">
    <path d="M 328.458189 163.95 
L 401.335952 163.95 
L 402.823253 160.845452 
L 405.797856 155.953766 
L 407.285157 155.188264 
L 408.772458 155.793541 
L 411.747061 159.119444 
L 413.234362 156.81414 
L 414.721663 146.228097 
L 416.208965 131.599212 
L 419.183567 104.168376 
L 420.670869 93.500606 
L 422.15817 87.97575 
L 423.645471 87.670504 
L 425.132772 86.564674 
L 426.620074 85.179377 
L 428.107375 85.869337 
L 429.594676 88.905468 
L 431.081977 91.347387 
L 432.569279 95.110011 
L 434.05658 100.321842 
L 435.543881 98.303203 
L 437.031183 98.031663 
L 438.518484 98.34656 
L 440.005785 96.967973 
L 441.493086 95.365034 
L 442.980388 99.504469 
L 445.95499 103.309181 
L 448.929593 113.313076 
L 451.904195 130.745147 
L 453.391497 137.884459 
L 454.878798 141.798398 
L 456.366099 146.498903 
L 457.8534 147.513398 
L 460.828003 150.129965 
L 462.315304 151.847859 
L 463.802606 152.394778 
L 465.289907 152.511045 
L 466.777208 151.914581 
L 468.264509 151.673881 
L 471.239112 156.064912 
L 472.726413 159.103247 
L 474.213715 163.95 
L 551.553381 163.95 
L 551.553381 163.95 
" clip-path="url(#p9c62cd311c)" style="fill: none; stroke: #4682b4; stroke-opacity: 0.3; stroke-width: 0.5; stroke-linecap: square"/>
   </g>
   <g id="line2d_41">
    <path d="M 328.458189 163.95 
L 401.335952 163.95 
L 402.823253 163.653417 
L 404.310554 163.186083 
L 405.797856 161.117198 
L 408.772458 156.610257 
L 410.25976 155.345596 
L 411.747061 151.136536 
L 413.234362 137.940479 
L 414.721663 117.861945 
L 416.208965 102.958828 
L 417.696266 92.133182 
L 419.183567 83.031851 
L 420.670869 83.63163 
L 422.15817 92.26707 
L 423.645471 97.189389 
L 425.132772 99.280384 
L 426.620074 105.806195 
L 428.107375 113.873224 
L 429.594676 120.918736 
L 431.081977 126.56881 
L 432.569279 131.107481 
L 434.05658 132.740458 
L 435.543881 133.622188 
L 440.005785 138.127121 
L 441.493086 140.698299 
L 444.467689 149.507061 
L 445.95499 154.432424 
L 447.442292 158.234404 
L 448.929593 161.227158 
L 450.416894 162.539668 
L 451.904195 163.146017 
L 453.391497 163.46752 
L 454.878798 161.503117 
L 456.366099 160.742566 
L 457.8534 160.361047 
L 459.340702 159.5292 
L 460.828003 158.920647 
L 462.315304 160.305609 
L 463.802606 160.701961 
L 465.289907 160.789252 
L 469.751811 162.814083 
L 471.239112 163.233285 
L 472.726413 163.95 
L 551.553381 163.95 
L 551.553381 163.95 
" clip-path="url(#p9c62cd311c)" style="fill: none; stroke: #4682b4; stroke-opacity: 0.3; stroke-width: 0.5; stroke-linecap: square"/>
   </g>
   <g id="line2d_42">
    <path d="M 328.458189 163.95 
L 401.335952 163.95 
L 402.823253 152.833338 
L 404.310554 146.317458 
L 405.797856 137.792079 
L 407.285157 128.278282 
L 408.772458 124.277877 
L 410.25976 124.9574 
L 411.747061 127.232797 
L 413.234362 132.930972 
L 414.721663 139.658693 
L 416.208965 140.361365 
L 417.696266 130.368894 
L 419.183567 116.05895 
L 422.15817 90.4509 
L 423.645471 84.761483 
L 425.132772 91.755599 
L 426.620074 102.12992 
L 429.594676 115.953402 
L 431.081977 122.036888 
L 432.569279 123.863029 
L 434.05658 124.695995 
L 435.543881 125.920114 
L 437.031183 127.814689 
L 438.518484 128.170862 
L 440.005785 129.46459 
L 441.493086 129.443163 
L 442.980388 129.718343 
L 444.467689 131.395854 
L 445.95499 135.556505 
L 447.442292 138.68866 
L 450.416894 148.041578 
L 451.904195 152.600733 
L 453.391497 153.230933 
L 454.878798 152.10493 
L 456.366099 154.494228 
L 457.8534 154.862041 
L 459.340702 154.321542 
L 460.828003 155.347007 
L 462.315304 158.972955 
L 463.802606 158.387252 
L 465.289907 159.118932 
L 468.264509 160.409864 
L 469.751811 160.760961 
L 471.239112 161.809927 
L 472.726413 162.702523 
L 474.213715 163.178191 
L 475.701016 163.95 
L 551.553381 163.95 
L 551.553381 163.95 
" clip-path="url(#p9c62cd311c)" style="fill: none; stroke: #4682b4; stroke-opacity: 0.3; stroke-width: 0.5; stroke-linecap: square"/>
   </g>
   <g id="line2d_43">
    <path d="M 328.458189 163.95 
L 401.335952 163.95 
L 402.823253 163.28456 
L 405.797856 162.68103 
L 407.285157 162.521203 
L 408.772458 162.501311 
L 410.25976 163.007727 
L 411.747061 158.052027 
L 413.234362 148.145915 
L 414.721663 133.218779 
L 417.696266 90.562408 
L 419.183567 73.973889 
L 420.670869 60.999403 
L 422.15817 49.882091 
L 423.645471 47.627969 
L 425.132772 50.998205 
L 426.620074 56.071295 
L 428.107375 63.841186 
L 431.081977 84.023904 
L 434.05658 91.438387 
L 435.543881 91.7895 
L 437.031183 89.781943 
L 438.518484 88.892014 
L 440.005785 90.689351 
L 441.493086 95.958704 
L 442.980388 105.333847 
L 444.467689 119.707468 
L 445.95499 132.782014 
L 447.442292 144.179868 
L 448.929593 151.981229 
L 450.416894 156.590397 
L 451.904195 158.897476 
L 453.391497 160.139165 
L 454.878798 160.567561 
L 456.366099 160.223748 
L 459.340702 161.600892 
L 460.828003 162.010025 
L 462.315304 162.140921 
L 468.264509 163.29475 
L 469.751811 163.95 
L 551.553381 163.95 
L 551.553381 163.95 
" clip-path="url(#p9c62cd311c)" style="fill: none; stroke: #4682b4; stroke-opacity: 0.3; stroke-width: 0.5; stroke-linecap: square"/>
   </g>
   <g id="line2d_44">
    <path d="M 328.458189 163.95 
L 401.335952 163.95 
L 402.823253 162.774153 
L 407.285157 161.160488 
L 408.772458 160.977135 
L 410.25976 157.299089 
L 411.747061 156.297865 
L 413.234362 151.562348 
L 416.208965 129.752612 
L 419.183567 111.856283 
L 420.670869 105.722648 
L 422.15817 106.035963 
L 423.645471 106.137543 
L 425.132772 107.714954 
L 426.620074 107.197652 
L 428.107375 107.377852 
L 429.594676 107.754929 
L 431.081977 108.569914 
L 432.569279 110.157993 
L 435.543881 112.244027 
L 438.518484 108.364718 
L 440.005785 105.758706 
L 442.980388 99.674647 
L 444.467689 99.897407 
L 445.95499 100.645384 
L 447.442292 104.109302 
L 450.416894 119.686849 
L 451.904195 128.400953 
L 453.391497 136.440837 
L 454.878798 141.197269 
L 456.366099 143.216286 
L 457.8534 145.438303 
L 459.340702 146.769263 
L 460.828003 148.858659 
L 462.315304 150.748829 
L 463.802606 150.980055 
L 465.289907 150.626314 
L 466.777208 150.773716 
L 468.264509 150.305372 
L 469.751811 150.985665 
L 471.239112 153.836562 
L 472.726413 157.071867 
L 474.213715 163.95 
L 551.553381 163.95 
L 551.553381 163.95 
" clip-path="url(#p9c62cd311c)" style="fill: none; stroke: #4682b4; stroke-opacity: 0.3; stroke-width: 0.5; stroke-linecap: square"/>
   </g>
   <g id="line2d_45">
    <path d="M 328.458189 163.95 
L 401.335952 163.95 
L 402.823253 157.372358 
L 404.310554 151.327476 
L 405.797856 141.381699 
L 407.285157 133.453184 
L 408.772458 131.316774 
L 410.25976 129.662392 
L 411.747061 129.56722 
L 413.234362 130.499387 
L 414.721663 123.199503 
L 416.208965 112.215294 
L 417.696266 98.883958 
L 419.183567 88.696905 
L 420.670869 83.007466 
L 422.15817 83.910909 
L 423.645471 86.540379 
L 425.132772 89.980546 
L 426.620074 90.953851 
L 428.107375 89.441596 
L 429.594676 88.775284 
L 431.081977 90.499221 
L 432.569279 95.711619 
L 435.543881 108.071925 
L 437.031183 112.660231 
L 438.518484 116.108698 
L 440.005785 116.870329 
L 441.493086 119.045962 
L 445.95499 127.518474 
L 447.442292 130.710562 
L 448.929593 132.201202 
L 451.904195 136.400279 
L 453.391497 137.438141 
L 454.878798 137.588359 
L 456.366099 136.791765 
L 457.8534 136.622767 
L 462.315304 135.555682 
L 463.802606 138.032614 
L 465.289907 141.10863 
L 466.777208 145.605049 
L 468.264509 150.901966 
L 469.751811 156.694089 
L 471.239112 160.61834 
L 472.726413 163.95 
L 551.553381 163.95 
L 551.553381 163.95 
" clip-path="url(#p9c62cd311c)" style="fill: none; stroke: #4682b4; stroke-opacity: 0.3; stroke-width: 0.5; stroke-linecap: square"/>
   </g>
   <g id="line2d_46">
    <path d="M 328.458189 163.95 
L 401.335952 163.95 
L 404.310554 155.134933 
L 405.797856 148.2206 
L 407.285157 142.504096 
L 410.25976 139.834054 
L 411.747061 139.905709 
L 413.234362 140.405673 
L 414.721663 135.428987 
L 416.208965 128.573406 
L 417.696266 120.473398 
L 419.183567 113.745425 
L 420.670869 107.836579 
L 422.15817 105.523816 
L 423.645471 104.236141 
L 425.132772 106.068347 
L 426.620074 105.190639 
L 428.107375 106.958752 
L 429.594676 110.189596 
L 431.081977 112.068677 
L 432.569279 111.802154 
L 434.05658 114.835397 
L 435.543881 118.286506 
L 437.031183 118.385598 
L 438.518484 121.399015 
L 440.005785 122.103077 
L 441.493086 124.304794 
L 442.980388 123.795271 
L 444.467689 125.670182 
L 445.95499 127.859947 
L 447.442292 131.820026 
L 448.929593 134.280946 
L 450.416894 137.953566 
L 451.904195 143.090652 
L 453.391497 145.876153 
L 454.878798 149.097225 
L 456.366099 151.291812 
L 457.8534 154.375604 
L 459.340702 155.836524 
L 460.828003 157.489433 
L 463.802606 160.124559 
L 465.289907 160.217388 
L 466.777208 161.084415 
L 469.751811 162.505519 
L 471.239112 163.95 
L 551.553381 163.95 
L 551.553381 163.95 
" clip-path="url(#p9c62cd311c)" style="fill: none; stroke: #4682b4; stroke-opacity: 0.3; stroke-width: 0.5; stroke-linecap: square"/>
   </g>
   <g id="line2d_47">
    <path d="M 328.458189 163.95 
L 401.335952 163.95 
L 402.823253 162.606159 
L 404.310554 162.273033 
L 405.797856 161.591859 
L 407.285157 161.378046 
L 408.772458 159.642267 
L 410.25976 156.283172 
L 411.747061 155.223867 
L 413.234362 146.565381 
L 414.721663 134.931211 
L 416.208965 124.225971 
L 419.183567 106.267592 
L 420.670869 102.893007 
L 422.15817 103.533426 
L 423.645471 104.467803 
L 425.132772 105.089128 
L 426.620074 103.553408 
L 428.107375 105.387565 
L 429.594676 105.642402 
L 431.081977 106.698855 
L 432.569279 108.351231 
L 434.05658 111.105526 
L 435.543881 111.512517 
L 437.031183 112.882129 
L 438.518484 115.222152 
L 440.005785 116.859538 
L 441.493086 119.520632 
L 442.980388 122.978185 
L 445.95499 131.240763 
L 447.442292 136.046031 
L 448.929593 139.62616 
L 451.904195 149.081783 
L 454.878798 156.019082 
L 456.366099 158.765919 
L 457.8534 158.084679 
L 459.340702 157.554135 
L 460.828003 157.815892 
L 462.315304 156.956471 
L 463.802606 156.237548 
L 465.289907 157.874899 
L 466.777208 158.425142 
L 468.264509 157.99018 
L 469.751811 158.998238 
L 471.239112 159.384934 
L 475.701016 162.854625 
L 477.188317 163.95 
L 551.553381 163.95 
L 551.553381 163.95 
" clip-path="url(#p9c62cd311c)" style="fill: none; stroke: #4682b4; stroke-opacity: 0.3; stroke-width: 0.5; stroke-linecap: square"/>
   </g>
   <g id="line2d_48">
    <path d="M 328.458189 163.95 
L 401.335952 163.95 
L 402.823253 162.836028 
L 404.310554 162.219137 
L 405.797856 161.945294 
L 407.285157 161.210162 
L 408.772458 161.186087 
L 410.25976 157.143891 
L 411.747061 156.39045 
L 413.234362 151.076387 
L 416.208965 128.998813 
L 419.183567 111.84376 
L 420.670869 106.875154 
L 422.15817 107.887776 
L 423.645471 109.400105 
L 425.132772 112.830497 
L 426.620074 113.353567 
L 428.107375 114.185368 
L 429.594676 116.412571 
L 431.081977 117.732271 
L 432.569279 114.518766 
L 434.05658 113.507544 
L 435.543881 112.991138 
L 437.031183 111.696293 
L 438.518484 109.788438 
L 440.005785 111.692906 
L 441.493086 112.778442 
L 442.980388 113.116859 
L 444.467689 113.27003 
L 445.95499 115.376233 
L 447.442292 119.359861 
L 448.929593 122.62776 
L 453.391497 138.288653 
L 454.878798 140.816792 
L 456.366099 145.125642 
L 457.8534 148.587231 
L 459.340702 151.723774 
L 460.828003 154.103056 
L 462.315304 157.0939 
L 463.802606 158.068539 
L 465.289907 158.202474 
L 466.777208 158.76788 
L 469.751811 160.965808 
L 471.239112 163.95 
L 551.553381 163.95 
L 551.553381 163.95 
" clip-path="url(#p9c62cd311c)" style="fill: none; stroke: #4682b4; stroke-opacity: 0.3; stroke-width: 0.5; stroke-linecap: square"/>
   </g>
   <g id="line2d_49">
    <path d="M 328.458189 163.95 
L 401.335952 163.95 
L 402.823253 163.182073 
L 405.797856 162.398022 
L 407.285157 162.050336 
L 410.25976 161.920483 
L 411.747061 161.536816 
L 413.234362 161.571226 
L 414.721663 160.389809 
L 416.208965 160.607273 
L 417.696266 144.292436 
L 419.183567 122.775932 
L 423.645471 66.403743 
L 425.132772 62.002396 
L 426.620074 64.252613 
L 428.107375 63.06116 
L 429.594676 66.113962 
L 432.569279 65.391268 
L 434.05658 63.861077 
L 435.543881 62.803617 
L 437.031183 60.297691 
L 438.518484 59.828039 
L 440.005785 62.816959 
L 441.493086 66.872659 
L 442.980388 72.9979 
L 445.95499 92.263134 
L 447.442292 100.828014 
L 448.929593 108.303639 
L 450.416894 112.438003 
L 451.904195 111.379386 
L 454.878798 107.194315 
L 456.366099 104.138734 
L 457.8534 101.912401 
L 459.340702 100.303855 
L 460.828003 99.86422 
L 462.315304 98.665456 
L 465.289907 98.279174 
L 466.777208 98.896409 
L 468.264509 97.771897 
L 469.751811 98.540244 
L 471.239112 105.445332 
L 474.213715 124.019559 
L 477.188317 146.718142 
L 478.675618 150.902996 
L 480.16292 152.264858 
L 481.650221 152.790449 
L 483.137522 153.186478 
L 484.624823 154.180904 
L 486.112125 155.893909 
L 487.599426 158.412795 
L 489.086727 160.52484 
L 490.574029 161.881601 
L 493.548631 162.85264 
L 495.035932 163.14449 
L 496.523234 163.95 
L 551.553381 163.95 
L 551.553381 163.95 
" clip-path="url(#p9c62cd311c)" style="fill: none; stroke: #4682b4; stroke-opacity: 0.3; stroke-width: 0.5; stroke-linecap: square"/>
   </g>
   <g id="line2d_50">
    <path d="M 328.458189 163.95 
L 401.335952 163.95 
L 402.823253 155.363512 
L 404.310554 148.868115 
L 405.797856 145.431268 
L 407.285157 140.190883 
L 408.772458 137.395576 
L 410.25976 141.584185 
L 411.747061 144.596644 
L 413.234362 142.289441 
L 414.721663 138.538025 
L 416.208965 128.508212 
L 417.696266 112.422635 
L 419.183567 93.298023 
L 420.670869 75.842938 
L 422.15817 61.024075 
L 423.645471 50.828799 
L 425.132772 48.124239 
L 426.620074 49.207727 
L 428.107375 51.899492 
L 429.594676 56.085341 
L 431.081977 58.226292 
L 434.05658 59.385863 
L 435.543881 61.305724 
L 437.031183 62.347872 
L 441.493086 76.048706 
L 442.980388 78.025034 
L 444.467689 83.330355 
L 448.929593 119.380001 
L 451.904195 145.079121 
L 454.878798 154.740396 
L 457.8534 159.324002 
L 459.340702 159.344722 
L 460.828003 158.75034 
L 462.315304 158.853743 
L 463.802606 159.302462 
L 466.777208 161.430678 
L 468.264509 163.95 
L 551.553381 163.95 
L 551.553381 163.95 
" clip-path="url(#p9c62cd311c)" style="fill: none; stroke: #4682b4; stroke-opacity: 0.3; stroke-width: 0.5; stroke-linecap: square"/>
   </g>
   <g id="line2d_51">
    <path d="M 328.458189 163.95 
L 401.335952 163.95 
L 402.823253 146.985653 
L 404.310554 141.159843 
L 405.797856 136.851856 
L 407.285157 136.55689 
L 408.772458 134.92 
L 410.25976 126.311537 
L 411.747061 119.76059 
L 413.234362 105.096865 
L 414.721663 85.608646 
L 416.208965 72.795665 
L 417.696266 64.688575 
L 419.183567 51.929771 
L 420.670869 45.433811 
L 422.15817 41.225751 
L 423.645471 39.014719 
L 425.132772 41.713423 
L 426.620074 45.813623 
L 428.107375 50.921372 
L 429.594676 58.256833 
L 431.081977 66.723694 
L 432.569279 72.179797 
L 434.05658 78.890393 
L 435.543881 87.743856 
L 437.031183 91.746695 
L 438.518484 90.888988 
L 440.005785 93.351679 
L 441.493086 94.290242 
L 442.980388 93.279235 
L 444.467689 90.995455 
L 445.95499 92.687705 
L 447.442292 93.94135 
L 448.929593 101.443694 
L 450.416894 112.188298 
L 453.391497 138.099229 
L 454.878798 148.176572 
L 456.366099 153.879213 
L 457.8534 154.27471 
L 459.340702 157.761983 
L 460.828003 159.94476 
L 462.315304 160.912656 
L 463.802606 161.093873 
L 466.777208 163.95 
L 551.553381 163.95 
L 551.553381 163.95 
" clip-path="url(#p9c62cd311c)" style="fill: none; stroke: #4682b4; stroke-opacity: 0.3; stroke-width: 0.5; stroke-linecap: square"/>
   </g>
   <g id="line2d_52">
    <path d="M 328.458189 163.95 
L 401.335952 163.95 
L 402.823253 162.373192 
L 404.310554 156.934471 
L 405.797856 149.743903 
L 407.285157 143.744529 
L 408.772458 140.390442 
L 410.25976 137.329745 
L 411.747061 136.92041 
L 413.234362 140.830757 
L 414.721663 143.698418 
L 416.208965 140.22494 
L 419.183567 124.700822 
L 420.670869 114.207899 
L 422.15817 101.597578 
L 423.645471 92.550784 
L 425.132772 88.144528 
L 426.620074 86.545683 
L 428.107375 84.157767 
L 429.594676 84.89595 
L 431.081977 84.588129 
L 432.569279 85.942162 
L 434.05658 84.815637 
L 435.543881 83.962259 
L 437.031183 83.339925 
L 438.518484 81.385276 
L 440.005785 82.930887 
L 441.493086 85.526295 
L 442.980388 88.501636 
L 444.467689 90.407595 
L 445.95499 94.874754 
L 447.442292 94.271482 
L 448.929593 97.091216 
L 450.416894 104.301296 
L 451.904195 112.337895 
L 454.878798 131.831188 
L 456.366099 138.336377 
L 457.8534 140.513628 
L 459.340702 142.413216 
L 460.828003 143.783514 
L 462.315304 145.672914 
L 463.802606 147.130643 
L 465.289907 149.768256 
L 466.777208 150.558779 
L 468.264509 150.630694 
L 469.751811 150.145501 
L 471.239112 150.872387 
L 472.726413 152.886538 
L 474.213715 156.298961 
L 475.701016 163.95 
L 551.553381 163.95 
L 551.553381 163.95 
" clip-path="url(#p9c62cd311c)" style="fill: none; stroke: #4682b4; stroke-opacity: 0.3; stroke-width: 0.5; stroke-linecap: square"/>
   </g>
   <g id="line2d_53">
    <path d="M 328.458189 163.95 
L 401.335952 163.95 
L 402.823253 162.991181 
L 404.310554 162.741311 
L 405.797856 162.11784 
L 407.285157 162.106421 
L 408.772458 161.519262 
L 410.25976 161.572238 
L 411.747061 159.995607 
L 413.234362 160.381538 
L 414.721663 150.177947 
L 416.208965 128.897485 
L 417.696266 110.795908 
L 419.183567 95.005387 
L 420.670869 77.959541 
L 422.15817 70.980606 
L 423.645471 74.894398 
L 425.132772 77.239544 
L 428.107375 86.554716 
L 429.594676 92.545687 
L 431.081977 99.422694 
L 432.569279 104.709481 
L 435.543881 109.499139 
L 437.031183 110.991703 
L 438.518484 113.664021 
L 440.005785 115.902829 
L 442.980388 121.563747 
L 444.467689 119.401405 
L 445.95499 116.048329 
L 447.442292 112.411691 
L 448.929593 108.47517 
L 450.416894 106.144736 
L 451.904195 108.610656 
L 453.391497 112.357703 
L 456.366099 121.451881 
L 459.340702 131.864413 
L 462.315304 138.774115 
L 463.802606 141.447235 
L 465.289907 142.011656 
L 466.777208 143.332031 
L 468.264509 144.883538 
L 469.751811 147.343916 
L 471.239112 149.486089 
L 472.726413 150.722485 
L 475.701016 154.955706 
L 477.188317 156.036178 
L 478.675618 157.506774 
L 480.16292 159.937356 
L 486.112125 163.95 
L 551.553381 163.95 
L 551.553381 163.95 
" clip-path="url(#p9c62cd311c)" style="fill: none; stroke: #4682b4; stroke-opacity: 0.3; stroke-width: 0.5; stroke-linecap: square"/>
   </g>
   <g id="line2d_54">
    <path d="M 328.458189 163.95 
L 401.335952 163.95 
L 402.823253 162.952785 
L 404.310554 162.848577 
L 405.797856 162.302443 
L 407.285157 162.063313 
L 408.772458 156.356074 
L 410.25976 142.484661 
L 411.747061 122.100844 
L 413.234362 110.100547 
L 414.721663 105.970612 
L 416.208965 100.748128 
L 417.696266 108.050377 
L 419.183567 120.511219 
L 420.670869 112.869113 
L 422.15817 96.529206 
L 423.645471 87.661193 
L 425.132772 75.010598 
L 426.620074 64.802126 
L 429.594676 64.898653 
L 431.081977 63.130447 
L 432.569279 63.76535 
L 434.05658 65.951294 
L 435.543881 71.466084 
L 437.031183 76.000076 
L 438.518484 79.511381 
L 440.005785 81.183811 
L 441.493086 82.374493 
L 442.980388 83.731276 
L 444.467689 86.333661 
L 445.95499 91.261745 
L 447.442292 94.609715 
L 448.929593 96.216743 
L 450.416894 100.251164 
L 451.904195 107.208065 
L 453.391497 115.745218 
L 454.878798 126.228455 
L 456.366099 134.830971 
L 457.8534 140.372967 
L 459.340702 142.343821 
L 460.828003 141.751778 
L 462.315304 134.995209 
L 463.802606 127.153662 
L 465.289907 121.183449 
L 466.777208 118.704292 
L 468.264509 116.662917 
L 469.751811 120.393791 
L 471.239112 128.107502 
L 472.726413 134.658608 
L 475.701016 149.590094 
L 477.188317 163.95 
L 551.553381 163.95 
L 551.553381 163.95 
" clip-path="url(#p9c62cd311c)" style="fill: none; stroke: #4682b4; stroke-opacity: 0.3; stroke-width: 0.5; stroke-linecap: square"/>
   </g>
   <g id="line2d_55">
    <path d="M 328.458189 163.95 
L 401.335952 163.95 
L 402.823253 161.954639 
L 404.310554 160.909912 
L 405.797856 156.67934 
L 407.285157 153.767273 
L 408.772458 150.363343 
L 410.25976 148.14793 
L 411.747061 143.336632 
L 413.234362 142.156158 
L 414.721663 129.825681 
L 417.696266 88.789535 
L 420.670869 52.321146 
L 422.15817 43.011226 
L 423.645471 42.628209 
L 425.132772 40.178542 
L 426.620074 38.256032 
L 428.107375 36.15 
L 429.594676 40.263323 
L 432.569279 52.701308 
L 435.543881 69.897196 
L 437.031183 74.219997 
L 440.005785 80.656917 
L 441.493086 83.223429 
L 442.980388 83.832446 
L 444.467689 84.677881 
L 445.95499 86.141798 
L 447.442292 92.078929 
L 450.416894 108.673905 
L 451.904195 118.141521 
L 453.391497 126.858598 
L 454.878798 132.594864 
L 456.366099 135.293256 
L 457.8534 139.264568 
L 459.340702 141.369858 
L 460.828003 144.708774 
L 462.315304 146.252989 
L 463.802606 147.434169 
L 465.289907 148.792726 
L 466.777208 149.103774 
L 468.264509 149.628183 
L 469.751811 149.046221 
L 471.239112 148.975744 
L 472.726413 151.070096 
L 474.213715 154.753086 
L 475.701016 163.95 
L 551.553381 163.95 
L 551.553381 163.95 
" clip-path="url(#p9c62cd311c)" style="fill: none; stroke: #4682b4; stroke-opacity: 0.3; stroke-width: 0.5; stroke-linecap: square"/>
   </g>
   <g id="line2d_56">
    <path d="M 328.458189 163.95 
L 401.335952 163.95 
L 402.823253 162.308195 
L 404.310554 161.334194 
L 405.797856 160.645529 
L 407.285157 159.718211 
L 408.772458 159.689764 
L 410.25976 158.999005 
L 411.747061 157.28329 
L 413.234362 149.571549 
L 414.721663 128.716643 
L 416.208965 110.440089 
L 417.696266 94.90093 
L 419.183567 80.837349 
L 420.670869 72.254337 
L 422.15817 78.619287 
L 423.645471 82.743269 
L 425.132772 83.119745 
L 426.620074 83.826345 
L 428.107375 84.780892 
L 429.594676 85.894314 
L 431.081977 85.623978 
L 432.569279 87.256528 
L 434.05658 88.005981 
L 435.543881 91.443404 
L 437.031183 93.247839 
L 438.518484 95.993321 
L 440.005785 98.301647 
L 441.493086 104.650198 
L 442.980388 109.193213 
L 444.467689 112.453263 
L 445.95499 115.143226 
L 447.442292 119.863499 
L 448.929593 125.258248 
L 450.416894 131.531152 
L 451.904195 138.963418 
L 453.391497 148.139364 
L 454.878798 153.547044 
L 456.366099 152.408348 
L 457.8534 153.528461 
L 459.340702 154.317016 
L 460.828003 154.262078 
L 462.315304 155.845996 
L 463.802606 159.888785 
L 465.289907 159.761583 
L 466.777208 160.409595 
L 469.751811 160.659292 
L 471.239112 160.655837 
L 472.726413 161.438454 
L 474.213715 161.988442 
L 475.701016 162.672204 
L 477.188317 163.95 
L 551.553381 163.95 
L 551.553381 163.95 
" clip-path="url(#p9c62cd311c)" style="fill: none; stroke: #4682b4; stroke-opacity: 0.3; stroke-width: 0.5; stroke-linecap: square"/>
   </g>
   <g id="line2d_57">
    <path d="M 328.458189 163.95 
L 401.335952 163.95 
L 402.823253 162.763261 
L 404.310554 162.09863 
L 405.797856 161.581736 
L 407.285157 160.849776 
L 408.772458 160.995769 
L 410.25976 156.412993 
L 411.747061 150.558998 
L 413.234362 146.273631 
L 414.721663 137.313261 
L 416.208965 126.018486 
L 420.670869 86.369539 
L 422.15817 80.071131 
L 423.645471 76.879176 
L 425.132772 81.403982 
L 426.620074 90.67909 
L 428.107375 97.06461 
L 429.594676 102.067579 
L 432.569279 107.066303 
L 434.05658 107.745492 
L 435.543881 109.128309 
L 437.031183 111.172917 
L 438.518484 115.818562 
L 440.005785 119.842827 
L 441.493086 123.417344 
L 444.467689 129.775025 
L 445.95499 135.003411 
L 447.442292 141.089035 
L 451.904195 158.0711 
L 453.391497 160.247898 
L 454.878798 161.455239 
L 456.366099 161.193988 
L 457.8534 159.884839 
L 459.340702 158.849439 
L 462.315304 157.828852 
L 463.802606 158.430307 
L 465.289907 160.075142 
L 466.777208 160.941315 
L 468.264509 161.360356 
L 469.751811 162.058346 
L 471.239112 162.59643 
L 472.726413 163.95 
L 551.553381 163.95 
L 551.553381 163.95 
" clip-path="url(#p9c62cd311c)" style="fill: none; stroke: #4682b4; stroke-opacity: 0.3; stroke-width: 0.5; stroke-linecap: square"/>
   </g>
   <g id="line2d_58">
    <path d="M 328.458189 163.95 
L 401.335952 163.95 
L 402.823253 162.656356 
L 407.285157 160.737134 
L 408.772458 160.882985 
L 410.25976 158.428052 
L 411.747061 152.414172 
L 413.234362 148.741514 
L 414.721663 141.747556 
L 416.208965 131.759403 
L 417.696266 120.977954 
L 419.183567 108.738131 
L 420.670869 94.749199 
L 422.15817 83.900794 
L 423.645471 76.036149 
L 425.132772 71.520246 
L 426.620074 72.962569 
L 428.107375 75.66931 
L 431.081977 87.002261 
L 432.569279 93.594713 
L 434.05658 100.866277 
L 435.543881 106.417994 
L 438.518484 111.391902 
L 440.005785 113.21257 
L 441.493086 111.941269 
L 442.980388 110.463493 
L 444.467689 109.516508 
L 445.95499 108.128386 
L 447.442292 107.077161 
L 448.929593 110.856856 
L 450.416894 118.131996 
L 454.878798 146.276505 
L 456.366099 152.472028 
L 457.8534 155.105799 
L 459.340702 156.619628 
L 460.828003 157.474316 
L 463.802606 158.689335 
L 465.289907 159.626885 
L 466.777208 159.623217 
L 469.751811 160.709186 
L 471.239112 161.051621 
L 475.701016 162.806498 
L 477.188317 163.95 
L 551.553381 163.95 
L 551.553381 163.95 
" clip-path="url(#p9c62cd311c)" style="fill: none; stroke: #4682b4; stroke-opacity: 0.3; stroke-width: 0.5; stroke-linecap: square"/>
   </g>
   <g id="line2d_59">
    <path d="M 328.458189 163.95 
L 401.335952 163.95 
L 402.823253 163.271689 
L 404.310554 162.827957 
L 405.797856 162.584425 
L 407.285157 162.113354 
L 410.25976 157.561594 
L 411.747061 155.673773 
L 414.721663 152.425048 
L 416.208965 152.718205 
L 417.696266 141.195142 
L 420.670869 101.210177 
L 423.645471 61.9946 
L 425.132772 52.819821 
L 426.620074 52.75505 
L 428.107375 53.495787 
L 431.081977 61.158654 
L 434.05658 71.99541 
L 435.543881 76.262193 
L 437.031183 78.646042 
L 438.518484 77.211144 
L 440.005785 75.364324 
L 441.493086 76.956319 
L 442.980388 77.339041 
L 444.467689 78.653929 
L 445.95499 88.892028 
L 448.929593 116.174405 
L 450.416894 131.637064 
L 451.904195 145.448492 
L 453.391497 154.345502 
L 454.878798 159.915676 
L 456.366099 161.693545 
L 457.8534 162.276101 
L 459.340702 159.917075 
L 460.828003 157.834226 
L 462.315304 157.635537 
L 465.289907 155.630781 
L 468.264509 159.152793 
L 469.751811 158.896907 
L 471.239112 160.408779 
L 472.726413 161.297525 
L 474.213715 163.95 
L 551.553381 163.95 
L 551.553381 163.95 
" clip-path="url(#p9c62cd311c)" style="fill: none; stroke: #4682b4; stroke-opacity: 0.3; stroke-width: 0.5; stroke-linecap: square"/>
   </g>
   <g id="line2d_60">
    <path d="M 328.458189 163.95 
L 401.335952 163.95 
L 404.310554 163.228368 
L 405.797856 163.105928 
L 407.285157 162.649212 
L 410.25976 158.035352 
L 411.747061 156.13903 
L 414.721663 152.847873 
L 416.208965 153.179109 
L 417.696266 141.983877 
L 422.15817 83.160542 
L 423.645471 63.329296 
L 425.132772 54.434935 
L 426.620074 55.332983 
L 428.107375 54.685841 
L 429.594676 54.587559 
L 431.081977 57.813991 
L 432.569279 63.562729 
L 434.05658 67.334026 
L 435.543881 71.501391 
L 437.031183 78.593803 
L 438.518484 84.041072 
L 442.980388 96.604372 
L 444.467689 99.863279 
L 445.95499 103.61046 
L 447.442292 107.866 
L 448.929593 116.565711 
L 450.416894 127.575404 
L 451.904195 135.972092 
L 453.391497 145.361126 
L 454.878798 153.055067 
L 456.366099 157.44674 
L 457.8534 159.28639 
L 459.340702 160.864414 
L 460.828003 160.306206 
L 463.802606 158.877819 
L 465.289907 158.919875 
L 466.777208 159.904497 
L 468.264509 160.291853 
L 469.751811 161.140054 
L 471.239112 161.314928 
L 474.213715 162.420915 
L 475.701016 162.92406 
L 477.188317 163.95 
L 551.553381 163.95 
L 551.553381 163.95 
" clip-path="url(#p9c62cd311c)" style="fill: none; stroke: #4682b4; stroke-opacity: 0.3; stroke-width: 0.5; stroke-linecap: square"/>
   </g>
   <g id="line2d_61">
    <path d="M 328.458189 163.95 
L 401.335952 163.95 
L 402.823253 151.365385 
L 404.310554 144.552978 
L 405.797856 135.665202 
L 407.285157 124.875595 
L 408.772458 119.066692 
L 410.25976 119.821839 
L 411.747061 117.742179 
L 413.234362 115.909815 
L 414.721663 110.809698 
L 416.208965 98.641536 
L 419.183567 77.861618 
L 420.670869 69.360821 
L 422.15817 65.376699 
L 423.645471 68.740826 
L 426.620074 79.438023 
L 428.107375 85.992704 
L 429.594676 93.17878 
L 431.081977 99.445398 
L 432.569279 101.821198 
L 434.05658 104.601804 
L 435.543881 106.709321 
L 437.031183 108.211805 
L 438.518484 109.259983 
L 440.005785 111.566029 
L 441.493086 114.236765 
L 442.980388 116.355048 
L 444.467689 118.925856 
L 445.95499 124.093037 
L 447.442292 130.295292 
L 451.904195 147.576624 
L 453.391497 151.559305 
L 454.878798 152.631375 
L 456.366099 154.134458 
L 457.8534 154.992878 
L 459.340702 156.195389 
L 460.828003 155.480002 
L 462.315304 154.171506 
L 463.802606 154.438283 
L 465.289907 154.945619 
L 466.777208 155.729591 
L 468.264509 157.862796 
L 469.751811 161.207555 
L 471.239112 162.183789 
L 472.726413 163.95 
L 551.553381 163.95 
L 551.553381 163.95 
" clip-path="url(#p9c62cd311c)" style="fill: none; stroke: #4682b4; stroke-opacity: 0.3; stroke-width: 0.5; stroke-linecap: square"/>
   </g>
   <g id="line2d_62">
    <path d="M 328.458189 163.95 
L 401.335952 163.95 
L 402.823253 149.227001 
L 407.285157 123.673943 
L 408.772458 120.331927 
L 410.25976 123.16655 
L 411.747061 125.081969 
L 413.234362 126.377745 
L 414.721663 119.913874 
L 416.208965 109.19349 
L 420.670869 71.346869 
L 422.15817 66.637185 
L 423.645471 66.755148 
L 425.132772 68.549851 
L 426.620074 72.660854 
L 428.107375 75.786503 
L 429.594676 81.626332 
L 431.081977 88.971062 
L 432.569279 97.655091 
L 434.05658 102.855741 
L 435.543881 109.635435 
L 437.031183 114.333439 
L 438.518484 115.990042 
L 440.005785 119.202966 
L 441.493086 124.269985 
L 442.980388 128.080949 
L 444.467689 132.506158 
L 445.95499 139.925498 
L 447.442292 144.981269 
L 448.929593 149.37776 
L 450.416894 154.208907 
L 451.904195 158.49299 
L 453.391497 159.818547 
L 454.878798 160.008853 
L 457.8534 160.040324 
L 459.340702 159.530229 
L 460.828003 160.145397 
L 462.315304 161.153702 
L 463.802606 161.629539 
L 466.777208 162.142179 
L 468.264509 162.298477 
L 472.726413 163.325691 
L 474.213715 163.95 
L 551.553381 163.95 
L 551.553381 163.95 
" clip-path="url(#p9c62cd311c)" style="fill: none; stroke: #4682b4; stroke-opacity: 0.3; stroke-width: 0.5; stroke-linecap: square"/>
   </g>
   <g id="line2d_63">
    <path d="M 328.458189 163.95 
L 401.335952 163.95 
L 402.823253 154.824717 
L 405.797856 134.86003 
L 407.285157 123.545659 
L 408.772458 114.540758 
L 410.25976 112.140743 
L 411.747061 111.51679 
L 414.721663 111.368467 
L 416.208965 109.17915 
L 417.696266 102.420404 
L 419.183567 90.394267 
L 422.15817 58.915907 
L 423.645471 49.728553 
L 425.132772 48.2263 
L 426.620074 52.212384 
L 429.594676 69.524198 
L 431.081977 73.298397 
L 432.569279 74.026169 
L 434.05658 75.073772 
L 435.543881 75.508881 
L 437.031183 74.903009 
L 438.518484 76.717604 
L 440.005785 79.980418 
L 442.980388 87.085294 
L 444.467689 91.183354 
L 447.442292 100.348417 
L 448.929593 104.462653 
L 450.416894 109.888491 
L 451.904195 114.711904 
L 457.8534 141.533291 
L 459.340702 149.088928 
L 460.828003 153.495617 
L 462.315304 155.803756 
L 463.802606 158.670775 
L 465.289907 158.154271 
L 466.777208 158.526365 
L 468.264509 158.401663 
L 469.751811 158.94384 
L 471.239112 158.564756 
L 472.726413 159.754367 
L 474.213715 160.620547 
L 475.701016 160.478012 
L 478.675618 161.70195 
L 480.16292 162.46959 
L 481.650221 163.95 
L 551.553381 163.95 
L 551.553381 163.95 
" clip-path="url(#p9c62cd311c)" style="fill: none; stroke: #4682b4; stroke-opacity: 0.3; stroke-width: 0.5; stroke-linecap: square"/>
   </g>
   <g id="line2d_64">
    <path d="M 328.458189 163.95 
L 401.335952 163.95 
L 402.823253 155.015526 
L 408.772458 122.477619 
L 410.25976 120.534029 
L 413.234362 120.209214 
L 414.721663 116.787355 
L 417.696266 103.56845 
L 420.670869 85.304744 
L 422.15817 79.23755 
L 423.645471 76.500278 
L 428.107375 69.937239 
L 429.594676 67.004512 
L 431.081977 66.4842 
L 432.569279 69.926165 
L 434.05658 75.045866 
L 435.543881 81.189532 
L 437.031183 88.968292 
L 438.518484 95.676973 
L 440.005785 99.40467 
L 441.493086 103.855422 
L 444.467689 113.910276 
L 445.95499 119.563399 
L 447.442292 126.740675 
L 450.416894 138.584236 
L 451.904195 143.990609 
L 453.391497 146.710839 
L 456.366099 150.743134 
L 457.8534 151.589428 
L 459.340702 152.169245 
L 460.828003 154.460935 
L 462.315304 155.770065 
L 463.802606 156.312273 
L 466.777208 159.542435 
L 468.264509 160.084641 
L 469.751811 160.475172 
L 471.239112 161.50187 
L 472.726413 162.179582 
L 474.213715 163.95 
L 551.553381 163.95 
L 551.553381 163.95 
" clip-path="url(#p9c62cd311c)" style="fill: none; stroke: #4682b4; stroke-opacity: 0.3; stroke-width: 0.5; stroke-linecap: square"/>
   </g>
   <g id="line2d_65">
    <path d="M 328.458189 163.95 
L 401.335952 163.95 
L 402.823253 153.651929 
L 408.772458 116.028252 
L 410.25976 113.815788 
L 413.234362 113.435793 
L 414.721663 109.480148 
L 417.696266 94.873044 
L 419.183567 85.575692 
L 420.670869 77.276116 
L 422.15817 72.447421 
L 425.132772 70.455497 
L 426.620074 70.198651 
L 428.107375 67.599447 
L 429.594676 67.60643 
L 431.081977 69.68754 
L 432.569279 73.594532 
L 434.05658 75.797514 
L 437.031183 82.636683 
L 438.518484 84.933365 
L 440.005785 87.956183 
L 441.493086 92.560373 
L 442.980388 103.291912 
L 445.95499 127.03576 
L 447.442292 136.708428 
L 448.929593 149.198165 
L 450.416894 151.481919 
L 451.904195 150.095059 
L 453.391497 151.983016 
L 454.878798 152.338526 
L 456.366099 150.975464 
L 457.8534 153.440045 
L 459.340702 157.327199 
L 460.828003 156.200288 
L 462.315304 157.53681 
L 463.802606 157.851247 
L 465.289907 158.881264 
L 466.777208 158.843494 
L 468.264509 160.512178 
L 471.239112 162.468463 
L 472.726413 163.95 
L 551.553381 163.95 
L 551.553381 163.95 
" clip-path="url(#p9c62cd311c)" style="fill: none; stroke: #4682b4; stroke-opacity: 0.3; stroke-width: 0.5; stroke-linecap: square"/>
   </g>
   <g id="line2d_66">
    <path d="M 328.458189 163.95 
L 401.335952 163.95 
L 402.823253 159.235189 
L 404.310554 155.892667 
L 407.285157 148.392553 
L 408.772458 145.791545 
L 410.25976 143.819958 
L 411.747061 141.599385 
L 413.234362 138.419347 
L 414.721663 131.033944 
L 416.208965 121.3462 
L 417.696266 110.216697 
L 419.183567 98.116708 
L 420.670869 87.14743 
L 422.15817 79.870181 
L 423.645471 76.006667 
L 425.132772 75.442079 
L 426.620074 77.024983 
L 428.107375 79.205159 
L 431.081977 86.073219 
L 434.05658 91.99984 
L 435.543881 94.858845 
L 440.005785 100.38855 
L 441.493086 102.889214 
L 442.980388 105.641353 
L 444.467689 108.934127 
L 447.442292 118.603143 
L 448.929593 124.179465 
L 451.904195 136.313198 
L 453.391497 141.38955 
L 454.878798 145.159414 
L 456.366099 147.608055 
L 457.8534 149.25739 
L 459.340702 150.49224 
L 462.315304 151.923143 
L 465.289907 152.766242 
L 468.264509 154.095031 
L 469.751811 155.120431 
L 471.239112 156.589165 
L 475.701016 161.66131 
L 477.188317 162.871465 
L 480.16292 163.2893 
L 484.624823 163.533185 
L 490.574029 163.870446 
L 505.447041 163.95 
L 551.553381 163.95 
L 551.553381 163.95 
" clip-path="url(#p9c62cd311c)" style="fill: none; stroke: #000080; stroke-linecap: square"/>
   </g>
   <g id="patch_6">
    <path d="M 317.30343 170.34 
L 317.30343 29.76 
" style="fill: none; stroke: #000000; stroke-linejoin: miter; stroke-linecap: square"/>
   </g>
   <g id="patch_7">
    <path d="M 317.30343 170.34 
L 562.70814 170.34 
" style="fill: none; stroke: #000000; stroke-linejoin: miter; stroke-linecap: square"/>
   </g>
   <g id="text_15">
    <!-- CVC -->
    <g transform="translate(425.44141 23.76) scale(0.14 -0.14)">
     <use xlink:href="#DejaVuSans-43"/>
     <use xlink:href="#DejaVuSans-56" x="69.824219"/>
     <use xlink:href="#DejaVuSans-43" x="138.232422"/>
    </g>
   </g>
  </g>
 </g>
 <defs>
  <clipPath id="p535ba1661e">
   <rect x="53.25" y="29.76" width="245.404711" height="140.58"/>
  </clipPath>
  <clipPath id="p9c62cd311c">
   <rect x="317.30343" y="29.76" width="245.404711" height="140.58"/>
  </clipPath>
 </defs>
</svg>
