<?xml version="1.0" encoding="utf-8" standalone="no"?>
<!DOCTYPE svg PUBLIC "-//W3C//DTD SVG 1.1//EN"
  "http://www.w3.org/Graphics/SVG/1.1/DTD/svg11.dtd">
<svg xmlns:xlink="http://www.w3.org/1999/xlink" width="568.88375pt" height="280.954375pt" viewBox="0 0 568.88375 280.954375" xmlns="http://www.w3.org/2000/svg" version="1.1">
 <metadata>
  <rdf:RDF xmlns:dc="http://purl.org/dc/elements/1.1/" xmlns:cc="http://creativecommons.org/ns#" xmlns:rdf="http://www.w3.org/1999/02/22-rdf-syntax-ns#">
   <cc:Work>
    <dc:type rdf:resource="http://purl.org/dc/dcmitype/StillImage"/>
    <dc:date>2025-09-06T00:34:46.450215</dc:date>
    <dc:format>image/svg+xml</dc:format>
    <dc:creator>
     <cc:Agent>
      <dc:title>Matplotlib v3.9.2, https://matplotlib.org/</dc:title>
     </cc:Agent>
    </dc:creator>
   </cc:Work>
  </rdf:RDF>
 </metadata>
 <defs>
  <style type="text/css">*{stroke-linejoin: round; stroke-linecap: butt}</style>
 </defs>
 <g id="figure_1">
  <g id="patch_1">
   <path d="M 0 280.954375 
L 568.88375 280.954375 
L 568.88375 0 
L 0 0 
z
" style="fill: #ffffff"/>
  </g>
  <g id="axes_1">
   <g id="patch_2">
    <path d="M 50.64375 242.898125 
L 279.08375 242.898125 
L 279.08375 22.318125 
L 50.64375 22.318125 
z
" style="fill: #ffffff"/>
   </g>
   <g id="PolyCollection_1">
    <defs>
     <path id="m23f702cfb2" d="M 50.64375 -107.784518 
L 50.64375 -69.118395 
L 52.400981 -70.464708 
L 54.158212 -72.672662 
L 55.915442 -73.372745 
L 57.672673 -73.534303 
L 59.429904 -72.026432 
L 61.187135 -71.541759 
L 62.944365 -66.641178 
L 64.701596 -65.456422 
L 66.458827 -65.564127 
L 68.216058 -65.941095 
L 69.973288 -65.187159 
L 71.730519 -67.395113 
L 73.48775 -66.587325 
L 75.244981 -65.617979 
L 77.002212 -64.433224 
L 78.759442 -67.879786 
L 80.516673 -70.249298 
L 82.273904 -73.965123 
L 84.031135 -78.273326 
L 85.788365 -80.104312 
L 87.545596 -82.204562 
L 89.302827 -82.743087 
L 91.060058 -86.351207 
L 92.817288 -88.613014 
L 94.574519 -88.182193 
L 96.33175 -87.805226 
L 98.088981 -89.474654 
L 99.846212 -89.151539 
L 101.603442 -87.912931 
L 103.360673 -88.236046 
L 105.117904 -84.520221 
L 106.875135 -84.843336 
L 108.632365 -87.05129 
L 110.389596 -90.01318 
L 112.146827 -96.475484 
L 113.904058 -102.668526 
L 115.661288 -107.245992 
L 117.418519 -109.615504 
L 119.17575 -106.599762 
L 120.932981 -106.599762 
L 122.690212 -107.138287 
L 124.447442 -112.738951 
L 126.204673 -119.093551 
L 127.961904 -122.970934 
L 129.719135 -122.540113 
L 131.476365 -123.078639 
L 133.233596 -120.816832 
L 134.990827 -116.724039 
L 136.748058 -114.785348 
L 138.505288 -113.385182 
L 140.262519 -115.323873 
L 142.01975 -118.124205 
L 143.776981 -122.647818 
L 145.534212 -124.155689 
L 147.291442 -126.632906 
L 149.048673 -126.848316 
L 150.805904 -130.402584 
L 152.563135 -134.495377 
L 154.320365 -137.188004 
L 156.077596 -138.480465 
L 157.834827 -140.634566 
L 159.592058 -137.080299 
L 161.349288 -134.710787 
L 163.106519 -132.01816 
L 164.86375 -131.37193 
L 166.620981 -131.479635 
L 168.378212 -131.80275 
L 170.135442 -133.741441 
L 171.892673 -138.695875 
L 173.649904 -144.081129 
L 175.407135 -150.435729 
L 177.164365 -154.743932 
L 178.921596 -156.898033 
L 180.678827 -160.02148 
L 182.436058 -162.498697 
L 184.193288 -165.191324 
L 185.950519 -165.94526 
L 187.70775 -166.59149 
L 189.464981 -167.022311 
L 191.222212 -167.883951 
L 192.979442 -168.207066 
L 194.736673 -164.760504 
L 196.493904 -159.37525 
L 198.251135 -152.482125 
L 200.008365 -149.143268 
L 201.765596 -148.281627 
L 203.522827 -146.558346 
L 205.280058 -145.265885 
L 207.037288 -148.389332 
L 208.794519 -151.081959 
L 210.55175 -150.866549 
L 212.308981 -149.358678 
L 214.066212 -150.004908 
L 215.823442 -149.574088 
L 217.580673 -144.619654 
L 219.337904 -141.603912 
L 221.095135 -136.218658 
L 222.852365 -129.217828 
L 224.609596 -124.047984 
L 226.366827 -118.124205 
L 228.124058 -111.985016 
L 229.881288 -107.030582 
L 231.638519 -105.415006 
L 233.39575 -105.199596 
L 235.152981 -104.01484 
L 236.910212 -104.87648 
L 238.667442 -104.23025 
L 240.424673 -105.630416 
L 242.181904 -109.615504 
L 243.939135 -111.338785 
L 245.696365 -109.292389 
L 247.453596 -106.168941 
L 249.210827 -99.814342 
L 250.968058 -95.183023 
L 252.725288 -88.289898 
L 254.482519 -83.335465 
L 256.23975 -82.043004 
L 257.996981 -81.773741 
L 259.754212 -83.550875 
L 261.511442 -85.758829 
L 263.268673 -86.135797 
L 265.025904 -88.343751 
L 266.783135 -90.336295 
L 268.540365 -89.151539 
L 270.297596 -89.528507 
L 272.054827 -88.451456 
L 273.812058 -85.220304 
L 275.569288 -84.197105 
L 277.326519 -83.22776 
L 279.08375 -82.473824 
L 279.08375 -115.970104 
L 279.08375 -115.970104 
L 277.326519 -115.216168 
L 275.569288 -116.293219 
L 273.812058 -116.616334 
L 272.054827 -119.524371 
L 270.297596 -122.863229 
L 268.540365 -125.340445 
L 266.783135 -125.01733 
L 265.025904 -122.755523 
L 263.268673 -119.955191 
L 261.511442 -117.37027 
L 259.754212 -114.246822 
L 257.996981 -115.862398 
L 256.23975 -117.37027 
L 254.482519 -121.032242 
L 252.725288 -125.555855 
L 250.968058 -130.941109 
L 249.210827 -134.926197 
L 247.453596 -139.126695 
L 245.696365 -139.880631 
L 243.939135 -144.727359 
L 242.181904 -144.511949 
L 240.424673 -141.173092 
L 238.667442 -140.634566 
L 236.910212 -140.634566 
L 235.152981 -136.326363 
L 233.39575 -137.941939 
L 231.638519 -140.311451 
L 229.881288 -142.357848 
L 228.124058 -146.23523 
L 226.366827 -150.435729 
L 224.609596 -154.420816 
L 222.852365 -161.098531 
L 221.095135 -168.530182 
L 219.337904 -178.008229 
L 217.580673 -184.470533 
L 215.823442 -189.640377 
L 214.066212 -191.363658 
L 212.308981 -191.794479 
L 210.55175 -188.778736 
L 208.794519 -188.563326 
L 207.037288 -190.394312 
L 205.280058 -190.071197 
L 203.522827 -189.640377 
L 201.765596 -191.794479 
L 200.008365 -196.318092 
L 198.251135 -200.30318 
L 196.493904 -204.611383 
L 194.736673 -211.073687 
L 192.979442 -214.08943 
L 191.222212 -214.412545 
L 189.464981 -214.73566 
L 187.70775 -216.028121 
L 185.950519 -218.182223 
L 184.193288 -219.474684 
L 182.436058 -216.458941 
L 180.678827 -213.012379 
L 178.921596 -205.580729 
L 177.164365 -200.626295 
L 175.407135 -191.579068 
L 173.649904 -187.16316 
L 171.892673 -183.070367 
L 170.135442 -179.839215 
L 168.378212 -175.315602 
L 166.620981 -174.561666 
L 164.86375 -175.100191 
L 163.106519 -175.315602 
L 161.349288 -176.931178 
L 159.592058 -177.577408 
L 157.834827 -177.254293 
L 156.077596 -175.961832 
L 154.320365 -169.284117 
L 152.563135 -164.868209 
L 150.805904 -160.990826 
L 149.048673 -158.298199 
L 147.291442 -156.790328 
L 145.534212 -155.390162 
L 143.776981 -153.451471 
L 142.01975 -150.435729 
L 140.262519 -148.712447 
L 138.505288 -149.358678 
L 136.748058 -147.958512 
L 134.990827 -149.035562 
L 133.233596 -152.697535 
L 131.476365 -155.820982 
L 129.719135 -155.713277 
L 127.961904 -153.774586 
L 126.204673 -150.974254 
L 124.447442 -147.419986 
L 122.690212 -143.758014 
L 120.932981 -141.711617 
L 119.17575 -140.203746 
L 117.418519 -138.911285 
L 115.661288 -136.326363 
L 113.904058 -133.956852 
L 112.146827 -125.986676 
L 110.389596 -120.816832 
L 108.632365 -118.770436 
L 106.875135 -116.185514 
L 105.117904 -116.616334 
L 103.360673 -118.66273 
L 101.603442 -119.524371 
L 99.846212 -121.247652 
L 98.088981 -122.432408 
L 96.33175 -122.432408 
L 94.574519 -120.924537 
L 92.817288 -119.416666 
L 91.060058 -115.539283 
L 89.302827 -114.031412 
L 87.545596 -109.507799 
L 85.788365 -106.599762 
L 84.031135 -101.968443 
L 82.273904 -100.245162 
L 80.516673 -98.144913 
L 78.759442 -97.498683 
L 77.002212 -98.144913 
L 75.244981 -96.744747 
L 73.48775 -97.175567 
L 71.730519 -97.66024 
L 69.973288 -97.714093 
L 68.216058 -95.021466 
L 66.458827 -94.321383 
L 64.701596 -95.290729 
L 62.944365 -97.87565 
L 61.187135 -101.914591 
L 59.429904 -102.399264 
L 57.672673 -104.984186 
L 55.915442 -106.815172 
L 54.158212 -108.861568 
L 52.400981 -108.646158 
L 50.64375 -107.784518 
z
"/>
    </defs>
    <g clip-path="url(#pb6315fd28c)">
     <use xlink:href="#m23f702cfb2" x="0" y="280.954375" style="fill: #f14432; fill-opacity: 0.2"/>
    </g>
   </g>
   <g id="PolyCollection_2">
    <defs>
     <path id="m660042106b" d="M 50.64375 -101.483771 
L 50.64375 -85.220304 
L 52.400981 -85.112599 
L 54.158212 -84.735631 
L 55.915442 -84.358663 
L 57.672673 -83.65858 
L 59.429904 -84.412516 
L 61.187135 -84.304811 
L 62.944365 -84.358663 
L 64.701596 -84.789483 
L 66.458827 -83.389317 
L 68.216058 -84.250958 
L 69.973288 -84.951041 
L 71.730519 -83.44317 
L 73.48775 -84.197105 
L 75.244981 -83.497022 
L 77.002212 -82.635382 
L 78.759442 -81.935299 
L 80.516673 -82.689234 
L 82.273904 -82.258414 
L 84.031135 -83.927843 
L 85.788365 -84.035548 
L 87.545596 -83.44317 
L 89.302827 -81.450626 
L 91.060058 -82.904645 
L 92.817288 -83.87399 
L 94.574519 -82.366119 
L 96.33175 -81.989151 
L 98.088981 -82.635382 
L 99.846212 -81.342921 
L 101.603442 -82.796939 
L 103.360673 -82.419972 
L 105.117904 -83.120055 
L 106.875135 -83.173907 
L 108.632365 -83.87399 
L 110.389596 -84.466368 
L 112.146827 -83.44317 
L 113.904058 -83.389317 
L 115.661288 -84.574073 
L 117.418519 -83.066202 
L 119.17575 -82.904645 
L 120.932981 -83.173907 
L 122.690212 -83.65858 
L 124.447442 -83.497022 
L 126.204673 -82.958497 
L 127.961904 -82.743087 
L 129.719135 -84.520221 
L 131.476365 -83.981695 
L 133.233596 -83.173907 
L 134.990827 -82.581529 
L 136.748058 -81.289068 
L 138.505288 -81.504479 
L 140.262519 -82.043004 
L 142.01975 -82.689234 
L 143.776981 -81.289068 
L 145.534212 -81.396773 
L 147.291442 -82.043004 
L 149.048673 -81.396773 
L 150.805904 -82.581529 
L 152.563135 -83.335465 
L 154.320365 -85.166451 
L 156.077596 -85.704977 
L 157.834827 -84.735631 
L 159.592058 -84.735631 
L 161.349288 -84.0894 
L 163.106519 -84.627926 
L 164.86375 -85.489566 
L 166.620981 -85.220304 
L 168.378212 -83.927843 
L 170.135442 -83.712433 
L 171.892673 -83.120055 
L 173.649904 -83.44317 
L 175.407135 -83.173907 
L 177.164365 -82.904645 
L 178.921596 -84.035548 
L 180.678827 -83.22776 
L 182.436058 -83.22776 
L 184.193288 -83.22776 
L 185.950519 -85.651124 
L 187.70775 -84.951041 
L 189.464981 -83.550875 
L 191.222212 -84.250958 
L 192.979442 -85.166451 
L 194.736673 -83.389317 
L 196.493904 -83.335465 
L 198.251135 -83.22776 
L 200.008365 -83.766285 
L 201.765596 -84.466368 
L 203.522827 -83.820138 
L 205.280058 -82.581529 
L 207.037288 -82.904645 
L 208.794519 -84.681778 
L 210.55175 -84.358663 
L 212.308981 -83.604728 
L 214.066212 -85.166451 
L 215.823442 -83.604728 
L 217.580673 -84.0894 
L 219.337904 -83.981695 
L 221.095135 -84.681778 
L 222.852365 -84.412516 
L 224.609596 -85.489566 
L 226.366827 -84.627926 
L 228.124058 -85.704977 
L 229.881288 -86.889732 
L 231.638519 -85.489566 
L 233.39575 -86.458912 
L 235.152981 -87.697521 
L 236.910212 -87.374405 
L 238.667442 -88.666866 
L 240.424673 -86.728175 
L 242.181904 -86.566617 
L 243.939135 -86.62047 
L 245.696365 -84.735631 
L 247.453596 -84.627926 
L 249.210827 -84.197105 
L 250.968058 -84.035548 
L 252.725288 -83.497022 
L 254.482519 -83.01235 
L 256.23975 -83.604728 
L 257.996981 -83.766285 
L 259.754212 -83.335465 
L 261.511442 -82.150709 
L 263.268673 -83.65858 
L 265.025904 -83.066202 
L 266.783135 -86.189649 
L 268.540365 -86.40506 
L 270.297596 -86.189649 
L 272.054827 -85.597271 
L 273.812058 -85.597271 
L 275.569288 -85.597271 
L 277.326519 -84.0894 
L 279.08375 -84.681778 
L 279.08375 -99.329669 
L 279.08375 -99.329669 
L 277.326519 -100.029752 
L 275.569288 -99.922047 
L 273.812058 -101.214508 
L 272.054827 -101.322213 
L 270.297596 -99.545079 
L 268.540365 -99.652784 
L 266.783135 -101.05295 
L 265.025904 -100.62213 
L 263.268673 -101.429918 
L 261.511442 -103.045494 
L 259.754212 -102.506969 
L 257.996981 -102.937789 
L 256.23975 -103.853282 
L 254.482519 -102.506969 
L 252.725288 -102.560821 
L 250.968058 -101.591476 
L 249.210827 -101.968443 
L 247.453596 -101.645328 
L 245.696365 -102.183854 
L 243.939135 -102.022296 
L 242.181904 -103.58402 
L 240.424673 -103.207052 
L 238.667442 -102.991642 
L 236.910212 -102.345411 
L 235.152981 -102.345411 
L 233.39575 -102.076148 
L 231.638519 -103.260904 
L 229.881288 -104.553365 
L 228.124058 -104.66107 
L 226.366827 -103.58402 
L 224.609596 -101.968443 
L 222.852365 -100.891393 
L 221.095135 -100.299015 
L 219.337904 -98.521881 
L 217.580673 -97.983355 
L 215.823442 -99.652784 
L 214.066212 -99.706637 
L 212.308981 -100.62213 
L 210.55175 -101.160655 
L 208.794519 -100.729835 
L 207.037288 -99.060406 
L 205.280058 -98.737291 
L 203.522827 -98.683438 
L 201.765596 -99.114259 
L 200.008365 -99.598932 
L 198.251135 -98.091061 
L 196.493904 -97.552535 
L 194.736673 -98.791144 
L 192.979442 -98.521881 
L 191.222212 -99.437374 
L 189.464981 -99.598932 
L 187.70775 -101.322213 
L 185.950519 -101.914591 
L 184.193288 -100.675982 
L 182.436058 -99.922047 
L 180.678827 -100.352867 
L 178.921596 -101.591476 
L 177.164365 -99.706637 
L 175.407135 -100.83754 
L 173.649904 -100.891393 
L 171.892673 -100.568277 
L 170.135442 -99.975899 
L 168.378212 -100.729835 
L 166.620981 -101.591476 
L 164.86375 -100.999098 
L 163.106519 -99.814342 
L 161.349288 -100.783687 
L 159.592058 -100.891393 
L 157.834827 -101.214508 
L 156.077596 -100.568277 
L 154.320365 -100.999098 
L 152.563135 -101.322213 
L 150.805904 -100.029752 
L 149.048673 -98.737291 
L 147.291442 -100.783687 
L 145.534212 -101.645328 
L 143.776981 -101.322213 
L 142.01975 -101.106803 
L 140.262519 -100.460572 
L 138.505288 -100.675982 
L 136.748058 -101.537623 
L 134.990827 -100.029752 
L 133.233596 -101.699181 
L 131.476365 -100.460572 
L 129.719135 -100.245162 
L 127.961904 -101.26836 
L 126.204673 -100.729835 
L 124.447442 -99.437374 
L 122.690212 -99.814342 
L 120.932981 -100.299015 
L 119.17575 -101.645328 
L 117.418519 -100.40672 
L 115.661288 -100.62213 
L 113.904058 -101.05295 
L 112.146827 -100.245162 
L 110.389596 -100.945245 
L 108.632365 -100.783687 
L 106.875135 -99.545079 
L 105.117904 -100.137457 
L 103.360673 -100.299015 
L 101.603442 -100.137457 
L 99.846212 -99.975899 
L 98.088981 -99.975899 
L 96.33175 -99.975899 
L 94.574519 -99.491227 
L 92.817288 -99.275816 
L 91.060058 -98.198766 
L 89.302827 -98.468028 
L 87.545596 -96.906305 
L 85.788365 -97.175567 
L 84.031135 -97.606388 
L 82.273904 -97.121715 
L 80.516673 -96.152369 
L 78.759442 -95.936959 
L 77.002212 -95.990812 
L 75.244981 -97.283272 
L 73.48775 -98.844996 
L 71.730519 -98.737291 
L 69.973288 -100.029752 
L 68.216058 -99.545079 
L 66.458827 -98.791144 
L 64.701596 -100.083604 
L 62.944365 -100.40672 
L 61.187135 -99.275816 
L 59.429904 -98.952701 
L 57.672673 -98.306471 
L 55.915442 -99.221964 
L 54.158212 -100.245162 
L 52.400981 -100.299015 
L 50.64375 -101.483771 
z
"/>
    </defs>
    <g clip-path="url(#pb6315fd28c)">
     <use xlink:href="#m660042106b" x="0" y="280.954375" style="fill: #4a98c9; fill-opacity: 0.2"/>
    </g>
   </g>
   <g id="patch_3">
    <path d="M 122.690212 227.457525 
L 124.447442 227.457525 
L 124.447442 223.045925 
L 122.690212 223.045925 
z
" clip-path="url(#pb6315fd28c)" style="fill: #f14432"/>
   </g>
   <g id="patch_4">
    <path d="M 124.447442 227.457525 
L 126.204673 227.457525 
L 126.204673 223.045925 
L 124.447442 223.045925 
z
" clip-path="url(#pb6315fd28c)" style="fill: #f14432"/>
   </g>
   <g id="patch_5">
    <path d="M 126.204673 227.457525 
L 127.961904 227.457525 
L 127.961904 223.045925 
L 126.204673 223.045925 
z
" clip-path="url(#pb6315fd28c)" style="fill: #f14432"/>
   </g>
   <g id="patch_6">
    <path d="M 127.961904 227.457525 
L 129.719135 227.457525 
L 129.719135 223.045925 
L 127.961904 223.045925 
z
" clip-path="url(#pb6315fd28c)" style="fill: #f14432"/>
   </g>
   <g id="patch_7">
    <path d="M 129.719135 227.457525 
L 131.476365 227.457525 
L 131.476365 223.045925 
L 129.719135 223.045925 
z
" clip-path="url(#pb6315fd28c)" style="fill: #f14432"/>
   </g>
   <g id="patch_8">
    <path d="M 131.476365 227.457525 
L 133.233596 227.457525 
L 133.233596 223.045925 
L 131.476365 223.045925 
z
" clip-path="url(#pb6315fd28c)" style="fill: #f14432"/>
   </g>
   <g id="patch_9">
    <path d="M 133.233596 227.457525 
L 134.990827 227.457525 
L 134.990827 223.045925 
L 133.233596 223.045925 
z
" clip-path="url(#pb6315fd28c)" style="fill: #f14432"/>
   </g>
   <g id="patch_10">
    <path d="M 134.990827 227.457525 
L 136.748058 227.457525 
L 136.748058 223.045925 
L 134.990827 223.045925 
z
" clip-path="url(#pb6315fd28c)" style="fill: #f14432"/>
   </g>
   <g id="patch_11">
    <path d="M 136.748058 227.457525 
L 138.505288 227.457525 
L 138.505288 223.045925 
L 136.748058 223.045925 
z
" clip-path="url(#pb6315fd28c)" style="fill: #f14432"/>
   </g>
   <g id="patch_12">
    <path d="M 138.505288 227.457525 
L 140.262519 227.457525 
L 140.262519 223.045925 
L 138.505288 223.045925 
z
" clip-path="url(#pb6315fd28c)" style="fill: #f14432"/>
   </g>
   <g id="patch_13">
    <path d="M 140.262519 227.457525 
L 142.01975 227.457525 
L 142.01975 223.045925 
L 140.262519 223.045925 
z
" clip-path="url(#pb6315fd28c)" style="fill: #f14432"/>
   </g>
   <g id="patch_14">
    <path d="M 142.01975 227.457525 
L 143.776981 227.457525 
L 143.776981 223.045925 
L 142.01975 223.045925 
z
" clip-path="url(#pb6315fd28c)" style="fill: #f14432"/>
   </g>
   <g id="patch_15">
    <path d="M 143.776981 227.457525 
L 145.534212 227.457525 
L 145.534212 223.045925 
L 143.776981 223.045925 
z
" clip-path="url(#pb6315fd28c)" style="fill: #f14432"/>
   </g>
   <g id="patch_16">
    <path d="M 145.534212 227.457525 
L 147.291442 227.457525 
L 147.291442 223.045925 
L 145.534212 223.045925 
z
" clip-path="url(#pb6315fd28c)" style="fill: #f14432"/>
   </g>
   <g id="patch_17">
    <path d="M 147.291442 227.457525 
L 149.048673 227.457525 
L 149.048673 223.045925 
L 147.291442 223.045925 
z
" clip-path="url(#pb6315fd28c)" style="fill: #f14432"/>
   </g>
   <g id="patch_18">
    <path d="M 149.048673 227.457525 
L 150.805904 227.457525 
L 150.805904 223.045925 
L 149.048673 223.045925 
z
" clip-path="url(#pb6315fd28c)" style="fill: #f14432"/>
   </g>
   <g id="patch_19">
    <path d="M 150.805904 227.457525 
L 152.563135 227.457525 
L 152.563135 223.045925 
L 150.805904 223.045925 
z
" clip-path="url(#pb6315fd28c)" style="fill: #f14432"/>
   </g>
   <g id="patch_20">
    <path d="M 152.563135 227.457525 
L 154.320365 227.457525 
L 154.320365 223.045925 
L 152.563135 223.045925 
z
" clip-path="url(#pb6315fd28c)" style="fill: #f14432"/>
   </g>
   <g id="patch_21">
    <path d="M 154.320365 227.457525 
L 156.077596 227.457525 
L 156.077596 223.045925 
L 154.320365 223.045925 
z
" clip-path="url(#pb6315fd28c)" style="fill: #f14432"/>
   </g>
   <g id="patch_22">
    <path d="M 156.077596 227.457525 
L 157.834827 227.457525 
L 157.834827 223.045925 
L 156.077596 223.045925 
z
" clip-path="url(#pb6315fd28c)" style="fill: #f14432"/>
   </g>
   <g id="patch_23">
    <path d="M 157.834827 227.457525 
L 159.592058 227.457525 
L 159.592058 223.045925 
L 157.834827 223.045925 
z
" clip-path="url(#pb6315fd28c)" style="fill: #f14432"/>
   </g>
   <g id="patch_24">
    <path d="M 159.592058 227.457525 
L 161.349288 227.457525 
L 161.349288 223.045925 
L 159.592058 223.045925 
z
" clip-path="url(#pb6315fd28c)" style="fill: #f14432"/>
   </g>
   <g id="patch_25">
    <path d="M 161.349288 227.457525 
L 163.106519 227.457525 
L 163.106519 223.045925 
L 161.349288 223.045925 
z
" clip-path="url(#pb6315fd28c)" style="fill: #f14432"/>
   </g>
   <g id="patch_26">
    <path d="M 163.106519 227.457525 
L 164.86375 227.457525 
L 164.86375 223.045925 
L 163.106519 223.045925 
z
" clip-path="url(#pb6315fd28c)" style="fill: #f14432"/>
   </g>
   <g id="patch_27">
    <path d="M 164.86375 227.457525 
L 166.620981 227.457525 
L 166.620981 223.045925 
L 164.86375 223.045925 
z
" clip-path="url(#pb6315fd28c)" style="fill: #f14432"/>
   </g>
   <g id="patch_28">
    <path d="M 166.620981 227.457525 
L 168.378212 227.457525 
L 168.378212 223.045925 
L 166.620981 223.045925 
z
" clip-path="url(#pb6315fd28c)" style="fill: #f14432"/>
   </g>
   <g id="patch_29">
    <path d="M 168.378212 227.457525 
L 170.135442 227.457525 
L 170.135442 223.045925 
L 168.378212 223.045925 
z
" clip-path="url(#pb6315fd28c)" style="fill: #f14432"/>
   </g>
   <g id="patch_30">
    <path d="M 170.135442 227.457525 
L 171.892673 227.457525 
L 171.892673 223.045925 
L 170.135442 223.045925 
z
" clip-path="url(#pb6315fd28c)" style="fill: #f14432"/>
   </g>
   <g id="patch_31">
    <path d="M 171.892673 227.457525 
L 173.649904 227.457525 
L 173.649904 223.045925 
L 171.892673 223.045925 
z
" clip-path="url(#pb6315fd28c)" style="fill: #f14432"/>
   </g>
   <g id="patch_32">
    <path d="M 173.649904 227.457525 
L 175.407135 227.457525 
L 175.407135 223.045925 
L 173.649904 223.045925 
z
" clip-path="url(#pb6315fd28c)" style="fill: #f14432"/>
   </g>
   <g id="patch_33">
    <path d="M 175.407135 227.457525 
L 177.164365 227.457525 
L 177.164365 223.045925 
L 175.407135 223.045925 
z
" clip-path="url(#pb6315fd28c)" style="fill: #f14432"/>
   </g>
   <g id="patch_34">
    <path d="M 177.164365 227.457525 
L 178.921596 227.457525 
L 178.921596 223.045925 
L 177.164365 223.045925 
z
" clip-path="url(#pb6315fd28c)" style="fill: #f14432"/>
   </g>
   <g id="patch_35">
    <path d="M 178.921596 227.457525 
L 180.678827 227.457525 
L 180.678827 223.045925 
L 178.921596 223.045925 
z
" clip-path="url(#pb6315fd28c)" style="fill: #f14432"/>
   </g>
   <g id="patch_36">
    <path d="M 180.678827 227.457525 
L 182.436058 227.457525 
L 182.436058 223.045925 
L 180.678827 223.045925 
z
" clip-path="url(#pb6315fd28c)" style="fill: #f14432"/>
   </g>
   <g id="patch_37">
    <path d="M 182.436058 227.457525 
L 184.193288 227.457525 
L 184.193288 223.045925 
L 182.436058 223.045925 
z
" clip-path="url(#pb6315fd28c)" style="fill: #f14432"/>
   </g>
   <g id="patch_38">
    <path d="M 184.193288 227.457525 
L 185.950519 227.457525 
L 185.950519 223.045925 
L 184.193288 223.045925 
z
" clip-path="url(#pb6315fd28c)" style="fill: #f14432"/>
   </g>
   <g id="patch_39">
    <path d="M 185.950519 227.457525 
L 187.70775 227.457525 
L 187.70775 223.045925 
L 185.950519 223.045925 
z
" clip-path="url(#pb6315fd28c)" style="fill: #f14432"/>
   </g>
   <g id="patch_40">
    <path d="M 187.70775 227.457525 
L 189.464981 227.457525 
L 189.464981 223.045925 
L 187.70775 223.045925 
z
" clip-path="url(#pb6315fd28c)" style="fill: #f14432"/>
   </g>
   <g id="patch_41">
    <path d="M 189.464981 227.457525 
L 191.222212 227.457525 
L 191.222212 223.045925 
L 189.464981 223.045925 
z
" clip-path="url(#pb6315fd28c)" style="fill: #f14432"/>
   </g>
   <g id="patch_42">
    <path d="M 191.222212 227.457525 
L 192.979442 227.457525 
L 192.979442 223.045925 
L 191.222212 223.045925 
z
" clip-path="url(#pb6315fd28c)" style="fill: #f14432"/>
   </g>
   <g id="patch_43">
    <path d="M 192.979442 227.457525 
L 194.736673 227.457525 
L 194.736673 223.045925 
L 192.979442 223.045925 
z
" clip-path="url(#pb6315fd28c)" style="fill: #f14432"/>
   </g>
   <g id="patch_44">
    <path d="M 194.736673 227.457525 
L 196.493904 227.457525 
L 196.493904 223.045925 
L 194.736673 223.045925 
z
" clip-path="url(#pb6315fd28c)" style="fill: #f14432"/>
   </g>
   <g id="patch_45">
    <path d="M 196.493904 227.457525 
L 198.251135 227.457525 
L 198.251135 223.045925 
L 196.493904 223.045925 
z
" clip-path="url(#pb6315fd28c)" style="fill: #f14432"/>
   </g>
   <g id="patch_46">
    <path d="M 198.251135 227.457525 
L 200.008365 227.457525 
L 200.008365 223.045925 
L 198.251135 223.045925 
z
" clip-path="url(#pb6315fd28c)" style="fill: #f14432"/>
   </g>
   <g id="patch_47">
    <path d="M 200.008365 227.457525 
L 201.765596 227.457525 
L 201.765596 223.045925 
L 200.008365 223.045925 
z
" clip-path="url(#pb6315fd28c)" style="fill: #f14432"/>
   </g>
   <g id="patch_48">
    <path d="M 201.765596 227.457525 
L 203.522827 227.457525 
L 203.522827 223.045925 
L 201.765596 223.045925 
z
" clip-path="url(#pb6315fd28c)" style="fill: #f14432"/>
   </g>
   <g id="patch_49">
    <path d="M 203.522827 227.457525 
L 205.280058 227.457525 
L 205.280058 223.045925 
L 203.522827 223.045925 
z
" clip-path="url(#pb6315fd28c)" style="fill: #f14432"/>
   </g>
   <g id="patch_50">
    <path d="M 205.280058 227.457525 
L 207.037288 227.457525 
L 207.037288 223.045925 
L 205.280058 223.045925 
z
" clip-path="url(#pb6315fd28c)" style="fill: #f14432"/>
   </g>
   <g id="patch_51">
    <path d="M 207.037288 227.457525 
L 208.794519 227.457525 
L 208.794519 223.045925 
L 207.037288 223.045925 
z
" clip-path="url(#pb6315fd28c)" style="fill: #f14432"/>
   </g>
   <g id="patch_52">
    <path d="M 208.794519 227.457525 
L 210.55175 227.457525 
L 210.55175 223.045925 
L 208.794519 223.045925 
z
" clip-path="url(#pb6315fd28c)" style="fill: #f14432"/>
   </g>
   <g id="patch_53">
    <path d="M 210.55175 227.457525 
L 212.308981 227.457525 
L 212.308981 223.045925 
L 210.55175 223.045925 
z
" clip-path="url(#pb6315fd28c)" style="fill: #f14432"/>
   </g>
   <g id="patch_54">
    <path d="M 212.308981 227.457525 
L 214.066212 227.457525 
L 214.066212 223.045925 
L 212.308981 223.045925 
z
" clip-path="url(#pb6315fd28c)" style="fill: #f14432"/>
   </g>
   <g id="patch_55">
    <path d="M 214.066212 227.457525 
L 215.823442 227.457525 
L 215.823442 223.045925 
L 214.066212 223.045925 
z
" clip-path="url(#pb6315fd28c)" style="fill: #f14432"/>
   </g>
   <g id="patch_56">
    <path d="M 215.823442 227.457525 
L 217.580673 227.457525 
L 217.580673 223.045925 
L 215.823442 223.045925 
z
" clip-path="url(#pb6315fd28c)" style="fill: #f14432"/>
   </g>
   <g id="patch_57">
    <path d="M 217.580673 227.457525 
L 219.337904 227.457525 
L 219.337904 223.045925 
L 217.580673 223.045925 
z
" clip-path="url(#pb6315fd28c)" style="fill: #f14432"/>
   </g>
   <g id="patch_58">
    <path d="M 219.337904 227.457525 
L 221.095135 227.457525 
L 221.095135 223.045925 
L 219.337904 223.045925 
z
" clip-path="url(#pb6315fd28c)" style="fill: #f14432"/>
   </g>
   <g id="patch_59">
    <path d="M 221.095135 227.457525 
L 222.852365 227.457525 
L 222.852365 223.045925 
L 221.095135 223.045925 
z
" clip-path="url(#pb6315fd28c)" style="fill: #f14432"/>
   </g>
   <g id="patch_60">
    <path d="M 222.852365 227.457525 
L 224.609596 227.457525 
L 224.609596 223.045925 
L 222.852365 223.045925 
z
" clip-path="url(#pb6315fd28c)" style="fill: #f14432"/>
   </g>
   <g id="patch_61">
    <path d="M 224.609596 227.457525 
L 226.366827 227.457525 
L 226.366827 223.045925 
L 224.609596 223.045925 
z
" clip-path="url(#pb6315fd28c)" style="fill: #f14432"/>
   </g>
   <g id="patch_62">
    <path d="M 226.366827 227.457525 
L 228.124058 227.457525 
L 228.124058 223.045925 
L 226.366827 223.045925 
z
" clip-path="url(#pb6315fd28c)" style="fill: #f14432"/>
   </g>
   <g id="patch_63">
    <path d="M 228.124058 227.457525 
L 229.881288 227.457525 
L 229.881288 223.045925 
L 228.124058 223.045925 
z
" clip-path="url(#pb6315fd28c)" style="fill: #f14432"/>
   </g>
   <g id="matplotlib.axis_1">
    <g id="xtick_1">
     <g id="line2d_1">
      <defs>
       <path id="m1cf02a6098" d="M 0 0 
L 0 4 
" style="stroke: #000000; stroke-width: 0.8"/>
      </defs>
      <g>
       <use xlink:href="#m1cf02a6098" x="120.932981" y="242.898125" style="stroke: #000000; stroke-width: 0.8"/>
      </g>
     </g>
     <g id="text_1">
      <!-- 0.0 -->
      <g transform="translate(112.981418 257.996562) scale(0.1 -0.1)">
       <defs>
        <path id="DejaVuSans-30" d="M 2034 4250 
Q 1547 4250 1301 3770 
Q 1056 3291 1056 2328 
Q 1056 1369 1301 889 
Q 1547 409 2034 409 
Q 2525 409 2770 889 
Q 3016 1369 3016 2328 
Q 3016 3291 2770 3770 
Q 2525 4250 2034 4250 
z
M 2034 4750 
Q 2819 4750 3233 4129 
Q 3647 3509 3647 2328 
Q 3647 1150 3233 529 
Q 2819 -91 2034 -91 
Q 1250 -91 836 529 
Q 422 1150 422 2328 
Q 422 3509 836 4129 
Q 1250 4750 2034 4750 
z
" transform="scale(0.015625)"/>
        <path id="DejaVuSans-2e" d="M 684 794 
L 1344 794 
L 1344 0 
L 684 0 
L 684 794 
z
" transform="scale(0.015625)"/>
       </defs>
       <use xlink:href="#DejaVuSans-30"/>
       <use xlink:href="#DejaVuSans-2e" x="63.623047"/>
       <use xlink:href="#DejaVuSans-30" x="95.410156"/>
      </g>
     </g>
    </g>
    <g id="xtick_2">
     <g id="line2d_2">
      <g>
       <use xlink:href="#m1cf02a6098" x="208.794519" y="242.898125" style="stroke: #000000; stroke-width: 0.8"/>
      </g>
     </g>
     <g id="text_2">
      <!-- 0.5 -->
      <g transform="translate(200.842957 257.996562) scale(0.1 -0.1)">
       <defs>
        <path id="DejaVuSans-35" d="M 691 4666 
L 3169 4666 
L 3169 4134 
L 1269 4134 
L 1269 2991 
Q 1406 3038 1543 3061 
Q 1681 3084 1819 3084 
Q 2600 3084 3056 2656 
Q 3513 2228 3513 1497 
Q 3513 744 3044 326 
Q 2575 -91 1722 -91 
Q 1428 -91 1123 -41 
Q 819 9 494 109 
L 494 744 
Q 775 591 1075 516 
Q 1375 441 1709 441 
Q 2250 441 2565 725 
Q 2881 1009 2881 1497 
Q 2881 1984 2565 2268 
Q 2250 2553 1709 2553 
Q 1456 2553 1204 2497 
Q 953 2441 691 2322 
L 691 4666 
z
" transform="scale(0.015625)"/>
       </defs>
       <use xlink:href="#DejaVuSans-30"/>
       <use xlink:href="#DejaVuSans-2e" x="63.623047"/>
       <use xlink:href="#DejaVuSans-35" x="95.410156"/>
      </g>
     </g>
    </g>
    <g id="text_3">
     <!-- Time from Onset (s) -->
     <g transform="translate(114.977812 271.674687) scale(0.1 -0.1)">
      <defs>
       <path id="DejaVuSans-54" d="M -19 4666 
L 3928 4666 
L 3928 4134 
L 2272 4134 
L 2272 0 
L 1638 0 
L 1638 4134 
L -19 4134 
L -19 4666 
z
" transform="scale(0.015625)"/>
       <path id="DejaVuSans-69" d="M 603 3500 
L 1178 3500 
L 1178 0 
L 603 0 
L 603 3500 
z
M 603 4863 
L 1178 4863 
L 1178 4134 
L 603 4134 
L 603 4863 
z
" transform="scale(0.015625)"/>
       <path id="DejaVuSans-6d" d="M 3328 2828 
Q 3544 3216 3844 3400 
Q 4144 3584 4550 3584 
Q 5097 3584 5394 3201 
Q 5691 2819 5691 2113 
L 5691 0 
L 5113 0 
L 5113 2094 
Q 5113 2597 4934 2840 
Q 4756 3084 4391 3084 
Q 3944 3084 3684 2787 
Q 3425 2491 3425 1978 
L 3425 0 
L 2847 0 
L 2847 2094 
Q 2847 2600 2669 2842 
Q 2491 3084 2119 3084 
Q 1678 3084 1418 2786 
Q 1159 2488 1159 1978 
L 1159 0 
L 581 0 
L 581 3500 
L 1159 3500 
L 1159 2956 
Q 1356 3278 1631 3431 
Q 1906 3584 2284 3584 
Q 2666 3584 2933 3390 
Q 3200 3197 3328 2828 
z
" transform="scale(0.015625)"/>
       <path id="DejaVuSans-65" d="M 3597 1894 
L 3597 1613 
L 953 1613 
Q 991 1019 1311 708 
Q 1631 397 2203 397 
Q 2534 397 2845 478 
Q 3156 559 3463 722 
L 3463 178 
Q 3153 47 2828 -22 
Q 2503 -91 2169 -91 
Q 1331 -91 842 396 
Q 353 884 353 1716 
Q 353 2575 817 3079 
Q 1281 3584 2069 3584 
Q 2775 3584 3186 3129 
Q 3597 2675 3597 1894 
z
M 3022 2063 
Q 3016 2534 2758 2815 
Q 2500 3097 2075 3097 
Q 1594 3097 1305 2825 
Q 1016 2553 972 2059 
L 3022 2063 
z
" transform="scale(0.015625)"/>
       <path id="DejaVuSans-20" transform="scale(0.015625)"/>
       <path id="DejaVuSans-66" d="M 2375 4863 
L 2375 4384 
L 1825 4384 
Q 1516 4384 1395 4259 
Q 1275 4134 1275 3809 
L 1275 3500 
L 2222 3500 
L 2222 3053 
L 1275 3053 
L 1275 0 
L 697 0 
L 697 3053 
L 147 3053 
L 147 3500 
L 697 3500 
L 697 3744 
Q 697 4328 969 4595 
Q 1241 4863 1831 4863 
L 2375 4863 
z
" transform="scale(0.015625)"/>
       <path id="DejaVuSans-72" d="M 2631 2963 
Q 2534 3019 2420 3045 
Q 2306 3072 2169 3072 
Q 1681 3072 1420 2755 
Q 1159 2438 1159 1844 
L 1159 0 
L 581 0 
L 581 3500 
L 1159 3500 
L 1159 2956 
Q 1341 3275 1631 3429 
Q 1922 3584 2338 3584 
Q 2397 3584 2469 3576 
Q 2541 3569 2628 3553 
L 2631 2963 
z
" transform="scale(0.015625)"/>
       <path id="DejaVuSans-6f" d="M 1959 3097 
Q 1497 3097 1228 2736 
Q 959 2375 959 1747 
Q 959 1119 1226 758 
Q 1494 397 1959 397 
Q 2419 397 2687 759 
Q 2956 1122 2956 1747 
Q 2956 2369 2687 2733 
Q 2419 3097 1959 3097 
z
M 1959 3584 
Q 2709 3584 3137 3096 
Q 3566 2609 3566 1747 
Q 3566 888 3137 398 
Q 2709 -91 1959 -91 
Q 1206 -91 779 398 
Q 353 888 353 1747 
Q 353 2609 779 3096 
Q 1206 3584 1959 3584 
z
" transform="scale(0.015625)"/>
       <path id="DejaVuSans-4f" d="M 2522 4238 
Q 1834 4238 1429 3725 
Q 1025 3213 1025 2328 
Q 1025 1447 1429 934 
Q 1834 422 2522 422 
Q 3209 422 3611 934 
Q 4013 1447 4013 2328 
Q 4013 3213 3611 3725 
Q 3209 4238 2522 4238 
z
M 2522 4750 
Q 3503 4750 4090 4092 
Q 4678 3434 4678 2328 
Q 4678 1225 4090 567 
Q 3503 -91 2522 -91 
Q 1538 -91 948 565 
Q 359 1222 359 2328 
Q 359 3434 948 4092 
Q 1538 4750 2522 4750 
z
" transform="scale(0.015625)"/>
       <path id="DejaVuSans-6e" d="M 3513 2113 
L 3513 0 
L 2938 0 
L 2938 2094 
Q 2938 2591 2744 2837 
Q 2550 3084 2163 3084 
Q 1697 3084 1428 2787 
Q 1159 2491 1159 1978 
L 1159 0 
L 581 0 
L 581 3500 
L 1159 3500 
L 1159 2956 
Q 1366 3272 1645 3428 
Q 1925 3584 2291 3584 
Q 2894 3584 3203 3211 
Q 3513 2838 3513 2113 
z
" transform="scale(0.015625)"/>
       <path id="DejaVuSans-73" d="M 2834 3397 
L 2834 2853 
Q 2591 2978 2328 3040 
Q 2066 3103 1784 3103 
Q 1356 3103 1142 2972 
Q 928 2841 928 2578 
Q 928 2378 1081 2264 
Q 1234 2150 1697 2047 
L 1894 2003 
Q 2506 1872 2764 1633 
Q 3022 1394 3022 966 
Q 3022 478 2636 193 
Q 2250 -91 1575 -91 
Q 1294 -91 989 -36 
Q 684 19 347 128 
L 347 722 
Q 666 556 975 473 
Q 1284 391 1588 391 
Q 1994 391 2212 530 
Q 2431 669 2431 922 
Q 2431 1156 2273 1281 
Q 2116 1406 1581 1522 
L 1381 1569 
Q 847 1681 609 1914 
Q 372 2147 372 2553 
Q 372 3047 722 3315 
Q 1072 3584 1716 3584 
Q 2034 3584 2315 3537 
Q 2597 3491 2834 3397 
z
" transform="scale(0.015625)"/>
       <path id="DejaVuSans-74" d="M 1172 4494 
L 1172 3500 
L 2356 3500 
L 2356 3053 
L 1172 3053 
L 1172 1153 
Q 1172 725 1289 603 
Q 1406 481 1766 481 
L 2356 481 
L 2356 0 
L 1766 0 
Q 1100 0 847 248 
Q 594 497 594 1153 
L 594 3053 
L 172 3053 
L 172 3500 
L 594 3500 
L 594 4494 
L 1172 4494 
z
" transform="scale(0.015625)"/>
       <path id="DejaVuSans-28" d="M 1984 4856 
Q 1566 4138 1362 3434 
Q 1159 2731 1159 2009 
Q 1159 1288 1364 580 
Q 1569 -128 1984 -844 
L 1484 -844 
Q 1016 -109 783 600 
Q 550 1309 550 2009 
Q 550 2706 781 3412 
Q 1013 4119 1484 4856 
L 1984 4856 
z
" transform="scale(0.015625)"/>
       <path id="DejaVuSans-29" d="M 513 4856 
L 1013 4856 
Q 1481 4119 1714 3412 
Q 1947 2706 1947 2009 
Q 1947 1309 1714 600 
Q 1481 -109 1013 -844 
L 513 -844 
Q 928 -128 1133 580 
Q 1338 1288 1338 2009 
Q 1338 2731 1133 3434 
Q 928 4138 513 4856 
z
" transform="scale(0.015625)"/>
      </defs>
      <use xlink:href="#DejaVuSans-54"/>
      <use xlink:href="#DejaVuSans-69" x="57.958984"/>
      <use xlink:href="#DejaVuSans-6d" x="85.742188"/>
      <use xlink:href="#DejaVuSans-65" x="183.154297"/>
      <use xlink:href="#DejaVuSans-20" x="244.677734"/>
      <use xlink:href="#DejaVuSans-66" x="276.464844"/>
      <use xlink:href="#DejaVuSans-72" x="311.669922"/>
      <use xlink:href="#DejaVuSans-6f" x="350.533203"/>
      <use xlink:href="#DejaVuSans-6d" x="411.714844"/>
      <use xlink:href="#DejaVuSans-20" x="509.126953"/>
      <use xlink:href="#DejaVuSans-4f" x="540.914062"/>
      <use xlink:href="#DejaVuSans-6e" x="619.625"/>
      <use xlink:href="#DejaVuSans-73" x="683.003906"/>
      <use xlink:href="#DejaVuSans-65" x="735.103516"/>
      <use xlink:href="#DejaVuSans-74" x="796.626953"/>
      <use xlink:href="#DejaVuSans-20" x="835.835938"/>
      <use xlink:href="#DejaVuSans-28" x="867.623047"/>
      <use xlink:href="#DejaVuSans-73" x="906.636719"/>
      <use xlink:href="#DejaVuSans-29" x="958.736328"/>
     </g>
    </g>
   </g>
   <g id="matplotlib.axis_2">
    <g id="ytick_1">
     <g id="line2d_3">
      <defs>
       <path id="mf312c70f04" d="M 0 0 
L -4 0 
" style="stroke: #000000; stroke-width: 0.8"/>
      </defs>
      <g>
       <use xlink:href="#mf312c70f04" x="50.64375" y="242.898125" style="stroke: #000000; stroke-width: 0.8"/>
      </g>
     </g>
     <g id="text_4">
      <!-- 0.05 -->
      <g transform="translate(20.878125 246.697344) scale(0.1 -0.1)">
       <use xlink:href="#DejaVuSans-30"/>
       <use xlink:href="#DejaVuSans-2e" x="63.623047"/>
       <use xlink:href="#DejaVuSans-30" x="95.410156"/>
       <use xlink:href="#DejaVuSans-35" x="159.033203"/>
      </g>
     </g>
    </g>
    <g id="ytick_2">
     <g id="line2d_4">
      <g>
       <use xlink:href="#mf312c70f04" x="50.64375" y="198.782125" style="stroke: #000000; stroke-width: 0.8"/>
      </g>
     </g>
     <g id="text_5">
      <!-- 0.10 -->
      <g transform="translate(20.878125 202.581344) scale(0.1 -0.1)">
       <defs>
        <path id="DejaVuSans-31" d="M 794 531 
L 1825 531 
L 1825 4091 
L 703 3866 
L 703 4441 
L 1819 4666 
L 2450 4666 
L 2450 531 
L 3481 531 
L 3481 0 
L 794 0 
L 794 531 
z
" transform="scale(0.015625)"/>
       </defs>
       <use xlink:href="#DejaVuSans-30"/>
       <use xlink:href="#DejaVuSans-2e" x="63.623047"/>
       <use xlink:href="#DejaVuSans-31" x="95.410156"/>
       <use xlink:href="#DejaVuSans-30" x="159.033203"/>
      </g>
     </g>
    </g>
    <g id="ytick_3">
     <g id="line2d_5">
      <g>
       <use xlink:href="#mf312c70f04" x="50.64375" y="154.666125" style="stroke: #000000; stroke-width: 0.8"/>
      </g>
     </g>
     <g id="text_6">
      <!-- 0.15 -->
      <g transform="translate(20.878125 158.465344) scale(0.1 -0.1)">
       <use xlink:href="#DejaVuSans-30"/>
       <use xlink:href="#DejaVuSans-2e" x="63.623047"/>
       <use xlink:href="#DejaVuSans-31" x="95.410156"/>
       <use xlink:href="#DejaVuSans-35" x="159.033203"/>
      </g>
     </g>
    </g>
    <g id="ytick_4">
     <g id="line2d_6">
      <g>
       <use xlink:href="#mf312c70f04" x="50.64375" y="110.550125" style="stroke: #000000; stroke-width: 0.8"/>
      </g>
     </g>
     <g id="text_7">
      <!-- 0.20 -->
      <g transform="translate(20.878125 114.349344) scale(0.1 -0.1)">
       <defs>
        <path id="DejaVuSans-32" d="M 1228 531 
L 3431 531 
L 3431 0 
L 469 0 
L 469 531 
Q 828 903 1448 1529 
Q 2069 2156 2228 2338 
Q 2531 2678 2651 2914 
Q 2772 3150 2772 3378 
Q 2772 3750 2511 3984 
Q 2250 4219 1831 4219 
Q 1534 4219 1204 4116 
Q 875 4013 500 3803 
L 500 4441 
Q 881 4594 1212 4672 
Q 1544 4750 1819 4750 
Q 2544 4750 2975 4387 
Q 3406 4025 3406 3419 
Q 3406 3131 3298 2873 
Q 3191 2616 2906 2266 
Q 2828 2175 2409 1742 
Q 1991 1309 1228 531 
z
" transform="scale(0.015625)"/>
       </defs>
       <use xlink:href="#DejaVuSans-30"/>
       <use xlink:href="#DejaVuSans-2e" x="63.623047"/>
       <use xlink:href="#DejaVuSans-32" x="95.410156"/>
       <use xlink:href="#DejaVuSans-30" x="159.033203"/>
      </g>
     </g>
    </g>
    <g id="ytick_5">
     <g id="line2d_7">
      <g>
       <use xlink:href="#mf312c70f04" x="50.64375" y="66.434125" style="stroke: #000000; stroke-width: 0.8"/>
      </g>
     </g>
     <g id="text_8">
      <!-- 0.25 -->
      <g transform="translate(20.878125 70.233344) scale(0.1 -0.1)">
       <use xlink:href="#DejaVuSans-30"/>
       <use xlink:href="#DejaVuSans-2e" x="63.623047"/>
       <use xlink:href="#DejaVuSans-32" x="95.410156"/>
       <use xlink:href="#DejaVuSans-35" x="159.033203"/>
      </g>
     </g>
    </g>
    <g id="ytick_6">
     <g id="line2d_8">
      <g>
       <use xlink:href="#mf312c70f04" x="50.64375" y="22.318125" style="stroke: #000000; stroke-width: 0.8"/>
      </g>
     </g>
     <g id="text_9">
      <!-- 0.30 -->
      <g transform="translate(20.878125 26.117344) scale(0.1 -0.1)">
       <defs>
        <path id="DejaVuSans-33" d="M 2597 2516 
Q 3050 2419 3304 2112 
Q 3559 1806 3559 1356 
Q 3559 666 3084 287 
Q 2609 -91 1734 -91 
Q 1441 -91 1130 -33 
Q 819 25 488 141 
L 488 750 
Q 750 597 1062 519 
Q 1375 441 1716 441 
Q 2309 441 2620 675 
Q 2931 909 2931 1356 
Q 2931 1769 2642 2001 
Q 2353 2234 1838 2234 
L 1294 2234 
L 1294 2753 
L 1863 2753 
Q 2328 2753 2575 2939 
Q 2822 3125 2822 3475 
Q 2822 3834 2567 4026 
Q 2313 4219 1838 4219 
Q 1578 4219 1281 4162 
Q 984 4106 628 3988 
L 628 4550 
Q 988 4650 1302 4700 
Q 1616 4750 1894 4750 
Q 2613 4750 3031 4423 
Q 3450 4097 3450 3541 
Q 3450 3153 3228 2886 
Q 3006 2619 2597 2516 
z
" transform="scale(0.015625)"/>
       </defs>
       <use xlink:href="#DejaVuSans-30"/>
       <use xlink:href="#DejaVuSans-2e" x="63.623047"/>
       <use xlink:href="#DejaVuSans-33" x="95.410156"/>
       <use xlink:href="#DejaVuSans-30" x="159.033203"/>
      </g>
     </g>
    </g>
    <g id="text_10">
     <!-- Accuracy -->
     <g transform="translate(14.798438 155.43625) rotate(-90) scale(0.1 -0.1)">
      <defs>
       <path id="DejaVuSans-41" d="M 2188 4044 
L 1331 1722 
L 3047 1722 
L 2188 4044 
z
M 1831 4666 
L 2547 4666 
L 4325 0 
L 3669 0 
L 3244 1197 
L 1141 1197 
L 716 0 
L 50 0 
L 1831 4666 
z
" transform="scale(0.015625)"/>
       <path id="DejaVuSans-63" d="M 3122 3366 
L 3122 2828 
Q 2878 2963 2633 3030 
Q 2388 3097 2138 3097 
Q 1578 3097 1268 2742 
Q 959 2388 959 1747 
Q 959 1106 1268 751 
Q 1578 397 2138 397 
Q 2388 397 2633 464 
Q 2878 531 3122 666 
L 3122 134 
Q 2881 22 2623 -34 
Q 2366 -91 2075 -91 
Q 1284 -91 818 406 
Q 353 903 353 1747 
Q 353 2603 823 3093 
Q 1294 3584 2113 3584 
Q 2378 3584 2631 3529 
Q 2884 3475 3122 3366 
z
" transform="scale(0.015625)"/>
       <path id="DejaVuSans-75" d="M 544 1381 
L 544 3500 
L 1119 3500 
L 1119 1403 
Q 1119 906 1312 657 
Q 1506 409 1894 409 
Q 2359 409 2629 706 
Q 2900 1003 2900 1516 
L 2900 3500 
L 3475 3500 
L 3475 0 
L 2900 0 
L 2900 538 
Q 2691 219 2414 64 
Q 2138 -91 1772 -91 
Q 1169 -91 856 284 
Q 544 659 544 1381 
z
M 1991 3584 
L 1991 3584 
z
" transform="scale(0.015625)"/>
       <path id="DejaVuSans-61" d="M 2194 1759 
Q 1497 1759 1228 1600 
Q 959 1441 959 1056 
Q 959 750 1161 570 
Q 1363 391 1709 391 
Q 2188 391 2477 730 
Q 2766 1069 2766 1631 
L 2766 1759 
L 2194 1759 
z
M 3341 1997 
L 3341 0 
L 2766 0 
L 2766 531 
Q 2569 213 2275 61 
Q 1981 -91 1556 -91 
Q 1019 -91 701 211 
Q 384 513 384 1019 
Q 384 1609 779 1909 
Q 1175 2209 1959 2209 
L 2766 2209 
L 2766 2266 
Q 2766 2663 2505 2880 
Q 2244 3097 1772 3097 
Q 1472 3097 1187 3025 
Q 903 2953 641 2809 
L 641 3341 
Q 956 3463 1253 3523 
Q 1550 3584 1831 3584 
Q 2591 3584 2966 3190 
Q 3341 2797 3341 1997 
z
" transform="scale(0.015625)"/>
       <path id="DejaVuSans-79" d="M 2059 -325 
Q 1816 -950 1584 -1140 
Q 1353 -1331 966 -1331 
L 506 -1331 
L 506 -850 
L 844 -850 
Q 1081 -850 1212 -737 
Q 1344 -625 1503 -206 
L 1606 56 
L 191 3500 
L 800 3500 
L 1894 763 
L 2988 3500 
L 3597 3500 
L 2059 -325 
z
" transform="scale(0.015625)"/>
      </defs>
      <use xlink:href="#DejaVuSans-41"/>
      <use xlink:href="#DejaVuSans-63" x="66.658203"/>
      <use xlink:href="#DejaVuSans-63" x="121.638672"/>
      <use xlink:href="#DejaVuSans-75" x="176.619141"/>
      <use xlink:href="#DejaVuSans-72" x="239.998047"/>
      <use xlink:href="#DejaVuSans-61" x="281.111328"/>
      <use xlink:href="#DejaVuSans-63" x="342.390625"/>
      <use xlink:href="#DejaVuSans-79" x="397.371094"/>
     </g>
    </g>
   </g>
   <g id="line2d_9">
    <path d="M 50.64375 189.076605 
L 279.08375 189.076605 
" clip-path="url(#pb6315fd28c)" style="fill: none; stroke-dasharray: 5.55,2.4; stroke-dashoffset: 0; stroke: #000000; stroke-width: 1.5"/>
   </g>
   <g id="line2d_10">
    <path d="M 120.932981 242.898125 
L 120.932981 22.318125 
" clip-path="url(#pb6315fd28c)" style="fill: none; stroke-dasharray: 1.5,2.475; stroke-dashoffset: 0; stroke: #000000; stroke-opacity: 0.3; stroke-width: 1.5"/>
   </g>
   <g id="line2d_11">
    <path d="M 50.64375 192.502919 
L 52.400981 191.425868 
L 54.158212 190.18726 
L 55.915442 190.83349 
L 57.672673 191.695131 
L 59.429904 193.741527 
L 61.187135 194.2262 
L 62.944365 198.695961 
L 64.701596 200.5808 
L 66.458827 201.01162 
L 68.216058 200.473095 
L 71.730519 198.426698 
L 75.244981 199.773012 
L 77.002212 199.665307 
L 80.516673 196.75727 
L 84.031135 190.83349 
L 85.788365 187.602338 
L 91.060058 180.00913 
L 92.817288 176.939535 
L 96.33175 175.862484 
L 98.088981 175.000844 
L 99.846212 175.754779 
L 101.603442 177.26265 
L 103.360673 177.531913 
L 105.117904 180.386098 
L 106.875135 180.43995 
L 110.389596 175.539369 
L 112.146827 169.723295 
L 113.904058 162.61476 
L 115.661288 159.168197 
L 117.418519 156.69098 
L 119.17575 157.552621 
L 120.932981 156.798686 
L 122.690212 155.506225 
L 124.447442 150.874906 
L 126.204673 145.920473 
L 127.961904 142.581615 
L 129.719135 141.82768 
L 131.476365 141.504564 
L 133.233596 144.197191 
L 134.990827 148.074574 
L 136.748058 149.582445 
L 138.505288 149.582445 
L 140.262519 148.936215 
L 142.01975 146.674408 
L 143.776981 142.90473 
L 145.534212 141.181449 
L 147.291442 139.242758 
L 149.048673 138.381117 
L 150.805904 135.25767 
L 152.563135 131.272582 
L 154.320365 127.718314 
L 156.077596 123.733227 
L 157.834827 122.009945 
L 161.349288 125.133393 
L 163.106519 127.287494 
L 164.86375 127.718314 
L 166.620981 127.933725 
L 168.378212 127.395199 
L 170.135442 124.164047 
L 171.892673 120.071254 
L 173.649904 115.33223 
L 175.407135 109.946977 
L 177.164365 103.269262 
L 178.921596 99.714994 
L 180.678827 94.437445 
L 184.193288 88.621371 
L 185.950519 88.836781 
L 187.70775 89.698422 
L 189.464981 90.021537 
L 191.222212 89.806127 
L 192.979442 89.806127 
L 194.736673 93.037279 
L 198.251135 104.561723 
L 200.008365 108.223695 
L 201.765596 110.916322 
L 203.522827 112.855014 
L 205.280058 113.285834 
L 207.037288 111.562553 
L 208.794519 111.131732 
L 210.55175 111.131732 
L 212.308981 110.377797 
L 214.066212 110.270092 
L 215.823442 111.347143 
L 219.337904 121.148305 
L 222.852365 135.796195 
L 224.609596 141.719975 
L 229.881288 156.26016 
L 231.638519 158.091146 
L 235.152981 160.783773 
L 236.910212 158.198852 
L 238.667442 158.521967 
L 240.424673 157.552621 
L 242.181904 153.890648 
L 243.939135 152.921303 
L 245.696365 156.367865 
L 247.453596 158.306557 
L 249.210827 163.584105 
L 250.968058 167.892309 
L 252.725288 174.031498 
L 254.482519 178.770521 
L 256.23975 181.247738 
L 257.996981 182.109379 
L 259.754212 182.055526 
L 261.511442 179.362899 
L 263.268673 177.908881 
L 265.025904 175.431664 
L 266.783135 173.277562 
L 268.540365 173.708383 
L 270.297596 174.785434 
L 272.054827 176.939535 
L 273.812058 180.00913 
L 275.569288 180.709213 
L 277.326519 181.732411 
L 279.08375 181.732411 
L 279.08375 181.732411 
" clip-path="url(#pb6315fd28c)" style="fill: none; stroke: #f14432; stroke-width: 1.5; stroke-linecap: square"/>
   </g>
   <g id="line2d_12">
    <path d="M 50.64375 187.602338 
L 52.400981 188.248568 
L 54.158212 188.463979 
L 57.672673 189.97185 
L 59.429904 189.271767 
L 61.187135 189.164062 
L 62.944365 188.571684 
L 64.701596 188.517831 
L 66.458827 189.864145 
L 68.216058 189.056356 
L 69.973288 188.463979 
L 71.730519 189.864145 
L 73.48775 189.433324 
L 77.002212 191.641278 
L 78.759442 192.018246 
L 80.516673 191.533573 
L 82.273904 191.264311 
L 84.031135 190.18726 
L 85.788365 190.348817 
L 87.545596 190.779638 
L 89.302827 190.995048 
L 91.060058 190.40267 
L 92.817288 189.379472 
L 94.574519 190.025702 
L 96.33175 189.97185 
L 98.088981 189.648734 
L 99.846212 190.294965 
L 101.603442 189.487177 
L 103.360673 189.594882 
L 105.117904 189.325619 
L 106.875135 189.594882 
L 108.632365 188.625536 
L 110.389596 188.248568 
L 112.146827 189.110209 
L 115.661288 188.356273 
L 117.418519 189.217914 
L 119.17575 188.679389 
L 120.932981 189.217914 
L 122.690212 189.217914 
L 124.447442 189.487177 
L 126.204673 189.110209 
L 127.961904 188.948651 
L 129.719135 188.571684 
L 131.476365 188.733241 
L 133.233596 188.517831 
L 134.990827 189.648734 
L 136.748058 189.541029 
L 138.505288 189.864145 
L 140.262519 189.702587 
L 142.01975 189.056356 
L 143.776981 189.648734 
L 145.534212 189.433324 
L 147.291442 189.541029 
L 149.048673 190.887343 
L 150.805904 189.648734 
L 152.563135 188.625536 
L 154.320365 187.871601 
L 156.077596 187.817748 
L 159.592058 188.140863 
L 161.349288 188.517831 
L 163.106519 188.733241 
L 164.86375 187.710043 
L 166.620981 187.548485 
L 168.378212 188.625536 
L 170.135442 189.110209 
L 171.892673 189.110209 
L 173.649904 188.787094 
L 175.407135 188.948651 
L 177.164365 189.648734 
L 178.921596 188.140863 
L 180.678827 189.164062 
L 182.436058 189.379472 
L 184.193288 189.002504 
L 185.950519 187.171518 
L 187.70775 187.817748 
L 189.464981 189.379472 
L 191.222212 189.110209 
L 192.979442 189.110209 
L 196.493904 190.510375 
L 198.251135 190.294965 
L 200.008365 189.271767 
L 201.765596 189.164062 
L 205.280058 190.294965 
L 207.037288 189.97185 
L 208.794519 188.248568 
L 210.55175 188.194716 
L 212.308981 188.840946 
L 214.066212 188.517831 
L 215.823442 189.325619 
L 217.580673 189.917997 
L 219.337904 189.702587 
L 221.095135 188.463979 
L 222.852365 188.302421 
L 224.609596 187.22537 
L 226.366827 186.848402 
L 228.124058 185.771352 
L 229.881288 185.232826 
L 231.638519 186.57914 
L 233.39575 186.686845 
L 235.152981 185.932909 
L 236.910212 186.094467 
L 238.667442 185.125121 
L 240.424673 185.986762 
L 242.181904 185.879057 
L 245.696365 187.494633 
L 247.453596 187.817748 
L 249.210827 187.871601 
L 250.968058 188.140863 
L 252.725288 187.925453 
L 254.482519 188.194716 
L 256.23975 187.22537 
L 261.511442 188.356273 
L 263.268673 188.410126 
L 265.025904 189.110209 
L 266.783135 187.333075 
L 268.540365 187.925453 
L 270.297596 188.087011 
L 272.054827 187.494633 
L 273.812058 187.548485 
L 277.326519 188.894799 
L 279.08375 188.948651 
L 279.08375 188.948651 
" clip-path="url(#pb6315fd28c)" style="fill: none; stroke: #4a98c9; stroke-width: 1.5; stroke-linecap: square"/>
   </g>
   <g id="patch_64">
    <path d="M 50.64375 242.898125 
L 50.64375 22.318125 
" style="fill: none; stroke: #000000; stroke-width: 0.8; stroke-linejoin: miter; stroke-linecap: square"/>
   </g>
   <g id="patch_65">
    <path d="M 50.64375 242.898125 
L 279.08375 242.898125 
" style="fill: none; stroke: #000000; stroke-width: 0.8; stroke-linejoin: miter; stroke-linecap: square"/>
   </g>
   <g id="text_11">
    <!-- aud -->
    <g transform="translate(153.575312 16.318125) scale(0.12 -0.12)">
     <defs>
      <path id="DejaVuSans-64" d="M 2906 2969 
L 2906 4863 
L 3481 4863 
L 3481 0 
L 2906 0 
L 2906 525 
Q 2725 213 2448 61 
Q 2172 -91 1784 -91 
Q 1150 -91 751 415 
Q 353 922 353 1747 
Q 353 2572 751 3078 
Q 1150 3584 1784 3584 
Q 2172 3584 2448 3432 
Q 2725 3281 2906 2969 
z
M 947 1747 
Q 947 1113 1208 752 
Q 1469 391 1925 391 
Q 2381 391 2643 752 
Q 2906 1113 2906 1747 
Q 2906 2381 2643 2742 
Q 2381 3103 1925 3103 
Q 1469 3103 1208 2742 
Q 947 2381 947 1747 
z
" transform="scale(0.015625)"/>
     </defs>
     <use xlink:href="#DejaVuSans-61"/>
     <use xlink:href="#DejaVuSans-75" x="61.279297"/>
     <use xlink:href="#DejaVuSans-64" x="124.658203"/>
    </g>
   </g>
   <g id="legend_1">
    <g id="line2d_13">
     <path d="M 61.44375 38.03625 
L 73.44375 38.03625 
L 85.44375 38.03625 
" style="fill: none; stroke: #f14432; stroke-width: 1.5; stroke-linecap: square"/>
    </g>
    <g id="text_12">
     <!-- True - 1st phoneme -->
     <g transform="translate(95.04375 42.23625) scale(0.12 -0.12)">
      <defs>
       <path id="DejaVuSans-2d" d="M 313 2009 
L 1997 2009 
L 1997 1497 
L 313 1497 
L 313 2009 
z
" transform="scale(0.015625)"/>
       <path id="DejaVuSans-70" d="M 1159 525 
L 1159 -1331 
L 581 -1331 
L 581 3500 
L 1159 3500 
L 1159 2969 
Q 1341 3281 1617 3432 
Q 1894 3584 2278 3584 
Q 2916 3584 3314 3078 
Q 3713 2572 3713 1747 
Q 3713 922 3314 415 
Q 2916 -91 2278 -91 
Q 1894 -91 1617 61 
Q 1341 213 1159 525 
z
M 3116 1747 
Q 3116 2381 2855 2742 
Q 2594 3103 2138 3103 
Q 1681 3103 1420 2742 
Q 1159 2381 1159 1747 
Q 1159 1113 1420 752 
Q 1681 391 2138 391 
Q 2594 391 2855 752 
Q 3116 1113 3116 1747 
z
" transform="scale(0.015625)"/>
       <path id="DejaVuSans-68" d="M 3513 2113 
L 3513 0 
L 2938 0 
L 2938 2094 
Q 2938 2591 2744 2837 
Q 2550 3084 2163 3084 
Q 1697 3084 1428 2787 
Q 1159 2491 1159 1978 
L 1159 0 
L 581 0 
L 581 4863 
L 1159 4863 
L 1159 2956 
Q 1366 3272 1645 3428 
Q 1925 3584 2291 3584 
Q 2894 3584 3203 3211 
Q 3513 2838 3513 2113 
z
" transform="scale(0.015625)"/>
      </defs>
      <use xlink:href="#DejaVuSans-54"/>
      <use xlink:href="#DejaVuSans-72" x="46.333984"/>
      <use xlink:href="#DejaVuSans-75" x="87.447266"/>
      <use xlink:href="#DejaVuSans-65" x="150.826172"/>
      <use xlink:href="#DejaVuSans-20" x="212.349609"/>
      <use xlink:href="#DejaVuSans-2d" x="244.136719"/>
      <use xlink:href="#DejaVuSans-20" x="280.220703"/>
      <use xlink:href="#DejaVuSans-31" x="312.007812"/>
      <use xlink:href="#DejaVuSans-73" x="375.630859"/>
      <use xlink:href="#DejaVuSans-74" x="427.730469"/>
      <use xlink:href="#DejaVuSans-20" x="466.939453"/>
      <use xlink:href="#DejaVuSans-70" x="498.726562"/>
      <use xlink:href="#DejaVuSans-68" x="562.203125"/>
      <use xlink:href="#DejaVuSans-6f" x="625.582031"/>
      <use xlink:href="#DejaVuSans-6e" x="686.763672"/>
      <use xlink:href="#DejaVuSans-65" x="750.142578"/>
      <use xlink:href="#DejaVuSans-6d" x="811.666016"/>
      <use xlink:href="#DejaVuSans-65" x="909.078125"/>
     </g>
    </g>
    <g id="line2d_14">
     <path d="M 61.44375 55.65 
L 73.44375 55.65 
L 85.44375 55.65 
" style="fill: none; stroke: #4a98c9; stroke-width: 1.5; stroke-linecap: square"/>
    </g>
    <g id="text_13">
     <!-- Shuffle -->
     <g transform="translate(95.04375 59.85) scale(0.12 -0.12)">
      <defs>
       <path id="DejaVuSans-53" d="M 3425 4513 
L 3425 3897 
Q 3066 4069 2747 4153 
Q 2428 4238 2131 4238 
Q 1616 4238 1336 4038 
Q 1056 3838 1056 3469 
Q 1056 3159 1242 3001 
Q 1428 2844 1947 2747 
L 2328 2669 
Q 3034 2534 3370 2195 
Q 3706 1856 3706 1288 
Q 3706 609 3251 259 
Q 2797 -91 1919 -91 
Q 1588 -91 1214 -16 
Q 841 59 441 206 
L 441 856 
Q 825 641 1194 531 
Q 1563 422 1919 422 
Q 2459 422 2753 634 
Q 3047 847 3047 1241 
Q 3047 1584 2836 1778 
Q 2625 1972 2144 2069 
L 1759 2144 
Q 1053 2284 737 2584 
Q 422 2884 422 3419 
Q 422 4038 858 4394 
Q 1294 4750 2059 4750 
Q 2388 4750 2728 4690 
Q 3069 4631 3425 4513 
z
" transform="scale(0.015625)"/>
       <path id="DejaVuSans-6c" d="M 603 4863 
L 1178 4863 
L 1178 0 
L 603 0 
L 603 4863 
z
" transform="scale(0.015625)"/>
      </defs>
      <use xlink:href="#DejaVuSans-53"/>
      <use xlink:href="#DejaVuSans-68" x="63.476562"/>
      <use xlink:href="#DejaVuSans-75" x="126.855469"/>
      <use xlink:href="#DejaVuSans-66" x="190.234375"/>
      <use xlink:href="#DejaVuSans-66" x="225.439453"/>
      <use xlink:href="#DejaVuSans-6c" x="260.644531"/>
      <use xlink:href="#DejaVuSans-65" x="288.427734"/>
     </g>
    </g>
   </g>
  </g>
  <g id="axes_2">
   <g id="patch_66">
    <path d="M 333.24375 242.898125 
L 561.68375 242.898125 
L 561.68375 22.318125 
L 333.24375 22.318125 
z
" style="fill: #ffffff"/>
   </g>
   <g id="PolyCollection_3">
    <defs>
     <path id="m1cf1608514" d="M 333.24375 -83.22776 
L 333.24375 -53.070338 
L 335.000981 -54.793619 
L 336.758212 -56.247638 
L 338.515442 -59.155675 
L 340.272673 -62.817647 
L 342.029904 -64.702486 
L 343.787135 -65.994947 
L 345.544365 -64.864044 
L 347.301596 -64.810191 
L 349.058827 -63.140763 
L 350.816058 -66.210357 
L 352.573288 -67.448966 
L 354.330519 -71.380201 
L 356.08775 -75.149879 
L 357.844981 -77.034718 
L 359.602212 -80.642838 
L 361.359442 -79.565787 
L 363.116673 -79.350377 
L 364.873904 -79.673492 
L 366.631135 -79.404229 
L 368.388365 -81.612184 
L 370.145596 -85.166451 
L 371.902827 -89.474654 
L 373.660058 -88.989981 
L 375.417288 -91.197936 
L 377.174519 -93.136627 
L 378.93175 -94.967613 
L 380.688981 -95.236876 
L 382.446212 -95.344581 
L 384.203442 -93.352037 
L 385.960673 -91.844166 
L 387.717904 -88.343751 
L 389.475135 -86.889732 
L 391.232365 -86.028092 
L 392.989596 -83.981695 
L 394.746827 -85.974239 
L 396.504058 -89.905475 
L 398.261288 -94.967613 
L 400.018519 -104.01484 
L 401.77575 -109.507799 
L 403.532981 -114.031412 
L 405.290212 -111.338785 
L 407.047442 -111.01567 
L 408.804673 -110.907965 
L 410.561904 -111.338785 
L 412.319135 -110.58485 
L 414.076365 -104.337955 
L 415.833596 -100.083604 
L 417.590827 -96.260074 
L 419.348058 -97.067862 
L 421.105288 -96.044664 
L 422.862519 -98.791144 
L 424.61975 -101.05295 
L 426.376981 -101.322213 
L 428.134212 -100.19131 
L 429.891442 -98.091061 
L 431.648673 -95.613844 
L 433.405904 -89.959327 
L 435.163135 -87.428258 
L 436.920365 -84.412516 
L 438.677596 -83.22776 
L 440.434827 -82.689234 
L 442.192058 -80.48128 
L 443.949288 -77.680948 
L 445.706519 -80.965953 
L 447.46375 -84.843336 
L 449.220981 -90.497853 
L 450.978212 -98.521881 
L 452.735442 -102.237706 
L 454.492673 -107.245992 
L 456.249904 -105.953531 
L 458.007135 -104.768775 
L 459.764365 -103.79943 
L 461.521596 -102.345411 
L 463.278827 -102.668526 
L 465.036058 -101.968443 
L 466.793288 -104.337955 
L 468.550519 -106.061236 
L 470.30775 -109.938619 
L 472.064981 -110.58485 
L 473.822212 -110.80026 
L 475.579442 -112.092721 
L 477.336673 -116.616334 
L 479.093904 -117.58568 
L 480.851135 -120.601422 
L 482.608365 -118.66273 
L 484.365596 -119.308961 
L 486.122827 -117.262564 
L 487.880058 -116.185514 
L 489.637288 -116.831744 
L 491.394519 -115.754693 
L 493.15175 -114.893053 
L 494.908981 -116.724039 
L 496.666212 -123.940279 
L 498.423442 -124.155689 
L 500.180673 -121.355357 
L 501.937904 -116.508629 
L 503.695135 -113.708297 
L 505.452365 -106.061236 
L 507.209596 -100.999098 
L 508.966827 -96.206222 
L 510.724058 -91.305641 
L 512.481288 -85.381861 
L 514.238519 -83.65858 
L 515.99575 -83.389317 
L 517.752981 -87.643668 
L 519.510212 -87.966783 
L 521.267442 -89.582359 
L 523.024673 -88.074488 
L 524.781904 -86.351207 
L 526.539135 -86.243502 
L 528.296365 -85.435714 
L 530.053596 -82.473824 
L 531.810827 -81.773741 
L 533.568058 -80.912101 
L 535.325288 -81.450626 
L 537.082519 -80.427428 
L 538.83975 -80.858248 
L 540.596981 -83.44317 
L 542.354212 -87.212848 
L 544.111442 -90.87482 
L 545.868673 -93.244332 
L 547.625904 -96.637042 
L 549.383135 -95.613844 
L 551.140365 -95.775401 
L 552.897596 -94.806056 
L 554.654827 -93.675152 
L 556.412058 -93.244332 
L 558.169288 -93.998268 
L 559.926519 -92.274986 
L 561.68375 -88.451456 
L 561.68375 -116.724039 
L 561.68375 -116.724039 
L 559.926519 -119.201256 
L 558.169288 -122.001588 
L 556.412058 -125.771266 
L 554.654827 -129.002418 
L 552.897596 -130.941109 
L 551.140365 -131.479635 
L 549.383135 -130.941109 
L 547.625904 -132.987506 
L 545.868673 -130.510289 
L 544.111442 -126.417496 
L 542.354212 -121.678473 
L 540.596981 -117.047154 
L 538.83975 -115.539283 
L 537.082519 -114.354527 
L 535.325288 -113.169771 
L 533.568058 -110.907965 
L 531.810827 -108.323043 
L 530.053596 -110.907965 
L 528.296365 -112.415836 
L 526.539135 -114.462232 
L 524.781904 -115.000758 
L 523.024673 -119.524371 
L 521.267442 -122.324703 
L 519.510212 -122.216998 
L 517.752981 -119.632076 
L 515.99575 -116.831744 
L 514.238519 -114.462232 
L 512.481288 -116.724039 
L 510.724058 -120.170602 
L 508.966827 -125.986676 
L 507.209596 -132.879801 
L 505.452365 -140.311451 
L 503.695135 -146.01982 
L 501.937904 -153.343766 
L 500.180673 -157.544264 
L 498.423442 -161.421646 
L 496.666212 -159.913775 
L 494.908981 -159.59066 
L 493.15175 -157.759674 
L 491.394519 -154.528521 
L 489.637288 -155.174752 
L 487.880058 -155.605572 
L 486.122827 -155.174752 
L 484.365596 -154.420816 
L 482.608365 -154.851637 
L 480.851135 -154.636227 
L 479.093904 -152.266715 
L 477.336673 -148.712447 
L 475.579442 -146.127525 
L 473.822212 -144.835064 
L 472.064981 -145.696705 
L 470.30775 -145.696705 
L 468.550519 -144.619654 
L 466.793288 -143.111783 
L 465.036058 -139.01899 
L 463.278827 -136.003248 
L 461.521596 -137.295709 
L 459.764365 -138.695875 
L 458.007135 -140.096041 
L 456.249904 -141.496207 
L 454.492673 -143.004078 
L 452.735442 -139.342105 
L 450.978212 -134.495377 
L 449.220981 -126.956021 
L 447.46375 -122.324703 
L 445.706519 -116.939449 
L 443.949288 -115.323873 
L 442.192058 -116.831744 
L 440.434827 -116.400924 
L 438.677596 -118.0165 
L 436.920365 -117.262564 
L 435.163135 -119.955191 
L 433.405904 -122.432408 
L 431.648673 -124.047984 
L 429.891442 -127.817662 
L 428.134212 -131.80275 
L 426.376981 -133.202916 
L 424.61975 -131.37193 
L 422.862519 -126.740611 
L 421.105288 -124.047984 
L 419.348058 -124.58651 
L 417.590827 -127.925367 
L 415.833596 -133.310621 
L 414.076365 -138.37276 
L 412.319135 -145.912115 
L 410.561904 -145.80441 
L 408.804673 -145.80441 
L 407.047442 -146.558346 
L 405.290212 -147.096871 
L 403.532981 -145.696705 
L 401.77575 -142.250143 
L 400.018519 -135.033902 
L 398.261288 -126.632906 
L 396.504058 -121.139947 
L 394.746827 -116.616334 
L 392.989596 -115.862398 
L 391.232365 -115.323873 
L 389.475135 -117.37027 
L 387.717904 -119.739781 
L 385.960673 -121.139947 
L 384.203442 -123.940279 
L 382.446212 -123.617164 
L 380.688981 -125.878971 
L 378.93175 -128.787008 
L 377.174519 -128.248482 
L 375.417288 -125.23274 
L 373.660058 -123.832574 
L 371.902827 -120.924537 
L 370.145596 -118.555025 
L 368.388365 -114.569937 
L 366.631135 -112.631246 
L 364.873904 -112.415836 
L 363.116673 -113.277477 
L 361.359442 -113.169771 
L 359.602212 -112.308131 
L 357.844981 -110.369439 
L 356.08775 -107.030582 
L 354.330519 -102.399264 
L 352.573288 -97.175567 
L 350.816058 -94.105973 
L 349.058827 -90.390147 
L 347.301596 -86.243502 
L 345.544365 -88.343751 
L 343.787135 -89.043834 
L 342.029904 -88.613014 
L 340.272673 -87.374405 
L 338.515442 -84.466368 
L 336.758212 -84.466368 
L 335.000981 -83.981695 
L 333.24375 -83.22776 
z
"/>
    </defs>
    <g clip-path="url(#p526eda796d)">
     <use xlink:href="#m1cf1608514" x="0" y="280.954375" style="fill: #f14432; fill-opacity: 0.2"/>
    </g>
   </g>
   <g id="PolyCollection_4">
    <defs>
     <path id="me56506a83b" d="M 333.24375 -99.437374 
L 333.24375 -83.497022 
L 335.000981 -82.258414 
L 336.758212 -83.981695 
L 338.515442 -84.250958 
L 340.272673 -84.627926 
L 342.029904 -82.096856 
L 343.787135 -82.258414 
L 345.544365 -81.342921 
L 347.301596 -81.666036 
L 349.058827 -81.289068 
L 350.816058 -81.827594 
L 352.573288 -83.497022 
L 354.330519 -85.543419 
L 356.08775 -86.728175 
L 357.844981 -84.897188 
L 359.602212 -84.789483 
L 361.359442 -85.920387 
L 363.116673 -85.220304 
L 364.873904 -85.166451 
L 366.631135 -85.974239 
L 368.388365 -85.812682 
L 370.145596 -86.028092 
L 371.902827 -86.889732 
L 373.660058 -83.712433 
L 375.417288 -85.381861 
L 377.174519 -84.843336 
L 378.93175 -85.004894 
L 380.688981 -84.412516 
L 382.446212 -82.581529 
L 384.203442 -82.689234 
L 385.960673 -81.773741 
L 387.717904 -81.450626 
L 389.475135 -81.935299 
L 391.232365 -82.743087 
L 392.989596 -84.520221 
L 394.746827 -84.627926 
L 396.504058 -83.927843 
L 398.261288 -82.850792 
L 400.018519 -81.558331 
L 401.77575 -81.342921 
L 403.532981 -83.927843 
L 405.290212 -83.01235 
L 407.047442 -79.61964 
L 408.804673 -80.750543 
L 410.561904 -80.48128 
L 412.319135 -81.235216 
L 414.076365 -80.26587 
L 415.833596 -81.666036 
L 417.590827 -82.581529 
L 419.348058 -81.935299 
L 421.105288 -81.935299 
L 422.862519 -82.366119 
L 424.61975 -82.743087 
L 426.376981 -84.035548 
L 428.134212 -86.243502 
L 429.891442 -86.243502 
L 431.648673 -84.789483 
L 433.405904 -85.866534 
L 435.163135 -85.543419 
L 436.920365 -83.335465 
L 438.677596 -83.927843 
L 440.434827 -82.958497 
L 442.192058 -85.004894 
L 443.949288 -86.028092 
L 445.706519 -85.812682 
L 447.46375 -85.597271 
L 449.220981 -84.627926 
L 450.978212 -85.381861 
L 452.735442 -83.981695 
L 454.492673 -84.520221 
L 456.249904 -85.866534 
L 458.007135 -85.166451 
L 459.764365 -85.920387 
L 461.521596 -84.250958 
L 463.278827 -85.812682 
L 465.036058 -85.381861 
L 466.793288 -83.604728 
L 468.550519 -82.527677 
L 470.30775 -85.274156 
L 472.064981 -84.951041 
L 473.822212 -84.627926 
L 475.579442 -84.897188 
L 477.336673 -83.766285 
L 479.093904 -83.927843 
L 480.851135 -83.927843 
L 482.608365 -85.651124 
L 484.365596 -85.489566 
L 486.122827 -84.358663 
L 487.880058 -83.981695 
L 489.637288 -82.635382 
L 491.394519 -83.120055 
L 493.15175 -82.743087 
L 494.908981 -82.904645 
L 496.666212 -82.096856 
L 498.423442 -83.927843 
L 500.180673 -85.381861 
L 501.937904 -84.951041 
L 503.695135 -84.951041 
L 505.452365 -85.166451 
L 507.209596 -85.381861 
L 508.966827 -84.627926 
L 510.724058 -85.651124 
L 512.481288 -84.197105 
L 514.238519 -82.689234 
L 515.99575 -85.866534 
L 517.752981 -84.358663 
L 519.510212 -83.22776 
L 521.267442 -82.150709 
L 523.024673 -84.304811 
L 524.781904 -85.597271 
L 526.539135 -84.951041 
L 528.296365 -84.466368 
L 530.053596 -85.328009 
L 531.810827 -83.335465 
L 533.568058 -82.204562 
L 535.325288 -80.750543 
L 537.082519 -82.473824 
L 538.83975 -83.820138 
L 540.596981 -83.44317 
L 542.354212 -82.581529 
L 544.111442 -83.173907 
L 545.868673 -83.22776 
L 547.625904 -81.881446 
L 549.383135 -81.989151 
L 551.140365 -81.181363 
L 552.897596 -81.666036 
L 554.654827 -81.289068 
L 556.412058 -82.796939 
L 558.169288 -83.550875 
L 559.926519 -82.581529 
L 561.68375 -81.181363 
L 561.68375 -98.521881 
L 561.68375 -98.521881 
L 559.926519 -99.706637 
L 558.169288 -99.275816 
L 556.412058 -100.245162 
L 554.654827 -99.060406 
L 552.897596 -100.299015 
L 551.140365 -98.521881 
L 549.383135 -97.714093 
L 547.625904 -96.637042 
L 545.868673 -97.66024 
L 544.111442 -99.221964 
L 542.354212 -100.675982 
L 540.596981 -99.814342 
L 538.83975 -99.221964 
L 537.082519 -99.383521 
L 535.325288 -100.783687 
L 533.568058 -99.545079 
L 531.810827 -102.614674 
L 530.053596 -101.591476 
L 528.296365 -101.376065 
L 526.539135 -100.137457 
L 524.781904 -100.245162 
L 523.024673 -102.614674 
L 521.267442 -101.860738 
L 519.510212 -102.076148 
L 517.752981 -102.237706 
L 515.99575 -102.130001 
L 514.238519 -101.968443 
L 512.481288 -101.322213 
L 510.724058 -100.40672 
L 508.966827 -100.891393 
L 507.209596 -101.968443 
L 505.452365 -99.706637 
L 503.695135 -100.568277 
L 501.937904 -103.476314 
L 500.180673 -103.045494 
L 498.423442 -100.945245 
L 496.666212 -99.114259 
L 494.908981 -99.706637 
L 493.15175 -99.221964 
L 491.394519 -100.352867 
L 489.637288 -100.19131 
L 487.880058 -100.137457 
L 486.122827 -100.729835 
L 484.365596 -100.999098 
L 482.608365 -100.40672 
L 480.851135 -100.40672 
L 479.093904 -99.221964 
L 477.336673 -100.029752 
L 475.579442 -100.083604 
L 473.822212 -99.275816 
L 472.064981 -99.491227 
L 470.30775 -100.029752 
L 468.550519 -98.898849 
L 466.793288 -99.006554 
L 465.036058 -100.245162 
L 463.278827 -99.168111 
L 461.521596 -99.221964 
L 459.764365 -100.245162 
L 458.007135 -101.645328 
L 456.249904 -101.26836 
L 454.492673 -100.137457 
L 452.735442 -99.922047 
L 450.978212 -99.275816 
L 449.220981 -100.891393 
L 447.46375 -99.275816 
L 445.706519 -99.598932 
L 443.949288 -98.844996 
L 442.192058 -99.221964 
L 440.434827 -99.437374 
L 438.677596 -100.083604 
L 436.920365 -100.999098 
L 435.163135 -99.114259 
L 433.405904 -98.791144 
L 431.648673 -99.652784 
L 429.891442 -98.629586 
L 428.134212 -99.922047 
L 426.376981 -99.545079 
L 424.61975 -98.683438 
L 422.862519 -99.922047 
L 421.105288 -97.44483 
L 419.348058 -96.260074 
L 417.590827 -97.552535 
L 415.833596 -98.898849 
L 414.076365 -99.437374 
L 412.319135 -99.006554 
L 410.561904 -98.683438 
L 408.804673 -96.7986 
L 407.047442 -96.637042 
L 405.290212 -96.475484 
L 403.532981 -96.960157 
L 401.77575 -96.637042 
L 400.018519 -97.714093 
L 398.261288 -97.390978 
L 396.504058 -97.498683 
L 394.746827 -97.01401 
L 392.989596 -97.767945 
L 391.232365 -96.960157 
L 389.475135 -97.44483 
L 387.717904 -98.360323 
L 385.960673 -101.26836 
L 384.203442 -99.814342 
L 382.446212 -100.460572 
L 380.688981 -99.491227 
L 378.93175 -101.591476 
L 377.174519 -101.106803 
L 375.417288 -101.645328 
L 373.660058 -100.62213 
L 371.902827 -101.214508 
L 370.145596 -101.214508 
L 368.388365 -100.675982 
L 366.631135 -102.883937 
L 364.873904 -101.968443 
L 363.116673 -100.514425 
L 361.359442 -101.322213 
L 359.602212 -101.160655 
L 357.844981 -102.453116 
L 356.08775 -100.729835 
L 354.330519 -102.345411 
L 352.573288 -101.160655 
L 350.816058 -102.076148 
L 349.058827 -101.429918 
L 347.301596 -102.668526 
L 345.544365 -99.975899 
L 343.787135 -100.460572 
L 342.029904 -99.221964 
L 340.272673 -98.737291 
L 338.515442 -100.945245 
L 336.758212 -100.568277 
L 335.000981 -99.922047 
L 333.24375 -99.437374 
z
"/>
    </defs>
    <g clip-path="url(#p526eda796d)">
     <use xlink:href="#me56506a83b" x="0" y="280.954375" style="fill: #4a98c9; fill-opacity: 0.2"/>
    </g>
   </g>
   <g id="patch_67">
    <path d="M 468.550519 227.457525 
L 470.30775 227.457525 
L 470.30775 223.045925 
L 468.550519 223.045925 
z
" clip-path="url(#p526eda796d)" style="fill: #f14432"/>
   </g>
   <g id="patch_68">
    <path d="M 470.30775 227.457525 
L 472.064981 227.457525 
L 472.064981 223.045925 
L 470.30775 223.045925 
z
" clip-path="url(#p526eda796d)" style="fill: #f14432"/>
   </g>
   <g id="patch_69">
    <path d="M 472.064981 227.457525 
L 473.822212 227.457525 
L 473.822212 223.045925 
L 472.064981 223.045925 
z
" clip-path="url(#p526eda796d)" style="fill: #f14432"/>
   </g>
   <g id="patch_70">
    <path d="M 473.822212 227.457525 
L 475.579442 227.457525 
L 475.579442 223.045925 
L 473.822212 223.045925 
z
" clip-path="url(#p526eda796d)" style="fill: #f14432"/>
   </g>
   <g id="patch_71">
    <path d="M 475.579442 227.457525 
L 477.336673 227.457525 
L 477.336673 223.045925 
L 475.579442 223.045925 
z
" clip-path="url(#p526eda796d)" style="fill: #f14432"/>
   </g>
   <g id="patch_72">
    <path d="M 477.336673 227.457525 
L 479.093904 227.457525 
L 479.093904 223.045925 
L 477.336673 223.045925 
z
" clip-path="url(#p526eda796d)" style="fill: #f14432"/>
   </g>
   <g id="patch_73">
    <path d="M 479.093904 227.457525 
L 480.851135 227.457525 
L 480.851135 223.045925 
L 479.093904 223.045925 
z
" clip-path="url(#p526eda796d)" style="fill: #f14432"/>
   </g>
   <g id="patch_74">
    <path d="M 480.851135 227.457525 
L 482.608365 227.457525 
L 482.608365 223.045925 
L 480.851135 223.045925 
z
" clip-path="url(#p526eda796d)" style="fill: #f14432"/>
   </g>
   <g id="patch_75">
    <path d="M 482.608365 227.457525 
L 484.365596 227.457525 
L 484.365596 223.045925 
L 482.608365 223.045925 
z
" clip-path="url(#p526eda796d)" style="fill: #f14432"/>
   </g>
   <g id="patch_76">
    <path d="M 484.365596 227.457525 
L 486.122827 227.457525 
L 486.122827 223.045925 
L 484.365596 223.045925 
z
" clip-path="url(#p526eda796d)" style="fill: #f14432"/>
   </g>
   <g id="patch_77">
    <path d="M 486.122827 227.457525 
L 487.880058 227.457525 
L 487.880058 223.045925 
L 486.122827 223.045925 
z
" clip-path="url(#p526eda796d)" style="fill: #f14432"/>
   </g>
   <g id="patch_78">
    <path d="M 487.880058 227.457525 
L 489.637288 227.457525 
L 489.637288 223.045925 
L 487.880058 223.045925 
z
" clip-path="url(#p526eda796d)" style="fill: #f14432"/>
   </g>
   <g id="patch_79">
    <path d="M 489.637288 227.457525 
L 491.394519 227.457525 
L 491.394519 223.045925 
L 489.637288 223.045925 
z
" clip-path="url(#p526eda796d)" style="fill: #f14432"/>
   </g>
   <g id="patch_80">
    <path d="M 491.394519 227.457525 
L 493.15175 227.457525 
L 493.15175 223.045925 
L 491.394519 223.045925 
z
" clip-path="url(#p526eda796d)" style="fill: #f14432"/>
   </g>
   <g id="patch_81">
    <path d="M 493.15175 227.457525 
L 494.908981 227.457525 
L 494.908981 223.045925 
L 493.15175 223.045925 
z
" clip-path="url(#p526eda796d)" style="fill: #f14432"/>
   </g>
   <g id="patch_82">
    <path d="M 494.908981 227.457525 
L 496.666212 227.457525 
L 496.666212 223.045925 
L 494.908981 223.045925 
z
" clip-path="url(#p526eda796d)" style="fill: #f14432"/>
   </g>
   <g id="patch_83">
    <path d="M 496.666212 227.457525 
L 498.423442 227.457525 
L 498.423442 223.045925 
L 496.666212 223.045925 
z
" clip-path="url(#p526eda796d)" style="fill: #f14432"/>
   </g>
   <g id="patch_84">
    <path d="M 498.423442 227.457525 
L 500.180673 227.457525 
L 500.180673 223.045925 
L 498.423442 223.045925 
z
" clip-path="url(#p526eda796d)" style="fill: #f14432"/>
   </g>
   <g id="patch_85">
    <path d="M 500.180673 227.457525 
L 501.937904 227.457525 
L 501.937904 223.045925 
L 500.180673 223.045925 
z
" clip-path="url(#p526eda796d)" style="fill: #f14432"/>
   </g>
   <g id="patch_86">
    <path d="M 501.937904 227.457525 
L 503.695135 227.457525 
L 503.695135 223.045925 
L 501.937904 223.045925 
z
" clip-path="url(#p526eda796d)" style="fill: #f14432"/>
   </g>
   <g id="patch_87">
    <path d="M 503.695135 227.457525 
L 505.452365 227.457525 
L 505.452365 223.045925 
L 503.695135 223.045925 
z
" clip-path="url(#p526eda796d)" style="fill: #f14432"/>
   </g>
   <g id="matplotlib.axis_3">
    <g id="xtick_3">
     <g id="line2d_15">
      <g>
       <use xlink:href="#m1cf02a6098" x="403.532981" y="242.898125" style="stroke: #000000; stroke-width: 0.8"/>
      </g>
     </g>
     <g id="text_14">
      <!-- 0.0 -->
      <g transform="translate(395.581418 257.996562) scale(0.1 -0.1)">
       <use xlink:href="#DejaVuSans-30"/>
       <use xlink:href="#DejaVuSans-2e" x="63.623047"/>
       <use xlink:href="#DejaVuSans-30" x="95.410156"/>
      </g>
     </g>
    </g>
    <g id="xtick_4">
     <g id="line2d_16">
      <g>
       <use xlink:href="#m1cf02a6098" x="491.394519" y="242.898125" style="stroke: #000000; stroke-width: 0.8"/>
      </g>
     </g>
     <g id="text_15">
      <!-- 0.5 -->
      <g transform="translate(483.442957 257.996562) scale(0.1 -0.1)">
       <use xlink:href="#DejaVuSans-30"/>
       <use xlink:href="#DejaVuSans-2e" x="63.623047"/>
       <use xlink:href="#DejaVuSans-35" x="95.410156"/>
      </g>
     </g>
    </g>
    <g id="text_16">
     <!-- Time from Onset (s) -->
     <g transform="translate(397.577812 271.674687) scale(0.1 -0.1)">
      <use xlink:href="#DejaVuSans-54"/>
      <use xlink:href="#DejaVuSans-69" x="57.958984"/>
      <use xlink:href="#DejaVuSans-6d" x="85.742188"/>
      <use xlink:href="#DejaVuSans-65" x="183.154297"/>
      <use xlink:href="#DejaVuSans-20" x="244.677734"/>
      <use xlink:href="#DejaVuSans-66" x="276.464844"/>
      <use xlink:href="#DejaVuSans-72" x="311.669922"/>
      <use xlink:href="#DejaVuSans-6f" x="350.533203"/>
      <use xlink:href="#DejaVuSans-6d" x="411.714844"/>
      <use xlink:href="#DejaVuSans-20" x="509.126953"/>
      <use xlink:href="#DejaVuSans-4f" x="540.914062"/>
      <use xlink:href="#DejaVuSans-6e" x="619.625"/>
      <use xlink:href="#DejaVuSans-73" x="683.003906"/>
      <use xlink:href="#DejaVuSans-65" x="735.103516"/>
      <use xlink:href="#DejaVuSans-74" x="796.626953"/>
      <use xlink:href="#DejaVuSans-20" x="835.835938"/>
      <use xlink:href="#DejaVuSans-28" x="867.623047"/>
      <use xlink:href="#DejaVuSans-73" x="906.636719"/>
      <use xlink:href="#DejaVuSans-29" x="958.736328"/>
     </g>
    </g>
   </g>
   <g id="matplotlib.axis_4">
    <g id="ytick_7">
     <g id="line2d_17">
      <g>
       <use xlink:href="#mf312c70f04" x="333.24375" y="242.898125" style="stroke: #000000; stroke-width: 0.8"/>
      </g>
     </g>
     <g id="text_17">
      <!-- 0.05 -->
      <g transform="translate(303.478125 246.697344) scale(0.1 -0.1)">
       <use xlink:href="#DejaVuSans-30"/>
       <use xlink:href="#DejaVuSans-2e" x="63.623047"/>
       <use xlink:href="#DejaVuSans-30" x="95.410156"/>
       <use xlink:href="#DejaVuSans-35" x="159.033203"/>
      </g>
     </g>
    </g>
    <g id="ytick_8">
     <g id="line2d_18">
      <g>
       <use xlink:href="#mf312c70f04" x="333.24375" y="198.782125" style="stroke: #000000; stroke-width: 0.8"/>
      </g>
     </g>
     <g id="text_18">
      <!-- 0.10 -->
      <g transform="translate(303.478125 202.581344) scale(0.1 -0.1)">
       <use xlink:href="#DejaVuSans-30"/>
       <use xlink:href="#DejaVuSans-2e" x="63.623047"/>
       <use xlink:href="#DejaVuSans-31" x="95.410156"/>
       <use xlink:href="#DejaVuSans-30" x="159.033203"/>
      </g>
     </g>
    </g>
    <g id="ytick_9">
     <g id="line2d_19">
      <g>
       <use xlink:href="#mf312c70f04" x="333.24375" y="154.666125" style="stroke: #000000; stroke-width: 0.8"/>
      </g>
     </g>
     <g id="text_19">
      <!-- 0.15 -->
      <g transform="translate(303.478125 158.465344) scale(0.1 -0.1)">
       <use xlink:href="#DejaVuSans-30"/>
       <use xlink:href="#DejaVuSans-2e" x="63.623047"/>
       <use xlink:href="#DejaVuSans-31" x="95.410156"/>
       <use xlink:href="#DejaVuSans-35" x="159.033203"/>
      </g>
     </g>
    </g>
    <g id="ytick_10">
     <g id="line2d_20">
      <g>
       <use xlink:href="#mf312c70f04" x="333.24375" y="110.550125" style="stroke: #000000; stroke-width: 0.8"/>
      </g>
     </g>
     <g id="text_20">
      <!-- 0.20 -->
      <g transform="translate(303.478125 114.349344) scale(0.1 -0.1)">
       <use xlink:href="#DejaVuSans-30"/>
       <use xlink:href="#DejaVuSans-2e" x="63.623047"/>
       <use xlink:href="#DejaVuSans-32" x="95.410156"/>
       <use xlink:href="#DejaVuSans-30" x="159.033203"/>
      </g>
     </g>
    </g>
    <g id="ytick_11">
     <g id="line2d_21">
      <g>
       <use xlink:href="#mf312c70f04" x="333.24375" y="66.434125" style="stroke: #000000; stroke-width: 0.8"/>
      </g>
     </g>
     <g id="text_21">
      <!-- 0.25 -->
      <g transform="translate(303.478125 70.233344) scale(0.1 -0.1)">
       <use xlink:href="#DejaVuSans-30"/>
       <use xlink:href="#DejaVuSans-2e" x="63.623047"/>
       <use xlink:href="#DejaVuSans-32" x="95.410156"/>
       <use xlink:href="#DejaVuSans-35" x="159.033203"/>
      </g>
     </g>
    </g>
    <g id="ytick_12">
     <g id="line2d_22">
      <g>
       <use xlink:href="#mf312c70f04" x="333.24375" y="22.318125" style="stroke: #000000; stroke-width: 0.8"/>
      </g>
     </g>
     <g id="text_22">
      <!-- 0.30 -->
      <g transform="translate(303.478125 26.117344) scale(0.1 -0.1)">
       <use xlink:href="#DejaVuSans-30"/>
       <use xlink:href="#DejaVuSans-2e" x="63.623047"/>
       <use xlink:href="#DejaVuSans-33" x="95.410156"/>
       <use xlink:href="#DejaVuSans-30" x="159.033203"/>
      </g>
     </g>
    </g>
    <g id="text_23">
     <!-- Accuracy -->
     <g transform="translate(297.398437 155.43625) rotate(-90) scale(0.1 -0.1)">
      <use xlink:href="#DejaVuSans-41"/>
      <use xlink:href="#DejaVuSans-63" x="66.658203"/>
      <use xlink:href="#DejaVuSans-63" x="121.638672"/>
      <use xlink:href="#DejaVuSans-75" x="176.619141"/>
      <use xlink:href="#DejaVuSans-72" x="239.998047"/>
      <use xlink:href="#DejaVuSans-61" x="281.111328"/>
      <use xlink:href="#DejaVuSans-63" x="342.390625"/>
      <use xlink:href="#DejaVuSans-79" x="397.371094"/>
     </g>
    </g>
   </g>
   <g id="line2d_23">
    <path d="M 333.24375 189.076605 
L 561.68375 189.076605 
" clip-path="url(#p526eda796d)" style="fill: none; stroke-dasharray: 5.55,2.4; stroke-dashoffset: 0; stroke: #000000; stroke-width: 1.5"/>
   </g>
   <g id="line2d_24">
    <path d="M 403.532981 242.898125 
L 403.532981 22.318125 
" clip-path="url(#p526eda796d)" style="fill: none; stroke-dasharray: 1.5,2.475; stroke-dashoffset: 0; stroke: #000000; stroke-opacity: 0.3; stroke-width: 1.5"/>
   </g>
   <g id="line2d_25">
    <path d="M 333.24375 212.805326 
L 335.000981 211.566718 
L 336.758212 210.597372 
L 338.515442 209.143354 
L 340.272673 205.858349 
L 342.029904 204.296625 
L 343.787135 203.434984 
L 345.544365 204.350478 
L 347.301596 205.427528 
L 349.058827 204.18892 
L 350.816058 200.79621 
L 352.573288 198.642108 
L 354.330519 194.064643 
L 356.08775 189.864145 
L 357.844981 187.279223 
L 359.602212 184.478891 
L 366.631135 184.909711 
L 368.388365 182.863314 
L 370.145596 179.093637 
L 371.902827 175.754779 
L 373.660058 174.570023 
L 375.417288 172.739037 
L 377.174519 170.26182 
L 378.93175 169.077064 
L 380.688981 170.369525 
L 382.446212 171.446576 
L 384.203442 172.308217 
L 385.960673 174.462318 
L 387.717904 176.885683 
L 389.475135 178.824374 
L 391.232365 180.278393 
L 392.989596 181.032328 
L 394.746827 179.686015 
L 396.504058 175.431664 
L 398.261288 170.154115 
L 400.018519 161.430004 
L 401.77575 155.075404 
L 403.532981 151.090316 
L 405.290212 151.736547 
L 408.804673 152.598187 
L 410.561904 152.382777 
L 412.319135 152.705893 
L 414.076365 159.599018 
L 417.590827 168.861654 
L 419.348058 170.154115 
L 421.105288 170.908051 
L 422.862519 168.215424 
L 424.61975 164.768861 
L 426.376981 163.691811 
L 428.134212 164.984271 
L 431.648673 171.123461 
L 433.405904 174.785434 
L 435.163135 177.26265 
L 436.920365 180.116835 
L 438.677596 180.332245 
L 440.434827 181.409296 
L 442.192058 182.324789 
L 443.949288 184.425038 
L 445.706519 182.001674 
L 447.46375 177.370355 
L 449.220981 172.200512 
L 450.978212 164.445746 
L 454.492673 155.82934 
L 458.007135 158.521967 
L 459.764365 159.706723 
L 461.521596 161.106889 
L 463.278827 161.645414 
L 465.036058 160.460658 
L 466.793288 157.229506 
L 468.550519 155.61393 
L 470.30775 153.136713 
L 472.064981 152.813598 
L 473.822212 153.136713 
L 475.579442 151.844252 
L 477.336673 148.289984 
L 479.093904 146.028178 
L 480.851135 143.335551 
L 482.608365 144.197191 
L 484.365596 144.089486 
L 486.122827 144.735717 
L 487.880058 145.058832 
L 489.637288 144.951127 
L 491.394519 145.812768 
L 493.15175 144.628012 
L 494.908981 142.797025 
L 496.666212 139.027348 
L 498.423442 138.165707 
L 500.180673 141.504564 
L 501.937904 146.028178 
L 503.695135 151.090316 
L 507.209596 164.014926 
L 508.966827 169.831 
L 510.724058 175.216254 
L 512.481288 179.901425 
L 514.238519 181.893969 
L 515.99575 180.816918 
L 517.752981 177.316503 
L 519.510212 175.862484 
L 521.267442 175.000844 
L 523.024673 177.154945 
L 524.781904 180.278393 
L 526.539135 180.601508 
L 528.296365 182.001674 
L 530.053596 184.26348 
L 531.810827 185.879057 
L 533.568058 185.017416 
L 535.325288 183.61725 
L 537.082519 183.563397 
L 538.83975 182.755609 
L 540.596981 180.709213 
L 544.111442 172.308217 
L 545.868673 169.077064 
L 547.625904 166.169027 
L 549.383135 167.676898 
L 551.140365 167.353783 
L 552.897596 168.107719 
L 554.654827 169.61559 
L 556.412058 171.446576 
L 558.169288 172.954447 
L 559.926519 175.216254 
L 561.68375 178.393554 
L 561.68375 178.393554 
" clip-path="url(#p526eda796d)" style="fill: none; stroke: #f14432; stroke-width: 1.5; stroke-linecap: square"/>
   </g>
   <g id="line2d_26">
    <path d="M 333.24375 189.487177 
L 335.000981 189.864145 
L 336.758212 188.679389 
L 338.515442 188.356273 
L 342.029904 190.294965 
L 343.787135 189.594882 
L 345.544365 190.294965 
L 347.301596 188.787094 
L 349.058827 189.594882 
L 350.816058 189.002504 
L 352.573288 188.625536 
L 354.330519 187.00996 
L 356.08775 187.22537 
L 357.844981 187.279223 
L 359.602212 187.979306 
L 361.359442 187.333075 
L 363.116673 188.087011 
L 364.873904 187.386928 
L 366.631135 186.525287 
L 368.388365 187.710043 
L 371.902827 186.902255 
L 373.660058 188.787094 
L 375.417288 187.44078 
L 377.174519 187.979306 
L 378.93175 187.65619 
L 380.688981 189.002504 
L 382.446212 189.433324 
L 384.203442 189.702587 
L 385.960673 189.433324 
L 387.717904 191.0489 
L 389.475135 191.264311 
L 391.232365 191.102753 
L 392.989596 189.810292 
L 394.746827 190.133407 
L 396.504058 190.241112 
L 401.77575 191.964394 
L 403.532981 190.510375 
L 405.290212 191.210458 
L 407.047442 192.826034 
L 408.804673 192.179804 
L 410.561904 191.372016 
L 412.319135 190.83349 
L 414.076365 191.102753 
L 415.833596 190.671933 
L 417.590827 190.887343 
L 419.348058 191.856688 
L 421.105288 191.264311 
L 422.862519 189.810292 
L 424.61975 190.241112 
L 426.376981 189.164062 
L 428.134212 187.871601 
L 429.891442 188.517831 
L 431.648673 188.733241 
L 435.163135 188.625536 
L 438.677596 188.948651 
L 440.434827 189.756439 
L 442.192058 188.840946 
L 445.706519 188.248568 
L 447.46375 188.517831 
L 449.220981 188.194716 
L 452.735442 189.002504 
L 454.492673 188.625536 
L 456.249904 187.386928 
L 458.007135 187.548485 
L 459.764365 187.871601 
L 461.521596 189.217914 
L 463.278827 188.463979 
L 465.036058 188.140863 
L 466.793288 189.648734 
L 468.550519 190.241112 
L 470.30775 188.302421 
L 472.064981 188.733241 
L 473.822212 189.002504 
L 475.579442 188.463979 
L 477.336673 189.056356 
L 479.093904 189.379472 
L 480.851135 188.787094 
L 482.608365 187.925453 
L 484.365596 187.710043 
L 486.122827 188.410126 
L 487.880058 188.894799 
L 489.637288 189.541029 
L 491.394519 189.217914 
L 493.15175 189.97185 
L 494.908981 189.648734 
L 496.666212 190.348817 
L 500.180673 186.740697 
L 501.937904 186.740697 
L 503.695135 188.194716 
L 505.452365 188.517831 
L 507.209596 187.279223 
L 508.966827 188.194716 
L 510.724058 187.925453 
L 512.481288 188.194716 
L 514.238519 188.625536 
L 515.99575 186.956107 
L 521.267442 188.948651 
L 523.024673 187.494633 
L 524.781904 188.033158 
L 526.539135 188.410126 
L 528.296365 188.033158 
L 530.053596 187.494633 
L 531.810827 187.979306 
L 533.568058 190.079555 
L 535.325288 190.18726 
L 537.082519 190.025702 
L 538.83975 189.433324 
L 542.354212 189.325619 
L 544.111442 189.756439 
L 545.868673 190.510375 
L 547.625904 191.695131 
L 549.383135 191.102753 
L 551.140365 191.102753 
L 552.897596 189.97185 
L 554.654827 190.779638 
L 556.412058 189.433324 
L 558.169288 189.541029 
L 559.926519 189.810292 
L 561.68375 191.102753 
L 561.68375 191.102753 
" clip-path="url(#p526eda796d)" style="fill: none; stroke: #4a98c9; stroke-width: 1.5; stroke-linecap: square"/>
   </g>
   <g id="patch_88">
    <path d="M 333.24375 242.898125 
L 333.24375 22.318125 
" style="fill: none; stroke: #000000; stroke-width: 0.8; stroke-linejoin: miter; stroke-linecap: square"/>
   </g>
   <g id="patch_89">
    <path d="M 333.24375 242.898125 
L 561.68375 242.898125 
" style="fill: none; stroke: #000000; stroke-width: 0.8; stroke-linejoin: miter; stroke-linecap: square"/>
   </g>
   <g id="text_24">
    <!-- resp -->
    <g transform="translate(434.505625 16.318125) scale(0.12 -0.12)">
     <use xlink:href="#DejaVuSans-72"/>
     <use xlink:href="#DejaVuSans-65" x="38.863281"/>
     <use xlink:href="#DejaVuSans-73" x="100.386719"/>
     <use xlink:href="#DejaVuSans-70" x="152.486328"/>
    </g>
   </g>
  </g>
 </g>
 <defs>
  <clipPath id="pb6315fd28c">
   <rect x="50.64375" y="22.318125" width="228.44" height="220.58"/>
  </clipPath>
  <clipPath id="p526eda796d">
   <rect x="333.24375" y="22.318125" width="228.44" height="220.58"/>
  </clipPath>
 </defs>
</svg>
